<svg width="248" height="235" viewBox="0 0 248 235" fill="none" xmlns="http://www.w3.org/2000/svg">
<path d="M8.8064 164.255L14.018 214.219" stroke="#263238" stroke-miterlimit="10"/>
<path d="M13.1782 204.656L10.8145 202.158" stroke="#263238" stroke-miterlimit="10"/>
<path d="M11.5253 202.91C11.5208 202.528 11.4349 202.151 11.2733 201.804C11.1117 201.458 10.8781 201.15 10.588 200.901C9.98036 200.361 6.78745 199.016 6.46816 200.139C6.15917 201.365 9.42932 203.744 11.5253 202.91Z" fill="#3362CC" stroke="#263238" stroke-miterlimit="10"/>
<path d="M11.5304 202.91L8.49194 201.015" stroke="#263238" stroke-width="0.5" stroke-miterlimit="10"/>
<path d="M13.7705 210.336L11.4067 207.843" stroke="#263238" stroke-miterlimit="10"/>
<path d="M12.1229 208.59C12.12 208.208 12.0348 207.832 11.8731 207.486C11.7113 207.14 11.4768 206.834 11.1856 206.587C10.5779 206.041 7.38504 204.697 7.06575 205.825C6.7516 207.045 10.0218 209.45 12.1229 208.59Z" fill="#3362CC" stroke="#263238" stroke-miterlimit="10"/>
<path d="M12.1229 208.59L9.08447 206.695" stroke="#263238" stroke-width="0.5" stroke-miterlimit="10"/>
<path d="M11.7315 190.792L9.36768 188.294" stroke="#263238" stroke-miterlimit="10"/>
<path d="M10.0831 189.041C10.0782 188.66 9.99211 188.284 9.83049 187.938C9.66887 187.593 9.43546 187.286 9.14583 187.038C8.53815 186.492 5.34524 185.153 5.02595 186.276C4.71181 187.496 7.98197 189.901 10.0831 189.041Z" fill="#3362CC" stroke="#263238" stroke-miterlimit="10"/>
<path d="M10.0838 189.041L7.04541 187.146" stroke="#263238" stroke-width="0.5" stroke-miterlimit="10"/>
<path d="M12.3233 196.472L9.95947 193.975" stroke="#263238" stroke-miterlimit="10"/>
<path d="M10.6756 194.721C10.6724 194.34 10.5871 193.963 10.4253 193.618C10.2636 193.272 10.0293 192.965 9.73836 192.718C9.13068 192.203 5.93777 190.833 5.61848 191.956C5.30434 193.182 8.57449 195.581 10.6756 194.721Z" fill="#3362CC" stroke="#263238" stroke-miterlimit="10"/>
<path d="M10.6756 194.721L7.63721 192.831" stroke="#263238" stroke-width="0.5" stroke-miterlimit="10"/>
<path d="M10.7686 181.558L8.40479 179.061" stroke="#263238" stroke-miterlimit="10"/>
<path d="M9.12049 179.813C9.11601 179.431 9.0301 179.054 8.86847 178.707C8.70685 178.361 8.47324 178.053 8.18322 177.804C7.57553 177.264 4.38263 175.919 4.06333 177.047C3.74919 178.268 7.0142 180.673 9.12049 179.813Z" fill="#3362CC" stroke="#263238" stroke-miterlimit="10"/>
<path d="M9.1202 179.813L6.08179 177.917" stroke="#263238" stroke-width="0.5" stroke-miterlimit="10"/>
<path d="M9.80031 172.289L7.43652 169.791" stroke="#263238" stroke-miterlimit="10"/>
<path d="M8.15227 170.538C8.14739 170.156 8.06127 169.781 7.89965 169.435C7.73803 169.09 7.50462 168.783 7.21499 168.535C6.60731 167.994 3.4144 166.65 3.09511 167.772C2.77067 168.998 6.05113 171.398 8.15227 170.538Z" fill="#3362CC" stroke="#263238" stroke-miterlimit="10"/>
<path d="M8.15243 170.538L5.11401 168.648" stroke="#263238" stroke-width="0.5" stroke-miterlimit="10"/>
<path d="M12.7817 201.293L14.579 198.362" stroke="#263238" stroke-miterlimit="10"/>
<path d="M14.0284 199.243C13.9551 198.868 13.9631 198.481 14.0519 198.108C14.1408 197.736 14.3083 197.387 14.5434 197.085C15.0223 196.431 17.8702 194.459 18.4006 195.494C18.9671 196.622 16.2686 199.65 14.0284 199.243Z" fill="#3362CC" stroke="#263238" stroke-miterlimit="10"/>
<path d="M14.0278 199.243L16.7676 196.627" stroke="#263238" stroke-width="0.5" stroke-miterlimit="10"/>
<path d="M11.2217 186.343L13.019 183.407" stroke="#263238" stroke-miterlimit="10"/>
<path d="M12.468 184.288C12.3947 183.913 12.4028 183.527 12.4917 183.156C12.5805 182.784 12.748 182.436 12.983 182.135C13.4619 181.476 16.3098 179.504 16.8402 180.544C17.4067 181.672 14.7082 184.69 12.468 184.288Z" fill="#3362CC" stroke="#263238" stroke-miterlimit="10"/>
<path d="M12.4678 184.288L15.2075 181.672" stroke="#263238" stroke-width="0.5" stroke-miterlimit="10"/>
<path d="M10.5317 179.772L12.3342 176.836" stroke="#263238" stroke-miterlimit="10"/>
<path d="M11.7826 177.717C11.7097 177.342 11.7179 176.956 11.8067 176.585C11.8956 176.213 12.0629 175.865 12.2975 175.564C12.7816 174.905 15.6295 172.932 16.1548 173.973C16.7213 175.101 14.0176 178.124 11.7826 177.717Z" fill="#3362CC" stroke="#263238" stroke-miterlimit="10"/>
<path d="M11.7827 177.717L14.5224 175.101" stroke="#263238" stroke-width="0.5" stroke-miterlimit="10"/>
<path d="M9.5271 170.136L11.3244 167.206" stroke="#263238" stroke-miterlimit="10"/>
<path d="M10.7784 168.087C10.7058 167.711 10.7141 167.324 10.8029 166.952C10.8917 166.58 11.0589 166.231 11.2934 165.929C11.7775 165.275 14.6253 163.297 15.1506 164.337C15.7171 165.465 13.0134 168.493 10.7784 168.087Z" fill="#3362CC" stroke="#263238" stroke-miterlimit="10"/>
<path d="M10.7788 168.087L13.5134 165.47" stroke="#263238" stroke-width="0.5" stroke-miterlimit="10"/>
<path d="M8.76009 163.977C8.68745 163.601 8.69581 163.215 8.78462 162.842C8.87343 162.47 9.04064 162.121 9.27507 161.819C9.75916 161.165 12.607 159.193 13.1323 160.228C13.6988 161.356 11.0106 164.384 8.76009 163.977Z" fill="#3362CC" stroke="#263238" stroke-miterlimit="10"/>
<path d="M8.76001 163.977L11.4997 161.361" stroke="#263238" stroke-width="0.5" stroke-miterlimit="10"/>
<path d="M8.91963 164.09C8.53912 164.124 8.15568 164.077 7.79506 163.951C7.43443 163.825 7.10496 163.623 6.82879 163.359C6.22626 162.813 4.56285 159.754 5.64947 159.357C6.83394 158.904 9.55821 161.907 8.91963 164.09Z" fill="#3362CC" stroke="#263238" stroke-miterlimit="10"/>
<path d="M8.91948 164.09L6.60205 161.093" stroke="#263238" stroke-width="0.5" stroke-miterlimit="10"/>
<path d="M22.5563 171.135L17.3704 221.104" stroke="#263238" stroke-miterlimit="10"/>
<path d="M18.5187 211.572L16.7214 208.642" stroke="#263238" stroke-miterlimit="10"/>
<path d="M17.2675 209.522C17.3409 209.147 17.3328 208.76 17.244 208.387C17.1552 208.015 16.9876 207.666 16.7526 207.364C16.2736 206.71 13.4258 204.738 12.8953 205.778C12.3288 206.906 15.0325 209.924 17.2675 209.522Z" fill="#3362CC" stroke="#263238" stroke-miterlimit="10"/>
<path d="M17.2674 209.522L14.6821 207.04" stroke="#263238" stroke-width="0.5" stroke-miterlimit="10"/>
<path d="M19.9557 197.703L18.1584 194.773" stroke="#263238" stroke-miterlimit="10"/>
<path d="M18.7044 195.654C18.7773 195.279 18.7691 194.893 18.6802 194.522C18.5914 194.15 18.424 193.802 18.1894 193.501C17.7053 192.842 14.8678 190.869 14.3425 191.899C13.7657 193.038 16.4694 196.06 18.7044 195.654Z" fill="#3362CC" stroke="#263238" stroke-miterlimit="10"/>
<path d="M18.7041 195.654L16.124 193.177" stroke="#263238" stroke-width="0.5" stroke-miterlimit="10"/>
<path d="M19.3684 203.389L17.5659 200.458" stroke="#263238" stroke-miterlimit="10"/>
<path d="M18.1169 201.339C18.1902 200.964 18.1822 200.577 18.0934 200.204C18.0045 199.832 17.837 199.483 17.6019 199.181C17.123 198.527 14.2751 196.555 13.7447 197.595C13.1782 198.723 15.8819 201.746 18.1169 201.339Z" fill="#3362CC" stroke="#263238" stroke-miterlimit="10"/>
<path d="M18.117 201.339L15.5317 198.857" stroke="#263238" stroke-width="0.5" stroke-miterlimit="10"/>
<path d="M20.9135 188.475L19.1162 185.544" stroke="#263238" stroke-miterlimit="10"/>
<path d="M19.6623 186.425C19.735 186.049 19.7266 185.663 19.6378 185.291C19.549 184.918 19.3818 184.57 19.1473 184.267C18.6632 183.613 15.8154 181.641 15.2901 182.681C14.7236 183.809 17.4273 186.832 19.6623 186.425Z" fill="#3362CC" stroke="#263238" stroke-miterlimit="10"/>
<path d="M19.6621 186.425L17.082 183.943" stroke="#263238" stroke-width="0.5" stroke-miterlimit="10"/>
<path d="M21.8764 179.2L20.0791 176.275" stroke="#263238" stroke-miterlimit="10"/>
<path d="M20.6252 177.15C20.6981 176.775 20.6898 176.389 20.601 176.018C20.5121 175.647 20.3448 175.299 20.1102 174.998C19.6261 174.344 16.7782 172.371 16.2478 173.406C15.6865 174.534 18.3901 177.562 20.6252 177.15Z" fill="#3362CC" stroke="#263238" stroke-miterlimit="10"/>
<path d="M20.6253 177.15L18.04 174.673" stroke="#263238" stroke-width="0.5" stroke-miterlimit="10"/>
<path d="M18.8225 208.199L21.1863 205.701" stroke="#263238" stroke-miterlimit="10"/>
<path d="M20.4653 206.448C20.4705 206.066 20.5573 205.69 20.7198 205.344C20.8824 204.999 21.1169 204.692 21.4078 204.444C22.0103 203.904 25.2032 202.56 25.5276 203.682C25.8366 204.903 22.5716 207.308 20.4653 206.448Z" fill="#3362CC" stroke="#263238" stroke-miterlimit="10"/>
<path d="M20.4653 206.448L23.684 204.455" stroke="#263238" stroke-width="0.5" stroke-miterlimit="10"/>
<path d="M20.3728 193.244L22.7366 190.746" stroke="#263238" stroke-miterlimit="10"/>
<path d="M22.0159 191.498C22.0207 191.115 22.1072 190.738 22.2698 190.391C22.4323 190.045 22.6671 189.737 22.9583 189.489C23.566 188.949 26.7589 187.604 27.0782 188.727C27.3923 189.953 24.1222 192.353 22.0159 191.498Z" fill="#3362CC" stroke="#263238" stroke-miterlimit="10"/>
<path d="M22.0159 191.498L25.2345 189.5" stroke="#263238" stroke-width="0.5" stroke-miterlimit="10"/>
<path d="M21.0579 186.672L23.4165 184.175" stroke="#263238" stroke-miterlimit="10"/>
<path d="M22.7007 184.926C22.7052 184.544 22.7911 184.167 22.9527 183.821C23.1143 183.475 23.3479 183.167 23.638 182.918C24.2456 182.377 27.4385 181.033 27.7578 182.156C28.072 183.376 24.807 185.781 22.7007 184.926Z" fill="#3362CC" stroke="#263238" stroke-miterlimit="10"/>
<path d="M22.7007 184.926L25.9193 182.928" stroke="#263238" stroke-width="0.5" stroke-miterlimit="10"/>
<path d="M22.0569 177.042L24.4155 174.539" stroke="#263238" stroke-miterlimit="10"/>
<path d="M23.6997 175.291C23.7042 174.909 23.7901 174.532 23.9517 174.186C24.1133 173.839 24.347 173.532 24.637 173.283C25.2447 172.742 28.4376 171.398 28.7569 172.52C29.071 173.746 25.806 176.151 23.6997 175.291Z" fill="#3362CC" stroke="#263238" stroke-miterlimit="10"/>
<path d="M23.6997 175.291L26.9184 173.293" stroke="#263238" stroke-width="0.5" stroke-miterlimit="10"/>
<path d="M22.572 170.852C22.5769 170.471 22.663 170.095 22.8246 169.749C22.9863 169.404 23.2197 169.097 23.5093 168.849C24.117 168.308 27.3099 166.959 27.6292 168.086C27.9433 169.307 24.6783 171.712 22.572 170.852Z" fill="#3362CC" stroke="#263238" stroke-miterlimit="10"/>
<path d="M22.572 170.852L25.7907 168.859" stroke="#263238" stroke-width="0.5" stroke-miterlimit="10"/>
<path d="M22.7004 170.996C22.3194 170.953 21.952 170.829 21.6233 170.632C21.2945 170.435 21.012 170.169 20.795 169.853C20.3212 169.194 19.317 165.877 20.4654 165.692C21.7271 165.491 23.7767 168.993 22.7004 170.996Z" fill="#3362CC" stroke="#263238" stroke-miterlimit="10"/>
<path d="M22.7002 170.996L21.0522 167.587" stroke="#263238" stroke-width="0.5" stroke-miterlimit="10"/>
<path d="M16.6135 150.788V213.977" stroke="#263238" stroke-miterlimit="10"/>
<path d="M16.6653 204.475L14.5745 201.746" stroke="#263238" stroke-miterlimit="10"/>
<path d="M15.2075 202.565C15.2435 202.185 15.1973 201.801 15.072 201.44C14.9467 201.08 14.7453 200.75 14.4814 200.474C13.9355 199.871 10.8765 198.203 10.4799 199.289C10.0268 200.474 13.0291 203.198 15.2075 202.565Z" fill="#3362CC" stroke="#263238" stroke-miterlimit="10"/>
<path d="M15.2076 202.565L12.3855 200.366" stroke="#263238" stroke-width="0.5" stroke-miterlimit="10"/>
<path d="M16.6653 192.6L14.5745 189.87" stroke="#263238" stroke-miterlimit="10"/>
<path d="M15.2075 190.689C15.2435 190.309 15.1973 189.926 15.072 189.565C14.9467 189.204 14.7453 188.874 14.4814 188.598C13.9355 187.996 10.8765 186.327 10.4799 187.414C10.0268 188.598 13.0291 191.328 15.2075 190.689Z" fill="#3362CC" stroke="#263238" stroke-miterlimit="10"/>
<path d="M15.2076 190.689L12.3855 188.49" stroke="#263238" stroke-width="0.5" stroke-miterlimit="10"/>
<path d="M16.6653 178.659L14.5745 175.93" stroke="#263238" stroke-miterlimit="10"/>
<path d="M15.2075 176.749C15.2435 176.368 15.1973 175.985 15.072 175.624C14.9467 175.263 14.7453 174.934 14.4814 174.658C13.9355 174.055 10.8765 172.387 10.4799 173.473C10.0268 174.658 13.0291 177.387 15.2075 176.749Z" fill="#3362CC" stroke="#263238" stroke-miterlimit="10"/>
<path d="M15.2076 176.749L12.3855 174.55" stroke="#263238" stroke-width="0.5" stroke-miterlimit="10"/>
<path d="M16.6653 169.379L14.5745 166.65" stroke="#263238" stroke-miterlimit="10"/>
<path d="M15.2075 167.469C15.2435 167.088 15.1973 166.705 15.072 166.344C14.9467 165.983 14.7453 165.654 14.4814 165.378C13.9355 164.775 10.8765 163.107 10.4799 164.193C10.0268 165.378 13.0291 168.102 15.2075 167.469Z" fill="#3362CC" stroke="#263238" stroke-miterlimit="10"/>
<path d="M15.2076 167.469L12.3855 165.27" stroke="#263238" stroke-width="0.5" stroke-miterlimit="10"/>
<path d="M16.6653 160.058L14.5745 157.328" stroke="#263238" stroke-miterlimit="10"/>
<path d="M15.2075 158.147C15.2435 157.767 15.1973 157.384 15.072 157.023C14.9467 156.662 14.7453 156.333 14.4814 156.056C13.9355 155.454 10.8765 153.785 10.4799 154.872C10.0268 156.056 13.0291 158.781 15.2075 158.147Z" fill="#3362CC" stroke="#263238" stroke-miterlimit="10"/>
<path d="M15.2076 158.147L12.3855 155.948" stroke="#263238" stroke-width="0.5" stroke-miterlimit="10"/>
<path d="M16.6184 208.101L18.7092 205.371" stroke="#263238" stroke-miterlimit="10"/>
<path d="M18.0758 206.19C18.0398 205.81 18.086 205.427 18.2113 205.066C18.3366 204.705 18.538 204.375 18.8019 204.099C19.3478 203.497 22.4068 201.828 22.8034 202.915C23.2566 204.099 20.28 206.834 18.0758 206.19Z" fill="#3362CC" stroke="#263238" stroke-miterlimit="10"/>
<path d="M18.0762 206.19L21.0682 203.873" stroke="#263238" stroke-width="0.5" stroke-miterlimit="10"/>
<path d="M16.6184 189.216L18.7092 186.487" stroke="#263238" stroke-miterlimit="10"/>
<path d="M18.0762 187.306C18.0387 186.924 18.0842 186.538 18.2095 186.176C18.3348 185.813 18.5371 185.482 18.8024 185.205C19.3482 184.602 22.4073 182.933 22.8038 184.02C23.257 185.205 20.2804 187.939 18.0762 187.306Z" fill="#3362CC" stroke="#263238" stroke-miterlimit="10"/>
<path d="M18.0762 187.306L21.0682 184.988" stroke="#263238" stroke-width="0.5" stroke-miterlimit="10"/>
<path d="M16.6184 179.895L18.7092 177.166" stroke="#263238" stroke-miterlimit="10"/>
<path d="M18.0758 177.995C18.0398 177.615 18.086 177.231 18.2113 176.87C18.3366 176.51 18.538 176.18 18.8019 175.904C19.3478 175.301 22.4068 173.633 22.8034 174.719C23.2566 175.894 20.28 178.618 18.0758 177.995Z" fill="#3362CC" stroke="#263238" stroke-miterlimit="10"/>
<path d="M18.0762 177.984L21.0682 175.667" stroke="#263238" stroke-width="0.5" stroke-miterlimit="10"/>
<path d="M16.6184 167.572L18.7092 164.842" stroke="#263238" stroke-miterlimit="10"/>
<path d="M18.0761 165.661C18.0409 165.282 18.0875 164.899 18.2127 164.539C18.338 164.179 18.539 163.851 18.8022 163.575C19.3481 162.973 22.4071 161.304 22.8037 162.396C23.2569 163.575 20.2802 166.299 18.0761 165.661Z" fill="#3362CC" stroke="#263238" stroke-miterlimit="10"/>
<path d="M18.0762 165.661L21.0682 163.343" stroke="#263238" stroke-width="0.5" stroke-miterlimit="10"/>
<path d="M16.6184 157.885L18.7092 155.16" stroke="#263238" stroke-miterlimit="10"/>
<path d="M18.0759 155.979C18.0398 155.598 18.086 155.214 18.2112 154.852C18.3365 154.491 18.538 154.16 18.802 153.883C19.3479 153.281 22.4069 151.617 22.8034 152.704C23.2566 153.883 20.28 156.613 18.0759 155.979Z" fill="#3362CC" stroke="#263238" stroke-miterlimit="10"/>
<path d="M18.0762 155.979L21.0682 153.656" stroke="#263238" stroke-width="0.5" stroke-miterlimit="10"/>
<path d="M16.4948 151.679C16.4588 151.299 16.505 150.915 16.6303 150.555C16.7556 150.194 16.957 149.864 17.2209 149.588C17.7668 148.986 20.8258 147.317 21.2223 148.409C21.6755 149.588 18.6783 152.318 16.4948 151.679Z" fill="#3362CC" stroke="#263238" stroke-miterlimit="10"/>
<path d="M16.4951 151.679L19.4872 149.362" stroke="#263238" stroke-width="0.5" stroke-miterlimit="10"/>
<path d="M16.639 151.808C16.2537 151.805 15.8734 151.72 15.5241 151.557C15.1749 151.395 14.8648 151.159 14.6151 150.865C14.1001 150.258 12.7354 147.065 13.8581 146.745C15.1301 146.436 17.5042 149.707 16.639 151.808Z" fill="#3362CC" stroke="#263238" stroke-miterlimit="10"/>
<path d="M16.639 151.808L14.646 148.589" stroke="#263238" stroke-width="0.5" stroke-miterlimit="10"/>
<path d="M19.2141 230.364H12.5245L11.6851 213.462H20.0484L19.2141 230.364Z" fill="#263238" stroke="#263238" stroke-miterlimit="10"/>
<g opacity="0.3">
<path opacity="0.3" d="M153.852 11.3816H137.439V18.0506H153.852V11.3816Z" stroke="black" stroke-linejoin="round"/>
<path opacity="0.3" d="M175.389 11.3816H158.976V18.0506H175.389V11.3816Z" stroke="black" stroke-linejoin="round"/>
<path opacity="0.3" d="M164.111 22.6649H147.698V29.334H164.111V22.6649Z" stroke="black" stroke-linejoin="round"/>
<path opacity="0.3" d="M153.852 103.42H137.439V110.089H153.852V103.42Z" stroke="black" stroke-linejoin="round"/>
<path opacity="0.3" d="M175.389 103.42H158.976V110.089H175.389V103.42Z" stroke="black" stroke-linejoin="round"/>
<path opacity="0.3" d="M164.111 114.698H147.698V121.367H164.111V114.698Z" stroke="black" stroke-linejoin="round"/>
<path opacity="0.3" d="M203.595 23.1801H187.182V29.8491H203.595V23.1801Z" stroke="black" stroke-linejoin="round"/>
<path opacity="0.3" d="M225.136 23.1801H208.724V29.8491H225.136V23.1801Z" stroke="black" stroke-linejoin="round"/>
<path opacity="0.3" d="M213.853 34.4633H197.44V41.1323H213.853V34.4633Z" stroke="black" stroke-linejoin="round"/>
<path opacity="0.3" d="M203.595 84.7208H187.182V91.3899H203.595V84.7208Z" stroke="black" stroke-linejoin="round"/>
<path opacity="0.3" d="M225.136 84.7208H208.724V91.3899H225.136V84.7208Z" stroke="black" stroke-linejoin="round"/>
<path opacity="0.3" d="M213.853 95.9988H197.44V102.668H213.853V95.9988Z" stroke="black" stroke-linejoin="round"/>
<path opacity="0.3" d="M57.9519 46.7714H41.5393V53.4404H57.9519V46.7714Z" stroke="black" stroke-linejoin="round"/>
<path opacity="0.3" d="M79.4934 46.7714H63.0808V53.4404H79.4934V46.7714Z" stroke="black" stroke-linejoin="round"/>
<path opacity="0.3" d="M68.2099 58.0497H51.7974V64.7187H68.2099V58.0497Z" stroke="black" stroke-linejoin="round"/>
<path opacity="0.3" d="M96.9258 14.4612H80.5132V21.1302H96.9258V14.4612Z" stroke="black" stroke-linejoin="round"/>
<path opacity="0.3" d="M85.6474 25.7445H69.2349V32.4136H85.6474V25.7445Z" stroke="black" stroke-linejoin="round"/>
<path opacity="0.3" d="M204.62 177.027H188.207V183.696H204.62V177.027Z" stroke="black" stroke-linejoin="round"/>
<path opacity="0.3" d="M193.341 188.31H176.928V194.979H193.341V188.31Z" stroke="black" stroke-linejoin="round"/>
<path opacity="0.3" d="M166.67 54.9751H150.258V61.6442H166.67V54.9751Z" stroke="black" stroke-linejoin="round"/>
<path opacity="0.3" d="M26.6714 69.848H10.2588V76.5171H26.6714V69.848Z" stroke="black" stroke-linejoin="round"/>
<path opacity="0.3" d="M95.3913 177.027H78.9788V183.696H95.3913V177.027Z" stroke="black" stroke-linejoin="round"/>
<path opacity="0.3" d="M84.1076 188.31H67.6951V194.979H84.1076V188.31Z" stroke="black" stroke-linejoin="round"/>
<path opacity="0.3" d="M109.234 46.7714H92.8215V53.4404H109.234V46.7714Z" stroke="black" stroke-linejoin="round"/>
<path opacity="0.3" d="M130.776 46.7714H114.363V53.4404H130.776V46.7714Z" stroke="black" stroke-linejoin="round"/>
<path opacity="0.3" d="M119.492 58.0497H103.08V64.7187H119.492V58.0497Z" stroke="black" stroke-linejoin="round"/>
<path opacity="0.3" d="M225.136 110.362H208.724V117.031H225.136V110.362Z" stroke="black" stroke-linejoin="round"/>
<path opacity="0.3" d="M246.673 110.362H230.261V117.031H246.673V110.362Z" stroke="black" stroke-linejoin="round"/>
<path opacity="0.3" d="M235.39 121.64H218.977V128.309H235.39V121.64Z" stroke="black" stroke-linejoin="round"/>
<path opacity="0.3" d="M29.2361 150.876H12.8235V157.545H29.2361V150.876Z" stroke="black" stroke-linejoin="round"/>
<path opacity="0.3" d="M50.7727 150.876H34.3601V157.545H50.7727V150.876Z" stroke="black" stroke-linejoin="round"/>
<path opacity="0.3" d="M39.4892 162.154H23.0767V168.823H39.4892V162.154Z" stroke="black" stroke-linejoin="round"/>
</g>
<path d="M200.633 171.619C200.633 171.619 203.378 179.684 203.723 186.379C204.068 193.074 206.128 216.423 206.128 216.423C206.128 216.423 201.663 223.633 199.258 225.003C196.853 226.373 192.1 227.804 194.108 229.813C195.138 230.843 209.336 230.142 213.358 229.88C213.64 229.862 213.905 229.737 214.096 229.53C214.288 229.323 214.393 229.05 214.388 228.767C214.388 228.005 214.388 226.97 214.388 226.192C214.388 224.817 214.558 220.697 214.558 220.182C214.558 219.667 212.328 215.893 212.328 215.893C212.328 215.893 217.478 196.148 217.818 189.453C218.158 182.758 216.103 179.669 216.103 178.639C216.103 177.609 215.933 170.744 215.933 170.744L200.633 171.619Z" fill="#A47979" stroke="#263238" stroke-linejoin="round"/>
<path d="M214.388 228.767C214.388 228.005 214.388 226.97 214.388 226.192C214.388 225.291 214.46 223.221 214.512 221.753C214.218 221.789 213.899 221.836 213.564 221.887C211.535 222.191 205.644 225.492 201.833 227.552C199.073 229.02 195.442 228.906 193.655 228.731C193.644 228.936 193.681 229.14 193.763 229.328C193.846 229.516 193.971 229.682 194.129 229.813C195.159 230.843 209.357 230.142 213.379 229.88C213.657 229.857 213.916 229.73 214.104 229.523C214.291 229.317 214.393 229.046 214.388 228.767V228.767Z" fill="#A47979" stroke="#263238" stroke-linejoin="round"/>
<path d="M213.266 217.582C210.057 219.971 203.78 224.524 201.751 225.157C200.781 225.523 199.721 225.57 198.723 225.291C196.41 226.486 192.826 227.742 193.789 229.411C195.921 229.473 199.969 229.411 202.796 228.293C206.787 226.697 209.244 224.977 212.066 223.808C212.833 223.483 213.623 223.214 214.43 223.005C214.476 221.691 214.522 220.466 214.522 220.198C214.522 219.93 213.874 218.679 213.266 217.582Z" fill="#263238" stroke="#263238" stroke-linejoin="round"/>
<path d="M210.248 171.619C210.248 171.619 212.992 179.684 213.337 186.379C213.682 193.074 215.737 216.423 215.737 216.423C215.737 216.423 211.278 223.633 208.873 225.003C206.468 226.373 201.714 227.804 203.723 229.813C204.753 230.843 218.946 230.142 222.973 229.88C223.255 229.864 223.52 229.739 223.712 229.531C223.904 229.324 224.009 229.05 224.003 228.767C224.003 228.005 224.003 226.97 224.003 226.192C224.003 224.817 224.178 220.697 224.178 220.182C224.178 219.667 221.943 215.893 221.943 215.893C221.943 215.893 227.093 196.148 227.438 189.453C227.783 182.758 225.723 179.669 225.723 178.639C225.723 177.609 225.548 170.744 225.548 170.744L210.248 171.619Z" fill="#A47979" stroke="#263238" stroke-linejoin="round"/>
<path d="M223.998 228.767C223.998 228.005 223.998 226.97 223.998 226.192C223.998 225.291 224.07 223.221 224.121 221.753C223.828 221.789 223.514 221.836 223.179 221.887C221.15 222.191 215.253 225.492 211.448 227.552C208.687 229.02 205.057 228.906 203.27 228.731C203.257 228.936 203.294 229.141 203.376 229.329C203.459 229.517 203.585 229.683 203.743 229.813C204.773 230.843 218.966 230.142 222.994 229.88C223.271 229.857 223.53 229.73 223.717 229.523C223.903 229.316 224.004 229.046 223.998 228.767V228.767Z" fill="#A47979" stroke="#263238" stroke-linejoin="round"/>
<path d="M222.881 217.582C219.672 219.971 213.389 224.524 211.366 225.157C210.396 225.523 209.335 225.57 208.337 225.291C206.025 226.486 202.441 227.742 203.404 229.411C205.531 229.473 209.584 229.411 212.411 228.293C216.402 226.697 218.859 224.977 221.681 223.808C222.453 223.484 223.248 223.217 224.06 223.01C224.106 221.697 224.153 220.471 224.153 220.203C224.153 219.935 223.483 218.679 222.881 217.582Z" fill="#263238" stroke="#263238" stroke-linejoin="round"/>
<path d="M215.974 47.3174C215.974 47.3174 219.775 53.3428 222.525 54.2955C225.275 55.2482 233.304 55.1401 235.946 57.4626C238.587 59.7852 237.321 67.3967 235.431 71.2025C233.541 75.0082 237.758 74.5859 240.292 76.5944C242.826 78.6028 242.197 83.8041 239.87 86.3121C237.542 88.8201 231.944 90.7513 231.944 90.7513C231.944 90.7513 230.888 85.6787 227.824 83.7784C224.76 81.8781 219.368 79.5504 218.524 75.4305C217.679 71.3106 214.193 63.6991 214.193 63.6991C214.193 63.6991 218.312 62.113 218.101 57.5708C217.89 53.0286 214.193 48.9036 213.981 47.9509C213.77 46.9982 214.574 46.5759 215.974 47.3174Z" fill="#263238" stroke="#263238" stroke-linejoin="round"/>
<path d="M187.759 125.698C187.759 125.698 179.905 125.054 179.261 125.054C178.618 125.054 175.657 128.531 175.399 129.174C175.142 129.818 175.528 131.878 175.528 131.878L189.046 128.016L187.759 125.698Z" fill="#A47979" stroke="#263238" stroke-linejoin="round"/>
<path d="M181.028 121.547L180.441 130.333H181.213L181.95 121.614C181.959 121.5 181.924 121.386 181.852 121.296C181.78 121.206 181.677 121.147 181.563 121.13C181.5 121.118 181.435 121.12 181.373 121.135C181.311 121.15 181.252 121.179 181.202 121.218C181.151 121.258 181.109 121.307 181.079 121.364C181.049 121.421 181.032 121.483 181.028 121.547V121.547Z" fill="#263238" stroke="#263238" stroke-linejoin="round"/>
<path d="M199.474 116.042L187.759 125.698L189.046 128.016L198.444 124.153L199.474 116.042Z" fill="#3362CC" stroke="#263238" stroke-linejoin="round"/>
<path d="M194.562 133.48C194.562 133.48 193.99 155.305 193.99 159.301C193.99 163.297 194.701 171.3 194.701 171.3C194.701 171.3 197.559 173.015 209.682 173.581C221.804 174.148 229.658 171.444 229.658 171.444C229.658 171.444 232.367 149.187 232.655 144.335C232.943 139.484 232.794 134.922 232.794 134.922L194.562 133.48Z" fill="#37474F" stroke="#263238" stroke-linejoin="round"/>
<path d="M211.19 78.1907C211.19 78.1907 203.466 80.6369 202.693 82.5681C201.921 84.4993 200.376 92.4815 200.376 92.4815C200.376 92.4815 198.444 100.335 198.573 101.751C198.702 103.167 200.762 106.644 200.762 107.03C200.762 107.416 193.423 136.127 193.423 136.127C193.423 136.127 198.573 139.216 210.289 139.731C222.005 140.246 234.236 136.77 234.236 136.77C234.236 136.77 232.433 122.479 231.146 119.647C229.859 116.815 228.571 108.446 228.571 108.446C228.571 108.446 234.88 86.5592 233.077 82.6968C231.275 78.8344 220.203 75.3583 220.203 75.3583L211.19 78.1907Z" fill="#3362CC" stroke="#263238" stroke-linejoin="round"/>
<path d="M224.755 77.0577C222.262 76.0277 220.202 75.3634 220.202 75.3634L211.19 78.1958C211.19 78.1958 208.991 78.891 206.818 79.8386C206.478 81.6411 205.577 87.0484 206.426 89.783C207.456 93.1304 208.1 96.349 208.1 96.349C208.1 96.349 214.795 89.783 218.657 86.8218C221.464 84.664 223.725 79.8644 224.755 77.0577Z" fill="#3362CC" stroke="#263238" stroke-linejoin="round"/>
<path d="M196.091 63.1531C196.091 63.1531 197.286 67.1031 198.208 67.8395C199.13 68.5759 199.495 68.8695 199.495 68.8695C199.495 68.8695 199.217 74.0193 200.227 74.3849C200.549 74.4835 200.889 74.5097 201.223 74.4617C201.557 74.4136 201.876 74.2925 202.158 74.1068C202.158 74.1068 207.03 79.3442 207.673 79.6223C208.317 79.9004 210.15 78.4276 210.15 78.4276C210.15 78.4276 208.132 85.2254 208.132 90.3701C208.132 95.5148 207.854 96.8949 208.683 95.3345C209.512 93.7741 218.328 81.2754 219.616 78.8859C220.254 77.7654 220.807 76.5982 221.269 75.3943C221.269 75.3943 218.241 70.0642 217.87 68.7767C217.499 67.4893 216.953 64.6981 216.953 64.6981C216.953 64.6981 216.861 65.3418 211.438 62.6793C208.467 61.2237 205.584 59.5971 202.802 57.8076C201.329 56.9733 196.091 63.1531 196.091 63.1531Z" fill="#A47979" stroke="#263238" stroke-linejoin="round"/>
<path d="M200.592 66.1194C200.592 66.1194 200.896 64.9453 203.368 64.5745" stroke="#263238" stroke-linejoin="round"/>
<path d="M202.343 67.6541L202.894 69.0342C202.894 69.0342 204.269 68.6634 204.64 67.9321" stroke="#263238" stroke-linejoin="round"/>
<path d="M204.089 74.6372C204.089 74.6372 206.2 73.9935 206.2 72.2477" stroke="#263238" stroke-linejoin="round"/>
<path d="M215.666 66.0011C215.666 66.0011 216.86 67.3813 216.217 68.576C216.089 68.896 215.855 69.1621 215.554 69.3292C215.252 69.4962 214.903 69.554 214.564 69.4927C214.983 70.4823 215.049 71.5864 214.749 72.6187C214.193 74.0864 211.345 76.4759 211.345 76.4759" stroke="#263238" stroke-linejoin="round"/>
<path d="M200.046 67.9321C200.046 67.9321 201.076 70.3217 201.884 70.4144C202.693 70.5071 205.649 68.6634 206.107 67.7467C206.566 66.8301 205.005 64.9916 204.181 64.9916C203.357 64.9916 200.525 67.273 200.525 67.273C200.525 67.273 199.86 67.3811 200.046 67.9321Z" stroke="#263238" stroke-linejoin="round"/>
<path d="M200.046 67.9323L199.032 68.3906" stroke="#263238" stroke-linejoin="round"/>
<path d="M198.465 68.2051C198.465 68.2051 196.539 68.8488 196.719 69.6779C196.899 70.5071 199.294 71.7894 199.294 71.7894" stroke="#263238" stroke-linejoin="round"/>
<path d="M204.547 64.8989L205.834 64.1625" stroke="#263238" stroke-linejoin="round"/>
<path d="M210.15 78.4071C210.15 78.4071 210.98 82.0893 210.346 85.1534" stroke="#263238" stroke-linejoin="round"/>
<path d="M219.688 93.3828L215.975 114.883L191.364 125.466L192.908 131.131L225.244 123.252C225.244 123.252 227.176 122.737 227.691 120.162C227.804 119.601 233.999 89.1342 234.257 87.203C234.359 85.8737 233.988 84.551 233.211 83.4678C232.434 82.3845 231.3 81.61 230.008 81.2806" fill="#3362CC"/>
<path d="M219.688 93.3828L215.975 114.883L191.364 125.466L192.908 131.131L225.244 123.252C225.244 123.252 227.176 122.737 227.691 120.162C227.804 119.601 233.999 89.1342 234.257 87.203C234.359 85.8737 233.988 84.551 233.211 83.4678C232.434 82.3845 231.3 81.61 230.008 81.2806" stroke="#263238" stroke-linejoin="round"/>
<path d="M191.363 125.466L183.896 128.299C183.896 128.299 176.944 129.972 176.558 130.359C176.171 130.745 172.566 132.934 171.923 133.32C171.279 133.706 170.249 134.865 172.953 134.479C174.877 134.163 176.771 133.689 178.617 133.062C178.617 133.062 182.48 133.449 183.767 133.32C185.055 133.191 187.65 131.131 187.65 131.131L192.671 129.458L191.363 125.466Z" fill="#A47979" stroke="#263238" stroke-linejoin="round"/>
<path d="M195.437 51.3085C195.437 51.3085 188.273 59.2496 189.195 61.7215C190.117 64.1935 195.184 64.3274 196.096 63.936C197.008 63.5446 201.308 59.7697 201.308 59.7697C201.308 59.7697 203.259 63.1583 206.519 64.59C208.408 65.4401 210.44 65.9259 212.509 66.0217L216.289 65.8929C216.289 65.8929 222.407 64.4561 221.495 58.8582C220.584 53.2603 217.591 47.3946 213.42 45.3141C209.249 43.2336 200.648 45.0515 195.437 51.3085Z" fill="#263238" stroke="#263238" stroke-linejoin="round"/>
<path d="M196.704 62.1231C196.704 62.1231 195.885 59.2598 197.317 58.647C198.749 58.0342 200.407 58.8478 200.407 58.8478" stroke="#707070" stroke-linejoin="round"/>
<path d="M235.147 77.6603C237.398 77.8611 238.829 80.5236 238.237 81.9553" stroke="#707070" stroke-linejoin="round"/>
<path d="M233.355 67.4636C232.3 69.297 230.853 71.0685 230.853 72.3405C230.884 73.1797 231.091 74.0029 231.462 74.7564C231.833 75.5098 232.359 76.1764 233.005 76.7128" stroke="#707070" stroke-linejoin="round"/>
<path d="M208.806 62.3912C210.454 62.8623 212.183 62.9782 213.879 62.731C219.811 61.9122 231.059 59.6411 233.716 62.5251C234.71 63.5962 234.561 64.8991 233.984 66.2329" stroke="#707070" stroke-linejoin="round"/>
<path d="M204.676 60.0634C205.413 60.7695 206.265 61.3458 207.194 61.768" stroke="#707070" stroke-linejoin="round"/>
<path d="M233.855 58.8478C234.396 59.2166 234.848 59.7016 235.177 60.2674C235.507 60.8332 235.706 61.4654 235.76 62.1179" stroke="#707070" stroke-linejoin="round"/>
<path d="M200.999 54.3469C200.999 54.3469 202.837 53.3169 206.313 55.9794C209.789 58.6418 217.56 60.2743 224.513 58.4358C227.773 57.5707 230.358 57.5192 232.238 58.0856" stroke="#707070" stroke-linejoin="round"/>
<path d="M219.405 66.2071C219.405 66.2071 227.377 65.8002 227.176 70.7081C226.975 75.6159 228.206 76.4295 229.627 76.8415" stroke="#707070" stroke-linejoin="round"/>
<path d="M96.6938 125.945L86.595 132.006L76.9596 134.957L76.4961 136.513H91.4152L97.7856 133.093L96.6938 125.945Z" fill="#263238" stroke="#263238" stroke-linejoin="round"/>
<path d="M97.4712 139.927C97.4712 139.927 97.4712 156.71 98.2488 165.414C98.8254 171.069 100.024 176.644 101.823 182.037C101.823 182.037 106.638 202.704 107.73 207.055C108.821 211.407 109.192 218.457 109.192 218.457C109.192 218.457 108.621 221.969 107.38 222.901C106.138 223.833 100.427 227.722 100.736 228.499C101.045 229.277 114.878 228.499 114.878 228.499C114.878 228.499 118.138 228.808 117.514 224.611C116.891 220.414 115.496 209.677 115.496 202.24C115.496 194.804 111.458 179.54 111.458 179.54C111.458 179.54 115.65 166.665 117.829 157.941C120.007 149.217 119.538 145.066 119.538 145.066L119.384 142.579L97.4712 139.927Z" fill="white" stroke="#263238" stroke-linejoin="round"/>
<path d="M117.514 224.611C117.128 222.005 116.443 216.886 115.97 211.577C111.994 213.637 109.79 213.029 108.59 212.035C109.017 215.377 109.182 218.457 109.182 218.457C109.182 218.457 108.61 221.969 107.369 222.901C106.128 223.833 100.417 227.722 100.726 228.499C101.035 229.277 114.867 228.499 114.867 228.499C114.867 228.499 118.127 228.808 117.514 224.611Z" fill="#6C6060" stroke="#263238" stroke-linejoin="round"/>
<path d="M116.454 225.677C116.315 224.755 116.14 223.509 115.939 222.072C114.069 222.047 112.602 221.99 112.602 221.99C112.602 221.99 112.025 219.878 109.913 219.688C107.802 219.497 107.611 221.99 107.611 221.99H107.483C107.273 222.747 106.866 223.435 106.303 223.983C105.057 224.915 99.351 228.803 99.66 229.581C99.969 230.358 113.802 229.581 113.802 229.581C113.802 229.581 117.097 229.874 116.454 225.677Z" fill="white" stroke="#263238" stroke-linejoin="round"/>
<path d="M104.897 164.991C104.897 164.991 102.116 144.855 104.686 143.995C107.256 143.135 111.324 143.14 110.897 149.145C110.469 155.15 104.897 164.991 104.897 164.991Z" fill="#DDE7FF" stroke="#263238" stroke-linejoin="round"/>
<path d="M109.749 145.211C109.749 145.211 103.997 162.457 102.292 173.179C100.587 183.901 110.12 206.602 111.145 209.388C113.323 215.29 114.719 220.574 114.719 220.574C114.719 220.574 112.391 223.663 110.212 225.389C108.034 227.114 104.465 228.345 104.774 229.74C105.083 231.136 118.916 229.74 118.916 229.74C118.916 229.74 123.422 227.567 124.977 226.475C126.532 225.384 123.432 219.95 123.113 219.173C122.793 218.395 122.021 216.691 122.021 216.691C122.021 216.691 122.181 194.778 120.934 190.117C119.688 185.457 117.515 178.788 117.515 178.788C117.515 178.788 133.057 165.424 136.631 154.393C140.205 143.362 138.959 140.56 138.959 140.56L109.44 143.98L109.749 145.211Z" fill="white" stroke="#263238" stroke-linejoin="round"/>
<path d="M109.749 145.211C109.749 145.211 103.997 162.458 102.292 173.179C102.292 173.293 102.261 173.411 102.246 173.525C106.093 168.375 115.367 155.32 115.367 149.603C115.319 147.352 114.427 145.2 112.87 143.573L109.44 143.97L109.749 145.211Z" fill="#DDE7FF" stroke="#263238" stroke-linejoin="round"/>
<path d="M120.934 190.117C120.764 189.468 120.568 188.778 120.368 188.057C116.881 191.951 107.153 198.594 111.948 199.727C115.367 200.53 119.374 201.452 121.902 202.492C121.732 197.255 121.464 192.11 120.934 190.117Z" fill="#DDE7FF" stroke="#263238" stroke-linejoin="round"/>
<path d="M121.969 206.607C119.945 207.725 117.545 209.259 118.457 213.817C118.761 215.362 120.105 215.954 122.026 215.975C122.031 214.45 122.036 210.768 121.969 206.607Z" fill="#DDE7FF" stroke="#263238" stroke-linejoin="round"/>
<path d="M111.458 179.54C111.067 182.156 116.093 182.923 119.183 184.118C118.287 181.177 117.499 178.767 117.499 178.767C117.499 178.767 118.529 177.861 120.162 176.336C115.702 176.934 111.716 177.814 111.458 179.54Z" fill="#DDE7FF" stroke="#263238" stroke-linejoin="round"/>
<path d="M121.547 161.963C121.995 164.214 124.74 166.66 127.428 168.818C129.72 166.227 131.802 163.458 133.654 160.537C128.046 159.929 120.908 158.77 121.547 161.963Z" fill="#DDE7FF" stroke="#263238" stroke-linejoin="round"/>
<path d="M125.667 150.973C128.195 153.311 132.598 154.872 135.874 156.35C136.162 155.691 136.419 155.031 136.631 154.382C137.477 151.853 138.165 149.273 138.691 146.658C132.938 146.951 122.366 147.93 125.667 150.973Z" fill="#DDE7FF" stroke="#263238" stroke-linejoin="round"/>
<path d="M124.977 226.475C126.522 225.389 123.432 219.95 123.113 219.173C122.793 218.395 122.021 216.691 122.021 216.691C122.021 216.691 122.021 214.28 122.021 210.892C117.664 213.57 114.013 212.771 112.061 211.922C113.709 216.716 114.723 220.558 114.723 220.558C114.723 220.558 112.396 223.648 110.217 225.373C108.039 227.098 104.47 228.329 104.779 229.725C105.088 231.12 118.921 229.725 118.921 229.725C118.921 229.725 123.422 227.567 124.977 226.475Z" fill="#6C6060" stroke="#263238" stroke-linejoin="round"/>
<path d="M124.977 226.475C126.403 225.476 123.895 220.81 123.241 219.456C121.346 222.742 118.292 222.283 118.292 222.283C117.946 221.581 117.473 220.949 116.896 220.419C115.81 219.332 114.718 220.574 114.718 220.574C114.718 220.574 112.39 223.663 110.212 225.389C108.034 227.114 104.465 228.345 104.774 229.74C105.083 231.136 118.915 229.74 118.915 229.74C118.915 229.74 123.421 227.567 124.977 226.475Z" fill="white" stroke="#263238" stroke-linejoin="round"/>
<path d="M96.853 137.908L97.3165 142.543C100.545 144.87 104.37 146.228 108.342 146.457C114.872 146.766 123.107 146.143 128.545 144.912C133.983 143.681 139.731 142.893 139.875 141.492C140.019 140.092 140.029 136.054 140.029 136.054C140.029 136.054 132.727 138.542 120.918 139.319C109.11 140.097 104.439 139.937 101.962 139.005C100.314 138.417 98.5967 138.048 96.853 137.908V137.908Z" fill="#A3B8E8" stroke="#263238" stroke-miterlimit="10"/>
<path d="M111.948 80.5698C111.948 80.5698 103.523 86.4303 100.948 92.2651C98.3727 98.0998 94.5927 104.11 94.7678 109.605C94.9171 113.264 95.4926 116.893 96.4827 120.419C96.8278 121.964 93.2229 135.184 95.9678 138.614C98.7126 142.044 108.842 143.939 117.942 142.734C127.042 141.529 136.997 140.504 139.396 138.274C141.796 136.044 142.904 130.441 141.668 128.69C140.432 126.939 138.881 109.775 138.881 106.17C138.881 102.565 141.456 92.0951 141.456 92.0951C141.456 92.0951 145.061 85.5703 144.206 83.1704C143.352 80.7706 137.337 77.6755 133.577 77.3305C129.818 76.9855 128.427 76.4756 124.137 76.6456C119.848 76.8155 113.848 78.654 111.948 80.5698Z" fill="#A3B8E8" stroke="#263238" stroke-miterlimit="10"/>
<path d="M144.206 83.1704C143.362 80.7654 137.336 77.6755 133.577 77.3305C129.818 76.9855 128.427 76.4756 124.137 76.6456C119.848 76.8155 113.863 78.654 111.963 80.5698C111.963 80.5698 103.538 86.4303 100.963 92.2651C100.242 93.8976 99.4181 95.5352 98.6405 97.178C98.3883 98.4725 98.2163 99.7814 98.1255 101.097C98.0122 103.981 98.0122 108.204 98.0122 108.204C98.0122 108.204 99.2327 109.651 99.346 107.648C99.346 107.648 104.455 100.649 106.901 97.6518C109.347 94.6546 118.792 84.427 126.47 82.7636C134.149 81.1002 137.8 83.0932 139.345 84.9832C140.89 86.8732 141.462 92.0951 141.462 92.0951C141.462 92.0951 145.061 85.5703 144.206 83.1704Z" fill="#A3B8E8" stroke="#263238" stroke-miterlimit="10"/>
<path d="M113.879 46.8433C113.879 46.8433 113.879 43.8822 111.175 40.2773C108.471 36.6724 101.004 36.8011 97.3991 41.8222C93.7942 46.8433 98.3003 50.1907 97.5279 51.3495C96.7554 52.5082 90.8331 54.1819 92.6355 56.7568C94.438 59.3317 96.7554 60.2278 96.4979 60.614C96.2404 61.0003 92.7643 62.9315 96.1117 64.4764C99.4591 66.0214 100.103 66.1501 100.103 66.1501C100.103 66.1501 98.0429 67.3088 98.9441 68.3388C99.8453 69.3688 101.648 68.2101 101.648 68.2101C101.648 68.2101 101.004 66.6651 101.776 66.1501C102.549 65.6351 103.836 64.2189 103.321 63.189C102.806 62.159 102.034 61.3865 103.064 60.614C104.094 59.8416 105.124 58.1679 105.639 57.5241C106.154 56.8804 110.66 49.4183 111.561 49.4183C112.193 49.3402 112.775 49.0367 113.201 48.5637C113.627 48.0906 113.867 47.4797 113.879 46.8433V46.8433Z" fill="#263238" stroke="#263238" stroke-linejoin="round"/>
<path d="M111.072 82.9953C111.072 82.9953 103.522 89.5201 100.618 96.2149C97.7134 102.91 97.6979 109.435 98.5579 108.745C99.418 108.054 102.848 98.2749 106.628 93.4701C109.219 90.2922 112.177 87.4314 115.439 84.9471L122.402 78.7054L111.072 82.9953Z" fill="#DDE7FF" stroke="#263238" stroke-linejoin="round"/>
<path d="M111.947 46.7147C111.947 46.7147 105.253 49.8046 104.223 53.9245C103.193 58.0444 104.609 65.1203 104.609 65.1203C104.609 65.1203 103.064 68.8539 104.351 71.6863C105.639 74.5187 107.57 77.9949 109.244 79.1536C110.062 79.7691 110.975 80.2475 111.947 80.5698C111.947 80.5698 110.016 83.6597 110.145 85.8484C110.274 88.0371 112.462 87.3934 115.424 84.9472C118.385 82.501 121.856 79.0249 123.916 78.1236C125.976 77.2224 126.748 76.8362 126.748 76.8362C126.748 76.8362 126.362 70.0126 126.362 67.9527C126.362 65.8927 130.482 59.9704 128.293 54.4395C126.104 48.9085 118.642 43.8823 111.947 46.7147Z" fill="#6C6060" stroke="#263238" stroke-miterlimit="10"/>
<path d="M106.54 64.9915L106.025 66.7939C106.025 66.7939 106.669 67.4376 108.858 66.9226" stroke="#263238" stroke-miterlimit="10"/>
<path d="M109.502 65.7638C109.502 65.7638 107.57 69.8837 108.472 70.2699C109.373 70.6562 112.076 70.0124 112.076 70.0124" stroke="#263238" stroke-miterlimit="10"/>
<path d="M112.849 64.4763L112.334 66.665C112.96 66.8773 113.63 66.9296 114.282 66.8172C114.934 66.7048 115.548 66.4312 116.067 66.0213" stroke="#263238" stroke-miterlimit="10"/>
<path d="M105.768 62.6739C105.768 62.6739 107.441 61.0002 109.115 62.6739" stroke="#263238" stroke-miterlimit="10"/>
<path d="M111.69 61.5152C112.486 61.0865 113.405 60.9422 114.294 61.1061C115.184 61.2699 115.991 61.7321 116.582 62.4164" stroke="#263238" stroke-miterlimit="10"/>
<path d="M107.828 73.6174C107.828 73.6174 108.858 75.5486 110.66 75.5486C112.463 75.5486 114.136 73.4886 114.136 73.4886C114.136 73.4886 109.115 73.7461 107.828 73.6174Z" fill="#DDE7FF" stroke="#263238" stroke-linejoin="round"/>
<path d="M107.828 73.6173C110.226 74.1986 112.746 74.0186 115.037 73.1023C115.037 73.1023 112.849 73.4885 112.076 73.3598C111.304 73.231 108.085 72.9735 107.828 73.6173Z" fill="#DDE7FF" stroke="#263238" stroke-linejoin="round"/>
<path d="M126.367 67.9527C126.367 65.8927 130.487 59.9704 128.299 54.4395C126.11 48.9085 118.648 43.8823 111.953 46.7147C111.953 46.7147 105.984 49.4699 104.45 53.2447C104.501 53.1726 104.553 53.0954 104.614 53.0233C105.458 52.0607 106.409 51.1969 107.447 50.4483C107.447 50.4483 106.932 52.5083 107.318 52.637C107.704 52.7658 109.764 51.4783 109.764 51.4783C109.764 51.4783 108.219 53.7957 109.764 53.9245C111.309 54.0532 115.815 51.607 115.815 51.607C115.815 51.607 114.914 53.7957 115.944 53.9245C116.974 54.0532 118.9 54.182 118.9 54.182C118.9 54.182 118.133 56.1132 118.9 56.8805C119.161 57.1134 119.467 57.2906 119.799 57.4013C120.132 57.512 120.483 57.5538 120.831 57.5242C120.831 57.5242 119.544 59.3267 120.059 59.9704C120.56 60.7461 120.991 61.5647 121.346 62.4166C121.346 62.4166 122.634 58.8117 124.308 62.2878C124.799 63.243 125.011 64.3172 124.92 65.3874C124.829 66.4576 124.438 67.4806 123.793 68.3389C123.793 68.3389 124.364 69.9405 126.367 69.1835C126.367 68.6891 126.367 68.2668 126.367 67.9527Z" fill="#263238" stroke="#263238" stroke-linejoin="round"/>
<path d="M104.223 55.7267C104.115 55.4607 104.051 55.179 104.032 54.8925C104.032 55.0573 103.986 55.2272 103.965 55.4074L104.223 55.7267Z" fill="white" stroke="#263238" stroke-linejoin="round"/>
<path d="M120.826 63.9612C120.826 63.9612 121.212 59.3263 123.916 61.1288C126.619 62.9312 125.074 66.9224 124.559 68.2098C124.044 69.4973 121.212 69.3685 121.212 68.5961" fill="#6C6060"/>
<path d="M120.826 63.9612C120.826 63.9612 121.212 59.3263 123.916 61.1288C126.619 62.9312 125.074 66.9224 124.559 68.2098C124.044 69.4973 121.212 69.3685 121.212 68.5961" stroke="#263238" stroke-linejoin="round"/>
<path d="M111.948 80.5698C111.339 81.5737 110.845 82.643 110.475 83.7575C111.876 83.0137 113.19 82.1174 114.394 81.0847C116.566 79.1951 118.432 76.9801 119.925 74.5187C119.925 74.5187 116.068 78.2523 114.775 79.2823C113.943 79.9211 112.976 80.3614 111.948 80.5698V80.5698Z" fill="#263238" stroke="#263238" stroke-linejoin="round"/>
<path d="M124.199 89.4171C124.199 89.4171 120.471 92.2135 118.606 97.9607C116.742 103.708 114.255 119.868 114.255 119.868C111.982 120.553 109.793 121.491 107.73 122.665C104.934 124.374 91.4152 132.923 91.4152 132.923L90.0144 133.706L91.8786 138.212C97.8575 137.662 103.782 136.628 109.594 135.122C119.07 132.635 127.304 130.307 128.705 128.597C130.106 126.887 136.785 104.357 137.872 100.16C138.959 95.9626 139.582 93.3259 136.631 90.2153" fill="#A3B8E8"/>
<path d="M124.199 89.4171C124.199 89.4171 120.471 92.2135 118.606 97.9607C116.742 103.708 114.255 119.868 114.255 119.868C111.982 120.553 109.793 121.491 107.73 122.665C104.934 124.374 91.4152 132.923 91.4152 132.923L90.0144 133.706L91.8786 138.212C97.8575 137.662 103.782 136.628 109.594 135.122C119.07 132.635 127.304 130.307 128.705 128.597C130.106 126.887 136.785 104.357 137.872 100.16C138.959 95.9626 139.582 93.3259 136.631 90.2153" stroke="#263238" stroke-miterlimit="10"/>
<path d="M125.461 114.317C126.049 113.929 126.613 113.506 127.15 113.05" stroke="#263238" stroke-linejoin="round"/>
<path d="M115.038 119.575C118.092 118.332 121.065 116.896 123.937 115.275" stroke="#263238" stroke-linejoin="round"/>
<path d="M124.451 109.656C121.877 111.896 118.452 114.909 116.428 116.933" stroke="#263238" stroke-linejoin="round"/>
<path d="M127.912 106.679C127.912 106.679 127.166 107.308 126.028 108.281" stroke="#263238" stroke-linejoin="round"/>
<path d="M115.341 120.352C115.341 120.352 119.224 120.97 120.491 120.661" stroke="#263238" stroke-linejoin="round"/>
<path d="M90.0146 133.706C90.0146 133.706 83.4897 134.169 82.7121 134.169C80.7845 134.332 78.8663 134.591 76.9649 134.947C76.4962 135.102 73.5454 138.676 73.5454 138.676C73.5454 138.676 72.9222 139.453 73.6999 139.299C74.4775 139.144 76.9649 138.367 76.9649 138.367C76.9649 138.367 80.6934 139.144 81.9345 139.144C83.1756 139.144 87.5272 138.521 87.5272 138.521L91.8788 138.212L90.0146 133.706Z" fill="#6C6060" stroke="#263238" stroke-linejoin="round"/>
<path d="M92.0334 132.939L94.0522 138.222" stroke="#263238" stroke-linejoin="round"/>
<path d="M133.432 230.363C133.109 230.367 132.79 230.283 132.51 230.121C132.231 229.958 131.999 229.724 131.841 229.441C131.683 229.159 131.604 228.839 131.612 228.516C131.62 228.192 131.715 227.877 131.887 227.603L182.356 142.631C182.482 142.43 182.646 142.256 182.839 142.119C183.032 141.982 183.25 141.884 183.481 141.831C183.711 141.779 183.95 141.772 184.184 141.811C184.417 141.851 184.64 141.936 184.841 142.061C185.041 142.187 185.215 142.351 185.352 142.544C185.489 142.737 185.587 142.955 185.64 143.186C185.693 143.417 185.7 143.656 185.66 143.889C185.621 144.122 185.536 144.346 185.41 144.546L134.941 229.519C134.78 229.774 134.558 229.986 134.294 230.133C134.031 230.281 133.734 230.36 133.432 230.363V230.363Z" fill="#787878" stroke="#263238" stroke-miterlimit="10"/>
<path d="M183.906 230.363C183.598 230.367 183.294 230.291 183.023 230.143C182.753 229.995 182.525 229.78 182.361 229.519L131.893 144.546C131.767 144.346 131.682 144.122 131.642 143.889C131.603 143.656 131.61 143.417 131.663 143.186C131.716 142.955 131.813 142.737 131.95 142.544C132.088 142.351 132.261 142.187 132.462 142.061C132.662 141.936 132.886 141.851 133.119 141.811C133.352 141.772 133.591 141.779 133.822 141.831C134.053 141.884 134.271 141.982 134.464 142.119C134.657 142.256 134.821 142.43 134.947 142.631L185.415 227.603C185.585 227.877 185.679 228.192 185.686 228.515C185.693 228.838 185.614 229.157 185.456 229.439C185.299 229.72 185.068 229.955 184.789 230.117C184.511 230.28 184.193 230.365 183.87 230.363H183.906Z" fill="#787878" stroke="#263238" stroke-miterlimit="10"/>
<path d="M143.732 230.363C143.409 230.367 143.09 230.283 142.81 230.121C142.53 229.958 142.299 229.724 142.141 229.441C141.983 229.159 141.904 228.839 141.912 228.516C141.92 228.192 142.015 227.877 142.187 227.603L192.656 142.631C192.782 142.43 192.946 142.256 193.139 142.119C193.332 141.982 193.55 141.884 193.78 141.831C194.011 141.779 194.25 141.772 194.483 141.811C194.717 141.851 194.94 141.936 195.141 142.061C195.341 142.187 195.515 142.351 195.652 142.544C195.789 142.737 195.887 142.955 195.94 143.186C195.993 143.417 196 143.656 195.96 143.889C195.921 144.122 195.835 144.346 195.71 144.546L145.241 229.519C145.08 229.774 144.858 229.986 144.594 230.133C144.331 230.281 144.034 230.36 143.732 230.363V230.363Z" fill="white" stroke="#263238" stroke-linejoin="round"/>
<path d="M194.206 230.363C193.898 230.367 193.594 230.291 193.323 230.143C193.053 229.995 192.825 229.78 192.661 229.519L142.193 144.546C142.067 144.346 141.982 144.122 141.942 143.889C141.903 143.656 141.91 143.417 141.962 143.186C142.015 142.955 142.113 142.737 142.25 142.544C142.387 142.351 142.561 142.187 142.762 142.061C142.962 141.936 143.185 141.851 143.419 141.811C143.652 141.772 143.891 141.779 144.122 141.831C144.353 141.884 144.571 141.982 144.764 142.119C144.957 142.256 145.121 142.43 145.246 142.631L195.715 227.603C195.885 227.877 195.979 228.192 195.986 228.515C195.993 228.838 195.914 229.157 195.756 229.439C195.599 229.72 195.368 229.955 195.089 230.117C194.81 230.28 194.493 230.365 194.17 230.363H194.206Z" fill="white" stroke="#263238" stroke-linejoin="round"/>
<path d="M128.942 75.8988H177.479C179.506 75.8988 181.45 76.704 182.883 78.1372C184.316 79.5704 185.122 81.5143 185.122 83.5412V139.721H128.942V75.8988Z" fill="white" stroke="#263238" stroke-linejoin="round"/>
<path d="M143.876 75.8988H192.414C194.44 75.8988 196.384 76.704 197.818 78.1372C199.251 79.5704 200.056 81.5143 200.056 83.5412V139.721H143.876V75.8988Z" fill="white" stroke="#263238" stroke-linejoin="round"/>
<path d="M143.861 94.3559L185.456 75.8988H143.861V94.3559Z" fill="#5388FF" stroke="#263238" stroke-linejoin="round"/>
<path d="M147.512 139.721H200.041V116.593L147.512 139.721Z" fill="#5388FF" stroke="#263238" stroke-linejoin="round"/>
<path d="M157.872 101.382L160.056 113.062L162.224 101.382H163.604L161.091 114.771H158.887L156.353 101.382H157.872Z" fill="#263238"/>
<path d="M164.619 104.6C164.619 102.54 165.649 101.227 167.709 101.227C169.769 101.227 170.798 102.551 170.798 104.6V111.542C170.798 113.602 169.769 114.921 167.709 114.921C165.649 114.921 164.619 113.577 164.619 111.542V104.6ZM166.097 111.62C166.097 112.845 166.612 113.556 167.688 113.556C168.764 113.556 169.279 112.845 169.279 111.62V104.528C169.279 103.318 168.764 102.592 167.688 102.592C166.612 102.592 166.097 103.318 166.097 104.528V111.62Z" fill="#263238"/>
<path d="M174.14 114.771V102.726H171.668V101.382H178.09V102.746H175.618V114.771H174.14Z" fill="#263238"/>
<path d="M183.869 107.304V108.648H180.588V113.422H184.615V114.771H179.095V101.382H184.615V102.746H180.588V107.325L183.869 107.304Z" fill="#263238"/>
<path d="M199.824 139.721H128.957V145.638H199.824V139.721Z" fill="#303030" stroke="#263238" stroke-miterlimit="10"/>
<path d="M199.82 139.721H143.815V145.638H199.82V139.721Z" fill="#787878" stroke="#263238" stroke-miterlimit="10"/>
<path d="M28.1597 230.363C27.8362 230.367 27.5177 230.283 27.2378 230.121C26.9578 229.958 26.7267 229.724 26.5687 229.441C26.4107 229.159 26.3316 228.839 26.3397 228.516C26.3478 228.192 26.4428 227.877 26.6148 227.603L77.0833 142.631C77.2091 142.43 77.3732 142.256 77.5661 142.119C77.7591 141.982 77.9771 141.884 78.2079 141.831C78.4386 141.779 78.6775 141.772 78.9109 141.811C79.1443 141.851 79.3676 141.936 79.5681 142.061C79.7686 142.187 79.9424 142.351 80.0795 142.544C80.2166 142.737 80.3144 142.955 80.3673 143.186C80.4201 143.417 80.427 143.656 80.3875 143.889C80.348 144.122 80.263 144.346 80.1372 144.546L29.6686 229.519C29.5077 229.774 29.2853 229.986 29.0217 230.133C28.7581 230.281 28.4618 230.36 28.1597 230.363V230.363Z" fill="#787878" stroke="#263238" stroke-miterlimit="10"/>
<path d="M78.6336 230.363C78.3253 230.366 78.0214 230.29 77.7509 230.143C77.4805 229.995 77.2524 229.78 77.0886 229.519L26.6201 144.546C26.4943 144.346 26.4092 144.122 26.3697 143.889C26.3303 143.656 26.3371 143.417 26.39 143.186C26.4428 142.955 26.5406 142.737 26.6777 142.544C26.8148 142.351 26.9886 142.187 27.1891 142.061C27.3896 141.936 27.613 141.851 27.8464 141.811C28.0798 141.772 28.3186 141.779 28.5494 141.831C28.7801 141.884 28.9982 141.982 29.1911 142.119C29.3841 142.256 29.5481 142.43 29.6739 142.631L80.1425 227.603C80.396 228.008 80.4787 228.496 80.3725 228.961C80.2663 229.427 79.9798 229.831 79.576 230.085C79.2932 230.263 78.9672 230.359 78.6336 230.363V230.363Z" fill="#787878" stroke="#263238" stroke-miterlimit="10"/>
<path d="M38.4595 230.363C38.136 230.367 37.8175 230.283 37.5376 230.121C37.2577 229.958 37.0265 229.724 36.8685 229.441C36.7105 229.159 36.6314 228.839 36.6395 228.516C36.6476 228.192 36.7426 227.877 36.9146 227.603L87.3831 142.631C87.5089 142.43 87.673 142.256 87.8659 142.119C88.0589 141.982 88.2769 141.884 88.5077 141.831C88.7384 141.779 88.9773 141.772 89.2107 141.811C89.4441 141.851 89.6674 141.936 89.8679 142.061C90.0684 142.187 90.2422 142.351 90.3793 142.544C90.5165 142.737 90.6142 142.955 90.6671 143.186C90.7199 143.417 90.7268 143.656 90.6873 143.889C90.6478 144.122 90.5628 144.346 90.437 144.546L39.9684 229.519C39.8075 229.774 39.5851 229.986 39.3215 230.133C39.0579 230.281 38.7616 230.36 38.4595 230.363V230.363Z" fill="white" stroke="#263238" stroke-linejoin="round"/>
<path d="M88.9329 230.363C88.6246 230.366 88.3207 230.29 88.0503 230.143C87.7798 229.995 87.5517 229.78 87.3879 229.519L36.9194 144.546C36.7936 144.346 36.7085 144.122 36.669 143.889C36.6296 143.656 36.6364 143.417 36.6893 143.186C36.7421 142.955 36.8399 142.737 36.977 142.544C37.1141 142.351 37.2879 142.187 37.4884 142.061C37.689 141.936 37.9123 141.851 38.1457 141.811C38.3791 141.772 38.618 141.779 38.8487 141.831C39.0794 141.884 39.2975 141.982 39.4904 142.119C39.6834 142.256 39.8474 142.43 39.9732 142.631L90.4418 227.603C90.6953 228.008 90.778 228.496 90.6718 228.961C90.5656 229.427 90.2791 229.831 89.8753 230.085C89.5925 230.263 89.2666 230.359 88.9329 230.363V230.363Z" fill="white" stroke="#263238" stroke-linejoin="round"/>
<path d="M23.6846 75.8989H72.2219C74.2488 75.8989 76.1927 76.7041 77.6259 78.1373C79.0591 79.5706 79.8643 81.5144 79.8643 83.5413V139.721H23.6846V75.8989Z" fill="white" stroke="#263238" stroke-linejoin="round"/>
<path d="M38.593 75.8988H87.1252C89.1521 75.8988 91.096 76.704 92.5292 78.1372C93.9624 79.5704 94.7676 81.5143 94.7676 83.5412V139.721H38.593V75.8988Z" fill="white" stroke="#263238" stroke-linejoin="round"/>
<path d="M38.593 94.3559L80.1832 75.8988H38.593V94.3559Z" fill="#C9D9FF" stroke="#263238" stroke-linejoin="round"/>
<path d="M42.2395 139.721H94.7731V116.593L42.2395 139.721Z" fill="#C9D9FF" stroke="#263238" stroke-linejoin="round"/>
<path d="M52.6047 99.3817L54.7882 111.062L56.9511 99.3817H58.3313L55.8182 112.771H53.6346L51.0854 99.3817H52.6047Z" fill="#263238"/>
<path d="M59.3457 102.6C59.3457 100.54 60.3757 99.2272 62.4356 99.2272C64.4956 99.2272 65.5255 100.551 65.5255 102.6V109.542C65.5255 111.602 64.4956 112.921 62.4356 112.921C60.3757 112.921 59.3457 111.577 59.3457 109.542V102.6ZM60.8443 109.62C60.8443 110.845 61.3593 111.556 62.4356 111.556C63.5119 111.556 64.0269 110.845 64.0269 109.62V102.528C64.0269 101.318 63.5119 100.592 62.4356 100.592C61.3593 100.592 60.8443 101.318 60.8443 102.528V109.62Z" fill="#263238"/>
<path d="M68.8574 112.771V100.726H66.3855V99.3817H72.8074V100.746H70.3354V112.771H68.8574Z" fill="#263238"/>
<path d="M78.5957 105.304V106.648H75.3204V111.422H79.3476V112.771H73.8218V99.3817H79.3476V100.746H75.3204V105.325L78.5957 105.304Z" fill="#263238"/>
<path d="M94.5514 139.721H23.6843V145.638H94.5514V139.721Z" fill="#303030" stroke="#263238" stroke-miterlimit="10"/>
<path d="M94.5462 139.721H38.5415V145.638H94.5462V139.721Z" fill="#787878" stroke="#263238" stroke-miterlimit="10"/>
<path d="M0 230.364H242.568" stroke="#263238" stroke-linejoin="round"/>
</svg>
