<svg width="60" height="63" viewBox="0 0 60 63" fill="none" xmlns="http://www.w3.org/2000/svg">
<defs>
<radialGradient id="paint0_radial_1_1775" cx="0" cy="0" r="1" gradientUnits="userSpaceOnUse" gradientTransform="translate(17.8444 15.451) scale(7.69498)">
<stop offset="0.376" stop-color="#AF5700"/>
<stop offset="1" stop-color="#8F4700"/>
</radialGradient>
<radialGradient id="paint1_radial_1_1775" cx="0" cy="0" r="1" gradientUnits="userSpaceOnUse" gradientTransform="translate(43.7485 14.8925) scale(10.8143)">
<stop offset="0.376" stop-color="#AF5700"/>
<stop offset="1" stop-color="#8F4700"/>
</radialGradient>
</defs>
<path d="M28.7117 6.44962C28.9921 6.83786 29.1387 7.30667 29.1295 7.78547C29.1203 8.26426 28.9558 8.7271 28.6607 9.10429C26.964 11.2749 23.3667 15.6212 19.7898 18.2606C15.3772 21.5216 11.357 22.984 9.30865 23.5801C8.40168 23.8451 7.43357 23.4935 6.88837 22.7241C5.5432 20.8338 3.40316 16.783 4.24389 11.0507C5.4311 2.89817 14.7709 -1.03543 20.8241 0.921182C26.8774 2.87779 28.7117 6.44962 28.7117 6.44962Z" fill="#FFC107"/>
<path d="M10.1188 22.0565C9.52265 22.3062 8.98254 21.6082 9.36469 21.0935C10.4857 19.5955 12.6614 17.1396 16.6306 13.9397C20.9362 10.4698 23.9883 9.24178 25.6545 8.80868C26.2303 8.66091 26.6735 9.30802 26.3271 9.79207C25.201 11.3716 22.8317 14.2556 18.9541 17.0224C15.1938 19.7076 12.0041 21.2617 10.1188 22.0565Z" fill="url(#paint0_radial_1_1775)"/>
<path d="M14.3121 3.0561C14.5465 4.06498 15.8204 4.41656 17.0534 4.20765C18.3884 3.98345 20.0699 3.79492 19.9119 2.43956C19.7489 1.03835 17.5171 1.0944 16.6917 1.14025C15.4841 1.21159 14.1032 2.16442 14.3121 3.0561Z" fill="#FFEE58"/>
<path d="M40.5635 0.498186C46.6575 -1.14251 55.6049 0.956767 57.3985 11.5143C58.0813 15.5243 56.4864 19.0758 55.3705 20.9712C54.8202 21.9088 53.7451 22.4081 52.6802 22.1941C50.6013 21.7763 46.7288 20.6095 41.5418 17.3688C38.6578 15.5702 34.7344 12.0646 32.5129 10.001C31.5091 9.06854 31.4123 7.50427 32.3141 6.46992C34.0771 4.44707 37.1802 1.41025 40.5635 0.498186Z" fill="#FFC107"/>
<path d="M35.0452 10.0672C34.7242 9.74617 35.0299 9.20606 35.4732 9.31816C37.4196 9.80731 41.0118 10.9028 44.2015 12.8951C47.4727 14.9434 50.7796 18.0567 52.456 19.7228C52.7872 20.0489 52.4611 20.5992 52.0127 20.4668C49.9643 19.8706 46.1989 18.5458 42.4742 16.0338C38.6884 13.481 36.2783 11.2951 35.0452 10.0672Z" fill="url(#paint1_radial_1_1775)"/>
<path d="M40.2272 4.63561C38.2146 5.26743 37.649 3.84583 38.7241 2.76562C39.4986 1.98603 42.7647 0.595008 45.5977 1.18607C47.4677 1.57841 48.0537 4.27384 45.4194 4.23817C43.6258 4.2127 42.6934 3.86112 40.2272 4.63561Z" fill="#FFEE58"/>
<path d="M53.6941 59.7723C47.3505 55.7826 43.1009 48.0122 42.3265 38.9833C41.6284 30.8257 43.6054 22.5661 45.1951 15.932L48.4561 17.4147C46.9377 23.7635 45.7454 31.1314 46.3874 38.6317C47.0498 46.3919 50.5962 53.0057 55.8648 56.3176L53.6941 59.7723Z" fill="#03A9F4"/>
<path d="M28.5026 58.3659L26.8211 54.6514C28.8134 53.7495 29.9649 51.1356 29.2822 49.0618C28.951 48.0478 28.2376 47.0797 27.4886 46.0556C26.8772 45.2199 26.2402 44.3537 25.7205 43.3601C24.3652 40.7615 24.0442 37.6533 24.8492 34.8356C25.2568 33.414 25.904 32.1555 26.5358 30.9377C27.2491 29.5619 27.9166 28.2677 28.0899 26.9633C28.2478 25.7557 27.9625 24.4768 27.3001 23.4526C26.6988 22.5304 25.7715 21.7355 24.7881 20.8999C24.0442 20.263 23.2697 19.6057 22.5614 18.8312C20.885 16.9968 20.2328 14.8109 20.243 12.3703L23.0811 11.2952C23.0811 11.2952 23.5958 14.067 24.2887 15.1727C25.0174 16.3294 26.1027 17.114 27.1319 17.9904C28.2937 18.984 29.7968 19.8146 30.7191 21.2413C31.9012 23.0654 32.4158 25.3481 32.1305 27.5085C31.8655 29.5161 30.9942 31.1976 30.1535 32.823C29.593 33.9083 29.0631 34.9324 28.7675 35.9668C28.2478 37.7909 28.4516 39.8036 29.3331 41.485C29.7102 42.2086 30.2248 42.9117 30.7751 43.6607C31.6821 44.8989 32.6196 46.1727 33.1546 47.8032C34.4947 51.854 32.4056 56.6029 28.5026 58.3659Z" fill="#03A9F4"/>
<path d="M2.99017 61.4333L0.580078 58.1468C16.0342 46.8249 17.68 30.2447 16.5896 21.7966L19.6672 20.854C20.8748 30.1938 20.1309 48.8784 2.99017 61.4333Z" fill="#F48FB1"/>
<path d="M46.0002 35.9821L46.2703 36.191C46.2397 34.5146 46.3212 32.8281 46.4792 31.1568C45.1136 30.0206 43.8398 28.8028 42.9226 27.3761C42.8972 27.3353 42.8768 27.2945 42.8513 27.2538C42.5762 29.0881 42.3622 30.9632 42.2603 32.8536C43.478 34.0204 44.7824 35.0395 46.0002 35.9821Z" fill="#0076C6"/>
<path d="M56.1958 47.1868L52.4965 45.4696C53.4392 43.4417 52.6494 40.9908 51.5998 39.3756C50.2342 37.2763 48.084 35.6051 46 33.9898C43.7631 32.2574 41.2308 30.2957 39.4882 27.5799C36.2832 22.5916 36.8488 16.3804 40.4614 11.6774L43.4218 13.3334C40.8231 16.7218 40.6142 21.7814 42.9173 25.3736C44.2778 27.4984 46.4229 29.1544 48.4967 30.7645C50.7387 32.502 53.2761 34.4688 55.0187 37.149C57.118 40.3845 57.5715 44.2315 56.1958 47.1868Z" fill="#F44336"/>
<path d="M2.21586 45.7804C1.45155 41.4596 4.61066 39.2227 6.30741 38.0202C6.51122 37.8775 6.7609 37.6992 6.93414 37.5616C6.91885 37.1999 6.67427 36.7464 6.21569 35.977C5.46159 34.7082 4.43233 32.9656 5.2221 30.7492C5.90997 28.8231 7.90735 28.1862 9.23213 27.4423C10.3633 26.8054 11.1836 26.0309 11.5913 24.7367C12.0651 23.2285 11.7339 19.4375 11.7339 19.4375L14.2205 17.9854C14.2205 17.9854 15.0051 21.6081 15.0051 23.4526C15.0051 28.6805 12.1059 30.0154 10.883 30.7033C10.0372 31.1772 9.23723 31.6256 9.06399 32.1147C8.9366 32.4714 9.11494 32.8739 9.72638 33.9032C10.4601 35.1363 11.4588 36.833 10.8066 38.9985C10.4907 40.0533 9.60409 40.6851 8.66655 41.3475C7.00547 42.5245 5.93545 43.4213 6.23098 45.0722L2.21586 45.7804Z" fill="#F44336"/>
<path d="M35.8755 40.5169C34.0616 40.0838 32.8234 39.0036 31.7126 38.0864L34.3113 34.9426C34.3113 34.9426 35.2335 36.3133 37.2564 36.9451L35.8755 40.5169Z" fill="#F44336"/>
<path d="M32.6046 17.5777L29.5933 15.8097L31.7741 12.3601L34.7905 14.1282L32.6046 17.5777Z" fill="#F44336"/>
<path d="M40.4208 56.4654L36.3599 53.9432L39.4935 50.458L42.6271 53.4337L40.4208 56.4654Z" fill="#F44336"/>
<path d="M53.2798 29.2598L55.6695 25.9575L59.2159 28.5235L56.8256 31.8258L53.2798 29.2598Z" fill="#FB8C00"/>
<path d="M24.5844 27.6767L20.9871 25.1902L22.857 22.7087L26.4493 25.1953L24.5844 27.6767Z" fill="#F44336"/>
<path d="M28.936 32.023C28.936 32.023 29.629 31.9975 30.4901 32.1656C31.1117 30.9428 31.7028 29.6689 32.0085 28.2371C30.9487 27.9977 30.0978 28.1149 30.0978 28.1149L28.936 32.023Z" fill="#0076C6"/>
<path d="M33.7714 32.502C32.3498 31.2893 29.9753 31.3759 29.9753 31.3759L31.132 27.4678C31.132 27.4678 33.7612 27.101 35.5344 28.9506L33.7714 32.502Z" fill="#FB8C00"/>
<path d="M0 48.6924L3.69718 48.4667L3.94532 52.5353L0.248143 52.761L0 48.6924Z" fill="#FB8C00"/>
<path d="M19.6319 47.9816L17.283 44.6493C18.3224 43.9156 19.2752 43.0443 20.1007 42.071L23.2088 44.7104C22.1577 45.9458 20.956 47.0447 19.6319 47.9816Z" fill="#FB8C00"/>
<path d="M19.6624 57.3978C18.4395 56.3889 17.1453 55.4514 15.8103 54.6056L17.9911 51.1611C19.4688 52.0936 20.9005 53.133 22.2559 54.2489L19.6624 57.3978Z" fill="#F44336"/>
<path d="M42.3977 39.4113C42.5404 41.0978 42.7391 42.3105 43.1161 43.8901L45.8014 41.7347L43.1875 38.4686L42.3977 39.4113Z" fill="#0076C6"/>
<path d="M38.0769 42.0119L42.1837 38.7198L44.7334 41.8998L40.6266 45.1925L38.0769 42.0119Z" fill="#FFC107"/>
<path d="M36.6757 62.4269C35.9623 61.1174 35.1623 59.8385 34.2961 58.6258L37.6132 56.2565C38.5796 57.6085 39.4611 59.0192 40.2526 60.4805L36.6757 62.4269Z" fill="#FB8C00"/>

</svg>
