<svg width="20" height="20" viewBox="0 0 20 20" fill="none" xmlns="http://www.w3.org/2000/svg">
<path d="M6.09067 10.5532C5.86254 10.5532 5.86723 10.3032 5.86723 10.3032C5.86723 10.3032 5.85004 8.68447 5.80786 8.46416C5.74848 8.15322 5.54848 7.56572 4.76254 7.60322C4.43598 7.61885 3.80629 7.74541 3.73598 8.83291C3.72036 9.06728 3.76411 11.3985 3.78129 11.7532C3.78129 11.7532 3.91254 14.5595 4.29692 15.9298C4.40317 16.311 4.53286 16.7282 4.75317 17.1423C4.97192 17.5548 5.26567 17.972 5.65004 18.3329C6.02973 18.697 6.49848 18.9954 7.00473 19.211C7.51098 19.4251 8.05317 19.5517 8.59067 19.6157C8.72504 19.6298 8.85942 19.6438 8.99379 19.6501L9.37348 19.6751C9.63911 19.6892 9.90161 19.6892 10.161 19.6798C10.6797 19.6642 11.1891 19.6032 11.6766 19.511C12.1641 19.4157 12.6282 19.2813 13.0547 19.111C13.4813 18.9423 13.8672 18.7329 14.1969 18.5032C14.5297 18.2767 14.8 18.022 15.0125 17.7782C15.2313 17.5392 15.3735 17.2938 15.486 17.0954C15.5922 16.8923 15.6594 16.7282 15.6954 16.6126C15.7329 16.4985 15.7532 16.4376 15.7532 16.4376C15.836 16.2485 14.4954 12.9079 14.4954 12.9079C14.4047 13.1798 13.961 13.172 13.9219 12.8892C13.8016 12.0001 13.7954 9.85791 13.7954 9.85791C13.7454 8.94853 11.5375 8.61259 11.5375 8.61259C11.5407 8.92978 11.1313 8.98916 11.1079 8.66259C11.1079 8.66259 8.87661 8.08291 8.86567 10.0173C8.86567 10.147 8.82817 10.286 8.65004 10.286C8.64848 10.286 8.45473 10.3001 8.45473 10.0517C8.45473 9.52978 8.39067 8.42197 8.38286 8.13916C8.36567 7.49072 8.06879 6.91416 7.40317 6.90635C6.79536 6.89853 6.25317 7.37197 6.28442 8.09385L6.30942 10.3376C6.30942 10.336 6.30473 10.5532 6.09067 10.5532Z" fill="#FAC036"/>
<path d="M15.8203 12.986C15.5609 12.1032 15.2328 11.7141 14.4578 11.3547L14.4406 10.0532C14.4015 9.29849 13.9203 8.26881 13.0609 5.79537C12.5484 4.32037 11.875 2.31724 11.875 2.31724C11.5765 1.60631 11.3515 0.456306 10.2609 0.728182C9.08904 1.02193 9.52029 2.33131 9.66248 2.81099C9.87029 3.51412 10.925 7.75943 10.925 7.75943C10.925 7.75943 11.2797 8.28756 11.4969 8.51881C11.4969 8.51881 13.5484 3.10474 13.7515 2.36724C13.9094 1.79068 14.2219 0.915682 13.3422 0.642244C12.3359 0.329744 11.9375 1.05162 11.3828 2.23756C11.3828 2.23756 8.86404 7.66256 8.87029 8.30475L8.86872 10.0141C8.86872 10.1235 8.85466 10.2813 8.6531 10.2829C8.44373 10.2829 8.45779 10.0251 8.45779 10.0251C8.45779 10.0251 6.45154 11.5329 6.68591 12.0735L6.41873 12.2344C6.30779 12.0266 4.01716 12.1922 4.17341 12.5079L4.5031 13.3844C4.5031 13.3844 5.14216 15.4954 5.57654 16.6469L5.5906 16.6907C5.5906 16.6907 5.60154 16.7172 5.61873 16.761C5.68591 16.9344 5.74841 17.0829 5.79997 17.1891C5.90779 17.4391 5.91404 17.4797 5.99373 17.6219C6.78904 19.0141 8.27498 19.7501 9.8531 19.6797C10.0531 19.6704 13.7437 19.886 15.4625 17.1688C15.725 16.7532 15.9859 16.1266 16.0078 14.7438C16.014 14.2235 15.9687 13.4922 15.8203 12.986Z" fill="#FAC036"/>
<path d="M10.1953 4.85767C10.1953 4.85767 10.9094 6.85923 11.25 8.33579C11.2984 8.54517 11.2031 8.62329 11.1203 8.40767C10.8484 7.69204 10.1984 6.02798 9.73438 5.92954L10.1953 4.85767Z" fill="#E48C15"/>
<path d="M11.4391 10.4532C11.4391 10.4532 13.2891 10.836 14.4594 11.3548L14.45 10.7126C14.45 10.7126 13.2157 10.2204 12.036 10.0548C11.6391 9.99851 11.1203 9.87976 10.7313 9.89695C10.0672 9.92663 9.17347 10.1298 8.60628 10.8219C8.60628 10.8219 8.04222 11.7079 8.7469 12.5626C8.7469 12.5626 8.9594 12.8673 9.68128 13.036C9.68128 13.036 10.0469 13.1266 10.4328 13.1391C11.0391 13.1579 11.375 13.1813 11.7485 13.2704C11.7485 13.2704 12.7782 13.5141 12.8907 14.1782C12.8907 14.1782 12.9157 14.4813 12.75 14.8548C12.75 14.8548 12.6703 15.1579 12.8625 15.2141C12.9625 15.2438 13.1985 15.1688 13.336 15.0251C13.336 15.0251 13.5016 14.8798 13.5532 14.5266C13.5532 14.5266 13.6922 13.9938 13.1625 13.4673C13.1625 13.4673 12.8 13.0751 12.2891 12.9235C11.7469 12.7626 11.5969 12.6907 10.7078 12.6423C10.7078 12.6423 9.7969 12.6219 9.20003 12.236C9.20003 12.236 8.70315 11.8829 9.03597 11.2423C9.0344 11.2438 9.48597 10.261 11.4391 10.4532Z" fill="#E48C15"/>
<path d="M8.38916 8.28125C8.38916 8.28125 8.62979 8.56563 8.86572 8.28125V11.9938C8.86572 11.9938 8.88604 12.2625 8.6501 12.2625C8.41416 12.2625 8.39385 12.0047 8.39385 12.0047L8.38916 8.28125Z" fill="#E48C15"/>
<path d="M5.83447 8.82812C5.83447 8.82812 6.04072 9.14062 6.30322 8.82812L6.36103 11.9922C6.36103 11.9922 6.33603 12.2609 6.09072 12.2609C5.84541 12.2609 5.86729 12.0109 5.86729 12.0109L5.83447 8.82812Z" fill="#E48C15"/>
<path d="M8.39404 12.0032C8.39716 12.4782 8.22841 13.1172 7.37529 13.1313C6.52372 13.1172 6.35654 12.4672 6.35966 11.9922C6.36122 11.8313 5.86747 11.8938 5.86747 12.011C5.86435 12.3735 6.0331 13.5407 7.36591 13.5407H7.38779C8.7206 13.5407 8.86904 12.3547 8.86591 11.9922C8.86435 11.8766 8.39404 11.8422 8.39404 12.0032Z" fill="#E48C15"/>
<path d="M5.86733 11.5469C5.87046 12.0219 5.72358 12.6609 4.87202 12.675C4.02046 12.6609 3.78921 12.0141 3.77515 11.5375C3.80171 11.9469 3.79546 13.0844 4.86108 13.0844H4.88296C6.21577 13.0844 6.36421 11.8984 6.36108 11.5359C6.35952 11.4203 5.86733 11.3859 5.86733 11.5469Z" fill="#E48C15"/>
</svg>
