<svg width="51" height="59" viewBox="0 0 51 59" fill="none" xmlns="http://www.w3.org/2000/svg">
<path d="M41.9535 4.62102L43.5118 1.31724C43.5539 1.2228 43.6224 1.14257 43.7091 1.08627C43.7959 1.02996 43.897 1 44.0004 1C44.1038 1 44.205 1.02996 44.2917 1.08627C44.3784 1.14257 44.4469 1.2228 44.489 1.31724L46.0491 4.62102L49.5327 5.15422C49.9801 5.2228 50.1584 5.79887 49.8344 6.12804L47.3143 8.69975L47.9092 12.331C47.9846 12.7973 47.5183 13.1539 47.1171 12.9328L44.0004 11.2183L40.8837 12.9328C40.4843 13.1522 40.0162 12.7973 40.0917 12.331L40.6866 8.69975L38.1664 6.12804C37.8407 5.79887 38.0207 5.2228 38.4665 5.15422L41.9535 4.62274V4.62102Z" stroke="#B9D3F4" stroke-width="1.5" stroke-linecap="round" stroke-linejoin="round"/>
<path d="M0.260145 13.994C17.0837 23.4821 46.3895 16.9393 48.5842 12.7489" stroke="#B9D3F4"/>
<ellipse cx="8" cy="8.5" rx="8" ry="7.5" fill="#B9D3F4"/>
<path d="M24.7414 37.1272L13.4403 37.1879C10.7402 37.2024 9.39681 33.9215 11.3316 32.0382L16.3904 27.1141L24.6312 19.0928C25.8184 17.9372 27.7178 17.9628 28.8734 19.1501L41.8411 32.4725C43.7214 34.4042 42.2978 37.6429 39.6033 37.5637L24.7414 37.1272Z" fill="#B9D3F4"/>
</svg>
