<svg width="18" height="18" viewBox="0 0 18 18" fill="none" xmlns="http://www.w3.org/2000/svg">
<path d="M8.4375 6.10331L6.24375 5.68143L4.44375 14.9346C4.33125 15.5533 4.725 16.1721 5.31563 16.2846C5.93438 16.3971 6.525 15.9752 6.6375 15.3564L8.4375 6.10331Z" fill="#FFDD67"/>
<path d="M5.28672 16.2844C5.37109 16.3125 5.42734 16.3125 5.51172 16.3125C5.00547 16.1156 4.72422 15.5812 4.83672 15.0187L6.63672 5.76562L6.24297 5.68125L4.44297 14.9344C4.30234 15.5813 4.69609 16.1719 5.28672 16.2844Z" fill="#EBA352"/>
<path d="M10.6875 5.82188H8.04375L8.04375 16.0312C8.04375 16.7906 8.63438 17.4375 9.36562 17.4375C10.0687 17.4375 10.6875 16.8187 10.6875 16.0312L10.6875 5.82188Z" fill="#FFDD67"/>
<path d="M9.33828 17.4375C9.39453 17.4375 9.47891 17.4375 9.53516 17.4094C8.88828 17.2969 8.41016 16.7344 8.41016 16.0312L8.41016 5.79375H8.01641L8.01641 16.0312C8.01641 16.8187 8.60703 17.4375 9.33828 17.4375Z" fill="#EBA352"/>
<path d="M12.094 5.84979L9.84401 6.44042L12.2909 15.7498C12.4596 16.3967 13.1065 16.7904 13.7253 16.6498C14.344 16.481 14.7096 15.8342 14.5409 15.1873L12.094 5.84979Z" fill="#FFDD67"/>
<path d="M13.7258 16.6498L13.8945 16.5654C13.332 16.5935 12.8258 16.2279 12.657 15.6373L10.2102 6.32792L9.81641 6.44042L12.2914 15.7498C12.4602 16.3967 13.107 16.7904 13.7258 16.6498Z" fill="#EBA352"/>
<path d="M16.8752 14.2312C17.4096 13.9781 17.5784 13.3031 17.2971 12.7406L13.5846 5.34369L11.7002 6.29994L15.4127 13.6968C15.694 14.2593 16.3409 14.4843 16.8752 14.2312Z" fill="#FFDD67"/>
<path d="M16.8742 14.2312C16.9305 14.2031 16.9867 14.1749 17.043 14.1187C16.5648 14.2593 16.0305 14.0062 15.7773 13.4999L12.0648 6.10307L11.6992 6.27182L15.4117 13.6968C15.693 14.2593 16.3398 14.4843 16.8742 14.2312Z" fill="#EBA352"/>
<path d="M0.64757 9.75951C1.09757 10.6314 2.50382 10.5751 3.9382 9.00014C4.9507 7.90326 5.14757 7.53764 6.16007 7.56576V8.71889C6.16007 8.71889 8.3257 10.322 12.6288 9.59076C12.6288 9.59076 15.0757 9.25326 15.0757 7.95951C15.0757 7.95951 15.4976 4.83764 14.6257 2.86888C13.3319 -0.0561161 6.69445 -0.815492 4.6132 4.16263C4.19132 5.14701 3.34757 5.87826 2.58819 6.80639C1.71632 7.93139 0.169445 8.83139 0.64757 9.75951Z" fill="#FFDD67"/>
<path d="M0.647655 9.75957C0.73203 9.92832 0.844529 10.0408 0.985154 10.1533C0.957029 10.1252 0.928905 10.0971 0.928905 10.0408C0.45078 9.08457 1.99765 8.2127 2.92578 7.0877C3.68515 6.15957 4.5289 5.42832 4.95078 4.44394C6.75078 0.140819 11.982 0.14082 14.1758 2.10957C12.1789 -0.14043 6.5539 -0.365431 4.66953 4.16269C4.24765 5.14707 3.4039 5.87832 2.64453 6.80645C1.7164 7.93145 0.16953 8.83145 0.647655 9.75957ZM5.87891 7.56582C7.70703 8.24082 10.9695 7.00332 10.5195 3.71269C10.5195 6.77832 7.73516 7.53769 6.2164 7.53769C5.99141 7.56582 5.87891 7.56582 5.87891 7.56582Z" fill="#EBA352"/>
</svg>
