<svg width="18" height="18" viewBox="0 0 18 18" fill="none" xmlns="http://www.w3.org/2000/svg">
<path d="M9.5625 11.8967L11.7562 12.3186L13.5563 3.06544C13.6688 2.44669 13.275 1.82794 12.6844 1.71544C12.0656 1.60294 11.475 2.02482 11.3625 2.64357L9.5625 11.8967Z" fill="#FFDD67"/>
<path d="M12.7133 1.71562C12.6289 1.6875 12.5727 1.6875 12.4883 1.6875C12.9945 1.88437 13.2758 2.41875 13.1633 2.98125L11.3633 12.2344L11.757 12.3187L13.557 3.06562C13.6977 2.41875 13.3039 1.82812 12.7133 1.71562Z" fill="#EBA352"/>
<path d="M7.3125 12.1781H9.95625V1.96875C9.95625 1.20937 9.36562 0.5625 8.63438 0.5625C7.93125 0.5625 7.3125 1.18125 7.3125 1.96875V12.1781Z" fill="#FFDD67"/>
<path d="M8.66172 0.5625C8.60547 0.5625 8.52109 0.5625 8.46484 0.590625C9.11172 0.703125 9.58984 1.26562 9.58984 1.96875V12.2063H9.98359V1.96875C9.98359 1.18125 9.39297 0.5625 8.66172 0.5625Z" fill="#EBA352"/>
<path d="M5.90599 12.1502L8.15599 11.5596L5.70912 2.25021C5.54037 1.60333 4.89349 1.20958 4.27474 1.35021C3.65599 1.51896 3.29037 2.16583 3.45912 2.81271L5.90599 12.1502Z" fill="#FFDD67"/>
<path d="M4.27422 1.35021L4.10547 1.43458C4.66797 1.40646 5.17422 1.77208 5.34297 2.36271L7.78984 11.6721L8.18359 11.5596L5.70859 2.25021C5.53984 1.60333 4.89297 1.20958 4.27422 1.35021Z" fill="#EBA352"/>
<path d="M1.12477 3.76881C0.590391 4.02193 0.421641 4.69693 0.70289 5.25943L4.41539 12.6563L6.29976 11.7001L2.58727 4.30318C2.30602 3.74068 1.65914 3.51568 1.12477 3.76881Z" fill="#FFDD67"/>
<path d="M1.12578 3.76881C1.06953 3.79693 1.01328 3.82506 0.957031 3.88131C1.43516 3.74068 1.96953 3.99381 2.22266 4.50006L5.93516 11.8969L6.30078 11.7282L2.58828 4.30318C2.30703 3.74068 1.66016 3.51568 1.12578 3.76881Z" fill="#EBA352"/>
<path d="M17.3524 8.24049C16.9024 7.36861 15.4962 7.42486 14.0618 8.99986C13.0493 10.0967 12.8524 10.4624 11.8399 10.4342V9.28111C11.8399 9.28111 9.6743 7.67799 5.37118 8.40924C5.37118 8.40924 2.9243 8.74674 2.9243 10.0405C2.9243 10.0405 2.50243 13.1624 3.3743 15.1311C4.66805 18.0561 11.3056 18.8155 13.3868 13.8374C13.8087 12.853 14.6524 12.1217 15.4118 11.1936C16.2837 10.0686 17.8306 9.16861 17.3524 8.24049Z" fill="#FFDD67"/>
<path d="M17.3523 8.24043C17.268 8.07168 17.1555 7.95918 17.0148 7.84668C17.043 7.8748 17.0711 7.90293 17.0711 7.95918C17.5492 8.91543 16.0023 9.7873 15.0742 10.9123C14.3148 11.8404 13.4711 12.5717 13.0492 13.5561C11.2492 17.8592 6.01797 17.8592 3.82422 15.8904C5.82109 18.1404 11.4461 18.3654 13.3305 13.8373C13.7523 12.8529 14.5961 12.1217 15.3555 11.1936C16.2836 10.0686 17.8305 9.16855 17.3523 8.24043ZM12.1211 10.4342C10.293 9.75918 7.03047 10.9967 7.48047 14.2873C7.48047 11.2217 10.2648 10.4623 11.7836 10.4623C12.0086 10.4342 12.1211 10.4342 12.1211 10.4342Z" fill="#EBA352"/>
</svg>
