<svg width="240" height="240" viewBox="0 0 240 240" fill="none" xmlns="http://www.w3.org/2000/svg">
<path d="M119.831 239.222C186.012 239.222 239.662 208.245 239.662 170.034C239.662 131.823 186.012 100.846 119.831 100.846C53.6503 100.846 0 131.823 0 170.034C0 208.245 53.6503 239.222 119.831 239.222Z" fill="#F5F5F5"/>
<path d="M166.991 147.304L207.353 170.603C207.862 170.898 208.439 171.054 209.027 171.054C209.616 171.054 210.193 170.898 210.702 170.603L233.158 157.628C233.309 157.541 233.435 157.415 233.523 157.263C233.61 157.111 233.656 156.939 233.656 156.764C233.656 156.589 233.61 156.417 233.523 156.266C233.435 156.114 233.309 155.988 233.158 155.9L192.806 132.661C192.299 132.368 191.723 132.214 191.138 132.214C190.552 132.214 189.976 132.368 189.469 132.661L166.996 145.571C166.845 145.659 166.719 145.785 166.631 145.937C166.543 146.089 166.497 146.261 166.496 146.436C166.496 146.611 166.541 146.784 166.628 146.936C166.715 147.088 166.84 147.215 166.991 147.304Z" fill="#E0E0E0"/>
<path d="M135.231 138.638L38.1455 194.824C37.3549 195.283 36.458 195.527 35.544 195.532C34.6299 195.536 33.7305 195.302 32.9352 194.851L7.71553 180.578C7.45356 180.428 7.23591 180.211 7.08456 179.949C6.93321 179.688 6.85352 179.391 6.85352 179.089C6.85352 178.787 6.93321 178.49 7.08456 178.229C7.23591 177.967 7.45356 177.75 7.71553 177.6L104.618 121.634C105.407 121.18 106.299 120.939 107.208 120.934C108.118 120.928 109.013 121.158 109.807 121.601L135.209 135.837C135.458 135.976 135.666 136.178 135.811 136.423C135.956 136.667 136.034 136.947 136.036 137.231C136.038 137.516 135.965 137.796 135.823 138.043C135.682 138.291 135.477 138.496 135.231 138.638Z" fill="#E0E0E0"/>
<path d="M150.771 195.028C165.484 195.028 177.412 188.141 177.412 179.644C177.412 171.148 165.484 164.26 150.771 164.26C136.057 164.26 124.129 171.148 124.129 179.644C124.129 188.141 136.057 195.028 150.771 195.028Z" fill="#E0E0E0"/>
<path d="M208.394 188.493C213.524 188.493 217.682 186.09 217.682 183.127C217.682 180.163 213.524 177.761 208.394 177.761C203.264 177.761 199.105 180.163 199.105 183.127C199.105 186.09 203.264 188.493 208.394 188.493Z" fill="#E0E0E0"/>
<path d="M208.695 98.5815L208.706 169.395L231.64 156.141V85.3975L208.695 98.5815Z" fill="#E6E6E6"/>
<path d="M169.744 146.902L208.706 169.396V98.6463L169.755 76.2222L169.744 146.902Z" fill="#EBEBEB"/>
<path d="M169.744 76.1523L208.706 98.6461L231.64 85.3977L192.694 62.9683L169.744 76.1523Z" fill="#F5F5F5"/>
<path d="M174.31 102.048L203.914 119.144C204.043 119.218 204.19 119.257 204.339 119.256C204.488 119.256 204.634 119.217 204.763 119.143C204.893 119.068 205 118.961 205.075 118.833C205.15 118.704 205.19 118.558 205.191 118.409V103.389C205.189 103.018 205.088 102.655 204.9 102.335C204.711 102.015 204.441 101.752 204.118 101.57L174.562 84.539C174.433 84.4647 174.286 84.4259 174.136 84.4263C173.987 84.4267 173.84 84.4664 173.71 84.5414C173.581 84.6164 173.474 84.724 173.399 84.8536C173.325 84.9831 173.285 85.13 173.285 85.2795V100.229C173.282 100.595 173.375 100.956 173.555 101.275C173.734 101.595 173.995 101.861 174.31 102.048Z" fill="#FAFAFA"/>
<path d="M191.835 98.2865C191.733 98.2856 191.633 98.2579 191.545 98.206L186.319 95.2011C186.198 95.1164 186.114 94.9899 186.082 94.8463C186.051 94.7027 186.073 94.5525 186.147 94.4249C186.22 94.2974 186.338 94.2018 186.478 94.1568C186.618 94.1117 186.77 94.1206 186.903 94.1816L192.13 97.1918C192.233 97.2597 192.312 97.3586 192.356 97.4743C192.4 97.59 192.405 97.7166 192.373 97.8358C192.34 97.955 192.27 98.0608 192.173 98.1379C192.077 98.215 191.958 98.2595 191.835 98.265V98.2865Z" fill="#E0E0E0"/>
<path d="M174.31 123.018L203.914 140.109C204.043 140.183 204.19 140.222 204.339 140.221C204.488 140.221 204.634 140.182 204.763 140.108C204.892 140.033 205 139.926 205.075 139.798C205.15 139.669 205.19 139.523 205.191 139.373V124.349C205.188 123.978 205.088 123.614 204.899 123.295C204.711 122.976 204.441 122.712 204.118 122.53L174.562 105.536C174.433 105.462 174.286 105.423 174.137 105.423C173.988 105.424 173.842 105.463 173.713 105.537C173.584 105.611 173.476 105.718 173.401 105.847C173.326 105.976 173.286 106.122 173.285 106.271V121.221C173.286 121.583 173.381 121.94 173.561 122.255C173.74 122.57 173.998 122.833 174.31 123.018Z" fill="#FAFAFA"/>
<path d="M191.835 119.251C191.733 119.25 191.634 119.224 191.545 119.176L186.319 116.166C186.198 116.081 186.114 115.955 186.082 115.811C186.051 115.668 186.073 115.517 186.147 115.39C186.22 115.262 186.338 115.167 186.478 115.122C186.618 115.077 186.77 115.085 186.903 115.146L192.13 118.157C192.233 118.225 192.312 118.323 192.356 118.439C192.4 118.555 192.405 118.681 192.373 118.801C192.34 118.92 192.27 119.026 192.173 119.103C192.077 119.18 191.958 119.224 191.835 119.23V119.251Z" fill="#E0E0E0"/>
<path d="M174.31 143.983L203.914 161.073C204.043 161.147 204.19 161.186 204.339 161.186C204.488 161.186 204.634 161.146 204.763 161.072C204.893 160.998 205 160.891 205.075 160.762C205.15 160.633 205.19 160.487 205.191 160.338V145.313C205.188 144.942 205.088 144.579 204.899 144.259C204.711 143.94 204.441 143.676 204.118 143.494L174.562 126.463C174.433 126.389 174.287 126.35 174.138 126.35C173.988 126.35 173.842 126.389 173.713 126.464C173.584 126.538 173.476 126.645 173.401 126.774C173.326 126.903 173.286 127.049 173.285 127.198V142.153C173.281 142.521 173.373 142.884 173.553 143.205C173.733 143.526 173.994 143.794 174.31 143.983Z" fill="#FAFAFA"/>
<path d="M191.837 140.216C191.735 140.217 191.635 140.191 191.547 140.14L186.32 137.13C186.254 137.092 186.195 137.041 186.149 136.98C186.102 136.919 186.067 136.849 186.047 136.775C186.027 136.701 186.022 136.623 186.032 136.547C186.042 136.471 186.067 136.397 186.106 136.331C186.144 136.264 186.195 136.205 186.256 136.159C186.317 136.112 186.387 136.078 186.462 136.058C186.536 136.039 186.614 136.034 186.69 136.045C186.766 136.056 186.839 136.082 186.905 136.121L192.132 139.126C192.198 139.165 192.257 139.216 192.304 139.277C192.35 139.338 192.385 139.407 192.405 139.482C192.425 139.556 192.43 139.633 192.42 139.709C192.41 139.786 192.385 139.859 192.346 139.926C192.295 140.015 192.221 140.09 192.131 140.141C192.042 140.192 191.94 140.218 191.837 140.216Z" fill="#E0E0E0"/>
<path d="M194.1 27.2744V46.1999L210.492 55.66V36.7345L194.1 27.2744Z" fill="#FAFAFA"/>
<path d="M195.876 28.2939L210.514 36.7345V53.6102L195.897 45.175V28.2939H195.876ZM195.006 26.7593L194.121 27.2959V46.2214L210.514 55.66L211.399 55.1234V36.2247L194.985 26.7593H195.006Z" fill="#E0E0E0"/>
<path d="M194.985 28.8037L209.602 37.2442V54.12L194.985 45.6794V28.8037ZM194.1 27.269V46.1946L210.514 55.66V36.7345L194.1 27.2744V27.269Z" fill="#EBEBEB"/>
<path d="M196.504 41.8696L208.904 49.0277L205.24 39.4979L202.707 42.5081L200.11 38.8164L196.504 41.8696Z" fill="#E0E0E0"/>
<path d="M200.807 35.9241C200.828 36.3166 200.941 36.6987 201.138 37.039C201.335 37.3794 201.609 37.6684 201.939 37.8826C202.561 38.2421 203.071 37.947 203.071 37.228C203.049 36.8356 202.935 36.4539 202.739 36.1137C202.542 35.7734 202.268 35.4843 201.939 35.2694C201.311 34.9099 200.807 35.1997 200.807 35.9241Z" fill="#E0E0E0"/>
<path d="M215.402 50.1816V65.2598L228.458 72.7989V57.7207L215.402 50.1816Z" fill="#FAFAFA"/>
<path d="M216.814 51.0023L228.458 57.7204V71.1941L216.814 64.4707V51.0559V51.0023ZM216.105 49.8271L215.402 50.2349V65.3131L228.458 72.8039L229.166 72.3961V57.3179L216.105 49.8057V49.8271Z" fill="#E0E0E0"/>
<path d="M216.105 51.4104L227.749 58.1285V71.5755L216.105 64.852V51.4104ZM215.402 50.1816V65.2598L228.458 72.8043V57.7261L215.402 50.2138V50.1816Z" fill="#EBEBEB"/>
<path d="M217.318 61.8092L227.192 67.5131L224.278 59.9204L222.255 62.3243L220.189 59.3784L217.318 61.8092Z" fill="#E0E0E0"/>
<path d="M220.742 57.0766C220.759 57.3894 220.85 57.6937 221.007 57.9649C221.163 58.2362 221.381 58.4668 221.644 58.6381C222.143 58.9225 222.545 58.6917 222.545 58.1015C222.529 57.7886 222.439 57.4839 222.282 57.2125C222.125 56.9411 221.906 56.7107 221.644 56.54C221.145 56.2664 220.742 56.5025 220.742 57.0766Z" fill="#E0E0E0"/>
<path d="M208.943 169.454C208.943 169.454 203.234 163.879 206.486 154.543C208.305 149.311 214.336 145.469 217.754 145.104C216.617 146.456 215.71 147.986 215.071 149.633L210.746 152.509L214.722 151.264L213.874 154.666C213.874 154.666 210.177 156.904 209.63 157.392L213.617 156.351C213.617 156.351 213.327 165.988 208.943 169.454Z" fill="#003478"/>
<path opacity="0.4" d="M208.943 169.454C208.943 169.454 203.234 163.879 206.486 154.543C208.305 149.311 214.336 145.469 217.754 145.104C216.617 146.456 215.71 147.986 215.071 149.633L210.746 152.509L214.722 151.264L213.874 154.666C213.874 154.666 210.177 156.904 209.63 157.392L213.617 156.351C213.617 156.351 213.327 165.988 208.943 169.454Z" fill="black"/>
<path d="M208.944 169.454C208.944 169.454 205.988 157.789 210.361 150.985C210.361 150.985 205.237 156.989 208.944 169.454Z" fill="white"/>
<path d="M215.474 171.032L208.499 170.946H208.429L201.453 171.032C201.453 171.032 201.373 179.618 204.024 183.138C204.759 184.071 206.471 184.747 208.472 184.747C210.473 184.747 212.196 184.087 212.926 183.138C215.555 179.628 215.474 171.032 215.474 171.032Z" fill="#37474F"/>
<path d="M215.475 171.032C215.475 173.114 212.336 174.788 208.456 174.788C204.577 174.788 201.438 173.098 201.438 171.032C201.438 168.966 204.582 167.276 208.456 167.276C212.33 167.276 215.475 168.95 215.475 171.032Z" fill="#455A64"/>
<path d="M208.455 170.034C210.869 170.034 212.914 170.807 213.638 171.88C213.815 171.632 213.912 171.336 213.917 171.032C213.917 169.546 211.47 168.349 208.455 168.349C205.439 168.349 202.992 169.556 202.992 171.032C202.997 171.337 203.096 171.634 203.277 171.88C203.996 170.807 206.04 170.034 208.455 170.034Z" fill="#263238"/>
<path d="M208.455 170.034C206.041 170.034 203.996 170.807 203.277 171.88C203.996 172.953 206.041 173.731 208.455 173.731C210.87 173.731 212.914 172.953 213.639 171.88C212.914 170.807 210.87 170.034 208.455 170.034Z" fill="#E0E0E0"/>
<path d="M208.541 172.347C208.541 172.347 205.858 172.245 203.519 168.65C202.558 167.169 202.097 166.391 202.097 166.391L205.853 166.106L201.63 165.033L199.634 161.98L203.138 161.717C201.693 161.213 200.188 160.901 198.662 160.789C198.662 160.789 195.443 155.079 194.482 154.264C196.936 154.413 199.335 155.054 201.536 156.148C203.737 157.242 205.696 158.767 207.296 160.633C212.592 166.916 209.33 172.508 208.541 172.347Z" fill="#003478"/>
<path d="M208.54 172.347C208.54 172.347 210.236 162.151 199.418 156.023C199.434 156.023 210.643 161.411 208.54 172.347Z" fill="white"/>
<path d="M208.541 172.347C208.541 172.347 210.993 172.508 213.424 169.487C214.428 168.236 214.916 167.576 214.916 167.576L211.541 166.97L215.452 166.434L217.54 163.863L214.401 163.3C215.752 162.981 217.139 162.842 218.527 162.887C218.527 162.887 221.983 158.057 222.911 157.392C220.693 157.293 218.479 157.639 216.397 158.409C214.315 159.18 212.408 160.359 210.789 161.878C205.402 167.067 207.833 172.417 208.541 172.347Z" fill="#003478"/>
<path opacity="0.2" d="M208.541 172.347C208.541 172.347 210.993 172.508 213.424 169.487C214.428 168.236 214.916 167.576 214.916 167.576L211.541 166.97L215.452 166.434L217.54 163.863L214.401 163.3C215.752 162.981 217.139 162.842 218.527 162.887C218.527 162.887 221.983 158.057 222.911 157.392C220.693 157.293 218.479 157.639 216.397 158.409C214.315 159.18 212.408 160.359 210.789 161.878C205.402 167.067 207.833 172.417 208.541 172.347Z" fill="black"/>
<path d="M208.54 172.346C208.54 172.346 207.971 162.994 218.295 158.476C218.295 158.476 207.676 162.28 208.54 172.346Z" fill="white"/>
<path d="M102.01 42.1381L99.5686 41.1454L99.3218 41.0435H99.2949C98.8572 40.8854 98.3902 40.8251 97.9267 40.8668C97.4632 40.9086 97.0144 41.0513 96.612 41.2849L12.8289 89.6424C11.0681 90.6571 9.60591 92.1178 8.58946 93.8775C7.57302 95.6372 7.03826 97.6337 7.03906 99.6659V172.61C7.03949 173.385 7.24399 174.147 7.63201 174.818C8.02003 175.489 8.57789 176.046 9.24952 176.433C9.92115 176.821 10.6829 177.024 11.4581 177.024C12.2334 177.023 12.9948 176.819 13.6659 176.43L97.5295 128.014C98.7261 127.322 99.7196 126.328 100.41 125.131C101.1 123.934 101.464 122.576 101.463 121.194V44.0967C101.464 43.5445 101.324 43.0013 101.055 42.5191L102.01 42.1381Z" fill="#003478"/>
<path opacity="0.3" d="M102.01 42.1381L99.5686 41.1454L99.3218 41.0435H99.2949C98.8572 40.8854 98.3902 40.8251 97.9267 40.8668C97.4632 40.9086 97.0144 41.0513 96.612 41.2849L12.8289 89.6424C11.0681 90.6571 9.60591 92.1178 8.58946 93.8775C7.57302 95.6372 7.03826 97.6337 7.03906 99.6659V172.61C7.03949 173.385 7.24399 174.147 7.63201 174.818C8.02003 175.489 8.57789 176.046 9.24952 176.433C9.92115 176.821 10.6829 177.024 11.4581 177.024C12.2334 177.023 12.9948 176.819 13.6659 176.43L97.5295 128.014C98.7261 127.322 99.7196 126.328 100.41 125.131C101.1 123.934 101.464 122.576 101.463 121.194V44.0967C101.464 43.5445 101.324 43.0013 101.055 42.5191L102.01 42.1381Z" fill="black"/>
<path d="M103.685 44.9768V122.101C103.686 123.483 103.322 124.841 102.631 126.037C101.939 127.234 100.944 128.226 99.7464 128.916L15.8827 177.337C15.211 177.724 14.4494 177.927 13.6743 177.927C12.8992 177.926 12.1379 177.722 11.4667 177.334C10.7954 176.947 10.2378 176.39 9.84983 175.719C9.4618 175.048 9.25697 174.287 9.25586 173.512V100.535C9.25632 98.5356 9.77587 96.5702 10.7637 94.8314C11.5119 93.5417 12.5921 92.4763 13.892 91.746L100.514 41.7305C101.354 41.7567 102.151 42.1061 102.74 42.7059C103.329 43.3057 103.664 44.1096 103.674 44.95L103.685 44.9768Z" fill="#003478"/>
<path opacity="0.1" d="M103.685 44.9768V122.101C103.686 123.483 103.322 124.841 102.631 126.037C101.939 127.234 100.944 128.226 99.7464 128.916L15.8827 177.337C15.211 177.724 14.4494 177.927 13.6743 177.927C12.8992 177.926 12.1379 177.722 11.4667 177.334C10.7954 176.947 10.2378 176.39 9.84983 175.719C9.4618 175.048 9.25697 174.287 9.25586 173.512V100.535C9.25632 98.5356 9.77587 96.5702 10.7637 94.8314C11.5119 93.5417 12.5921 92.4763 13.892 91.746L100.514 41.7305C101.354 41.7567 102.151 42.1061 102.74 42.7059C103.329 43.3057 103.664 44.1096 103.674 44.95L103.685 44.9768Z" fill="black"/>
<path d="M99.7462 128.915L15.8826 177.337C15.2334 177.717 14.4973 177.923 13.7454 177.935C12.9934 177.947 12.251 177.765 11.5898 177.407L61.6644 102.043L103.685 122.095C103.685 123.478 103.321 124.836 102.63 126.033C101.938 127.231 100.944 128.225 99.7462 128.915Z" fill="#003478"/>
<path opacity="0.2" d="M99.7462 128.915L15.8826 177.337C15.2334 177.717 14.4973 177.923 13.7454 177.935C12.9934 177.947 12.251 177.765 11.5898 177.407L61.6644 102.043L103.685 122.095C103.685 123.478 103.321 124.836 102.63 126.033C101.938 127.231 100.944 128.225 99.7462 128.915Z" fill="black"/>
<path d="M102.274 42.3046L68.0768 113.837C67.4033 115.243 66.4468 116.494 65.2674 117.513C64.0879 118.531 62.7108 119.296 61.2224 119.758C59.7339 120.219 58.1661 120.369 56.6172 120.197C55.0682 120.025 53.5714 119.535 52.2206 118.758L10.7637 94.8475C11.4713 93.5909 12.5036 92.5475 13.7525 91.8265L100.514 41.7305C101.144 41.7454 101.756 41.9451 102.274 42.3046Z" fill="#003478"/>
<path d="M19.3711 71.8808L43.9362 57.6934V40.1094L26.0838 49.9504C24.0505 51.0696 22.3549 52.7142 21.1742 54.7123C19.9934 56.7105 19.3707 58.989 19.3711 61.31V71.8808Z" fill="#003478"/>
<path opacity="0.5" d="M19.3711 71.8808L43.9362 57.6934V40.1094L26.0838 49.9504C24.0505 51.0696 22.3549 52.7142 21.1742 54.7123C19.9934 56.7105 19.3707 58.989 19.3711 61.31V71.8808Z" fill="white"/>
<path d="M120.905 3.78247L118.656 2.51075C115.801 0.859654 112.559 -0.00655949 109.261 3.74003e-05C105.962 0.00663429 102.724 0.885807 99.8756 2.54831L29.62 43.4794C26.5014 45.2955 23.9138 47.8979 22.1154 51.0267C20.317 54.1556 19.3707 57.7014 19.3711 61.3102C19.3709 59.4563 19.8602 57.6352 20.7896 56.031C21.719 54.4269 23.0555 53.0966 24.664 52.1748C26.2725 51.2529 28.0959 50.7721 29.9499 50.7811C31.8038 50.7901 33.6224 51.2884 35.222 52.2258L38.1625 53.9482C41.224 55.7402 43.7634 58.3021 45.5284 61.3793C47.2934 64.4565 48.2226 67.9419 48.2235 71.4894V175.878L43.4318 188.042L52.4304 182.563L124.768 140.591C127.337 139.102 129.47 136.963 130.951 134.389C132.433 131.815 133.211 128.896 133.209 125.926V25.1334C133.208 20.8085 132.071 16.5598 129.912 12.8126C127.752 9.06548 124.646 5.95146 120.905 3.78247Z" fill="#003478"/>
<path opacity="0.7" d="M120.905 3.78247L118.656 2.51075C115.801 0.859654 112.559 -0.00655949 109.261 3.74003e-05C105.962 0.00663429 102.724 0.885807 99.8756 2.54831L29.62 43.4794C26.5014 45.2955 23.9138 47.8979 22.1154 51.0267C20.317 54.1556 19.3707 57.7014 19.3711 61.3102C19.3709 59.4563 19.8602 57.6352 20.7896 56.031C21.719 54.4269 23.0555 53.0966 24.664 52.1748C26.2725 51.2529 28.0959 50.7721 29.9499 50.7811C31.8038 50.7901 33.6224 51.2884 35.222 52.2258L38.1625 53.9482C41.224 55.7402 43.7634 58.3021 45.5284 61.3793C47.2934 64.4565 48.2226 67.9419 48.2235 71.4894V175.878L43.4318 188.042L52.4304 182.563L124.768 140.591C127.337 139.102 129.47 136.963 130.951 134.389C132.433 131.815 133.211 128.896 133.209 125.926V25.1334C133.208 20.8085 132.071 16.5598 129.912 12.8126C127.752 9.06548 124.646 5.95146 120.905 3.78247Z" fill="white"/>
<path d="M22.2852 178.555C22.2852 178.555 27.3237 185.922 35.4209 188.364C44.1297 190.988 48.2239 185.214 48.2239 177.557V163.708L22.2852 178.555Z" fill="#003478"/>
<path opacity="0.5" d="M22.2852 178.555C22.2852 178.555 27.3237 185.922 35.4209 188.364C44.1297 190.988 48.2239 185.214 48.2239 177.557V163.708L22.2852 178.555Z" fill="white"/>
<path d="M63.8754 104.463C63.7014 104.46 63.5329 104.401 63.3957 104.294C63.2585 104.187 63.1599 104.038 63.115 103.87C63.0701 103.702 63.0812 103.523 63.1468 103.362C63.2124 103.201 63.3288 103.066 63.4783 102.977L117.137 71.9831C117.32 71.8778 117.537 71.8495 117.741 71.9043C117.945 71.9591 118.119 72.0927 118.224 72.2756C118.329 72.4584 118.358 72.6756 118.303 72.8794C118.248 73.0832 118.114 73.2568 117.931 73.3621L64.2725 104.356C64.1514 104.425 64.0147 104.462 63.8754 104.463Z" fill="white"/>
<path d="M63.8765 116.348C63.702 116.348 63.5325 116.29 63.3941 116.184C63.2557 116.077 63.1563 115.928 63.1111 115.76C63.0659 115.591 63.0775 115.412 63.1441 115.251C63.2106 115.09 63.3285 114.955 63.4795 114.867L117.138 83.8684C117.321 83.7631 117.539 83.7347 117.742 83.7896C117.946 83.8444 118.12 83.9779 118.225 84.1608C118.33 84.3437 118.359 84.5609 118.304 84.7647C118.249 84.9685 118.115 85.1421 117.933 85.2474L64.2736 116.268C64.1501 116.327 64.0136 116.355 63.8765 116.348Z" fill="white"/>
<path d="M63.8765 128.228C63.702 128.228 63.5325 128.17 63.3941 128.064C63.2557 127.958 63.1563 127.809 63.1111 127.64C63.0659 127.471 63.0775 127.293 63.1441 127.131C63.2106 126.97 63.3285 126.835 63.4795 126.747L117.138 95.7541C117.32 95.6598 117.531 95.6391 117.727 95.6963C117.923 95.7535 118.09 95.8842 118.192 96.0612C118.295 96.2382 118.325 96.4479 118.276 96.6465C118.228 96.8452 118.105 97.0176 117.933 97.1277L64.2736 128.121C64.1526 128.19 64.0159 128.227 63.8765 128.228Z" fill="white"/>
<path d="M63.8765 140.108C63.702 140.108 63.5325 140.05 63.3941 139.944C63.2557 139.837 63.1563 139.688 63.1111 139.52C63.0659 139.351 63.0775 139.173 63.1441 139.011C63.2106 138.85 63.3285 138.715 63.4795 138.627L117.138 107.634C117.32 107.54 117.531 107.519 117.727 107.576C117.923 107.633 118.09 107.764 118.192 107.941C118.295 108.118 118.325 108.328 118.276 108.526C118.228 108.725 118.105 108.897 117.933 109.008L64.2736 140.001C64.1536 140.073 64.0162 140.11 63.8765 140.108Z" fill="white"/>
<path d="M63.8765 151.989C63.702 151.988 63.5325 151.931 63.3941 151.824C63.2557 151.718 63.1563 151.569 63.1111 151.4C63.0659 151.232 63.0775 151.053 63.1441 150.892C63.2106 150.73 63.3285 150.595 63.4795 150.508L117.138 119.514C117.32 119.42 117.531 119.399 117.727 119.457C117.923 119.514 118.09 119.644 118.192 119.821C118.295 119.999 118.325 120.208 118.276 120.407C118.228 120.605 118.105 120.778 117.933 120.888L64.2736 151.881C64.1536 151.953 64.0162 151.99 63.8765 151.989Z" fill="white"/>
<path d="M99.1147 143.521C98.9752 143.522 98.838 143.486 98.7173 143.416C98.5965 143.346 98.4966 143.245 98.4278 143.124C98.3261 142.943 98.2995 142.729 98.3536 142.528C98.4078 142.328 98.5385 142.156 98.7176 142.051L117.149 131.394C117.331 131.3 117.542 131.279 117.738 131.336C117.934 131.394 118.101 131.524 118.203 131.701C118.306 131.878 118.336 132.088 118.287 132.287C118.239 132.485 118.116 132.658 117.944 132.768L99.5117 143.419C99.3903 143.487 99.2536 143.522 99.1147 143.521Z" fill="white"/>
<path d="M101.244 59.7324L85.7793 68.6613V61.0417C85.7793 55.7456 88.9988 49.5909 92.975 47.2943L94.0481 46.6772C98.0189 44.3806 101.244 46.8167 101.244 52.1129V59.7324Z" fill="#003478"/>
<path d="M104.845 62.2601L82.1797 75.3475L85.7802 67.0089L101.245 58.0801L104.845 62.2601Z" fill="#003478"/>
<path d="M93.5389 49.5002C92.8681 49.8865 92.3262 49.5753 92.3262 48.8026V45.8352C92.3495 45.4149 92.4715 45.006 92.6821 44.6415C92.8928 44.277 93.1863 43.9672 93.5389 43.7372C94.2042 43.3508 94.7462 43.662 94.7462 44.4347V47.4074C94.7226 47.8264 94.6011 48.2339 94.3914 48.5974C94.1817 48.9608 93.8897 49.27 93.5389 49.5002Z" fill="#003478"/>
<path d="M90.9355 71.4088C90.9999 72.9488 92.1268 73.5551 93.5112 72.7556C94.2366 72.2813 94.8448 71.6485 95.29 70.9049C95.7353 70.1613 96.0059 69.3263 96.0814 68.4629L90.9355 71.4088Z" fill="#003478"/>
<path d="M169.743 48.2067C175.976 48.2067 181.028 43.1544 181.028 36.9222C181.028 30.6899 175.976 25.6377 169.743 25.6377C163.511 25.6377 158.459 30.6899 158.459 36.9222C158.459 43.1544 163.511 48.2067 169.743 48.2067Z" fill="#003478"/>
<path d="M167.731 45.6953C167.731 45.6953 168.74 49.2797 164.656 52.6066C164.656 52.6066 170.945 51.9734 171.288 45.9958L167.731 45.6953Z" fill="#003478"/>
<path d="M170.854 37.9631H168.429L167.822 32.1411H171.46L170.854 37.9631ZM169.641 41.7192C169.418 41.7345 169.194 41.7045 168.983 41.6312C168.771 41.5578 168.577 41.4425 168.411 41.2922C168.245 41.1419 168.111 40.9597 168.017 40.7565C167.924 40.5532 167.872 40.3332 167.865 40.1095C167.913 39.6721 168.121 39.2678 168.449 38.9742C168.777 38.6805 169.201 38.5182 169.641 38.5182C170.081 38.5182 170.506 38.6805 170.834 38.9742C171.161 39.2678 171.369 39.6721 171.417 40.1095C171.409 40.3323 171.357 40.5511 171.262 40.7531C171.168 40.9551 171.034 41.136 170.868 41.2852C170.702 41.4344 170.508 41.5487 170.298 41.6214C170.087 41.6941 169.864 41.7238 169.641 41.7085V41.7192Z" fill="white"/>
<path d="M147.466 80.5415C146.304 80.4516 145.138 80.6493 144.071 81.1173C143.004 81.5853 142.069 82.309 141.349 83.2245C138.961 86.3689 133.906 93.806 133.906 93.806C133.906 93.806 131.792 91.4611 130.408 89.8138C129.023 88.1665 127.725 86.7713 127.725 86.7713C127.542 85.8847 127.406 84.9891 127.317 84.0884C127.199 82.8113 127.027 81.942 126.093 81.0674C125.16 80.1927 124.446 79.3718 124.371 78.7064C124.296 78.041 123.834 77.3757 123.244 78.0571C122.654 78.7386 122.707 80.8313 123.942 82.2264C123.942 82.2264 121.736 81.2015 120.722 79.9996C119.708 78.7976 118.399 76.7049 117.819 77.2844C117.24 77.864 116.129 84.1045 117.819 85.4943C119.509 86.884 123.689 89.2504 123.689 89.2504C123.689 89.2504 129.152 102.622 132.994 102.622C136.836 102.622 143.189 92.7382 143.189 92.7382L147.466 80.5415Z" fill="#C37D59"/>
<path d="M140.646 150.352L141.832 168.494C141.832 168.494 142.906 170.415 144.971 170.415L146.849 168.366C146.824 165.939 147.027 163.515 147.456 161.127C148.153 157.462 149.506 152.101 149.897 149.005L140.646 150.352Z" fill="#C37D59"/>
<path d="M141.714 109.367C141.714 109.367 140.769 115.468 140.302 121.403C139.932 126.135 139.691 132.698 139.605 135.161C139.584 135.805 139.599 136.45 139.648 137.093L140.646 150.352C140.646 150.352 146.511 152.927 149.907 149.005C149.907 149.005 150.32 145.206 149.73 142.566C149.385 140.899 149.427 139.175 149.854 137.527L153.529 122.76V109.238L141.714 109.367Z" fill="#37474F"/>
<path d="M144.562 114.427C144.811 115.512 145.351 116.507 146.125 117.307C146.898 118.106 147.876 118.678 148.952 118.961L151.146 132.323L154.366 120.614V114.427H144.562Z" fill="#263238"/>
<path d="M155.971 153.057L159.679 173.506H163.687C163.687 173.506 165.205 156.276 165.125 151.576L155.971 153.057Z" fill="#C37D59"/>
<path d="M143.586 109.233C143.586 109.233 142.803 117.126 149.864 117.818L153.529 141.326L155.971 153.051C155.971 153.051 161.691 156.78 165.125 151.57C165.125 151.57 165.474 145.667 164.052 141.6C163.681 140.543 163.528 139.423 163.601 138.305C163.998 132.542 165.093 115.634 164.556 111.889L161.026 107.269L143.586 109.233Z" fill="#37474F"/>
<path d="M156.442 81.3893H160.027L162.425 93.3606L160.848 98.4851C160.514 99.5474 160.591 100.696 161.062 101.705C162.135 104.044 164.126 108.616 164.561 111.9C163.557 111.973 162.553 111.773 161.654 111.32C160.755 110.868 159.996 110.18 159.458 109.33C159.458 109.33 156.448 113.295 149.123 113.295C145.571 113.295 142.684 110.682 141.713 109.372L143.027 103.438C143.136 102.956 143.176 102.461 143.146 101.968C143.076 100.739 142.942 98.2114 142.974 96.2904C142.974 96.2904 139.572 94.9382 140.447 90.7528C141.321 86.5674 147.465 80.5576 147.465 80.5576L150.1 80.6596L156.442 81.3893Z" fill="#003478"/>
<path d="M147.799 58.3163C147.799 58.3163 143.452 56.8085 142.39 61.2568C141.328 65.7051 144.601 70.0247 139.707 71.5057C139.707 71.5057 142.594 73.9096 145.137 69.4183L147.284 78.5403C147.284 78.5403 147.284 79.0394 146.522 79.4204C146.522 79.4204 158.863 82.1677 161.24 76.0076C161.568 76.3622 161.791 76.8003 161.886 77.2736C161.981 77.747 161.943 78.2373 161.777 78.6906C161.777 78.6906 165.42 77.215 164.396 72.4983C164.396 72.4983 167.277 72.4179 167.964 70.073C167.964 70.073 163.355 70.293 163.381 65.2061C163.414 59.3304 160.323 60.1836 160.323 60.1836C160.323 60.1836 156.54 54.5602 147.799 58.3163Z" fill="#455A64"/>
<path d="M150.1 76.7211V80.6436C150.1 80.6436 146.038 85.1617 149.998 85.5212C153.958 85.8807 156.437 81.3894 156.437 81.3894V73.0938L150.1 76.7211Z" fill="#C37D59"/>
<path d="M156.372 71.7848V72.0102C154.961 77.5907 151.285 78.8034 150.1 79.0878L150.057 70.4541L156.195 70.4219L156.372 71.7848Z" fill="#B56D47"/>
<path d="M150.503 59.3895C148.158 59.5827 143.286 61.2944 143.216 67.4705C143.147 73.6467 144.086 78.3579 147.289 78.5511C150.493 78.7443 157.645 75.8682 157.978 67.8193C158.311 59.7705 152.784 59.1749 150.503 59.3895Z" fill="#C37D59"/>
<path d="M147.536 69.9229L147.595 73.5502L145.459 72.9331L147.536 69.9229Z" fill="#B56D47"/>
<path d="M150.723 69.8261C150.726 69.973 150.686 70.1175 150.606 70.2412C150.527 70.365 150.413 70.4624 150.278 70.5211C150.144 70.5798 149.995 70.597 149.85 70.5707C149.706 70.5445 149.572 70.4758 149.467 70.3734C149.361 70.2711 149.289 70.1397 149.258 69.996C149.228 69.8523 149.241 69.7027 149.295 69.5664C149.35 69.4301 149.444 69.3131 149.566 69.2303C149.687 69.1476 149.83 69.1028 149.977 69.1017C150.074 69.0996 150.17 69.1167 150.26 69.1521C150.35 69.1875 150.432 69.2404 150.502 69.3078C150.571 69.3752 150.626 69.4558 150.664 69.5448C150.702 69.6337 150.722 69.7294 150.723 69.8261Z" fill="#263238"/>
<path d="M145.856 69.3805C145.858 69.4775 145.841 69.5739 145.806 69.6643C145.77 69.7546 145.717 69.8371 145.65 69.9069C145.583 69.9768 145.502 70.0326 145.413 70.0711C145.324 70.1097 145.229 70.1303 145.132 70.1317C144.985 70.1349 144.841 70.0944 144.717 70.0155C144.593 69.9365 144.496 69.8227 144.437 69.6883C144.378 69.5539 144.361 69.4051 144.387 69.2608C144.412 69.1164 144.481 68.983 144.582 68.8774C144.684 68.7718 144.815 68.6988 144.958 68.6677C145.102 68.6366 145.251 68.6488 145.388 68.7027C145.524 68.7566 145.641 68.8498 145.725 68.9704C145.808 69.0911 145.854 69.2338 145.856 69.3805Z" fill="#263238"/>
<path d="M149.532 74.7252C148.727 74.9304 147.936 75.1812 147.16 75.4765C147.16 75.4765 146.94 74.2155 147.986 73.9257C148.297 73.8601 148.62 73.9039 148.902 74.0496C149.183 74.1953 149.406 74.4341 149.532 74.7252Z" fill="#B56D47"/>
<path d="M145.587 66.6494L144.154 67.5241C144.154 67.5241 144.691 68.0928 145.26 67.7387C145.417 67.6111 145.533 67.4389 145.591 67.2446C145.65 67.0503 145.648 66.8428 145.587 66.6494Z" fill="#263238"/>
<path d="M154.269 69.8045C154.269 69.8045 154.216 72.0903 155.713 72.0903H158.648V67.1376C158.648 61.5785 154.43 55.7726 145.459 60.3659C145.459 60.3659 144.933 68.0981 154.269 69.8045Z" fill="#455A64"/>
<path d="M144.38 71.967C142.985 71.967 141.848 71.0012 141.848 69.8207C141.848 68.6402 142.985 67.6743 144.38 67.6743C145.775 67.6743 146.913 68.6402 146.913 69.8207C146.913 71.0012 145.775 71.967 144.38 71.967ZM144.38 68.0875C143.227 68.0875 142.288 68.8602 142.288 69.8046C142.288 70.749 143.227 71.527 144.38 71.527C145.534 71.527 146.473 70.7543 146.473 69.8046C146.473 68.8548 145.534 68.0875 144.38 68.0875Z" fill="#003478"/>
<path d="M150.61 71.9831C149.049 71.9831 147.771 71.0065 147.771 69.8046C147.771 68.6026 149.049 67.6582 150.61 67.6582C152.172 67.6582 153.449 68.6348 153.449 69.8046C153.449 70.9743 152.177 71.9831 150.61 71.9831ZM150.61 68.0982C149.306 68.0982 148.238 68.8655 148.238 69.8046C148.238 70.7436 149.311 71.5163 150.61 71.5163C151.909 71.5163 152.982 70.749 152.982 69.8046C152.982 68.8602 151.919 68.0982 150.61 68.0982Z" fill="#003478"/>
<path d="M148.008 69.5737H146.693V70.0406H148.008V69.5737Z" fill="#003478"/>
<path d="M156.61 69.5737H153.219V70.0406H156.61V69.5737Z" fill="#003478"/>
<path d="M155.703 71.7901C155.685 71.2237 155.795 70.6605 156.025 70.1427C156.137 69.8203 156.341 69.5378 156.612 69.3299C156.883 69.1221 157.209 68.998 157.549 68.973C159.298 68.9461 159.513 70.631 159.486 71.2266C159.406 72.7989 158.118 74.4837 155.73 74.5213L155.703 71.7901Z" fill="#C37D59"/>
<path d="M160.028 81.3895C160.028 81.3895 155.939 91.1662 162.427 93.3608L163.848 90.3237C163.848 90.3237 175.718 79.4524 178.621 77.07C181.524 74.6875 177.8 71.1675 174.199 67.8675C170.599 64.5674 166.988 61.3747 166.988 61.3747L165.185 58.182C164.986 57.8334 164.717 57.5307 164.393 57.2939C164.069 57.0571 163.699 56.8917 163.307 56.8084C161.418 56.4166 157.86 55.7352 155.939 55.8479C153.256 55.9927 157.307 59.3357 157.989 59.3357C158.603 59.354 159.202 59.5294 159.729 59.845C160.256 60.1606 160.693 60.606 160.999 61.1386C161.815 62.5928 161.96 65.2114 164.562 65.0933L170.593 74.1026L160.028 81.3895Z" fill="#C37D59"/>
<path d="M170.594 74.1025L172.686 76.7801L169.424 74.9128L170.594 74.1025Z" fill="#B56D47"/>
<path d="M133.906 93.8114L135.768 95.9631L134.69 92.6685L133.906 93.8114Z" fill="#B56D47"/>
<path opacity="0.2" d="M149.988 96.4838C149.988 96.4838 155.354 96.9184 157.018 91.8208C157.018 91.8208 157.082 98.3189 149.988 96.4838Z" fill="black"/>
<path d="M141.322 169.278C141.322 169.278 140.577 166.938 141.73 166.815C142.884 166.691 144.923 167.303 145.127 167.915C145.251 168.319 145.302 168.743 145.277 169.165C145.84 168.975 146.373 168.705 146.86 168.366V167.502C146.86 167.502 148.062 167.62 148.153 168.521C148.244 169.423 148.261 170.523 148.298 171.548C148.368 173.619 148.674 175.003 146.318 175.615C144.638 176.037 143.122 176.948 141.961 178.233C141.156 179.084 140.153 179.722 139.042 180.092C137.931 180.461 136.746 180.551 135.592 180.353C132.045 179.859 132.249 176.865 133.499 175.905C134.701 175.02 135.986 174.254 137.336 173.619L141.322 169.278Z" fill="#003478"/>
<path d="M140.055 175.894C140.002 175.895 139.949 175.881 139.904 175.854C139.858 175.826 139.821 175.786 139.798 175.738C139.228 174.822 138.323 174.165 137.276 173.908C137.238 173.9 137.201 173.884 137.169 173.862C137.137 173.84 137.11 173.811 137.089 173.778C137.068 173.745 137.054 173.709 137.047 173.67C137.041 173.632 137.042 173.592 137.05 173.554C137.059 173.517 137.074 173.481 137.096 173.45C137.118 173.419 137.146 173.392 137.179 173.371C137.211 173.351 137.247 173.337 137.285 173.331C137.323 173.324 137.362 173.326 137.399 173.334C138.003 173.48 138.572 173.745 139.072 174.114C139.573 174.482 139.994 174.947 140.313 175.481C140.337 175.525 140.35 175.575 140.349 175.626C140.348 175.676 140.333 175.726 140.307 175.769C140.281 175.813 140.244 175.848 140.2 175.873C140.156 175.898 140.106 175.91 140.055 175.91V175.894Z" fill="#FAFAFA"/>
<path d="M141.414 174.445C141.36 174.446 141.308 174.432 141.262 174.405C141.216 174.377 141.18 174.337 141.156 174.289C140.587 173.373 139.681 172.716 138.634 172.459C138.558 172.443 138.492 172.397 138.45 172.331C138.407 172.266 138.393 172.187 138.409 172.111C138.416 172.073 138.431 172.037 138.453 172.005C138.475 171.973 138.503 171.945 138.535 171.924C138.568 171.903 138.604 171.889 138.642 171.882C138.681 171.876 138.72 171.877 138.757 171.885C139.362 172.03 139.931 172.295 140.432 172.664C140.932 173.032 141.353 173.497 141.671 174.032C141.708 174.1 141.716 174.18 141.693 174.254C141.671 174.329 141.621 174.391 141.553 174.429C141.508 174.444 141.461 174.449 141.414 174.445Z" fill="#FAFAFA"/>
<path d="M142.77 172.996C142.717 172.996 142.665 172.982 142.619 172.954C142.574 172.927 142.537 172.887 142.512 172.84C141.94 171.927 141.036 171.271 139.99 171.011C139.915 170.993 139.85 170.946 139.809 170.881C139.768 170.816 139.754 170.737 139.77 170.662C139.777 170.624 139.792 170.588 139.813 170.556C139.834 170.524 139.862 170.497 139.894 170.476C139.926 170.455 139.962 170.44 140 170.434C140.037 170.427 140.076 170.428 140.114 170.436C140.719 170.582 141.288 170.847 141.79 171.215C142.291 171.584 142.713 172.049 143.033 172.583C143.069 172.652 143.076 172.732 143.053 172.807C143.03 172.881 142.978 172.943 142.909 172.98C142.865 172.996 142.817 173.001 142.77 172.996Z" fill="#FAFAFA"/>
<path d="M159.678 173.506C159.634 173.277 159.644 173.041 159.707 172.816C159.769 172.591 159.883 172.384 160.039 172.211C160.195 172.037 160.388 171.902 160.605 171.816C160.822 171.729 161.056 171.695 161.288 171.714C163.166 171.714 164.508 171.767 164.341 173.162V174.16C164.341 174.16 164.341 179.135 164.717 180.744C165.092 182.354 166.015 187.452 162.184 188.198C158.353 188.943 156.958 185.676 157.655 182.579C158.088 180.835 158.35 179.052 158.439 177.257C158.525 176.124 158.09 171.982 159.335 171.714L159.678 173.506Z" fill="#003478"/>
<path d="M163.188 179.666C163.138 179.665 163.09 179.65 163.048 179.623C162.075 179.156 160.958 179.089 159.936 179.435C159.9 179.449 159.862 179.455 159.823 179.454C159.785 179.453 159.747 179.444 159.712 179.428C159.677 179.412 159.646 179.389 159.62 179.361C159.594 179.333 159.573 179.3 159.56 179.263C159.546 179.227 159.54 179.188 159.541 179.15C159.542 179.111 159.551 179.073 159.567 179.037C159.583 179.002 159.606 178.97 159.634 178.943C159.662 178.917 159.696 178.896 159.732 178.882C160.318 178.681 160.939 178.597 161.558 178.637C162.177 178.677 162.782 178.838 163.338 179.113C163.405 179.152 163.455 179.217 163.475 179.292C163.495 179.368 163.484 179.448 163.445 179.516C163.42 179.562 163.383 179.6 163.337 179.626C163.292 179.653 163.24 179.666 163.188 179.666Z" fill="#FAFAFA"/>
<path d="M163.392 177.439C163.341 177.437 163.292 177.424 163.247 177.402C162.277 176.932 161.161 176.862 160.14 177.208C160.104 177.228 160.063 177.24 160.022 177.243C159.981 177.246 159.939 177.24 159.9 177.226C159.862 177.212 159.826 177.189 159.797 177.16C159.767 177.131 159.745 177.096 159.73 177.057C159.715 177.018 159.709 176.977 159.712 176.936C159.714 176.894 159.726 176.854 159.745 176.818C159.765 176.781 159.792 176.749 159.825 176.724C159.858 176.699 159.896 176.681 159.936 176.672C160.521 176.467 161.141 176.382 161.76 176.422C162.378 176.462 162.982 176.625 163.536 176.903C163.57 176.921 163.6 176.946 163.624 176.976C163.648 177.006 163.665 177.041 163.676 177.077C163.686 177.114 163.689 177.153 163.685 177.191C163.68 177.229 163.668 177.266 163.649 177.3C163.622 177.343 163.584 177.379 163.539 177.404C163.494 177.428 163.443 177.44 163.392 177.439Z" fill="#FAFAFA"/>
<path d="M163.596 175.244C163.545 175.242 163.496 175.229 163.451 175.207C162.478 174.741 161.362 174.671 160.338 175.014C160.302 175.034 160.261 175.047 160.22 175.05C160.178 175.053 160.136 175.048 160.096 175.033C160.057 175.019 160.021 174.996 159.991 174.966C159.962 174.937 159.939 174.901 159.924 174.862C159.91 174.822 159.904 174.78 159.907 174.739C159.91 174.697 159.923 174.656 159.943 174.62C159.964 174.583 159.992 174.551 160.026 174.527C160.06 174.502 160.099 174.485 160.14 174.477C160.725 174.272 161.345 174.187 161.964 174.227C162.582 174.266 163.186 174.43 163.74 174.708C163.774 174.726 163.804 174.751 163.828 174.781C163.852 174.811 163.869 174.846 163.88 174.883C163.89 174.92 163.893 174.958 163.889 174.996C163.884 175.034 163.872 175.071 163.853 175.105C163.826 175.148 163.788 175.184 163.743 175.209C163.698 175.233 163.647 175.245 163.596 175.244Z" fill="#FAFAFA"/>
<path d="M135.994 174.305C135.124 174.78 134.29 175.318 133.499 175.915C132.249 176.875 132.045 179.87 135.592 180.363C137.085 180.609 138.618 180.382 139.976 179.714C139.809 178.554 139.358 177.453 138.664 176.51C137.969 175.566 137.052 174.809 135.994 174.305Z" fill="white"/>
<path d="M146.318 175.158C144.639 175.58 143.122 176.492 141.961 177.777C141.156 178.627 140.153 179.265 139.042 179.635C137.931 180.005 136.746 180.095 135.592 179.896C133.606 179.623 132.796 178.56 132.689 177.509C132.587 178.689 133.317 180.036 135.592 180.353C136.746 180.551 137.931 180.461 139.042 180.091C140.153 179.721 141.156 179.083 141.961 178.233C143.122 176.948 144.639 176.036 146.318 175.614C148.175 175.137 148.379 174.171 148.347 172.771C148.309 173.924 147.966 174.756 146.318 175.158Z" fill="#37474F"/>
<path d="M165.06 182.703C164.091 181.716 162.773 181.15 161.391 181.127C160.008 181.104 158.672 181.625 157.671 182.58C156.973 185.676 158.368 188.943 162.2 188.198C164.979 187.634 165.264 184.833 165.06 182.703Z" fill="#F5F5F5"/>
<path d="M162.222 187.591C159.142 188.192 157.64 186.196 157.527 183.781C157.398 186.464 158.885 188.847 162.222 188.198C164.696 187.715 165.19 185.429 165.131 183.433C165.05 185.262 164.422 187.157 162.222 187.591Z" fill="#455A64"/>
</svg>
