<?xml version="1.0" encoding="UTF-8" standalone="no"?>
<svg
   xmlns:dc="http://purl.org/dc/elements/1.1/"
   xmlns:cc="http://creativecommons.org/ns#"
   xmlns:rdf="http://www.w3.org/1999/02/22-rdf-syntax-ns#"
   xmlns:svg="http://www.w3.org/2000/svg"
   xmlns="http://www.w3.org/2000/svg"
   xmlns:sodipodi="http://sodipodi.sourceforge.net/DTD/sodipodi-0.dtd"
   xmlns:inkscape="http://www.inkscape.org/namespaces/inkscape"
   width="183.43201"
   height="145.258"
   viewBox="0 0 183.43201 145.258"
   id="svg2"
   version="1.1"
   inkscape:version="0.91 r13725"
   sodipodi:docname="fingerprint.svg"
   style="fill:none">
  <metadata
     id="metadata10">
    <rdf:RDF>
      <cc:Work
         rdf:about="">
        <dc:format>image/svg+xml</dc:format>
        <dc:type
           rdf:resource="http://purl.org/dc/dcmitype/StillImage" />
        <dc:title />
      </cc:Work>
    </rdf:RDF>
  </metadata>
  <defs
     id="defs8" />
  <sodipodi:namedview
     pagecolor="#ffffff"
     bordercolor="#666666"
     borderopacity="1"
     objecttolerance="10"
     gridtolerance="10"
     guidetolerance="10"
     inkscape:pageopacity="0"
     inkscape:pageshadow="2"
     inkscape:window-width="1366"
     inkscape:window-height="704"
     id="namedview6"
     showgrid="false"
     inkscape:zoom="2.017094"
     inkscape:cx="19.568921"
     inkscape:cy="58.5"
     inkscape:window-x="0"
     inkscape:window-y="27"
     inkscape:window-maximized="1"
     inkscape:current-layer="svg2"
     inkscape:snap-page="false" />
  <path
     style="opacity:1;fill:#1e1d1d;fill-opacity:1;fill-rule:nonzero;stroke:none;stroke-width:0;stroke-miterlimit:4;stroke-dasharray:none;stroke-dashoffset:0;stroke-opacity:1"
     d="m 4.9999999e-6,1.6824547e-4 0,145.25782175453 183.4316250000001,0 0,-145.25782175453 -183.4316250000001,0 z M 93.73631,13.881029 c 12.42731,0 23.27955,2.75008 35.18165,8.89258 1.4586,0.7605 1.98497,2.51397 1.22657,3.91797 -0.2307,0.4877 -0.59473,0.9016 -1.04883,1.1914 -0.4542,0.2898 -0.98123,0.44427 -1.51953,0.44727 -0.4667,0 -0.9334,-0.11756 -1.3418,-0.35156 -11.202,-5.7915 -20.88755,-8.24805 -32.49806,-8.24805 -11.55209,0 -22.51919,2.74905 -32.496085,8.24805 -1.4002,0.7605 -3.15185,0.23407 -3.96875,-1.16993 -0.3638,-0.6842 -0.44476,-1.48266 -0.22656,-2.22656 0.2182,-0.74386 0.71923,-1.37229 1.39453,-1.75 10.851995,-5.9085 22.752975,-8.95117 35.296865,-8.95117 z m -0.10742,14.27344 c 10.45087,-0.0146 20.90852,2.339622 30.09767,7.078122 8.7516,4.504502 16.1029,10.882173 21.8789,19.013673 0.22401,0.3144 0.38275,0.670375 0.46876,1.046875 0.086,0.3766 0.0962,0.765785 0.0312,1.146485 -0.065,0.3807 -0.20415,0.745965 -0.41015,1.072265 -0.206,0.3263 -0.47602,0.608378 -0.79102,0.830079 -1.342,0.935999 -3.15078,0.642375 -4.08398,-0.703126 -5.1094,-7.2518 -11.89485,-13.153618 -19.77735,-17.199218 -16.7447,-8.599501 -38.15746,-8.599408 -54.843755,0.05859 -7.9348,4.094999 -14.58691,9.945406 -19.83789,17.316406 -0.46675,0.819 -1.34188,1.228515 -2.27539,1.228515 -0.5378,0.005 -1.06642,-0.140068 -1.52734,-0.417968 -0.46092,-0.2779 -0.83624,-0.67765 -1.08399,-1.15625 -0.24774,-0.4787 -0.35703,-1.016888 -0.31835,-1.554688 0.0387,-0.5379 0.22539,-1.054087 0.53906,-1.492187 5.77605,-8.19 13.1273,-14.62636 21.8789,-19.130861 9.159995,-4.7385 19.603825,-7.122092 30.054685,-7.136722 z M 93.4453,42.078296 c 26.54651,0 48.13477,20.532687 48.13477,45.804694 0,9.477 -8.0522,17.19922 -17.9707,17.19922 -9.9184,0 -17.9707,-7.72222 -17.9707,-17.19922 0,-6.259507 -5.42527,-11.347663 -12.13478,-11.347663 -6.70959,0 -12.13476,5.088156 -12.13476,11.347663 0,10.0035 3.85056,19.36476 10.91015,26.38477 5.5427,5.499 10.85164,8.53931 19.07814,10.82031 1.5753,0.41 2.44951,2.04931 2.04101,3.57031 -0.2917,1.346 -1.51699,2.22266 -2.74219,2.22266 -0.2334,0 -0.52441,-0.0592 -0.75781,-0.11719 -9.2767,-2.574 -15.34374,-6.02615 -21.70313,-12.28515 -4.03,-3.99 -7.22639,-8.74479 -9.40039,-13.98829 -2.1739,-5.2436 -3.28312,-10.87033 -3.26172,-16.54883 0,-9.477003 8.05221,-17.199222 17.9707,-17.199222 9.91841,0 17.97071,7.722219 17.97071,17.199222 0,6.2595 5.42527,11.34961 12.13477,11.34961 6.7096,0 12.13477,-5.09011 12.13477,-11.34961 0,-22.054503 -18.96123,-39.955081 -42.29884,-39.955081 -16.5697,0 -31.738145,9.243672 -38.564445,23.576172 -2.2754,4.7385 -3.44336,10.294906 -3.44336,16.378909 0,4.563 0.40955,11.75914 3.91015,21.11914 0.5834,1.52101 -0.17636,3.21765 -1.69336,3.74415 -1.5169,0.585 -3.20732,-0.23477 -3.73242,-1.69727 -2.81137,-7.3985 -4.2553,-15.24872 -4.25977,-23.16602 0,-7.020003 1.34132,-13.395628 3.9668,-18.953128 C 57.388615,52.666952 74.6002,42.078296 93.4453,42.078296 Z m 0.23437,14.332031 c 18.20331,0 33.0215,14.15675 33.0215,31.531253 0,1.638 -1.28242,2.92578 -2.91602,2.92578 -1.6337,0 -2.91797,-1.28778 -2.91797,-2.92578 0,-14.157003 -12.1931,-25.681644 -27.18751,-25.681644 -14.99439,0 -27.18945,11.524641 -27.18945,25.681644 0,8.424 1.86678,16.20544 5.42578,22.52344 3.734,6.7275 6.30242,9.59225 10.79492,14.15625 1.1085,1.169 1.1085,2.9843 0,4.1543 -0.6418,0.585 -1.40165,0.87695 -2.16015,0.87695 -0.3826,0.004 -0.76158,-0.0707 -1.11328,-0.22265 -0.3517,-0.151 -0.66724,-0.3733 -0.92774,-0.6543 -5.0759,-5.09 -7.81746,-8.36731 -11.72656,-15.44531 -4.025695,-7.19551 -6.126945,-15.97018 -6.126945,-25.38868 0,-17.374503 14.820135,-31.531253 33.023425,-31.531253 z m -0.35156,28.607419 c 1.6336,0 2.91797,1.285834 2.91797,2.923834 0,8.2485 4.20047,16.02917 11.31837,20.82617 4.1425,2.80801 8.98591,4.15431 14.82031,4.15431 1.4003,0 3.73261,-0.17644 6.06641,-0.58594 1.5753,-0.2925 3.09306,0.76044 3.38476,2.39844 0.2918,1.579 -0.75888,3.09957 -2.39258,3.39257 -3.3256,0.643 -6.24179,0.70313 -7.05859,0.70313 -6.9429,0 -13.07029,-1.75553 -18.08789,-5.20703 -8.69331,-5.90851 -13.88478,-15.50265 -13.88478,-25.68165 0,-1.638 1.28242,-2.923834 2.91602,-2.923834 z"
     id="rect4133"
     inkscape:connector-curvature="0"
     inkscape:export-xdpi="49.064598"
     inkscape:export-ydpi="49.064598" />
</svg>
