<svg width="152" height="29" viewBox="0 0 152 29" fill="none" xmlns="http://www.w3.org/2000/svg">
<path d="M44.83 14.4108L46.416 10.7448C45.74 10.3461 45.012 10.0255 44.232 9.78279C43.4693 9.54013 42.516 9.41879 41.372 9.41879C40.3493 9.41879 39.4133 9.56613 38.564 9.86079C37.732 10.1381 37.0213 10.5281 36.432 11.0308C35.8427 11.5335 35.3833 12.1401 35.054 12.8508C34.742 13.5615 34.586 14.3328 34.586 15.1648C34.586 16.3608 34.9933 17.4008 35.808 18.2848C36.6227 19.1688 37.9833 19.7841 39.89 20.1308C41.5367 20.4255 42.36 21.1968 42.36 22.4448C42.36 22.9475 42.1693 23.3895 41.788 23.7708C41.4067 24.1348 40.8433 24.3168 40.098 24.3168C39.162 24.3168 38.3213 24.1521 37.576 23.8228C36.8307 23.4935 36.146 23.0775 35.522 22.5748L33.26 25.8508C33.6933 26.1975 34.1527 26.5268 34.638 26.8388C35.1233 27.1335 35.652 27.3935 36.224 27.6188C36.796 27.8268 37.42 27.9915 38.096 28.1128C38.7893 28.2341 39.552 28.2948 40.384 28.2948C41.4933 28.2948 42.464 28.1215 43.296 27.7748C44.1453 27.4281 44.856 26.9775 45.428 26.4228C46 25.8508 46.4247 25.2095 46.702 24.4988C46.9967 23.7708 47.144 23.0255 47.144 22.2628C47.144 21.5521 47.0313 20.8761 46.806 20.2348C46.5807 19.5935 46.2427 19.0215 45.792 18.5188C45.3413 17.9988 44.7693 17.5655 44.076 17.2188C43.4 16.8548 42.6027 16.6035 41.684 16.4648C40.852 16.3435 40.28 16.1528 39.968 15.8928C39.6733 15.6328 39.526 15.3121 39.526 14.9308C39.526 14.4108 39.7253 14.0208 40.124 13.7608C40.5227 13.4835 40.9993 13.3448 41.554 13.3448C42.1953 13.3448 42.776 13.4488 43.296 13.6568C43.816 13.8475 44.3273 14.0988 44.83 14.4108ZM55.4189 22.4968L52.7669 16.1788H48.2689L53.6769 28.1388H56.8229L59.4229 22.4708L62.1529 28.1388H65.2729L70.5509 16.1788H66.0529L63.4269 22.4448L60.5149 16.1788H58.3309L55.4189 22.4968ZM76.3731 16.1788H71.8751V28.1388H76.3731V16.1788ZM76.5291 11.7068C76.5291 11.3775 76.4597 11.0655 76.3211 10.7708C76.1997 10.4761 76.0264 10.2248 75.8011 10.0168C75.5931 9.79146 75.3417 9.61813 75.0471 9.49679C74.7524 9.35813 74.4404 9.28879 74.1111 9.28879C73.7817 9.28879 73.4697 9.35813 73.1751 9.49679C72.8804 9.61813 72.6204 9.79146 72.3951 10.0168C72.1871 10.2248 72.0137 10.4761 71.8751 10.7708C71.7537 11.0655 71.6931 11.3775 71.6931 11.7068C71.6931 12.0361 71.7537 12.3481 71.8751 12.6428C72.0137 12.9375 72.1871 13.1975 72.3951 13.4228C72.6204 13.6308 72.8804 13.8041 73.1751 13.9428C73.4697 14.0641 73.7817 14.1248 74.1111 14.1248C74.4404 14.1248 74.7524 14.0641 75.0471 13.9428C75.3417 13.8041 75.5931 13.6308 75.8011 13.4228C76.0264 13.1975 76.1997 12.9375 76.3211 12.6428C76.4597 12.3481 76.5291 12.0361 76.5291 11.7068ZM79.5686 19.8968V28.1388H84.0666V19.8968H86.6146V16.1788H84.0666V13.5788C84.0666 13.1108 84.2053 12.7641 84.4826 12.5388C84.76 12.2961 85.1326 12.1748 85.6006 12.1748C85.9473 12.1748 86.2073 12.1835 86.3806 12.2008C86.554 12.2181 86.736 12.2528 86.9266 12.3048V9.13279C86.6666 9.04613 86.346 8.98546 85.9646 8.95079C85.6006 8.89879 85.254 8.87279 84.9246 8.87279C83.0526 8.87279 81.692 9.21079 80.8426 9.88679C79.9933 10.5628 79.5686 11.6375 79.5686 13.1108V16.1788H78.1126V19.8968H79.5686ZM89.9323 19.8968V28.1388H94.4303V19.8968H96.9523V16.1788H94.4303V12.6948H89.9323V16.1788H88.4763V19.8968H89.9323Z" fill="#FFC727"/>
<path d="M105.238 22.2368L102.586 16.1788H98.0624L103.912 28.1388H106.564L112.388 16.1788H107.89L105.238 22.2368ZM125.339 22.1328C125.339 21.3528 125.201 20.5815 124.923 19.8188C124.663 19.0561 124.265 18.3801 123.727 17.7908C123.19 17.1841 122.505 16.6988 121.673 16.3348C120.859 15.9708 119.905 15.7888 118.813 15.7888C117.721 15.7888 116.759 15.9708 115.927 16.3348C115.095 16.6988 114.402 17.1841 113.847 17.7908C113.31 18.3801 112.903 19.0561 112.625 19.8188C112.348 20.5815 112.209 21.3528 112.209 22.1328C112.209 22.9301 112.348 23.7101 112.625 24.4728C112.903 25.2355 113.31 25.9115 113.847 26.5008C114.402 27.0901 115.095 27.5668 115.927 27.9308C116.759 28.2948 117.721 28.4768 118.813 28.4768C119.905 28.4768 120.859 28.2948 121.673 27.9308C122.505 27.5668 123.19 27.0901 123.727 26.5008C124.265 25.9115 124.663 25.2355 124.923 24.4728C125.201 23.7101 125.339 22.9301 125.339 22.1328ZM116.317 22.1588C116.317 21.8295 116.378 21.5175 116.499 21.2228C116.638 20.9108 116.82 20.6421 117.045 20.4168C117.271 20.1915 117.531 20.0181 117.825 19.8968C118.12 19.7581 118.441 19.6888 118.787 19.6888C119.134 19.6888 119.455 19.7581 119.749 19.8968C120.061 20.0181 120.321 20.1915 120.529 20.4168C120.755 20.6421 120.928 20.9108 121.049 21.2228C121.188 21.5175 121.257 21.8295 121.257 22.1588C121.257 22.5055 121.188 22.8261 121.049 23.1208C120.928 23.4155 120.755 23.6755 120.529 23.9008C120.321 24.1261 120.061 24.3081 119.749 24.4468C119.455 24.5681 119.134 24.6288 118.787 24.6288C118.441 24.6288 118.12 24.5681 117.825 24.4468C117.531 24.3081 117.271 24.1261 117.045 23.9008C116.82 23.6755 116.638 23.4155 116.499 23.1208C116.378 22.8261 116.317 22.5055 116.317 22.1588ZM128.323 19.8968V28.1388H132.821V19.8968H135.343V16.1788H132.821V12.6948H128.323V16.1788H126.867V19.8968H128.323ZM140.977 23.0428H149.713C149.73 22.9388 149.739 22.8348 149.739 22.7308C149.739 22.6095 149.739 22.4968 149.739 22.3928C149.739 21.5435 149.609 20.7201 149.349 19.9228C149.106 19.1255 148.716 18.4235 148.179 17.8168C147.659 17.2101 146.974 16.7248 146.125 16.3608C145.293 15.9968 144.296 15.8148 143.135 15.8148C142.095 15.8148 141.168 16.0055 140.353 16.3868C139.538 16.7508 138.854 17.2361 138.299 17.8428C137.762 18.4495 137.346 19.1341 137.051 19.8968C136.774 20.6595 136.635 21.4308 136.635 22.2108C136.635 22.9908 136.765 23.7535 137.025 24.4988C137.285 25.2441 137.675 25.9115 138.195 26.5008C138.732 27.0901 139.391 27.5668 140.171 27.9308C140.968 28.2948 141.896 28.4768 142.953 28.4768C144.045 28.4768 144.964 28.3381 145.709 28.0608C146.472 27.7835 147.096 27.4368 147.581 27.0208C148.084 26.5875 148.465 26.1195 148.725 25.6168C149.002 25.1141 149.21 24.6461 149.349 24.2128H145.371C145.25 24.5075 145.024 24.7415 144.695 24.9148C144.383 25.0881 143.863 25.1748 143.135 25.1748C142.476 25.1748 141.956 24.9755 141.575 24.5768C141.194 24.1781 140.994 23.6668 140.977 23.0428ZM145.189 20.4688H141.029C141.046 20.1048 141.22 19.7408 141.549 19.3768C141.878 19.0128 142.39 18.8308 143.083 18.8308C143.776 18.8308 144.288 19.0128 144.617 19.3768C144.964 19.7408 145.154 20.1048 145.189 20.4688Z" fill="#003478"/>
<path d="M17.906 14.3888H20.1249C20.357 14.3888 20.5796 14.481 20.7437 14.6451C20.9078 14.8092 20.9999 15.0318 20.9999 15.2638C20.9999 15.4959 20.9078 15.7184 20.7437 15.8825C20.5796 16.0466 20.357 16.1388 20.1249 16.1388H7.875C7.64293 16.1388 7.42037 16.0466 7.25628 15.8825C7.09219 15.7184 7 15.4959 7 15.2638C7 15.0318 7.09219 14.8092 7.25628 14.6451C7.42037 14.481 7.64293 14.3888 7.875 14.3888H9.19974C8.95208 14.1141 8.79785 13.7679 8.75917 13.4001C8.7205 13.0322 8.79938 12.6616 8.98449 12.3413L13.3595 4.76386C13.5915 4.36194 13.9738 4.06866 14.4221 3.94854C14.8704 3.82843 15.348 3.89131 15.75 4.12337L20.2964 6.74836C20.6984 6.98043 20.9917 7.36265 21.1118 7.81095C21.2319 8.25926 21.169 8.73691 20.9369 9.13885L17.906 14.3888ZM19.4215 8.26385L14.875 5.63886L10.5 13.2163L12.53 14.3888H15.8865L19.4215 8.26385Z" fill="#003478"/>
<path d="M20.9299 12.6388L21.9397 10.8888C22.2003 10.8986 22.4555 10.9665 22.6865 11.0876C22.9176 11.2087 23.1186 11.38 23.2749 11.5888L27.6499 17.4215C27.8771 17.7244 27.9999 18.0929 27.9999 18.4715V26.6387C27.9999 27.1029 27.8155 27.548 27.4873 27.8762C27.1591 28.2044 26.714 28.3887 26.2499 28.3887H1.74999C1.28587 28.3887 0.840748 28.2044 0.512561 27.8762C0.184374 27.548 0 27.1029 0 26.6387V18.4715C0 18.0929 0.122811 17.7244 0.349999 17.4215L4.72498 11.5888C4.88799 11.3714 5.09936 11.195 5.34235 11.0735C5.58535 10.952 5.8533 10.8888 6.12498 10.8888H7.81022L6.97197 12.3413C6.91733 12.436 6.87164 12.5356 6.83547 12.6388H6.12498L2.18749 17.8888H25.8124L21.8749 12.6388H20.9299ZM1.74999 26.6387H26.2499V19.6388H1.74999V26.6387Z" fill="#003478"/>
<line x1="20.3638" y1="0.141421" x2="17.2527" y2="3.25252" stroke="#003478" stroke-width="0.4"/>
<line x1="23.4747" y1="0.141421" x2="20.3636" y2="3.25252" stroke="#003478" stroke-width="0.4"/>
<line x1="23.4747" y1="3.25251" x2="20.3636" y2="6.3636" stroke="#003478" stroke-width="0.4"/>
</svg>
