<svg width="299" height="183" viewBox="0 0 299 183" fill="none" xmlns="http://www.w3.org/2000/svg">
<path d="M245.82 142.318V141.345C245.516 141.354 245.214 141.297 244.935 141.177C244.656 141.057 244.406 140.878 244.203 140.652C243.806 140.086 243.604 139.406 243.627 138.714L245.105 138.464C245.112 138.758 245.148 139.05 245.214 139.337C245.254 139.533 245.347 139.715 245.481 139.863C245.608 139.978 245.774 140.04 245.945 140.034C246.031 140.043 246.117 140.028 246.195 139.992C246.273 139.955 246.34 139.897 246.388 139.825C246.469 139.678 246.511 139.513 246.509 139.345C246.519 139.028 246.433 138.715 246.262 138.447C246.071 138.175 245.844 137.93 245.586 137.721L244.696 136.956C244.502 136.777 244.321 136.584 244.153 136.38C243.989 136.179 243.859 135.951 243.769 135.708C243.67 135.422 243.622 135.121 243.627 134.818C243.61 134.538 243.652 134.257 243.749 133.993C243.846 133.729 243.996 133.488 244.191 133.286C244.599 132.903 245.131 132.68 245.69 132.659V131.728H246.195V132.659C246.521 132.666 246.84 132.755 247.122 132.918C247.35 133.058 247.539 133.251 247.674 133.482C247.799 133.715 247.891 133.966 247.945 134.225C247.997 134.483 248.032 134.744 248.05 135.006L246.55 135.228C246.545 134.998 246.524 134.769 246.488 134.543C246.467 134.373 246.402 134.212 246.3 134.075C246.248 134.017 246.183 133.973 246.11 133.945C246.038 133.917 245.959 133.908 245.882 133.916C245.795 133.915 245.708 133.935 245.63 133.975C245.552 134.015 245.485 134.074 245.435 134.146C245.337 134.291 245.284 134.463 245.285 134.639C245.271 134.916 245.352 135.19 245.515 135.415C245.673 135.617 245.848 135.806 246.037 135.979L246.926 136.718C247.159 136.926 247.373 137.153 247.565 137.399C247.762 137.644 247.921 137.917 248.037 138.209C248.162 138.535 248.223 138.883 248.217 139.232C248.221 139.582 248.144 139.928 247.991 140.243C247.845 140.544 247.619 140.799 247.34 140.982C247.041 141.177 246.697 141.292 246.342 141.316V142.302L245.82 142.318Z" fill="#263238"/>
<path d="M248.877 141.241V140.097L250.939 136.923C251.094 136.685 251.24 136.459 251.357 136.242C251.49 136.032 251.602 135.81 251.691 135.578C251.78 135.346 251.826 135.1 251.825 134.852C251.839 134.631 251.783 134.412 251.666 134.225C251.614 134.155 251.546 134.099 251.467 134.062C251.389 134.025 251.302 134.008 251.215 134.012C251.128 134.007 251.04 134.019 250.957 134.049C250.875 134.078 250.799 134.124 250.735 134.183C250.617 134.311 250.537 134.468 250.505 134.639C250.462 134.842 250.441 135.049 250.443 135.257V135.674H248.86V135.257C248.853 134.799 248.932 134.344 249.094 133.916C249.24 133.542 249.5 133.222 249.837 133.002C250.241 132.765 250.705 132.65 251.173 132.672C251.477 132.651 251.781 132.692 252.069 132.793C252.356 132.893 252.619 133.051 252.844 133.256C253.242 133.709 253.444 134.3 253.407 134.902C253.412 135.224 253.359 135.545 253.253 135.85C253.144 136.142 253.004 136.422 252.835 136.685C252.664 136.952 252.48 137.232 252.284 137.52L250.651 139.984H253.157V141.262L248.877 141.241Z" fill="#263238"/>
<path d="M254.443 142.686L254.318 142.151C254.5 142.091 254.668 141.993 254.811 141.863C254.887 141.78 254.946 141.681 254.983 141.575C255.021 141.468 255.036 141.354 255.028 141.241H254.193V139.708H255.713V141.062C255.729 141.467 255.615 141.866 255.387 142.202C255.272 142.343 255.128 142.459 254.966 142.543C254.803 142.626 254.625 142.675 254.443 142.686Z" fill="#263238"/>
<path d="M258.995 141.241V139.257H256.418V138.005L258.619 132.755H260.502V138.021H261.338V139.274H260.502V141.258L258.995 141.241ZM257.696 138.021H258.995V134.422L257.696 138.021Z" fill="#263238"/>
<path d="M264.219 141.354C263.788 141.371 263.359 141.286 262.966 141.107C262.661 140.951 262.42 140.692 262.286 140.376C262.137 139.998 262.066 139.593 262.077 139.186V139.061H263.605C263.591 139.33 263.63 139.6 263.718 139.854C263.789 140.03 263.964 140.118 264.236 140.118C264.308 140.122 264.38 140.111 264.447 140.084C264.514 140.057 264.575 140.016 264.624 139.963C264.731 139.804 264.796 139.62 264.812 139.428C264.85 139.09 264.867 138.75 264.862 138.41V137.553C264.762 137.711 264.617 137.835 264.445 137.908C264.238 137.995 264.017 138.042 263.793 138.046C263.402 138.073 263.014 137.956 262.703 137.716C262.424 137.475 262.222 137.157 262.123 136.802C262.003 136.387 261.945 135.956 261.952 135.524C261.941 135.012 262.014 134.501 262.169 134.012C262.297 133.61 262.554 133.261 262.899 133.018C263.296 132.764 263.761 132.64 264.232 132.663C264.693 132.642 265.15 132.76 265.543 133.002C265.88 133.233 266.136 133.564 266.274 133.95C266.437 134.406 266.517 134.889 266.508 135.374V138.464C266.515 138.966 266.45 139.467 266.315 139.95C266.211 140.363 265.971 140.729 265.635 140.99C265.216 141.265 264.718 141.392 264.219 141.354ZM264.219 136.798C264.361 136.804 264.501 136.758 264.612 136.668C264.701 136.593 264.78 136.506 264.845 136.409V135.048C264.847 134.848 264.83 134.648 264.795 134.451C264.768 134.291 264.703 134.139 264.607 134.008C264.556 133.949 264.491 133.904 264.419 133.875C264.346 133.846 264.268 133.834 264.19 133.841C264.114 133.838 264.039 133.852 263.97 133.883C263.901 133.914 263.84 133.961 263.793 134.021C263.691 134.169 263.627 134.342 263.609 134.522C263.577 134.782 263.562 135.044 263.563 135.307C263.563 135.595 263.563 135.85 263.593 136.075C263.602 136.26 263.658 136.44 263.756 136.597C263.81 136.67 263.883 136.727 263.966 136.762C264.05 136.797 264.142 136.81 264.232 136.798H264.219Z" fill="#263238"/>
<path d="M269.752 141.387C269.281 141.41 268.813 141.299 268.403 141.065C268.073 140.851 267.821 140.534 267.685 140.163C267.533 139.736 267.459 139.285 267.468 138.831V138.526H269.08V138.806C269.083 139.032 269.105 139.257 269.147 139.479C269.171 139.635 269.243 139.781 269.351 139.896C269.468 139.994 269.617 140.043 269.769 140.034C269.845 140.039 269.92 140.03 269.992 140.005C270.064 139.981 270.13 139.942 270.187 139.892C270.289 139.774 270.354 139.629 270.374 139.474C270.415 139.253 270.433 139.027 270.429 138.802C270.447 138.461 270.381 138.122 270.237 137.812C270.158 137.688 270.045 137.588 269.912 137.525C269.779 137.461 269.631 137.436 269.485 137.453H269.201V136.259H269.452C269.596 136.276 269.742 136.257 269.876 136.204C270.011 136.151 270.131 136.065 270.224 135.954C270.38 135.662 270.451 135.332 270.429 135.002C270.442 134.732 270.391 134.464 270.283 134.217C270.23 134.121 270.149 134.042 270.052 133.992C269.955 133.941 269.845 133.921 269.736 133.933C269.626 133.921 269.516 133.945 269.422 134.002C269.328 134.059 269.255 134.144 269.214 134.246C269.121 134.505 269.075 134.777 269.076 135.052V135.432H267.464V134.964C267.453 134.531 267.546 134.101 267.735 133.711C267.907 133.375 268.178 133.099 268.512 132.922C268.89 132.728 269.311 132.633 269.736 132.647C270.168 132.632 270.598 132.722 270.988 132.91C271.322 133.077 271.595 133.344 271.769 133.674C271.961 134.063 272.053 134.493 272.037 134.927C272.055 135.365 271.947 135.8 271.727 136.18C271.56 136.475 271.289 136.698 270.967 136.806C271.178 136.875 271.368 136.994 271.523 137.153C271.697 137.335 271.825 137.555 271.899 137.796C271.999 138.12 272.045 138.459 272.037 138.798C272.044 139.258 271.969 139.717 271.815 140.151C271.682 140.53 271.428 140.856 271.093 141.078C270.687 141.313 270.22 141.421 269.752 141.387Z" fill="#263238"/>
<path d="M273.06 142.686L272.934 142.151C273.118 142.093 273.286 141.994 273.427 141.863C273.504 141.78 273.564 141.682 273.602 141.575C273.64 141.468 273.656 141.354 273.648 141.241H272.813V139.708H274.333V141.062C274.352 141.467 274.238 141.867 274.008 142.202C273.892 142.344 273.748 142.46 273.585 142.544C273.421 142.627 273.243 142.676 273.06 142.686Z" fill="#263238"/>
<path d="M277.449 141.354C277.017 141.371 276.588 141.287 276.196 141.107C275.891 140.95 275.65 140.692 275.515 140.376C275.367 139.998 275.296 139.593 275.306 139.186V139.061H276.835C276.821 139.33 276.859 139.6 276.947 139.854C277.018 140.03 277.19 140.117 277.465 140.117C277.537 140.122 277.609 140.111 277.675 140.084C277.742 140.057 277.801 140.016 277.849 139.963C277.96 139.805 278.027 139.621 278.042 139.428C278.079 139.09 278.096 138.75 278.092 138.409V137.553C277.991 137.711 277.846 137.834 277.674 137.908C277.469 137.995 277.249 138.042 277.027 138.046C276.635 138.073 276.248 137.956 275.937 137.716C275.656 137.477 275.454 137.158 275.356 136.802C275.235 136.387 275.176 135.956 275.181 135.524C275.171 135.011 275.246 134.501 275.402 134.012C275.531 133.611 275.786 133.262 276.129 133.018C276.527 132.764 276.994 132.64 277.465 132.663C277.926 132.643 278.383 132.761 278.777 133.002C279.113 133.234 279.368 133.565 279.507 133.95C279.67 134.406 279.748 134.889 279.737 135.374V138.464C279.743 138.966 279.68 139.466 279.549 139.95C279.444 140.363 279.205 140.729 278.868 140.99C278.449 141.265 277.949 141.393 277.449 141.354ZM277.449 136.798C277.591 136.804 277.73 136.758 277.841 136.668C277.93 136.593 278.009 136.506 278.075 136.409V135.048C278.077 134.848 278.06 134.648 278.025 134.451C277.998 134.29 277.932 134.138 277.833 134.008C277.784 133.951 277.723 133.907 277.654 133.878C277.585 133.849 277.511 133.836 277.436 133.841C277.357 133.833 277.277 133.846 277.204 133.877C277.131 133.909 277.067 133.958 277.018 134.021C276.914 134.168 276.851 134.341 276.835 134.522C276.8 134.782 276.785 135.044 276.789 135.307C276.789 135.595 276.789 135.85 276.818 136.075C276.827 136.26 276.883 136.44 276.981 136.597C277.035 136.671 277.109 136.729 277.193 136.764C277.278 136.799 277.37 136.811 277.461 136.798H277.449Z" fill="#263238"/>
<path d="M283.17 141.241V139.257H280.593V138.005L282.802 132.768H284.686V138.034H285.521V139.287H284.686V141.27L283.17 141.241ZM281.871 138.021H283.17V134.422L281.871 138.021Z" fill="#263238"/>
<path d="M288.331 141.387C287.855 141.417 287.381 141.304 286.97 141.061C286.655 140.843 286.427 140.521 286.327 140.151C286.202 139.704 286.143 139.241 286.151 138.777H287.713C287.71 139.037 287.73 139.297 287.772 139.554C287.794 139.728 287.866 139.892 287.98 140.026C288.042 140.081 288.114 140.122 288.193 140.147C288.271 140.172 288.354 140.181 288.436 140.172C288.523 140.175 288.611 140.155 288.688 140.114C288.766 140.073 288.831 140.012 288.878 139.938C288.981 139.745 289.038 139.53 289.045 139.312C289.045 139.04 289.075 138.719 289.075 138.347C289.077 138.082 289.06 137.817 289.024 137.554C289.002 137.357 288.931 137.17 288.82 137.007C288.763 136.94 288.691 136.887 288.609 136.853C288.528 136.819 288.44 136.804 288.352 136.81C288.265 136.808 288.178 136.825 288.097 136.859C288.017 136.892 287.944 136.943 287.884 137.007C287.749 137.17 287.658 137.365 287.621 137.574H286.235L286.352 132.755H290.248V134.146H287.684L287.588 136.021C287.702 135.897 287.846 135.804 288.006 135.75C288.212 135.672 288.429 135.627 288.649 135.616C289.032 135.561 289.422 135.65 289.743 135.866C290.05 136.1 290.275 136.424 290.386 136.794C290.537 137.276 290.607 137.779 290.595 138.284C290.599 138.704 290.571 139.122 290.511 139.537C290.468 139.883 290.359 140.218 290.19 140.523C290.027 140.8 289.786 141.024 289.496 141.166C289.131 141.329 288.732 141.405 288.331 141.387Z" fill="#263238"/>
<path d="M94.5857 7.28734L94.665 2.55176H95.6882L96.2728 5.5376L96.8992 2.55176H97.8889L97.9683 7.28734H97.2667L97.1915 4.076L96.5902 7.28734H95.9888L95.3583 4.05094L95.2914 7.28734H94.5857Z" fill="#263238"/>
<path d="M99.9853 7.34983C99.6948 7.36643 99.4054 7.30133 99.1501 7.16191C98.9552 7.03518 98.8083 6.84707 98.7325 6.62738C98.6376 6.3594 98.5923 6.07638 98.5988 5.79218V4.02991C98.592 3.74568 98.6372 3.4626 98.7325 3.19471C98.8085 2.97732 98.9556 2.79193 99.1501 2.66853C99.4117 2.54706 99.6968 2.48413 99.9853 2.48413C100.274 2.48413 100.559 2.54706 100.82 2.66853C101.023 2.78754 101.178 2.97362 101.259 3.19471C101.353 3.46268 101.397 3.74589 101.388 4.02991V5.79636C101.396 6.0803 101.352 6.36329 101.259 6.63156C101.179 6.85487 101.024 7.04366 100.82 7.16609C100.564 7.30221 100.275 7.36574 99.9853 7.34983ZM99.9853 6.65244C100.034 6.65732 100.084 6.65246 100.131 6.63813C100.179 6.62379 100.223 6.60028 100.261 6.56892C100.322 6.50772 100.363 6.4289 100.378 6.34341C100.398 6.24173 100.408 6.13814 100.407 6.03439V3.79605C100.408 3.69367 100.399 3.59145 100.378 3.49121C100.363 3.40572 100.322 3.3269 100.261 3.2657C100.182 3.20606 100.084 3.17646 99.9853 3.18218C99.8901 3.17565 99.7961 3.2055 99.7222 3.2657C99.6624 3.32811 99.6218 3.40639 99.6052 3.49121C99.5864 3.59175 99.5766 3.69377 99.576 3.79605V6.03439C99.5769 6.13805 99.5866 6.24144 99.6052 6.34341C99.6187 6.4284 99.6581 6.50716 99.718 6.56892C99.7926 6.63094 99.8886 6.66096 99.9853 6.65244Z" fill="#263238"/>
<path d="M102.019 7.28734V2.55176H102.691L103.744 5.0156V2.55176H104.541V7.28734H103.898L102.854 4.66481V7.28734H102.019Z" fill="#263238"/>
<path d="M105.715 7.28734V3.27003H104.984V2.55176H107.406V3.27003H106.688V7.28734H105.715Z" fill="#263238"/>
<path d="M107.865 7.28734V2.55176H108.83V4.49777H109.665V2.55176H110.63V7.28734H109.665V5.17429H108.83V7.26229L107.865 7.28734Z" fill="#263238"/>
<path d="M111.34 7.28734V2.55176H112.304V6.63171H113.415V7.28734H111.34Z" fill="#263238"/>
<path d="M114.129 7.28734V5.40814L113.207 2.55176H114.129L114.639 4.22216L115.111 2.55176H115.988L115.077 5.40814V7.28734H114.129Z" fill="#263238"/>
<path d="M117.808 7.2872V2.55162H119.036C119.319 2.54265 119.601 2.57931 119.871 2.66019C120.086 2.72 120.273 2.8548 120.397 3.04021C120.533 3.26956 120.597 3.53424 120.581 3.80024C120.583 3.97416 120.567 4.14779 120.531 4.31806C120.504 4.46017 120.446 4.59439 120.36 4.71061C120.266 4.82803 120.144 4.91993 120.005 4.97787L120.661 7.2872H119.671L119.128 5.14073H118.79V7.2872H117.808ZM118.773 4.56862H119.053C119.18 4.57589 119.307 4.54847 119.42 4.48928C119.509 4.43831 119.576 4.35659 119.608 4.2596C119.65 4.13589 119.67 4.00589 119.667 3.87541C119.681 3.70262 119.643 3.52947 119.558 3.37846C119.504 3.31447 119.435 3.26494 119.357 3.23432C119.279 3.2037 119.194 3.19296 119.111 3.20307H118.786L118.773 4.56862Z" fill="#263238"/>
<path d="M121.199 7.28734V2.55176H123.262V3.21574H122.164V4.46854H122.999V5.14088H122.164V6.62753H123.275V7.28316L121.199 7.28734Z" fill="#263238"/>
<path d="M123.759 7.28741V2.55183H125.263C125.504 2.54237 125.743 2.59713 125.956 2.71051C126.141 2.81596 126.288 2.97856 126.373 3.17405C126.463 3.41266 126.503 3.66702 126.49 3.92156C126.505 4.19709 126.445 4.47148 126.315 4.715C126.21 4.90219 126.045 5.04909 125.847 5.1326C125.628 5.21438 125.396 5.25405 125.162 5.24952H124.724V7.30412L123.759 7.28741ZM124.724 4.55631H125.062C125.175 4.56096 125.286 4.53802 125.388 4.48949C125.465 4.4406 125.52 4.3645 125.542 4.27652C125.572 4.1534 125.586 4.02719 125.584 3.90068C125.585 3.77875 125.574 3.65702 125.551 3.53736C125.532 3.44752 125.482 3.36743 125.409 3.31186C125.303 3.24879 125.181 3.21964 125.058 3.22834H124.724V4.55631Z" fill="#263238"/>
<path d="M128.328 7.3499C128.037 7.36695 127.748 7.30182 127.492 7.16198C127.289 7.03955 127.134 6.85077 127.054 6.62745C126.961 6.35918 126.917 6.07619 126.925 5.79225V4.02998C126.916 3.74602 126.96 3.46296 127.054 3.19478C127.134 2.9737 127.29 2.78761 127.492 2.66861C127.754 2.5463 128.039 2.48291 128.328 2.48291C128.616 2.48291 128.901 2.5463 129.163 2.66861C129.359 2.79335 129.507 2.98217 129.58 3.20313C129.677 3.47079 129.722 3.75404 129.714 4.03833V5.80478C129.721 6.08898 129.675 6.372 129.58 6.63998C129.5 6.86329 129.345 7.05208 129.142 7.17451C128.891 7.30483 128.61 7.36541 128.328 7.3499ZM128.328 6.65251C128.377 6.65739 128.426 6.65253 128.474 6.6382C128.521 6.62387 128.565 6.60035 128.603 6.56899C128.665 6.50779 128.706 6.42897 128.72 6.34349C128.739 6.24151 128.749 6.13812 128.749 6.03446V3.79613C128.749 3.69384 128.739 3.59182 128.72 3.49128C128.704 3.40646 128.663 3.32819 128.603 3.26577C128.524 3.20613 128.427 3.17653 128.328 3.18225C128.233 3.17572 128.139 3.20557 128.065 3.26577C127.989 3.32643 127.935 3.4099 127.91 3.50381C127.889 3.60405 127.879 3.70627 127.881 3.80865V6.04699C127.88 6.15052 127.889 6.25391 127.906 6.35602C127.921 6.4415 127.961 6.52032 128.023 6.58152C128.065 6.61559 128.114 6.63968 128.167 6.65197C128.22 6.66427 128.275 6.66445 128.328 6.65251Z" fill="#263238"/>
<path d="M130.353 7.28724V2.55166H131.581C131.863 2.54348 132.145 2.58013 132.416 2.66023C132.63 2.72233 132.816 2.8566 132.942 3.04025C133.076 3.27045 133.14 3.53449 133.126 3.80028C133.128 3.9742 133.111 4.14783 133.076 4.3181C133.046 4.45994 132.986 4.59376 132.9 4.71065C132.808 4.83015 132.686 4.92251 132.545 4.97791L133.201 7.28724H132.211L131.668 5.14078H131.33V7.28724H130.353ZM131.318 4.56866H131.597C131.725 4.57593 131.852 4.54851 131.965 4.48932C132.055 4.43914 132.124 4.35731 132.157 4.25964C132.197 4.13564 132.215 4.00568 132.211 3.87545C132.223 3.70076 132.179 3.52693 132.086 3.3785C132.032 3.31421 131.963 3.26447 131.885 3.23383C131.807 3.20318 131.722 3.19262 131.639 3.20311H131.314L131.318 4.56866Z" fill="#263238"/>
<path d="M134.174 7.28734V3.27003H133.443V2.55176H135.845V3.27003H135.126V7.28734H134.174Z" fill="#263238"/>
<path d="M10.0217 31.9004V27.1439H11.5251C11.7724 27.1301 12.0185 27.1865 12.235 27.3068C12.4205 27.4122 12.567 27.5748 12.6526 27.7703C12.7467 28.0051 12.7921 28.2566 12.7862 28.5094C12.7999 28.7844 12.7408 29.0581 12.615 29.3029C12.5072 29.4896 12.3416 29.6362 12.1431 29.7205C11.9243 29.8026 11.6919 29.8422 11.4583 29.8374H10.9822V31.9004H10.0217ZM10.9822 29.1484H11.3205C11.4329 29.1536 11.5449 29.1306 11.6462 29.0816C11.6847 29.058 11.7182 29.0271 11.7447 28.9905C11.7712 28.954 11.7903 28.9125 11.8007 28.8686C11.8319 28.7458 11.8459 28.6193 11.8425 28.4927C11.8456 28.3753 11.8372 28.2578 11.8174 28.142C11.8008 28.0514 11.7499 27.9706 11.6754 27.9165C11.5698 27.8534 11.4474 27.8242 11.3246 27.8329H10.9822V29.1484Z" fill="#263238"/>
<path d="M13.2122 31.9005V27.144H14.1768V31.224H15.2876V31.9005H13.2122Z" fill="#263238"/>
<path d="M15.5132 31.9005L16.411 27.144H17.4843L18.4113 31.9005H17.5177L17.3464 30.8565H16.5989L16.411 31.9005H15.5132ZM16.6866 30.2301H17.2462L16.9581 28.3175L16.6866 30.2301Z" fill="#263238"/>
<path d="M19.3008 31.9004V30.0212L18.3779 27.1648H19.2841L19.7894 28.8352L20.2655 27.1648H21.1424L20.2279 30.0212V31.9004H19.3008Z" fill="#263238"/>
<path d="M21.51 31.9005V27.144H23.573V27.808H22.4747V29.0608H23.3099V29.7332H22.4747V31.2198H23.5855V31.9005H21.51Z" fill="#263238"/>
<path d="M24.0698 31.9005V27.144H25.2976C25.58 27.1356 25.8619 27.1722 26.1328 27.2526C26.3479 27.3124 26.5345 27.4472 26.6589 27.6326C26.7954 27.8619 26.8622 28.126 26.851 28.3926C26.8532 28.5666 26.8364 28.7402 26.8009 28.9105C26.7711 29.0523 26.7113 29.1861 26.6255 29.303C26.5335 29.4225 26.4109 29.5149 26.2706 29.5703L26.9053 31.9005H25.9198L25.3727 29.754H25.0345V31.9005H24.0698ZM25.0345 29.1819H25.3143C25.443 29.1891 25.5714 29.1617 25.6859 29.1026C25.7746 29.0516 25.8415 28.9699 25.8739 28.8729C25.9139 28.7489 25.9322 28.6189 25.9281 28.4887C25.9401 28.315 25.8993 28.1418 25.8112 27.9917C25.7571 27.9277 25.688 27.8782 25.61 27.8476C25.532 27.817 25.4476 27.8062 25.3644 27.8163H25.0345V29.1819Z" fill="#263238"/>
<path d="M28.6884 31.9422C28.4355 31.9503 28.1844 31.8958 27.9576 31.7835C27.7618 31.6733 27.6077 31.5016 27.5191 31.295C27.407 31.0306 27.3475 30.7469 27.3438 30.4598L28.179 30.3219C28.1837 30.4865 28.2047 30.6501 28.2416 30.8105C28.2646 30.9197 28.3165 31.0207 28.3919 31.1029C28.4612 31.1667 28.5525 31.2011 28.6467 31.1989C28.6957 31.204 28.7452 31.1958 28.79 31.1752C28.8348 31.1547 28.8733 31.1225 28.9014 31.082C28.9479 30.9993 28.971 30.9054 28.9682 30.8105C28.9746 30.634 28.9249 30.4601 28.8262 30.3136C28.7175 30.1591 28.5898 30.0188 28.4462 29.896L27.9576 29.4784C27.7924 29.3349 27.6514 29.1657 27.54 28.9773C27.422 28.7658 27.3642 28.5261 27.373 28.2841C27.3616 28.1192 27.3863 27.9538 27.4455 27.7994C27.5046 27.645 27.5967 27.5055 27.7154 27.3904C27.9769 27.1695 28.3133 27.0574 28.655 27.0772C28.8565 27.0686 29.057 27.1087 29.2397 27.1941C29.3842 27.2628 29.5059 27.3715 29.5904 27.5073C29.6733 27.635 29.7327 27.7764 29.7658 27.9249C29.799 28.0761 29.8199 28.2297 29.8285 28.3843L28.9933 28.5054C28.9933 28.3592 28.9724 28.2339 28.9557 28.1254C28.9426 28.0311 28.9052 27.9418 28.8471 27.8665C28.8178 27.8342 28.7814 27.8092 28.7409 27.7932C28.7003 27.7773 28.6567 27.7709 28.6133 27.7746C28.5635 27.7713 28.5138 27.7811 28.4691 27.8031C28.4244 27.8251 28.3863 27.8585 28.3585 27.8999C28.3048 27.9831 28.2771 28.0806 28.2792 28.1797C28.271 28.3273 28.3105 28.4738 28.3919 28.5973C28.4822 28.7223 28.5874 28.8359 28.7051 28.9355L29.1854 29.3531C29.3812 29.5237 29.5526 29.7204 29.6948 29.9378C29.847 30.1889 29.9211 30.4796 29.9078 30.773C29.9107 30.983 29.8589 31.1903 29.7575 31.3743C29.6587 31.5488 29.5143 31.6931 29.3399 31.7919C29.1392 31.8971 28.9149 31.9489 28.6884 31.9422Z" fill="#263238"/>
<path d="M13.5339 60.0679L15.2419 53.1148H13.0203V51.9456H16.7578V52.9687L15.0414 60.0679H13.5339Z" fill="#263238"/>
<path d="M19.7103 60.1847C19.2603 60.2066 18.8136 60.0978 18.4241 59.8715C18.1028 59.6599 17.8616 59.3467 17.7392 58.982C17.5947 58.5616 17.524 58.1194 17.5304 57.6749C17.529 57.4659 17.55 57.2573 17.5931 57.0527C17.6288 56.8673 17.6892 56.6875 17.7726 56.5182C17.8512 56.3656 17.951 56.225 18.0691 56.1006C18.1882 55.9739 18.3298 55.8705 18.4867 55.7957C18.2479 55.613 18.0513 55.3808 17.9104 55.115C17.7316 54.7726 17.6425 54.3904 17.6515 54.0042C17.6359 53.6068 17.7116 53.2111 17.8729 52.8475C18.0197 52.5306 18.2621 52.2677 18.5661 52.0958C18.9249 51.9253 19.3172 51.8369 19.7145 51.8369C20.1117 51.8369 20.504 51.9253 20.8629 52.0958C21.1637 52.2666 21.4011 52.5303 21.5394 52.8475C21.6957 53.2124 21.7684 53.6076 21.7524 54.0042C21.7613 54.393 21.6768 54.7782 21.506 55.1275C21.3687 55.3935 21.1697 55.6226 20.9255 55.7957C21.0824 55.8705 21.2241 55.9739 21.3431 56.1006C21.4613 56.225 21.5611 56.3656 21.6396 56.5182C21.724 56.6879 21.7871 56.8675 21.8275 57.0527C21.8706 57.2573 21.8916 57.4659 21.8902 57.6749C21.9121 58.119 21.8469 58.563 21.6981 58.982C21.568 59.3472 21.3252 59.6616 21.0049 59.8798C20.6118 60.1042 20.1622 60.21 19.7103 60.1847ZM19.7103 59.0321C19.7909 59.0351 19.8711 59.0184 19.9439 58.9835C20.0166 58.9486 20.0798 58.8965 20.1279 58.8317C20.2259 58.6839 20.2875 58.5151 20.3075 58.3389C20.3353 58.1523 20.3493 57.9638 20.3492 57.7751C20.3558 57.567 20.3432 57.3587 20.3116 57.1529C20.2914 56.9762 20.2283 56.807 20.1279 56.6601C20.078 56.5979 20.0143 56.5481 19.9418 56.5148C19.8693 56.4814 19.79 56.4654 19.7103 56.468C19.6305 56.4648 19.551 56.4805 19.4784 56.5139C19.4058 56.5473 19.3422 56.5974 19.2927 56.6601C19.1895 56.8048 19.1235 56.9726 19.1006 57.1487C19.0713 57.3562 19.0573 57.5656 19.0588 57.7751C19.0594 57.965 19.072 58.1547 19.0964 58.3431C19.1159 58.5207 19.1806 58.6904 19.2843 58.8358C19.3331 58.9026 19.3973 58.9565 19.4715 58.9928C19.5457 59.0292 19.6277 59.047 19.7103 59.0446V59.0321ZM19.7103 55.2027C19.7731 55.2041 19.8353 55.1912 19.8924 55.1652C19.9495 55.1392 20 55.1006 20.0402 55.0524C20.1327 54.9292 20.1956 54.7863 20.2239 54.6348C20.2687 54.4164 20.2897 54.1937 20.2866 53.9708C20.2967 53.7307 20.2495 53.4916 20.1488 53.2734C20.1111 53.1899 20.0491 53.1197 19.9708 53.072C19.8926 53.0244 19.8018 53.0014 19.7103 53.0061C19.6179 53.0025 19.5265 53.0258 19.4471 53.0733C19.3678 53.1207 19.3039 53.1903 19.2635 53.2734C19.1585 53.486 19.1083 53.7214 19.1173 53.9583C19.1151 54.1824 19.1347 54.4061 19.1758 54.6264C19.1973 54.787 19.2623 54.9386 19.3637 55.0649C19.4083 55.1113 19.4623 55.1476 19.5221 55.1713C19.5819 55.1951 19.646 55.2058 19.7103 55.2027Z" fill="#263238"/>
<path d="M23.6106 55.2152C23.4603 55.2299 23.3086 55.2096 23.1673 55.156C23.0261 55.1024 22.8991 55.0169 22.7963 54.9062C22.6161 54.6383 22.5309 54.3178 22.5541 53.9958V53.7578C22.5276 53.4374 22.6116 53.1176 22.7921 52.8516C22.9006 52.7437 23.0321 52.6618 23.1767 52.6119C23.3214 52.562 23.4754 52.5454 23.6273 52.5635C23.7789 52.5464 23.9323 52.563 24.0767 52.6121C24.2211 52.6612 24.3528 52.7415 24.4625 52.8474C24.6425 53.1074 24.7266 53.4218 24.7006 53.7369V54.0334C24.7229 54.3514 24.6376 54.6677 24.4584 54.9313C24.3496 55.0424 24.2161 55.126 24.0687 55.1754C23.9213 55.2248 23.7643 55.2384 23.6106 55.2152ZM23.6106 54.6389C23.6511 54.6429 23.6919 54.6378 23.7302 54.6241C23.7684 54.6103 23.8032 54.5883 23.832 54.5596C23.883 54.4917 23.9135 54.4105 23.9197 54.3257C23.9268 54.2075 23.9268 54.089 23.9197 53.9708V53.7662C23.9253 53.6105 23.9112 53.4548 23.8779 53.3026C23.8487 53.1982 23.7526 53.1439 23.5939 53.1439C23.4352 53.1439 23.3475 53.1982 23.3183 53.2985C23.2791 53.4511 23.2622 53.6087 23.2682 53.7662V53.975C23.2678 54.0936 23.2747 54.2122 23.2891 54.3299C23.2973 54.4137 23.3291 54.4933 23.381 54.5596C23.41 54.5903 23.4461 54.6136 23.4861 54.6274C23.5261 54.6412 23.5688 54.6452 23.6106 54.6389ZM24.1827 57.2865L25.5984 52.576H26.1288L24.7173 57.2865H24.1827ZM26.6883 57.2865C26.5349 57.3061 26.379 57.2886 26.2337 57.2356C26.0884 57.1825 25.9579 57.0955 25.8531 56.9817C25.6736 56.7135 25.5883 56.3933 25.6109 56.0713V55.8291C25.5874 55.5109 25.6697 55.1938 25.8448 54.9271C25.9535 54.8195 26.085 54.7377 26.2295 54.6878C26.3741 54.6379 26.5281 54.6212 26.68 54.6389C26.8312 54.6213 26.9845 54.6373 27.1288 54.6856C27.2732 54.734 27.4051 54.8136 27.5152 54.9187C27.6957 55.18 27.7799 55.4959 27.7532 55.8124V56.0797C27.7771 56.4004 27.6918 56.7198 27.511 56.9859C27.4066 57.0957 27.2788 57.1805 27.1371 57.234C26.9954 57.2875 26.8434 57.3083 26.6925 57.2949L26.6883 57.2865ZM26.6883 56.7144C26.7291 56.7178 26.7701 56.7121 26.8084 56.6976C26.8467 56.6832 26.8813 56.6604 26.9097 56.6309C26.9576 56.5632 26.9864 56.4839 26.9932 56.4012C27.0095 56.2864 27.0165 56.1705 27.0141 56.0546V55.8416C27.0213 55.6843 27.0058 55.5268 26.9681 55.3739C26.9389 55.2695 26.8429 55.2194 26.6883 55.2194C26.5338 55.2194 26.442 55.2695 26.4127 55.3739C26.374 55.5267 26.3572 55.6842 26.3626 55.8416V56.0546C26.3553 56.17 26.3553 56.2858 26.3626 56.4012C26.3649 56.4855 26.3959 56.5665 26.4503 56.6309C26.4803 56.6646 26.518 56.6906 26.5601 56.7066C26.6023 56.7226 26.6477 56.7281 26.6925 56.7228L26.6883 56.7144Z" fill="#263238"/>
<path d="M246.421 118.511H241.715V128.299H246.421V118.511Z" fill="#263238" stroke="#263238" stroke-linecap="round" stroke-linejoin="round"/>
<path d="M252.51 99.4224H247.803V128.295H252.51V99.4224Z" fill="#A8C6D7" stroke="#263238" stroke-linecap="round" stroke-linejoin="round"/>
<path d="M258.598 117.287H253.892V128.299H258.598V117.287Z" fill="#263238" stroke="#263238" stroke-linecap="round" stroke-linejoin="round"/>
<path d="M264.687 112.146H259.98V128.295H264.687V112.146Z" fill="#A8C6D7" stroke="#263238" stroke-linecap="round" stroke-linejoin="round"/>
<path d="M270.775 116.063H266.069V128.299H270.775V116.063Z" fill="#263238" stroke="#263238" stroke-linecap="round" stroke-linejoin="round"/>
<path d="M276.864 112.146H272.158V128.295H276.864V112.146Z" fill="#A8C6D7" stroke="#263238" stroke-linecap="round" stroke-linejoin="round"/>
<path d="M282.953 105.786H278.246V128.299H282.953V105.786Z" fill="#263238" stroke="#263238" stroke-linecap="round" stroke-linejoin="round"/>
<path d="M289.041 112.146H284.335V128.295H289.041V112.146Z" fill="#A8C6D7" stroke="#263238" stroke-linecap="round" stroke-linejoin="round"/>
<path d="M295.13 121.447H290.423V128.299H295.13V121.447Z" fill="#263238" stroke="#263238" stroke-linecap="round" stroke-linejoin="round"/>
<path d="M241.715 89.6379H257.132" stroke="#263238" stroke-width="3" stroke-linecap="round" stroke-linejoin="round"/>
<path d="M241.715 92.8157H267.163" stroke="#263238" stroke-linecap="round" stroke-linejoin="round"/>
<path d="M239.798 24.9268H268.182V58.9403" stroke="#263238" stroke-linecap="round" stroke-linejoin="round"/>
<path d="M268.428 51.1104H293.142V58.8151" stroke="#263238" stroke-linecap="round" stroke-linejoin="round"/>
<path d="M281.153 51.3525V58.815" stroke="#263238" stroke-linecap="round" stroke-linejoin="round"/>
<path d="M229.032 31.7795V56.9817H240.044" stroke="#263238" stroke-linecap="round" stroke-linejoin="round"/>
<path d="M238.875 18.8088H222.1C220.795 18.8088 219.736 19.8671 219.736 21.1725V30.794C219.736 32.0993 220.795 33.1576 222.1 33.1576H238.875C240.18 33.1576 241.239 32.0993 241.239 30.794V21.1725C241.239 19.8671 240.18 18.8088 238.875 18.8088Z" fill="#A8C6D7" stroke="#263238" stroke-linecap="round" stroke-linejoin="round"/>
<path d="M252.819 48.9053H236.044C234.738 48.9053 233.68 49.9635 233.68 51.2689V60.8904C233.68 62.1958 234.738 63.254 236.044 63.254H252.819C254.124 63.254 255.182 62.1958 255.182 60.8904V51.2689C255.182 49.9635 254.124 48.9053 252.819 48.9053Z" fill="#263238" stroke="#263238" stroke-linecap="round" stroke-linejoin="round"/>
<path d="M279.002 32.5105H262.227C260.922 32.5105 259.864 33.5687 259.864 34.8741V44.4956C259.864 45.801 260.922 46.8592 262.227 46.8592H279.002C280.308 46.8592 281.366 45.801 281.366 44.4956V34.8741C281.366 33.5687 280.308 32.5105 279.002 32.5105Z" fill="white" stroke="#263238" stroke-linecap="round" stroke-linejoin="round"/>
<path d="M271.331 55.2278H264.277C263.256 55.2278 262.427 56.056 262.427 57.0777V60.5522C262.427 61.5739 263.256 62.4021 264.277 62.4021H271.331C272.352 62.4021 273.181 61.5739 273.181 60.5522V57.0777C273.181 56.056 272.352 55.2278 271.331 55.2278Z" fill="#A8C6D7" stroke="#263238" stroke-linecap="round" stroke-linejoin="round"/>
<path d="M283.942 55.2278H276.889C275.867 55.2278 275.039 56.056 275.039 57.0777V60.5522C275.039 61.5739 275.867 62.4021 276.889 62.4021H283.942C284.964 62.4021 285.792 61.5739 285.792 60.5522V57.0777C285.792 56.056 284.964 55.2278 283.942 55.2278Z" fill="#A8C6D7" stroke="#263238" stroke-linecap="round" stroke-linejoin="round"/>
<path d="M296.558 55.2278H289.505C288.483 55.2278 287.655 56.056 287.655 57.0777V60.5522C287.655 61.5739 288.483 62.4021 289.505 62.4021H296.558C297.58 62.4021 298.408 61.5739 298.408 60.5522V57.0777C298.408 56.056 297.58 55.2278 296.558 55.2278Z" fill="#A8C6D7" stroke="#263238" stroke-linecap="round" stroke-linejoin="round"/>
<path d="M225.837 25.7495H234.807" stroke="#263238" stroke-linecap="round" stroke-linejoin="round"/>
<path d="M239.894 55.9543H248.864" stroke="white" stroke-linecap="round" stroke-linejoin="round"/>
<path d="M239.894 57.75H248.864" stroke="white" stroke-linecap="round" stroke-linejoin="round"/>
<path d="M265.313 40.4031H277.875" stroke="#263238" stroke-linecap="round" stroke-linejoin="round"/>
<path d="M265.313 38.7285H277.875" stroke="#263238" stroke-linecap="round" stroke-linejoin="round"/>
<path d="M94.3894 43.8567V46.9887" stroke="#263238" stroke-linecap="round" stroke-linejoin="round"/>
<path d="M102.132 43.8567V46.9887" stroke="#263238" stroke-linecap="round" stroke-linejoin="round"/>
<path d="M109.87 43.8567V46.9887" stroke="#263238" stroke-linecap="round" stroke-linejoin="round"/>
<path d="M117.612 43.8567V46.9887" stroke="#263238" stroke-linecap="round" stroke-linejoin="round"/>
<path d="M125.354 43.8567V46.9887" stroke="#263238" stroke-linecap="round" stroke-linejoin="round"/>
<path d="M133.097 43.8567V46.9887" stroke="#263238" stroke-linecap="round" stroke-linejoin="round"/>
<path d="M140.839 43.8567V46.9887" stroke="#263238" stroke-linecap="round" stroke-linejoin="round"/>
<path d="M148.581 43.8567V46.9887" stroke="#263238" stroke-linecap="round" stroke-linejoin="round"/>
<path d="M156.324 43.8567V46.9887" stroke="#263238" stroke-linecap="round" stroke-linejoin="round"/>
<path d="M164.037 43.8567V46.9887" stroke="#263238" stroke-linecap="round" stroke-linejoin="round"/>
<path d="M171.779 43.8567V46.9887" stroke="#263238" stroke-linecap="round" stroke-linejoin="round"/>
<path d="M179.521 43.8567V46.9887" stroke="#263238" stroke-linecap="round" stroke-linejoin="round"/>
<path d="M187.239 43.8567V46.9887" stroke="#263238" stroke-linecap="round" stroke-linejoin="round"/>
<path d="M194.981 43.8567V46.9887" stroke="#263238" stroke-linecap="round" stroke-linejoin="round"/>
<path d="M202.723 43.8567V46.9887" stroke="#263238" stroke-linecap="round" stroke-linejoin="round"/>
<path d="M91.9172 43.8567H204.289" stroke="#263238" stroke-linecap="round" stroke-linejoin="round"/>
<path d="M97.8472 41.3886L105.422 35.9514L113.002 19.8947L121.074 36.2813L127.827 27.7163L135.899 33.6463L143.971 11.5093L152.206 26.7266L159.126 18.8173L165.716 28.9274L175.128 23.4902L182.683 26.9396L190.108 23.4902L200.046 11.693" stroke="#263238" stroke-width="3" stroke-linecap="round" stroke-linejoin="round"/>
<path d="M187.51 1.00244H200.234V7.36667H196.931L199.499 11.2796L194.747 7.36667H187.51V1.00244Z" fill="#263238"/>
<path d="M187.51 40.7747H200.234V34.4146H196.931L199.499 30.4976L194.747 34.4146H187.51V40.7747Z" fill="#A8C6D7"/>
<path d="M97.321 34.3895L106.588 27.4365L113.754 33.1283L120.915 27.0147L128.077 33.5459L137.561 21.5399L144.932 25.7535L152.098 33.7589L159.259 25.1188L167.478 19.644L175.27 29.5453L183.067 31.863L189.385 31.2283L199.499 26.5971" stroke="#A8C6D7" stroke-width="3" stroke-linecap="round" stroke-linejoin="round"/>
<path d="M8.01733 65.1541C9.57415 67.0043 11.5745 68.4296 13.8315 69.2971C16.0885 70.1646 18.5286 70.446 20.9238 70.1148C23.319 69.7837 25.5912 68.8508 27.5281 67.4035C29.4651 65.9562 31.0037 64.0415 32.0001 61.8384" stroke="#9E9E9E" stroke-width="9" stroke-miterlimit="10"/>
<path d="M6.43469 49.043C5.04064 51.5741 4.44571 54.4681 4.72822 57.3439C5.01073 60.2197 6.15744 62.9425 8.0174 65.154" stroke="#A8C6D7" stroke-width="9" stroke-miterlimit="10"/>
<path d="M32.0003 61.8383C33.5118 58.4717 33.664 54.6513 32.425 51.1751C31.1861 47.699 28.6518 44.836 25.3517 43.1843C22.0516 41.5327 18.241 41.2201 14.7158 42.3118C11.1907 43.4036 8.22371 45.8153 6.43481 49.0431" stroke="#263238" stroke-width="9" stroke-miterlimit="10"/>
<path d="M42.6073 48.9637C42.6073 48.5994 42.4993 48.2434 42.2969 47.9405C42.0946 47.6377 41.807 47.4016 41.4704 47.2623C41.1339 47.1229 40.7636 47.0864 40.4064 47.1575C40.0492 47.2285 39.721 47.4039 39.4635 47.6615C39.2059 47.919 39.0305 48.2472 38.9595 48.6044C38.8884 48.9616 38.9249 49.3319 39.0643 49.6684C39.2036 50.005 39.4397 50.2926 39.7425 50.4949C40.0454 50.6973 40.4015 50.8053 40.7657 50.8053C41.0077 50.8059 41.2474 50.7586 41.4711 50.6662C41.6948 50.5739 41.898 50.4383 42.0691 50.2671C42.2403 50.096 42.3759 49.8928 42.4682 49.6691C42.5606 49.4454 42.6079 49.2057 42.6073 48.9637Z" fill="#263238"/>
<path d="M42.6071 56.8817C42.6071 56.5174 42.4991 56.1614 42.2967 55.8585C42.0943 55.5557 41.8067 55.3196 41.4702 55.1802C41.1337 55.0408 40.7634 55.0044 40.4062 55.0754C40.0489 55.1465 39.7208 55.3219 39.4632 55.5794C39.2057 55.837 39.0303 56.1651 38.9592 56.5224C38.8882 56.8796 38.9246 57.2499 39.064 57.5864C39.2034 57.9229 39.4394 58.2105 39.7423 58.4129C40.0452 58.6153 40.4012 58.7233 40.7654 58.7233C41.0074 58.7238 41.2472 58.6766 41.4709 58.5842C41.6945 58.4919 41.8978 58.3562 42.0689 58.1851C42.24 58.014 42.3756 57.8107 42.468 57.5871C42.5604 57.3634 42.6076 57.1237 42.6071 56.8817Z" fill="#9E9E9E"/>
<path d="M42.6073 65.7637C42.6073 65.3995 42.4993 65.0434 42.2969 64.7406C42.0946 64.4377 41.807 64.2017 41.4704 64.0623C41.1339 63.9229 40.7636 63.8864 40.4064 63.9575C40.0492 64.0286 39.721 64.204 39.4635 64.4615C39.2059 64.7191 39.0305 65.0472 38.9595 65.4045C38.8884 65.7617 38.9249 66.132 39.0643 66.4685C39.2036 66.805 39.4397 67.0926 39.7425 67.295C40.0454 67.4973 40.4015 67.6054 40.7657 67.6054C41.2541 67.6054 41.7225 67.4113 42.0679 67.066C42.4133 66.7206 42.6073 66.2522 42.6073 65.7637Z" fill="#A8C6D7"/>
<path d="M45.3718 49.1934H64.7025" stroke="#263238" stroke-linecap="round" stroke-linejoin="round"/>
<path d="M45.3716 56.7898H64.7023" stroke="#263238" stroke-linecap="round" stroke-linejoin="round"/>
<path d="M45.3718 65.7637H64.7025" stroke="#263238" stroke-linecap="round" stroke-linejoin="round"/>
<path d="M58.7056 92.0305H4V96.265H58.7056V92.0305Z" stroke="#263238" stroke-linecap="round" stroke-linejoin="round"/>
<path d="M58.7056 98.7373H4V102.972H58.7056V98.7373Z" stroke="#263238" stroke-linecap="round" stroke-linejoin="round"/>
<path d="M58.7056 105.444H4V109.678H58.7056V105.444Z" stroke="#263238" stroke-linecap="round" stroke-linejoin="round"/>
<path d="M58.7056 112.151H4V116.385H58.7056V112.151Z" stroke="#263238" stroke-linecap="round" stroke-linejoin="round"/>
<path d="M58.7056 118.853H4V123.087H58.7056V118.853Z" stroke="#263238" stroke-linecap="round" stroke-linejoin="round"/>
<path d="M4.9021 88.9321H20.3157" stroke="#263238" stroke-width="3" stroke-linecap="round" stroke-linejoin="round"/>
<path d="M4.9021 92.1099H30.3506" stroke="#263238" stroke-linecap="round" stroke-linejoin="round"/>
<path d="M58.7056 98.0273H4V102.262H58.7056V98.0273Z" stroke="#263238" stroke-linecap="round" stroke-linejoin="round"/>
<path d="M58.7056 104.73H4V108.964H58.7056V104.73Z" stroke="#263238" stroke-linecap="round" stroke-linejoin="round"/>
<path d="M58.7056 111.437H4V115.671H58.7056V111.437Z" stroke="#263238" stroke-linecap="round" stroke-linejoin="round"/>
<path d="M58.7056 118.143H4V122.378H58.7056V118.143Z" stroke="#263238" stroke-linecap="round" stroke-linejoin="round"/>
<path d="M58.7056 124.85H4V129.084H58.7056V124.85Z" stroke="#263238" stroke-linecap="round" stroke-linejoin="round"/>
<path d="M24.3371 98.0273H4V102.262H24.3371V98.0273Z" fill="#263238" stroke="#263238" stroke-linecap="round" stroke-linejoin="round"/>
<path d="M31.5741 104.73H4V108.964H31.5741V104.73Z" fill="#A8C6D7" stroke="#263238" stroke-linecap="round" stroke-linejoin="round"/>
<path d="M14.4692 111.437H4V115.671H14.4692V111.437Z" fill="#263238" stroke="#263238" stroke-linecap="round" stroke-linejoin="round"/>
<path d="M49.0006 118.143H4V122.378H49.0006V118.143Z" fill="#A8C6D7" stroke="#263238" stroke-linecap="round" stroke-linejoin="round"/>
<path d="M37.4915 124.85H4V129.084H37.4915V124.85Z" fill="#263238" stroke="#263238" stroke-linecap="round" stroke-linejoin="round"/>
<path d="M213.731 58.8525H88.3344C86.1226 58.8525 84.3296 60.6455 84.3296 62.8573V137.311C84.3296 139.523 86.1226 141.316 88.3344 141.316H213.731C215.943 141.316 217.736 139.523 217.736 137.311V62.8573C217.736 60.6455 215.943 58.8525 213.731 58.8525Z" fill="#263238" stroke="#263238" stroke-linecap="round" stroke-linejoin="round"/>
<path d="M209.2 63.3835H92.8695C90.7269 63.3835 88.99 65.1205 88.99 67.263V132.901C88.99 135.044 90.7269 136.781 92.8695 136.781H209.2C211.343 136.781 213.08 135.044 213.08 132.901V67.263C213.08 65.1205 211.343 63.3835 209.2 63.3835Z" fill="white" stroke="#263238" stroke-linecap="round" stroke-linejoin="round"/>
<path d="M212.675 88.7736V126.558H158.692V111.721H176.615V98.3324H192.889V87.0029H212.458L212.675 88.7736Z" fill="#A8C6D7"/>
<path d="M213.101 126.971V132.901C213.101 133.93 212.692 134.917 211.964 135.645C211.237 136.372 210.25 136.781 209.221 136.781H92.8695C91.8406 136.781 90.8538 136.372 90.1263 135.645C89.3987 134.917 88.99 133.93 88.99 132.901V126.971H213.101Z" fill="white" stroke="#263238" stroke-linecap="round" stroke-linejoin="round"/>
<path d="M201.103 101.561H195.787C195.365 101.561 195.023 101.903 195.023 102.325V107.641C195.023 108.063 195.365 108.405 195.787 108.405H201.103C201.525 108.405 201.867 108.063 201.867 107.641V102.325C201.867 101.903 201.525 101.561 201.103 101.561Z" fill="white" stroke="#263238" stroke-linecap="round" stroke-linejoin="round"/>
<path d="M201.103 118.728H195.787C195.365 118.728 195.023 119.07 195.023 119.492V124.808C195.023 125.23 195.365 125.572 195.787 125.572H201.103C201.525 125.572 201.867 125.23 201.867 124.808V119.492C201.867 119.07 201.525 118.728 201.103 118.728Z" fill="white" stroke="#263238" stroke-linecap="round" stroke-linejoin="round"/>
<path d="M210.453 116.223V110.907C210.453 110.484 210.111 110.142 209.689 110.142H204.373C203.951 110.142 203.609 110.484 203.609 110.907V116.223C203.609 116.645 203.951 116.987 204.373 116.987H209.689C210.111 116.987 210.453 116.645 210.453 116.223Z" fill="white" stroke="#263238" stroke-linecap="round" stroke-linejoin="round"/>
<path d="M193.281 116.222V110.906C193.281 110.484 192.939 110.142 192.517 110.142H187.201C186.779 110.142 186.437 110.484 186.437 110.906V116.222C186.437 116.644 186.779 116.987 187.201 116.987H192.517C192.939 116.987 193.281 116.644 193.281 116.222Z" fill="white" stroke="#263238" stroke-linecap="round" stroke-linejoin="round"/>
<path d="M143.85 108.985H135.294C134.382 108.985 133.508 108.623 132.863 107.979C132.219 107.334 131.857 106.46 131.857 105.549C131.857 104.637 132.219 103.763 132.863 103.118C133.508 102.474 134.382 102.112 135.294 102.112H140.413V99.3473C140.413 98.8959 140.502 98.449 140.675 98.032C140.848 97.615 141.101 97.2362 141.42 96.917C141.739 96.5979 142.118 96.3447 142.535 96.172C142.952 95.9993 143.399 95.9104 143.85 95.9104C144.301 95.9104 144.748 95.9993 145.165 96.172C145.582 96.3447 145.961 96.5979 146.28 96.917C146.6 97.2362 146.853 97.615 147.025 98.032C147.198 98.449 147.287 98.8959 147.287 99.3473V105.549C147.286 106.46 146.923 107.333 146.279 107.978C145.635 108.622 144.761 108.984 143.85 108.985Z" fill="white" stroke="#263238" stroke-linecap="round" stroke-linejoin="round"/>
<path d="M145.646 102.943C145.459 102.943 145.274 102.906 145.101 102.834C144.928 102.763 144.771 102.658 144.639 102.526C144.507 102.393 144.402 102.236 144.33 102.064C144.259 101.891 144.222 101.706 144.222 101.519V95.0083H147.074V101.519C147.073 101.897 146.922 102.259 146.654 102.526C146.386 102.793 146.024 102.943 145.646 102.943Z" fill="#263238" stroke="#263238" stroke-linecap="round" stroke-linejoin="round"/>
<path d="M133.682 111.253C137.037 111.253 139.758 108.533 139.758 105.177C139.758 101.821 137.037 99.1008 133.682 99.1008C130.326 99.1008 127.605 101.821 127.605 105.177C127.605 108.533 130.326 111.253 133.682 111.253Z" fill="#A8C6D7" stroke="#263238" stroke-linecap="round" stroke-linejoin="round"/>
<path d="M133.844 101.828H119.754C118.338 101.828 117.19 102.976 117.19 104.392V109.432C117.19 110.848 118.338 111.996 119.754 111.996H133.844C135.26 111.996 136.408 110.848 136.408 109.432V104.392C136.408 102.976 135.26 101.828 133.844 101.828Z" fill="#A8C6D7" stroke="#263238" stroke-linecap="round" stroke-linejoin="round"/>
<path d="M140.376 124.746C139.945 124.747 139.519 124.664 139.121 124.5C138.723 124.337 138.361 124.096 138.057 123.792C137.752 123.488 137.511 123.127 137.346 122.73C137.181 122.332 137.097 121.906 137.097 121.476V116.068H134.788C134.349 116.084 133.91 116.011 133.5 115.853C133.089 115.696 132.714 115.457 132.398 115.152C132.081 114.847 131.83 114.481 131.658 114.076C131.486 113.671 131.397 113.236 131.397 112.796C131.397 112.356 131.486 111.921 131.658 111.516C131.83 111.111 132.081 110.745 132.398 110.44C132.714 110.135 133.089 109.896 133.5 109.739C133.91 109.581 134.349 109.508 134.788 109.524H140.367C140.797 109.524 141.223 109.608 141.62 109.772C142.017 109.936 142.378 110.177 142.682 110.48C142.986 110.784 143.227 111.145 143.392 111.542C143.557 111.939 143.641 112.364 143.641 112.794V121.476C143.641 122.342 143.297 123.173 142.685 123.786C142.073 124.399 141.242 124.744 140.376 124.746Z" fill="white" stroke="#263238" stroke-linecap="round" stroke-linejoin="round"/>
<path d="M137.097 116.068V121.476C137.128 122.323 137.486 123.126 138.096 123.715C138.706 124.304 139.521 124.633 140.369 124.633C141.217 124.633 142.032 124.304 142.643 123.715C143.253 123.126 143.611 122.323 143.641 121.476V116.068H137.097Z" fill="white" stroke="#263238" stroke-linecap="round" stroke-linejoin="round"/>
<path d="M120.289 123.092H112.355C111.486 123.092 110.653 122.747 110.039 122.133C109.425 121.519 109.081 120.686 109.081 119.818C109.081 118.95 109.425 118.117 110.039 117.503C110.653 116.889 111.486 116.544 112.355 116.544H117.015V113.124C117.015 112.256 117.36 111.423 117.974 110.809C118.588 110.195 119.421 109.85 120.289 109.85C121.157 109.85 121.99 110.195 122.604 110.809C123.218 111.423 123.563 112.256 123.563 113.124V119.805C123.565 120.236 123.481 120.664 123.317 121.062C123.154 121.461 122.913 121.823 122.608 122.129C122.304 122.434 121.943 122.676 121.545 122.842C121.147 123.007 120.72 123.092 120.289 123.092Z" fill="white" stroke="#263238" stroke-linecap="round" stroke-linejoin="round"/>
<path d="M117.19 115.838H117.015V116.544H112.355C111.486 116.544 110.653 116.889 110.039 117.503C109.425 118.117 109.081 118.95 109.081 119.818C109.081 120.686 109.425 121.519 110.039 122.133C110.653 122.747 111.486 123.092 112.355 123.092H117.19V115.838Z" fill="white" stroke="#263238" stroke-linecap="round" stroke-linejoin="round"/>
<path d="M113.161 116.147V122.762C113.161 123.835 112.734 124.864 111.975 125.623C111.217 126.382 110.187 126.809 109.114 126.809H106.341V116.147H113.161Z" fill="#263238" stroke="#263238" stroke-linecap="round" stroke-linejoin="round"/>
<path d="M105.531 127.001V116.461C105.531 116.355 105.552 116.25 105.592 116.152C105.633 116.054 105.692 115.965 105.767 115.891C105.842 115.816 105.931 115.756 106.029 115.716C106.126 115.675 106.231 115.655 106.337 115.655C106.443 115.654 106.548 115.674 106.646 115.715C106.744 115.755 106.833 115.814 106.908 115.889C106.983 115.964 107.042 116.053 107.083 116.151C107.123 116.249 107.143 116.355 107.143 116.461V127.001C107.143 127.215 107.058 127.42 106.907 127.571C106.756 127.722 106.551 127.807 106.337 127.807C106.124 127.806 105.919 127.72 105.768 127.569C105.617 127.419 105.532 127.214 105.531 127.001Z" fill="white" stroke="#263238" stroke-linecap="round" stroke-linejoin="round"/>
<path d="M136.408 109.27H117.437V116.461H136.408V109.27Z" fill="#263238" stroke="#263238" stroke-linecap="round" stroke-linejoin="round"/>
<path d="M136.408 109.27H117.437V111.086H136.408V109.27Z" fill="#A8C6D7" stroke="#263238" stroke-linecap="round" stroke-linejoin="round"/>
<path d="M129.815 109.27H124.031V121.138H129.815V109.27Z" fill="#A8C6D7" stroke="#263238" stroke-linecap="round" stroke-linejoin="round"/>
<path d="M130.107 94.762H121.755C120.466 94.762 119.42 95.8071 119.42 97.0963V100.734C119.42 102.023 120.466 103.068 121.755 103.068H130.107C131.396 103.068 132.441 102.023 132.441 100.734V97.0963C132.441 95.8071 131.396 94.762 130.107 94.762Z" fill="white" stroke="#263238" stroke-linecap="round" stroke-linejoin="round"/>
<path d="M125.993 96.7456V100.216H133.059V107.286L126.545 105.553C126.138 105.445 125.777 105.205 125.521 104.872C125.264 104.538 125.125 104.128 125.125 103.707V103.068H120.577C120.205 103.068 119.848 102.92 119.585 102.657C119.322 102.394 119.174 102.037 119.174 101.665V96.5911C119.174 96.5911 125.993 96.2486 125.993 96.7456Z" fill="#263238" stroke="#263238" stroke-linecap="round" stroke-linejoin="round"/>
<path d="M132.07 100.984C133.043 100.984 133.832 100.195 133.832 99.222C133.832 98.2487 133.043 97.4597 132.07 97.4597C131.096 97.4597 130.307 98.2487 130.307 99.222C130.307 100.195 131.096 100.984 132.07 100.984Z" fill="white" stroke="#263238" stroke-linecap="round" stroke-linejoin="round"/>
<path d="M130.09 91.7928L125.371 89.5503L121.408 91.7302C120.694 92.1221 120.099 92.6986 119.684 93.3994C119.269 94.1002 119.049 94.8996 119.049 95.7141V97.4889H132.688V95.8978C132.688 95.0379 132.443 94.1957 131.984 93.469C131.524 92.7424 130.867 92.1611 130.09 91.7928Z" fill="#A8C6D7" stroke="#263238" stroke-linecap="round" stroke-linejoin="round"/>
<path d="M120.536 96.7456C120.81 96.7456 121.032 96.5231 121.032 96.2487C121.032 95.9742 120.81 95.7517 120.536 95.7517C120.261 95.7517 120.039 95.9742 120.039 96.2487C120.039 96.5231 120.261 96.7456 120.536 96.7456Z" fill="#263238" stroke="#263238" stroke-linecap="round" stroke-linejoin="round"/>
<path d="M123.759 96.2486C123.759 96.1502 123.73 96.0539 123.675 95.9721C123.62 95.8903 123.543 95.8266 123.452 95.7891C123.36 95.7516 123.26 95.7421 123.164 95.7616C123.067 95.7811 122.979 95.8288 122.909 95.8987C122.84 95.9687 122.793 96.0576 122.774 96.1543C122.756 96.2509 122.766 96.351 122.804 96.4417C122.843 96.5325 122.907 96.6098 122.989 96.6639C123.072 96.718 123.168 96.7464 123.267 96.7456C123.332 96.7456 123.396 96.7327 123.456 96.7077C123.516 96.6827 123.571 96.646 123.616 96.5998C123.662 96.5536 123.698 96.4988 123.723 96.4385C123.747 96.3782 123.76 96.3137 123.759 96.2486Z" fill="#263238" stroke="#263238" stroke-linecap="round" stroke-linejoin="round"/>
<path d="M126.49 96.2487C126.49 96.1504 126.461 96.0543 126.407 95.9726C126.352 95.8908 126.275 95.8271 126.184 95.7895C126.093 95.7519 125.993 95.7421 125.897 95.7613C125.8 95.7804 125.712 95.8278 125.642 95.8973C125.573 95.9668 125.525 96.0553 125.506 96.1517C125.487 96.2481 125.497 96.348 125.534 96.4388C125.572 96.5296 125.636 96.6072 125.717 96.6618C125.799 96.7165 125.895 96.7456 125.994 96.7456C126.125 96.7456 126.252 96.6932 126.345 96.6001C126.438 96.5069 126.49 96.3805 126.49 96.2487Z" fill="#263238" stroke="#263238" stroke-linecap="round" stroke-linejoin="round"/>
<path d="M129.217 96.2487C129.217 96.1169 129.165 95.9905 129.072 95.8973C128.979 95.8041 128.852 95.7517 128.72 95.7517C128.589 95.7517 128.462 95.8041 128.369 95.8973C128.276 95.9905 128.223 96.1169 128.223 96.2487C128.223 96.3805 128.276 96.5069 128.369 96.6C128.462 96.6932 128.589 96.7456 128.72 96.7456C128.852 96.7456 128.979 96.6932 129.072 96.6C129.165 96.5069 129.217 96.3805 129.217 96.2487Z" fill="#263238" stroke="#263238" stroke-linecap="round" stroke-linejoin="round"/>
<path d="M131.944 96.2487C131.944 96.1504 131.915 96.0543 131.861 95.9726C131.806 95.8908 131.728 95.8271 131.638 95.7895C131.547 95.7519 131.447 95.7421 131.35 95.7613C131.254 95.7804 131.165 95.8278 131.096 95.8973C131.026 95.9668 130.979 96.0553 130.96 96.1517C130.941 96.2481 130.951 96.348 130.988 96.4388C131.026 96.5296 131.09 96.6072 131.171 96.6618C131.253 96.7165 131.349 96.7456 131.447 96.7456C131.579 96.7456 131.706 96.6932 131.799 96.6001C131.892 96.5069 131.944 96.3805 131.944 96.2487Z" fill="#263238" stroke="#263238" stroke-linecap="round" stroke-linejoin="round"/>
<path d="M147.446 96.1233H147.395C146.279 96.1233 145.374 97.0282 145.374 98.1445V99.3096C145.374 100.426 146.279 101.331 147.395 101.331H147.446C148.562 101.331 149.467 100.426 149.467 99.3096V98.1445C149.467 97.0282 148.562 96.1233 147.446 96.1233Z" fill="white" stroke="#263238" stroke-linecap="round" stroke-linejoin="round"/>
<path d="M140.413 99.3471V98.2154C140.413 97.6617 140.633 97.1306 141.025 96.739C141.416 96.3474 141.947 96.1274 142.501 96.1274H144.343C144.675 96.1274 144.994 96.2594 145.229 96.4944C145.464 96.7293 145.596 97.048 145.596 97.3802C145.596 97.7125 145.464 98.0312 145.229 98.2661C144.994 98.5011 144.675 98.633 144.343 98.633H143.846V101.114" fill="white"/>
<path d="M140.413 99.3471V98.2154C140.413 97.6617 140.633 97.1306 141.025 96.739C141.416 96.3474 141.947 96.1274 142.501 96.1274H144.343C144.675 96.1274 144.994 96.2594 145.229 96.4944C145.464 96.7293 145.596 97.048 145.596 97.3802C145.596 97.7125 145.464 98.0312 145.229 98.2661C144.994 98.5011 144.675 98.633 144.343 98.633H143.846V101.114" stroke="#263238" stroke-linecap="round" stroke-linejoin="round"/>
<path d="M148.435 81.4907L145.834 79.386L142.981 81.4907V94.6367H148.435V81.4907Z" fill="white" stroke="#263238" stroke-linecap="round" stroke-linejoin="round"/>
<path d="M149.738 95.877H140.935C140.845 95.877 140.756 95.8593 140.674 95.8248C140.591 95.7904 140.516 95.7398 140.452 95.6762C140.389 95.6125 140.339 95.537 140.305 95.4539C140.271 95.3709 140.254 95.2819 140.254 95.1922C140.254 95.0116 140.326 94.8385 140.454 94.7108C140.581 94.5832 140.755 94.5115 140.935 94.5115H149.738C149.919 94.5115 150.092 94.5832 150.219 94.7108C150.347 94.8385 150.419 95.0116 150.419 95.1922C150.419 95.2819 150.402 95.3709 150.368 95.4539C150.334 95.537 150.284 95.6125 150.221 95.6762C150.158 95.7398 150.082 95.7904 150 95.8248C149.917 95.8593 149.828 95.877 149.738 95.877Z" fill="white" stroke="#263238" stroke-linecap="round" stroke-linejoin="round"/>
<path d="M145.834 79.386V94.2651" stroke="#263238" stroke-linecap="round" stroke-linejoin="round"/>
<path d="M137.031 119.81H143.646C144.719 119.81 145.748 120.236 146.507 120.995C147.266 121.754 147.692 122.783 147.692 123.856V126.629H137.031V119.81Z" fill="#263238" stroke="#263238" stroke-linecap="round" stroke-linejoin="round"/>
<path d="M147.88 126.875H137.34C137.234 126.876 137.129 126.855 137.031 126.815C136.933 126.775 136.843 126.715 136.769 126.641C136.694 126.566 136.634 126.477 136.594 126.378C136.554 126.28 136.533 126.175 136.534 126.069C136.534 125.964 136.555 125.859 136.595 125.761C136.636 125.663 136.695 125.574 136.77 125.499C136.845 125.425 136.933 125.365 137.031 125.325C137.129 125.284 137.234 125.263 137.34 125.263H147.88C148.093 125.265 148.298 125.35 148.449 125.501C148.6 125.652 148.685 125.856 148.686 126.069C148.686 126.283 148.601 126.488 148.45 126.639C148.299 126.79 148.094 126.875 147.88 126.875Z" fill="white" stroke="#263238" stroke-linecap="round" stroke-linejoin="round"/>
<path d="M114.956 111.253C118.312 111.253 121.033 108.533 121.033 105.177C121.033 101.821 118.312 99.1008 114.956 99.1008C111.601 99.1008 108.88 101.821 108.88 105.177C108.88 108.533 111.601 111.253 114.956 111.253Z" fill="#A8C6D7" stroke="#263238" stroke-linecap="round" stroke-linejoin="round"/>
<path d="M112.104 121.196C117.596 121.196 122.047 116.745 122.047 111.253C122.047 105.762 117.596 101.31 112.104 101.31C106.613 101.31 102.161 105.762 102.161 111.253C102.161 116.745 106.613 121.196 112.104 121.196Z" fill="white" stroke="#263238" stroke-linecap="round" stroke-linejoin="round"/>
<path d="M112.104 118.298C115.995 118.298 119.149 115.144 119.149 111.253C119.149 107.362 115.995 104.208 112.104 104.208C108.213 104.208 105.059 107.362 105.059 111.253C105.059 115.144 108.213 118.298 112.104 118.298Z" fill="white" stroke="#263238" stroke-linecap="round" stroke-linejoin="round"/>
<path d="M112.087 111.378L105.823 114.46C106.159 115.115 106.594 115.714 107.114 116.235C107.691 116.809 108.364 117.278 109.102 117.621L112.146 111.445L112.012 111.512L112.087 111.378Z" fill="#263238" stroke="#263238" stroke-linecap="round" stroke-linejoin="round"/>
<path d="M115.253 104.951L112.087 111.378L112.221 111.311L112.154 111.445L118.502 108.317C118.157 107.556 117.677 106.862 117.086 106.271C116.55 105.735 115.931 105.29 115.253 104.951Z" fill="#263238" stroke="#263238" stroke-linecap="round" stroke-linejoin="round"/>
<path d="M113.002 112.147C113.174 111.97 113.291 111.747 113.337 111.505C113.383 111.263 113.357 111.012 113.261 110.785C113.165 110.558 113.005 110.364 112.799 110.227C112.594 110.091 112.353 110.018 112.106 110.018C111.86 110.018 111.619 110.091 111.413 110.227C111.208 110.364 111.047 110.558 110.952 110.785C110.856 111.012 110.83 111.263 110.876 111.505C110.922 111.747 111.038 111.97 111.211 112.147C111.327 112.266 111.467 112.361 111.62 112.426C111.774 112.49 111.939 112.524 112.106 112.524C112.273 112.524 112.438 112.49 112.592 112.426C112.746 112.361 112.885 112.266 113.002 112.147Z" fill="white" stroke="#263238" stroke-linecap="round" stroke-linejoin="round"/>
<path d="M106.667 105.64C106.806 105.501 106.885 105.312 106.885 105.114C106.885 104.917 106.806 104.728 106.667 104.588C106.527 104.449 106.338 104.37 106.141 104.37C105.943 104.37 105.754 104.449 105.614 104.588C105.476 104.728 105.398 104.917 105.398 105.114C105.398 105.311 105.476 105.5 105.614 105.64C105.683 105.71 105.765 105.765 105.856 105.803C105.946 105.841 106.043 105.86 106.141 105.86C106.239 105.86 106.336 105.841 106.426 105.803C106.516 105.765 106.598 105.71 106.667 105.64Z" fill="white" stroke="#263238" stroke-linecap="round" stroke-linejoin="round"/>
<path d="M118.681 117.651C118.785 117.547 118.856 117.414 118.884 117.27C118.913 117.126 118.898 116.977 118.842 116.841C118.785 116.705 118.69 116.589 118.568 116.507C118.446 116.426 118.302 116.382 118.155 116.382C118.008 116.382 117.865 116.426 117.742 116.507C117.62 116.589 117.525 116.705 117.469 116.841C117.412 116.977 117.397 117.126 117.426 117.27C117.455 117.414 117.525 117.547 117.629 117.651C117.697 117.721 117.779 117.777 117.87 117.815C117.96 117.853 118.057 117.873 118.155 117.873C118.253 117.873 118.35 117.853 118.441 117.815C118.531 117.777 118.613 117.721 118.681 117.651Z" fill="white" stroke="#263238" stroke-linecap="round" stroke-linejoin="round"/>
<path d="M117.629 105.64C117.733 105.744 117.865 105.815 118.01 105.843C118.154 105.872 118.303 105.857 118.439 105.801C118.575 105.744 118.691 105.649 118.772 105.527C118.854 105.405 118.897 105.261 118.897 105.114C118.897 104.967 118.854 104.824 118.772 104.701C118.691 104.579 118.575 104.484 118.439 104.428C118.303 104.371 118.154 104.356 118.01 104.385C117.865 104.414 117.733 104.484 117.629 104.588C117.559 104.657 117.504 104.739 117.466 104.829C117.428 104.919 117.409 105.016 117.409 105.114C117.409 105.212 117.428 105.309 117.466 105.399C117.504 105.49 117.559 105.572 117.629 105.64Z" fill="white" stroke="#263238" stroke-linecap="round" stroke-linejoin="round"/>
<path d="M105.615 117.651C105.718 117.755 105.851 117.826 105.995 117.855C106.14 117.884 106.289 117.87 106.425 117.814C106.561 117.758 106.678 117.662 106.76 117.54C106.841 117.418 106.885 117.274 106.885 117.127C106.885 116.979 106.841 116.836 106.76 116.713C106.678 116.591 106.561 116.496 106.425 116.439C106.289 116.383 106.14 116.369 105.995 116.398C105.851 116.427 105.718 116.498 105.615 116.603C105.546 116.671 105.491 116.753 105.453 116.843C105.416 116.933 105.397 117.029 105.397 117.127C105.397 117.224 105.416 117.32 105.453 117.41C105.491 117.5 105.546 117.582 105.615 117.651Z" fill="white" stroke="#263238" stroke-linecap="round" stroke-linejoin="round"/>
<path d="M120.644 111.863C121.054 111.863 121.387 111.53 121.387 111.119C121.387 110.709 121.054 110.376 120.644 110.376C120.233 110.376 119.901 110.709 119.901 111.119C119.901 111.53 120.233 111.863 120.644 111.863Z" fill="white" stroke="#263238" stroke-linecap="round" stroke-linejoin="round"/>
<path d="M103.656 111.863C104.066 111.863 104.399 111.53 104.399 111.119C104.399 110.709 104.066 110.376 103.656 110.376C103.245 110.376 102.913 110.709 102.913 111.119C102.913 111.53 103.245 111.863 103.656 111.863Z" fill="white" stroke="#263238" stroke-linecap="round" stroke-linejoin="round"/>
<path d="M112.15 103.369C112.297 103.369 112.441 103.325 112.563 103.243C112.685 103.162 112.781 103.046 112.837 102.91C112.893 102.774 112.908 102.625 112.879 102.48C112.85 102.336 112.78 102.204 112.676 102.1C112.572 101.996 112.439 101.925 112.295 101.896C112.151 101.868 112.001 101.882 111.866 101.939C111.73 101.995 111.614 102.09 111.532 102.212C111.45 102.335 111.407 102.478 111.407 102.625C111.407 102.823 111.485 103.012 111.624 103.151C111.764 103.29 111.953 103.369 112.15 103.369Z" fill="white" stroke="#263238" stroke-linecap="round" stroke-linejoin="round"/>
<path d="M112.15 120.357C112.297 120.357 112.441 120.313 112.563 120.231C112.685 120.15 112.781 120.033 112.837 119.898C112.893 119.762 112.908 119.612 112.879 119.468C112.85 119.324 112.78 119.192 112.676 119.088C112.572 118.984 112.439 118.913 112.295 118.884C112.151 118.855 112.001 118.87 111.866 118.926C111.73 118.983 111.614 119.078 111.532 119.2C111.45 119.322 111.407 119.466 111.407 119.613C111.407 119.81 111.485 119.999 111.624 120.139C111.764 120.278 111.953 120.357 112.15 120.357Z" fill="white" stroke="#263238" stroke-linecap="round" stroke-linejoin="round"/>
<path d="M169.574 67.9436H155.877C154.189 67.9436 152.82 69.3122 152.82 71.0004V84.6977C152.82 86.386 154.189 87.7546 155.877 87.7546H169.574C171.262 87.7546 172.631 86.386 172.631 84.6977V71.0004C172.631 69.3122 171.262 67.9436 169.574 67.9436Z" fill="#263238"/>
<path d="M111.549 67.9436H97.8515C96.1633 67.9436 94.7947 69.3122 94.7947 71.0004V84.6977C94.7947 86.386 96.1633 87.7546 97.8515 87.7546H111.549C113.237 87.7546 114.606 86.386 114.606 84.6977V71.0004C114.606 69.3122 113.237 67.9436 111.549 67.9436Z" fill="white" stroke="#263238" stroke-linecap="round" stroke-linejoin="round"/>
<path d="M164.212 80.7976H160.517V80.4259C160.5 79.9067 160.572 79.3884 160.73 78.8933C160.874 78.4997 161.089 78.136 161.364 77.8201C161.962 77.2093 162.598 76.6374 163.269 76.1079C163.795 75.6764 164.058 75.2838 164.058 74.9303C164.067 74.7765 164.043 74.6226 163.989 74.4787C163.934 74.3347 163.849 74.204 163.74 74.0951C163.47 73.8762 163.126 73.77 162.78 73.7986C162.569 73.7918 162.359 73.8287 162.162 73.907C161.966 73.9854 161.788 74.1034 161.64 74.2538C161.277 74.7078 161.074 75.2681 161.059 75.849L157.301 75.3855C157.378 74.1241 157.916 72.935 158.813 72.0447C159.695 71.2095 161.043 70.7919 162.855 70.7919C164.06 70.7336 165.254 71.0423 166.279 71.6772C166.827 72.0089 167.279 72.4776 167.59 73.037C167.901 73.5965 168.061 74.2275 168.054 74.8676C168.05 75.4314 167.891 75.9832 167.595 76.4629C167.084 77.1905 166.452 77.826 165.728 78.3421C165.239 78.682 164.815 79.1062 164.475 79.5949C164.292 79.9687 164.202 80.3813 164.212 80.7976ZM160.387 81.7789H164.346V85.2742H160.387V81.7789Z" fill="#A8C6D7"/>
<path d="M193.039 83.8918C196.337 83.8918 199.011 81.2182 199.011 77.9202C199.011 74.6221 196.337 71.9485 193.039 71.9485C189.741 71.9485 187.068 74.6221 187.068 77.9202C187.068 81.2182 189.741 83.8918 193.039 83.8918Z" fill="#A8C6D7" stroke="#263238" stroke-linecap="round" stroke-linejoin="round"/>
<path d="M194.047 82.2C196.403 81.6412 197.86 79.2781 197.302 76.9218C196.743 74.5655 194.38 73.1083 192.023 73.667C189.667 74.2258 188.21 76.5889 188.769 78.9452C189.327 81.3015 191.69 82.7587 194.047 82.2Z" fill="#A8C6D7" stroke="#263238" stroke-linecap="round" stroke-linejoin="round"/>
<path d="M132.729 83.8918C136.027 83.8918 138.701 81.2182 138.701 77.9202C138.701 74.6221 136.027 71.9485 132.729 71.9485C129.431 71.9485 126.758 74.6221 126.758 77.9202C126.758 81.2182 129.431 83.8918 132.729 83.8918Z" fill="#A8C6D7" stroke="#263238" stroke-linecap="round" stroke-linejoin="round"/>
<path d="M133.736 82.1966C136.092 81.6378 137.549 79.2747 136.99 76.9184C136.432 74.5621 134.069 73.1048 131.712 73.6636C129.356 74.2223 127.899 76.5855 128.458 78.9418C129.016 81.2981 131.379 82.7553 133.736 82.1966Z" fill="#A8C6D7" stroke="#263238" stroke-linecap="round" stroke-linejoin="round"/>
<path d="M180.411 130.404C180.409 130.587 180.372 130.767 180.3 130.935C180.228 131.102 180.124 131.254 179.993 131.381L179.292 132.087L177.337 134.041L175.379 132.087L174.681 131.381C174.549 131.254 174.442 131.101 174.369 130.933C174.296 130.764 174.258 130.582 174.256 130.398C174.254 130.214 174.289 130.032 174.358 129.861C174.428 129.691 174.53 129.536 174.66 129.406C174.791 129.276 174.945 129.173 175.116 129.104C175.286 129.034 175.469 128.999 175.652 129.001C175.836 129.003 176.018 129.042 176.187 129.115C176.356 129.188 176.508 129.294 176.636 129.427L177.341 130.129L178.043 129.427C178.302 129.168 178.654 129.022 179.02 129.022C179.387 129.022 179.738 129.168 179.997 129.427C180.128 129.554 180.232 129.706 180.303 129.874C180.374 130.042 180.411 130.222 180.411 130.404Z" fill="#A8C6D7" stroke="#263238" stroke-linecap="round" stroke-linejoin="round"/>
<path d="M188.32 130.404C188.319 130.587 188.281 130.767 188.21 130.935C188.138 131.102 188.034 131.254 187.903 131.381L187.21 132.087L185.255 134.041L183.297 132.087L182.616 131.381C182.483 131.254 182.377 131.101 182.304 130.933C182.231 130.764 182.192 130.582 182.19 130.398C182.188 130.214 182.223 130.032 182.293 129.861C182.362 129.691 182.465 129.536 182.595 129.406C182.725 129.276 182.88 129.173 183.05 129.104C183.221 129.034 183.403 128.999 183.587 129.001C183.771 129.003 183.953 129.042 184.122 129.115C184.29 129.188 184.443 129.294 184.57 129.427L185.276 130.129L185.978 129.427C186.237 129.168 186.588 129.022 186.955 129.022C187.321 129.022 187.673 129.168 187.932 129.427C188.058 129.556 188.157 129.709 188.224 129.877C188.291 130.044 188.323 130.224 188.32 130.404Z" fill="#A8C6D7" stroke="#263238" stroke-linecap="round" stroke-linejoin="round"/>
<path d="M111.098 75.402C111.101 75.7894 111.026 76.1735 110.879 76.532C110.732 76.8904 110.516 77.2161 110.242 77.49L108.755 78.9809L104.612 83.1234L100.47 78.9809L98.9791 77.49C98.4297 76.9407 98.1211 76.1956 98.1211 75.4187C98.1211 74.6418 98.4297 73.8968 98.9791 73.3474C99.5284 72.7981 100.273 72.4895 101.05 72.4895C101.827 72.4895 102.572 72.7981 103.122 73.3474L104.612 74.8383L106.099 73.3474C106.508 72.93 107.033 72.6446 107.605 72.5283C108.178 72.4119 108.772 72.4698 109.312 72.6946C109.851 72.9193 110.311 73.3006 110.631 73.7892C110.952 74.2777 111.119 74.8511 111.11 75.4354L111.098 75.402Z" fill="#A8C6D7" stroke="#263238" stroke-linecap="round" stroke-linejoin="round"/>
<path d="M196.23 130.404C196.228 130.586 196.19 130.767 196.119 130.935C196.047 131.102 195.943 131.254 195.812 131.381L195.144 132.087L193.19 134.041L191.235 132.087L190.529 131.381C190.27 131.122 190.125 130.771 190.125 130.404C190.125 130.038 190.27 129.686 190.529 129.427C190.789 129.168 191.14 129.022 191.507 129.022C191.873 129.022 192.225 129.168 192.484 129.427L193.19 130.128L193.891 129.427C194.15 129.168 194.502 129.022 194.868 129.022C195.235 129.022 195.586 129.168 195.845 129.427C195.971 129.556 196.069 129.709 196.135 129.877C196.201 130.045 196.233 130.224 196.23 130.404Z" fill="#A8C6D7" stroke="#263238" stroke-linecap="round" stroke-linejoin="round"/>
<path d="M143.646 130.667H104.504V132.935H143.646V130.667Z" fill="#A8C6D7" stroke="#263238" stroke-linecap="round" stroke-linejoin="round"/>
<path d="M150.853 130.667H145.704V132.935H150.853V130.667Z" fill="#A8C6D7" stroke="#263238" stroke-linecap="round" stroke-linejoin="round"/>
<path d="M98.3775 141.312H88.2089C87.18 141.312 86.1933 140.903 85.4657 140.176C84.7382 139.448 84.3294 138.461 84.3294 137.432V92.1228C81.59 94.1523 75.9065 98.4703 73.9688 100.73C71.3797 103.753 69.4378 108.501 68.5734 113.466C67.709 118.432 64.4726 122.75 65.3328 125.126C66.1931 127.502 69.4378 141.963 70.5152 147.789C71.2609 151.707 71.6937 155.679 71.8098 159.665C71.8098 160.96 68.5734 177.363 68.5734 177.363L92.101 178.228C92.101 178.228 91.6834 170.026 92.5186 167.433C93.3538 164.839 97.0495 158.801 96.6194 155.13C96.2102 151.526 98.6782 145.221 98.3775 141.312Z" fill="white" stroke="#263238" stroke-linecap="round" stroke-linejoin="round"/>
<path d="M84.3295 100.258L81.9576 103.014C81.9576 103.014 81.0931 107.637 80.663 109.796C80.3851 111.138 79.9492 112.443 79.3643 113.683C79.3643 113.683 80.876 117.137 81.7404 118.432C82.2739 119.24 82.7085 120.109 83.035 121.021L84.3295 121.856V100.258Z" fill="#263238" stroke="#263238" stroke-linecap="round" stroke-linejoin="round"/>
<path d="M73.4885 114.226C74.6447 114.073 75.8092 113.991 76.9755 113.98" stroke="#263238" stroke-linecap="round" stroke-linejoin="round"/>
<path d="M79.4688 101.272C79.4688 101.272 81.9744 102.02 81.9744 103.014" stroke="#263238" stroke-linecap="round" stroke-linejoin="round"/>
<path d="M64.4851 180.149C64.4851 180.149 65.5667 169.901 65.5667 168.823V165.587C65.5667 164.509 66.6441 163.699 66.6441 163.699C66.6441 163.699 77.1593 161.54 87.6786 165.048C98.198 168.556 95.755 174.227 95.755 174.227L95.2163 182.32" fill="white"/>
<path d="M64.4851 180.149C64.4851 180.149 65.5667 169.901 65.5667 168.823V165.587C65.5667 164.509 66.6441 163.699 66.6441 163.699C66.6441 163.699 77.1593 161.54 87.6786 165.048C98.198 168.556 95.755 174.227 95.755 174.227L95.2163 182.32" stroke="#263238" stroke-linecap="round" stroke-linejoin="round"/>
<path d="M78.5081 129.465C78.5081 129.465 82.3876 121.021 82.8219 117.772C83.2562 114.523 82.4043 106.977 83.4691 103.958C84.534 100.938 83.8867 97.0462 86.4884 95.5387C89.09 94.0312 92.5352 94.4571 93.17 100.504C93.8047 106.551 93.17 116.043 93.383 119.296C93.596 122.549 99.2294 127.285 99.4298 134.192C99.6303 141.099 97.2708 148.223 96.6235 151.242C95.9763 154.262 93.383 161.39 93.383 161.39" fill="white"/>
<path d="M78.5081 129.465C78.5081 129.465 82.3876 121.021 82.8219 117.772C83.2562 114.523 82.4043 106.977 83.4691 103.958C84.534 100.938 83.8867 97.0462 86.4884 95.5387C89.09 94.0312 92.5352 94.4571 93.17 100.504C93.8047 106.551 93.17 116.043 93.383 119.296C93.596 122.549 99.2294 127.285 99.4298 134.192C99.6303 141.099 97.2708 148.223 96.6235 151.242C95.9763 154.262 93.383 161.39 93.383 161.39" stroke="#263238" stroke-linecap="round" stroke-linejoin="round"/>
<path d="M84.5342 102.534C85.8131 102.223 87.1447 102.197 88.4346 102.458C89.6012 102.681 90.7542 102.97 91.8881 103.323C92.012 101.886 92.012 100.442 91.8881 99.0049C91.8881 99.0049 92.1721 96.5369 90.6771 95.543C89.1821 94.5491 86.1921 94.7955 85.1982 97.038C84.2043 99.2805 84.5342 102.534 84.5342 102.534Z" stroke="#263238" stroke-linecap="round" stroke-linejoin="round"/>
<path d="M89.9295 106.505C89.9295 106.505 84.9476 105.01 83.7031 107.002" stroke="#263238" stroke-linecap="round" stroke-linejoin="round"/>
<path d="M84.9475 107.749C84.9475 107.749 86.4425 108.246 89.6831 108" stroke="#263238" stroke-linecap="round" stroke-linejoin="round"/>
<path d="M237.56 125.126C238.424 122.75 235.188 118.444 234.323 113.466C233.459 108.489 231.517 103.753 228.928 100.73C226.76 98.224 219.928 93.1209 217.74 91.5173V137.453C217.74 138.482 217.332 139.469 216.604 140.197C215.876 140.924 214.89 141.333 213.861 141.333H204.519C204.197 145.237 206.682 151.543 206.26 155.147C205.843 158.818 209.497 164.86 210.361 167.45C211.226 170.039 210.779 178.245 210.779 178.245L234.311 177.38C234.311 177.38 231.074 160.977 231.074 159.682C231.188 155.695 231.621 151.724 232.369 147.806C233.459 141.963 236.699 127.498 237.56 125.126Z" fill="white" stroke="#263238" stroke-linecap="round" stroke-linejoin="round"/>
<path d="M222.234 109.796C221.816 107.637 220.939 103.014 220.939 103.014L217.74 99.3013V122.37L219.857 121.021C220.187 120.109 220.623 119.24 221.156 118.432C222.016 117.137 223.528 113.683 223.528 113.683C222.944 112.444 222.509 111.138 222.234 109.796Z" fill="#263238" stroke="#263238" stroke-linecap="round" stroke-linejoin="round"/>
<path d="M229.408 114.226C228.252 114.073 227.087 113.991 225.921 113.98" stroke="#263238" stroke-linecap="round" stroke-linejoin="round"/>
<path d="M223.428 101.272C223.428 101.272 220.922 102.02 220.922 103.014" stroke="#263238" stroke-linecap="round" stroke-linejoin="round"/>
<path d="M238.407 180.149C238.407 180.149 237.321 169.913 237.321 168.836V165.6C237.321 164.522 236.244 163.712 236.244 163.712C236.244 163.712 225.725 161.553 215.209 165.061C204.694 168.569 207.116 174.227 207.116 174.227L207.672 182.32" fill="white"/>
<path d="M238.407 180.149C238.407 180.149 237.321 169.913 237.321 168.836V165.6C237.321 164.522 236.244 163.712 236.244 163.712C236.244 163.712 225.725 161.553 215.209 165.061C204.694 168.569 207.116 174.227 207.116 174.227L207.672 182.32" stroke="#263238" stroke-linecap="round" stroke-linejoin="round"/>
<path d="M222.388 131.415C222.388 131.415 216.362 119.718 215.189 116.674C214.015 113.629 213.101 106.075 211.347 103.39C209.593 100.705 209.317 96.7708 206.448 95.9022C203.579 95.0336 200.318 96.2571 201.095 102.287C201.871 108.317 204.707 117.404 205.271 120.603C205.834 123.802 201.458 129.728 202.853 136.497C204.247 143.266 208.215 149.643 209.534 152.429" fill="white"/>
<path d="M222.388 131.415C222.388 131.415 216.362 119.718 215.189 116.674C214.015 113.629 213.101 106.075 211.347 103.39C209.593 100.705 209.317 96.7708 206.448 95.9022C203.579 95.0336 200.318 96.2571 201.095 102.287C201.871 108.317 204.707 117.404 205.271 120.603C205.834 123.802 201.458 129.728 202.853 136.497C204.247 143.266 208.215 149.643 209.534 152.429" stroke="#263238" stroke-linecap="round" stroke-linejoin="round"/>
<path d="M209.973 102.237C208.658 102.235 207.358 102.52 206.164 103.072C205.082 103.56 204.027 104.11 203.007 104.718C202.55 103.349 202.213 101.944 202.001 100.517C202.001 100.517 201.166 98.1864 202.372 96.871C203.579 95.5555 206.548 95.1004 208.052 97.0464C209.555 98.9924 209.973 102.237 209.973 102.237Z" stroke="#263238" stroke-linecap="round" stroke-linejoin="round"/>
<path d="M205.651 107.353C205.651 107.353 210.148 104.738 211.823 106.388" stroke="#263238" stroke-linecap="round" stroke-linejoin="round"/>
<path d="M210.787 107.407C210.787 107.407 209.447 108.242 206.24 108.747" stroke="#263238" stroke-linecap="round" stroke-linejoin="round"/>
</svg>
