<svg width="17" height="12" viewBox="0 0 17 12" fill="none" xmlns="http://www.w3.org/2000/svg">
<path d="M13.9316 1.5C13.3316 0.5 12.2316 0 11.0316 0H5.03159C3.83159 0 2.73159 0.5 2.13159 1.5C-0.168412 5 -0.668412 10.3 0.931588 11.4C2.53159 12.5 6.13159 7.7 8.03159 7.7C9.93159 7.7 13.4316 12.5 15.1316 11.4C16.7316 10.3 16.2316 5 13.9316 1.5ZM6.03159 5H5.03159V6H4.03159V5H3.03159V4H4.03159V3H5.03159V4H6.03159V5ZM11.4316 5.5C11.4316 6 11.0316 6.4 10.5316 6.4C10.0316 6.4 9.63159 6 9.63159 5.5C9.63159 5 10.0316 4.6 10.5316 4.6C11.0316 4.6 11.4316 5 11.4316 5.5ZM13.3316 3.5C13.3316 4 12.9316 4.4 12.4316 4.4C11.9316 4.4 11.5316 4 11.5316 3.5C11.5316 3 11.9316 2.6 12.4316 2.6C12.9316 2.6 13.3316 3 13.3316 3.5Z" fill="#22272E"/>
</svg>
