<svg width="20" height="14" viewBox="0 0 20 14" fill="none" xmlns="http://www.w3.org/2000/svg">
<path d="M20 13.0048C20 13.5548 19.554 13.9998 19.005 13.9998H10.995C10.7311 13.9998 10.478 13.8949 10.2914 13.7083C10.1048 13.5217 10 13.2687 10 13.0048C10 12.7409 10.1048 12.4878 10.2914 12.3012C10.478 12.1146 10.7311 12.0098 10.995 12.0098H19.005C19.555 12.0098 20 12.4548 20 13.0048Z" fill="#003478"/>
<path d="M20 6.99988C20 7.54988 19.554 7.99488 19.005 7.99488H0.995C0.731109 7.99488 0.478028 7.89005 0.291429 7.70345C0.10483 7.51686 0 7.26377 0 6.99988C0 6.73599 0.10483 6.48291 0.291429 6.29631C0.478028 6.10971 0.731109 6.00488 0.995 6.00488H19.005C19.555 6.00488 20 6.45088 20 6.99988Z" fill="#FFC727"/>
<path d="M19.005 1.99C19.2689 1.99 19.522 1.88517 19.7086 1.69857C19.8952 1.51197 20 1.25889 20 0.995C20 0.731109 19.8952 0.478027 19.7086 0.291429C19.522 0.10483 19.2689 7.86455e-09 19.005 0H6.995C6.86433 -3.89413e-09 6.73495 0.0257364 6.61423 0.0757399C6.49351 0.125743 6.38382 0.199034 6.29143 0.291429C6.19903 0.383823 6.12574 0.493511 6.07574 0.61423C6.02574 0.734949 6 0.864335 6 0.995C6 1.12567 6.02574 1.25505 6.07574 1.37577C6.12574 1.49649 6.19903 1.60618 6.29143 1.69857C6.38382 1.79097 6.49351 1.86426 6.61423 1.91426C6.73495 1.96426 6.86433 1.99 6.995 1.99H19.005Z" fill="#003478"/>
</svg>
