<svg width="215" height="160" viewBox="0 0 215 160" fill="none" xmlns="http://www.w3.org/2000/svg">
<path d="M214.485 140.445H0V140.552H214.485V140.445Z" fill="#EBEBEB"/>
<path d="M192.994 147.347H178.786V147.454H192.994V147.347Z" fill="#EBEBEB"/>
<path d="M142.083 148.514H138.356V148.621H142.083V148.514Z" fill="#EBEBEB"/>
<path d="M178.357 143.366H170.125V143.473H178.357V143.366Z" fill="#EBEBEB"/>
<path d="M41.031 144.087H22.5038V144.194H41.031V144.087Z" fill="#EBEBEB"/>
<path d="M47.5685 144.087H44.8531V144.194H47.5685V144.087Z" fill="#EBEBEB"/>
<path d="M96.5826 145.897H56.3967V146.004H96.5826V145.897Z" fill="#EBEBEB"/>
<path d="M101.666 121.313H18.8361C18.1872 121.312 17.5653 121.053 17.1068 120.594C16.6484 120.135 16.3909 119.512 16.3909 118.863V2.42797C16.3966 1.78281 16.6565 1.16593 17.1144 0.711326C17.5722 0.256721 18.1909 0.00110519 18.8361 0H101.666C102.316 0 102.939 0.258063 103.398 0.717418C103.857 1.17677 104.115 1.79979 104.115 2.44942V118.863C104.115 119.513 103.857 120.136 103.398 120.595C102.939 121.055 102.316 121.313 101.666 121.313ZM18.8361 0.0857943C18.2156 0.0869307 17.621 0.334196 17.1827 0.773316C16.7443 1.21244 16.4982 1.80753 16.4982 2.42797V118.863C16.4982 119.484 16.7443 120.079 17.1827 120.518C17.621 120.957 18.2156 121.204 18.8361 121.205H101.666C102.287 121.204 102.882 120.957 103.321 120.518C103.76 120.079 104.007 119.484 104.008 118.863V2.42797C104.007 1.80713 103.76 1.21205 103.321 0.773054C102.882 0.334056 102.287 0.0869283 101.666 0.0857943H18.8361Z" fill="#EBEBEB"/>
<path d="M194.456 121.313H111.622C110.973 121.312 110.351 121.053 109.892 120.594C109.432 120.135 109.174 119.513 109.173 118.863V2.42797C109.18 1.78242 109.441 1.16554 109.899 0.711058C110.358 0.256571 110.977 0.00109314 111.622 0H194.456C195.101 0.00223257 195.718 0.258347 196.175 0.712831C196.632 1.16732 196.892 1.78355 196.897 2.42797V118.863C196.897 119.511 196.64 120.133 196.183 120.592C195.725 121.051 195.105 121.31 194.456 121.313ZM111.622 0.0857943C111.001 0.0869283 110.406 0.334056 109.967 0.773054C109.528 1.21205 109.281 1.80713 109.28 2.42797V118.863C109.281 119.484 109.528 120.079 109.967 120.518C110.406 120.957 111.001 121.204 111.622 121.205H194.456C195.077 121.204 195.672 120.957 196.111 120.518C196.55 120.079 196.797 119.484 196.799 118.863V2.42797C196.797 1.80713 196.55 1.21205 196.111 0.773054C195.672 0.334056 195.077 0.0869283 194.456 0.0857943H111.622Z" fill="#EBEBEB"/>
<path d="M110.721 117.268H141.337V29.5261H110.721L110.721 117.268Z" fill="#FAFAFA"/>
<path d="M110.009 32.6403L142.041 32.6403V28.3334L110.009 28.3334V32.6403Z" fill="#F0F0F0"/>
<path d="M110.009 35.2742L142.041 35.2742V33.1207L110.009 33.1207V35.2742Z" fill="#F0F0F0"/>
<path d="M110.009 38.4657L142.041 38.4657V36.3123L110.009 36.3123V38.4657Z" fill="#F0F0F0"/>
<path d="M110.009 41.6615L142.041 41.6615V39.5081L110.009 39.5081V41.6615Z" fill="#F0F0F0"/>
<path d="M110.009 44.8574L142.041 44.8574V42.704L110.009 42.704V44.8574Z" fill="#F0F0F0"/>
<path d="M110.009 48.049L142.041 48.049V45.8955L110.009 45.8955V48.049Z" fill="#F0F0F0"/>
<path d="M110.009 51.2448L142.041 51.2448V49.0913L110.009 49.0913V51.2448Z" fill="#F0F0F0"/>
<path d="M110.009 54.4448L142.041 54.4448V52.2914L110.009 52.2914V54.4448Z" fill="#F0F0F0"/>
<path d="M110.009 57.6365L142.041 57.6365V55.483L110.009 55.483V57.6365Z" fill="#F0F0F0"/>
<path d="M110.009 60.8323L142.041 60.8323V58.6788L110.009 58.6788V60.8323Z" fill="#F0F0F0"/>
<path d="M110.009 64.0238H142.041V61.8704L110.009 61.8704V64.0238Z" fill="#F0F0F0"/>
<path d="M110.009 67.2196H142.041V65.0662H110.009V67.2196Z" fill="#F0F0F0"/>
<path d="M110.009 70.4197H142.041V68.2663H110.009V70.4197Z" fill="#F0F0F0"/>
<path d="M110.009 73.6112H142.041V71.4578H110.009V73.6112Z" fill="#F0F0F0"/>
<path d="M110.009 76.807H142.041V74.6536H110.009V76.807Z" fill="#F0F0F0"/>
<path d="M110.009 80.0029H142.041V77.8495H110.009V80.0029Z" fill="#F0F0F0"/>
<path d="M110.009 83.1945H142.041V81.041H110.009V83.1945Z" fill="#F0F0F0"/>
<path d="M110.009 86.3903H142.041V84.2368H110.009V86.3903Z" fill="#F0F0F0"/>
<path d="M110.009 89.5905H142.041V87.437H110.009V89.5905Z" fill="#F0F0F0"/>
<path d="M110.009 92.7819H142.041V90.6284H110.009V92.7819Z" fill="#F0F0F0"/>
<path d="M110.009 95.9777H142.041V93.8242H110.009V95.9777Z" fill="#F0F0F0"/>
<path d="M110.009 99.1736H142.041V97.0202H110.009V99.1736Z" fill="#F0F0F0"/>
<path d="M110.009 102.365H142.041V100.212H110.009V102.365Z" fill="#F0F0F0"/>
<path d="M110.009 105.561H142.041V103.407H110.009V105.561Z" fill="#F0F0F0"/>
<path d="M110.009 108.761H142.041V106.608H110.009V108.761Z" fill="#F0F0F0"/>
<path d="M110.009 111.953H142.041V109.799H110.009V111.953Z" fill="#F0F0F0"/>
<path d="M110.009 115.148H142.041V112.995H110.009V115.148Z" fill="#F0F0F0"/>
<path d="M110.009 118.34H142.041V116.187H110.009V118.34Z" fill="#F0F0F0"/>
<path d="M148.985 117.268H179.601V29.5261H148.985V117.268Z" fill="#FAFAFA"/>
<path d="M148.278 32.6403L180.309 32.6403V28.3334L148.278 28.3334V32.6403Z" fill="#F0F0F0"/>
<path d="M148.278 35.2742L180.309 35.2742V33.1207L148.278 33.1207V35.2742Z" fill="#F0F0F0"/>
<path d="M148.278 38.4657L180.309 38.4657V36.3123L148.278 36.3123V38.4657Z" fill="#F0F0F0"/>
<path d="M148.278 41.6615L180.309 41.6615V39.5081L148.278 39.5081V41.6615Z" fill="#F0F0F0"/>
<path d="M148.278 44.8574L180.309 44.8574V42.704L148.278 42.704V44.8574Z" fill="#F0F0F0"/>
<path d="M148.278 48.049L180.309 48.049V45.8955L148.278 45.8955V48.049Z" fill="#F0F0F0"/>
<path d="M148.278 51.2448L180.309 51.2448V49.0913L148.278 49.0913V51.2448Z" fill="#F0F0F0"/>
<path d="M148.278 54.4448L180.309 54.4448V52.2914L148.278 52.2914V54.4448Z" fill="#F0F0F0"/>
<path d="M148.278 57.6365L180.309 57.6365V55.483L148.278 55.483V57.6365Z" fill="#F0F0F0"/>
<path d="M148.278 60.8323L180.309 60.8323V58.6788L148.278 58.6788V60.8323Z" fill="#F0F0F0"/>
<path d="M148.278 64.0238H180.309V61.8704L148.278 61.8704V64.0238Z" fill="#F0F0F0"/>
<path d="M148.278 67.2196H180.309V65.0662H148.278V67.2196Z" fill="#F0F0F0"/>
<path d="M148.278 70.4197H180.309V68.2663H148.278V70.4197Z" fill="#F0F0F0"/>
<path d="M148.278 73.6112H180.309V71.4578H148.278V73.6112Z" fill="#F0F0F0"/>
<path d="M148.278 76.807H180.309V74.6536H148.278V76.807Z" fill="#F0F0F0"/>
<path d="M148.278 80.0029H180.309V77.8495H148.278V80.0029Z" fill="#F0F0F0"/>
<path d="M148.278 83.1945H180.309V81.041H148.278V83.1945Z" fill="#F0F0F0"/>
<path d="M148.278 86.3903H180.309V84.2368H148.278V86.3903Z" fill="#F0F0F0"/>
<path d="M148.278 89.5905H180.309V87.437H148.278V89.5905Z" fill="#F0F0F0"/>
<path d="M148.278 92.7819H180.309V90.6284H148.278V92.7819Z" fill="#F0F0F0"/>
<path d="M148.278 95.9777H180.309V93.8242H148.278V95.9777Z" fill="#F0F0F0"/>
<path d="M148.278 99.1736H180.309V97.0202H148.278V99.1736Z" fill="#F0F0F0"/>
<path d="M148.278 102.365H180.309V100.212H148.278V102.365Z" fill="#F0F0F0"/>
<path d="M148.278 105.561H180.309V103.407H148.278V105.561Z" fill="#F0F0F0"/>
<path d="M148.278 108.761H180.309V106.608H148.278V108.761Z" fill="#F0F0F0"/>
<path d="M148.278 111.953H180.309V109.799H148.278V111.953Z" fill="#F0F0F0"/>
<path d="M148.278 115.148H180.309V112.995H148.278V115.148Z" fill="#F0F0F0"/>
<path d="M148.278 118.34H180.309V116.187H148.278V118.34Z" fill="#F0F0F0"/>
<path d="M72.4529 117.804H103.069L103.069 30.0622H72.4529L72.4529 117.804Z" fill="#FAFAFA"/>
<path d="M71.7451 33.1808L103.776 33.1808V28.8739L71.7451 28.8739V33.1808Z" fill="#F0F0F0"/>
<path d="M71.7451 34.0516L103.776 34.0516V33.657L71.7451 33.657V34.0516Z" fill="#F0F0F0"/>
<path d="M71.7451 34.9525L103.776 34.9525V34.5579L71.7451 34.5579V34.9525Z" fill="#F0F0F0"/>
<path d="M71.7451 35.849L103.776 35.849V35.4543L71.7451 35.4543V35.849Z" fill="#F0F0F0"/>
<path d="M71.7451 36.7456L103.776 36.7456V36.351L71.7451 36.351V36.7456Z" fill="#F0F0F0"/>
<path d="M71.7451 37.6508L103.776 37.6508V37.2561L71.7451 37.2561V37.6508Z" fill="#F0F0F0"/>
<path d="M71.7451 38.5472L103.776 38.5472V38.1526L71.7451 38.1526V38.5472Z" fill="#F0F0F0"/>
<path d="M71.7451 39.4481L103.776 39.4481V39.0535L71.7451 39.0535V39.4481Z" fill="#F0F0F0"/>
<path d="M71.7451 40.3446L103.776 40.3446V39.95L71.7451 39.95V40.3446Z" fill="#F0F0F0"/>
<path d="M71.7451 41.2455L103.776 41.2455V40.8508L71.7451 40.8508V41.2455Z" fill="#F0F0F0"/>
<path d="M71.7451 42.142L103.776 42.142V41.7473L71.7451 41.7473V42.142Z" fill="#F0F0F0"/>
<path d="M71.7451 43.0428L103.776 43.0428V42.6482L71.7451 42.6482V43.0428Z" fill="#F0F0F0"/>
<path d="M71.7451 43.9393L103.776 43.9393V43.5447L71.7451 43.5447V43.9393Z" fill="#F0F0F0"/>
<path d="M71.7451 44.8402L103.776 44.8402V44.4456L71.7451 44.4456V44.8402Z" fill="#F0F0F0"/>
<path d="M71.7451 45.7411L103.776 45.7411V45.3464L71.7451 45.3464V45.7411Z" fill="#F0F0F0"/>
<path d="M71.7451 46.6376L103.776 46.6376V46.2429L71.7451 46.2429V46.6376Z" fill="#F0F0F0"/>
<path d="M71.7451 47.5385L103.776 47.5385V47.1438L71.7451 47.1438V47.5385Z" fill="#F0F0F0"/>
<path d="M71.7451 48.4349L103.776 48.4349V48.0403L71.7451 48.0403V48.4349Z" fill="#F0F0F0"/>
<path d="M71.7451 49.3358L103.776 49.3358V48.9412L71.7451 48.9412V49.3358Z" fill="#F0F0F0"/>
<path d="M34.1889 117.804H64.8044L64.8044 30.0622H34.1889L34.1889 117.804Z" fill="#FAFAFA"/>
<path d="M33.4769 33.1808L65.5081 33.1808V28.8739L33.4769 28.8739V33.1808Z" fill="#F0F0F0"/>
<path d="M33.4769 34.0516L65.5081 34.0516V33.657L33.4769 33.657V34.0516Z" fill="#F0F0F0"/>
<path d="M33.4769 34.9525L65.5081 34.9525V34.5579L33.4769 34.5579V34.9525Z" fill="#F0F0F0"/>
<path d="M33.4769 35.849L65.5081 35.849V35.4543L33.4769 35.4543V35.849Z" fill="#F0F0F0"/>
<path d="M33.4769 36.7456L65.5081 36.7456V36.351L33.4769 36.351V36.7456Z" fill="#F0F0F0"/>
<path d="M33.4769 37.6508L65.5081 37.6508V37.2561L33.4769 37.2561V37.6508Z" fill="#F0F0F0"/>
<path d="M33.4769 38.5472L65.5081 38.5472V38.1526L33.4769 38.1526V38.5472Z" fill="#F0F0F0"/>
<path d="M33.4769 39.4481L65.5081 39.4481V39.0535L33.4769 39.0535V39.4481Z" fill="#F0F0F0"/>
<path d="M33.4769 40.3446L65.5081 40.3446V39.95L33.4769 39.95V40.3446Z" fill="#F0F0F0"/>
<path d="M33.4769 41.2455L65.5081 41.2455V40.8508L33.4769 40.8508V41.2455Z" fill="#F0F0F0"/>
<path d="M33.4769 42.142L65.5081 42.142V41.7473L33.4769 41.7473V42.142Z" fill="#F0F0F0"/>
<path d="M33.4769 43.0428L65.5081 43.0428V42.6482L33.4769 42.6482V43.0428Z" fill="#F0F0F0"/>
<path d="M33.4769 43.9393L65.5081 43.9393V43.5447L33.4769 43.5447V43.9393Z" fill="#F0F0F0"/>
<path d="M33.4769 44.8402L65.5081 44.8402V44.4456L33.4769 44.4456V44.8402Z" fill="#F0F0F0"/>
<path d="M33.4769 45.7411L65.5081 45.7411V45.3464L33.4769 45.3464V45.7411Z" fill="#F0F0F0"/>
<path d="M33.4769 46.6376L65.5081 46.6376V46.2429L33.4769 46.2429V46.6376Z" fill="#F0F0F0"/>
<path d="M33.4769 47.5385L65.5081 47.5385V47.1438L33.4769 47.1438V47.5385Z" fill="#F0F0F0"/>
<path d="M33.4769 48.4349L65.5081 48.4349V48.0403L33.4769 48.0403V48.4349Z" fill="#F0F0F0"/>
<path d="M33.4769 49.3358L65.5081 49.3358V48.9412L33.4769 48.9412V49.3358Z" fill="#F0F0F0"/>
<path d="M113.226 17.935C114.052 14.4371 111.886 10.9323 108.388 10.1067C104.89 9.28116 101.385 11.4475 100.559 14.9454C99.7339 18.4432 101.9 21.9481 105.398 22.7736C108.896 23.5992 112.401 21.4329 113.226 17.935Z" fill="#F0F0F0"/>
<path d="M112.362 17.3355C112.852 14.3188 110.803 11.4763 107.786 10.9866C104.77 10.4969 101.927 12.5455 101.437 15.5622C100.948 18.5789 102.996 21.4214 106.013 21.9111C109.03 22.4007 111.872 20.3522 112.362 17.3355Z" fill="#FAFAFA"/>
<path d="M106.633 16.9443C106.56 16.9454 106.488 16.9276 106.423 16.8928L103.849 15.4386C103.75 15.3827 103.678 15.2899 103.647 15.1806C103.617 15.0712 103.631 14.9542 103.686 14.8552C103.714 14.8057 103.751 14.7621 103.796 14.7271C103.84 14.6921 103.891 14.6662 103.946 14.6511C104.001 14.6359 104.058 14.6317 104.114 14.6388C104.17 14.6458 104.225 14.664 104.274 14.6922L106.196 15.7818V12.6503C106.196 12.5365 106.241 12.4274 106.321 12.347C106.402 12.2665 106.511 12.2213 106.625 12.2213C106.739 12.2213 106.848 12.2665 106.928 12.347C107.009 12.4274 107.054 12.5365 107.054 12.6503V16.511C107.054 16.5866 107.034 16.6609 106.997 16.7265C106.959 16.792 106.905 16.8464 106.839 16.8842C106.777 16.9214 106.706 16.942 106.633 16.9443Z" fill="#E0E0E0"/>
<path d="M107.243 159.817C153.178 159.817 190.416 157.643 190.416 154.961C190.416 152.279 153.178 150.105 107.243 150.105C61.3074 150.105 24.0695 152.279 24.0695 154.961C24.0695 157.643 61.3074 159.817 107.243 159.817Z" fill="#F5F5F5"/>
<path d="M113.248 135.705C113.248 135.705 116.577 131.745 118.705 133.59C120.832 135.434 119.756 139.351 117.302 139.48C115.847 139.558 114.411 139.119 113.248 138.24V135.705Z" fill="#407BFF"/>
<path opacity="0.2" d="M113.248 135.705C113.248 135.705 116.577 131.745 118.705 133.59C120.832 135.434 119.756 139.351 117.302 139.48C115.847 139.558 114.411 139.119 113.248 138.24V135.705Z" fill="white"/>
<path d="M99.697 125.662C99.697 125.662 96.9044 122.737 95.1757 123.234C93.4469 123.732 93.6228 130.72 98.9892 127.889L99.697 125.662Z" fill="#407BFF"/>
<path opacity="0.3" d="M99.697 125.662C99.697 125.662 96.9044 122.737 95.1757 123.234C93.4469 123.732 93.6228 130.72 98.9892 127.889L99.697 125.662Z" fill="white"/>
<path d="M109.675 147.493C109.675 147.493 118.855 134.937 111.391 132.393C103.927 129.849 102.61 142.495 104.742 146.017C106.874 149.539 109.675 147.493 109.675 147.493Z" fill="#407BFF"/>
<path d="M105.42 121.785C105.42 121.785 99.7228 108.564 108.156 108.165C116.59 107.766 117.512 121.274 107.805 123.235L105.42 121.785Z" fill="#407BFF"/>
<path opacity="0.3" d="M109.675 147.493C109.675 147.493 118.855 134.937 111.391 132.393C103.927 129.849 102.61 142.495 104.742 146.017C106.874 149.539 109.675 147.493 109.675 147.493Z" fill="white"/>
<path opacity="0.3" d="M105.42 121.785C105.42 121.785 99.7228 108.564 108.156 108.165C116.59 107.766 117.512 121.274 107.805 123.235L105.42 121.785Z" fill="white"/>
<path d="M107.44 132.607C107.44 132.607 110.207 120.935 104.866 120.004C99.5255 119.073 94.292 129.622 105.295 134.924C105.321 134.924 107.208 133.753 107.44 132.607Z" fill="#407BFF"/>
<path opacity="0.2" d="M107.44 132.607C107.44 132.607 110.207 120.935 104.866 120.004C99.5255 119.073 94.292 129.622 105.295 134.924C105.321 134.924 107.208 133.753 107.44 132.607Z" fill="white"/>
<path d="M116.281 145.713H100.872L102.159 155.575H114.994L116.281 145.713Z" fill="#263238"/>
<path d="M108.268 120.841C108.611 120.481 108.946 120.12 109.25 119.73C109.567 119.354 109.862 118.96 110.134 118.55C110.684 117.744 111.146 116.881 111.511 115.976C111.865 115.074 112.073 114.121 112.128 113.154V112.425C112.107 112.18 112.068 111.94 112.043 111.695C112.043 111.575 112.043 111.451 112.008 111.331L111.918 110.975C111.858 110.734 111.807 110.494 111.751 110.245C112.186 111.156 112.422 112.149 112.442 113.158C112.453 114.175 112.266 115.185 111.893 116.131C111.516 117.068 111.007 117.946 110.383 118.739C109.778 119.534 109.066 120.241 108.268 120.841Z" fill="#407BFF"/>
<path d="M110.288 109.495C109.407 109.838 108.605 110.358 107.932 111.021C107.259 111.685 106.728 112.479 106.372 113.355L106.127 114.016C106.054 114.239 106.016 114.471 105.956 114.698C105.847 115.159 105.767 115.626 105.715 116.096C105.668 116.568 105.668 117.045 105.647 117.525C105.625 118.005 105.685 118.482 105.685 118.971C105.587 118.494 105.518 118.018 105.436 117.538C105.355 117.057 105.381 116.564 105.385 116.075C105.415 115.087 105.615 114.112 105.977 113.192C106.359 112.273 106.946 111.453 107.693 110.794C108.065 110.47 108.474 110.191 108.911 109.962C109.347 109.745 109.81 109.587 110.288 109.495Z" fill="#407BFF"/>
<path d="M103.837 120.841C103.262 121.137 102.751 121.542 102.331 122.033C101.907 122.51 101.573 123.059 101.344 123.655C101.112 124.244 100.967 124.864 100.915 125.495C100.903 125.651 100.903 125.807 100.915 125.963C100.915 126.117 100.915 126.276 100.915 126.43C100.953 126.74 101.02 127.046 101.113 127.344C101.51 128.56 102.123 129.695 102.923 130.694C103.31 131.213 103.724 131.711 104.163 132.187C104.592 132.676 105.046 133.135 105.518 133.59C104.463 132.811 103.505 131.908 102.666 130.9C102.238 130.395 101.851 129.857 101.507 129.292C101.167 128.717 100.896 128.103 100.701 127.464C100.606 127.14 100.538 126.809 100.499 126.473C100.489 126.302 100.489 126.13 100.499 125.958C100.493 125.789 100.501 125.62 100.525 125.452C100.595 124.786 100.772 124.136 101.048 123.526C101.312 122.916 101.695 122.365 102.173 121.904C102.652 121.443 103.217 121.082 103.837 120.841Z" fill="#407BFF"/>
<path d="M105.419 121.785C105.347 122.235 105.278 122.681 105.239 123.132C105.187 123.577 105.159 124.025 105.154 124.474C105.147 124.916 105.176 125.358 105.239 125.795C105.284 126.218 105.421 126.627 105.638 126.992C105.767 127.191 105.88 127.399 105.977 127.614C106.073 127.832 106.15 128.057 106.209 128.288C106.314 128.741 106.372 129.204 106.38 129.669C106.403 130.586 106.303 131.502 106.084 132.393C106.084 131.938 106.123 131.488 106.114 131.033C106.119 130.585 106.097 130.136 106.05 129.69C106.006 128.814 105.739 127.964 105.274 127.22C105.034 126.8 104.888 126.333 104.845 125.851C104.795 125.388 104.795 124.92 104.845 124.457C104.919 123.545 105.112 122.646 105.419 121.785Z" fill="#407BFF"/>
<path d="M109.164 133.59C108.962 133.712 108.795 133.885 108.68 134.092C108.559 134.294 108.454 134.504 108.366 134.722C108.188 135.157 108.037 135.602 107.916 136.056C107.667 136.966 107.448 137.887 107.26 138.819C107.062 139.746 106.891 140.681 106.715 141.612C106.625 142.079 106.543 142.547 106.466 143.019C106.389 143.49 106.303 143.954 106.239 144.43C106.214 143.471 106.263 142.512 106.385 141.56C106.488 140.608 106.642 139.664 106.835 138.725C107.026 137.784 107.281 136.859 107.599 135.953C107.76 135.497 107.953 135.053 108.178 134.624C108.297 134.412 108.433 134.212 108.585 134.023C108.732 133.825 108.933 133.674 109.164 133.59Z" fill="#407BFF"/>
<path d="M111.768 133.997C112.168 134.806 112.427 135.676 112.536 136.571C112.65 137.475 112.615 138.39 112.433 139.282C112.395 139.507 112.339 139.727 112.266 139.943C112.197 140.157 112.142 140.372 112.056 140.591C111.71 141.43 111.232 142.21 110.64 142.899C110.494 143.068 110.336 143.227 110.168 143.375C110.005 143.529 109.842 143.684 109.675 143.829C110.242 143.155 110.735 142.421 111.146 141.642C111.554 140.875 111.843 140.05 112.004 139.197C112.181 138.344 112.245 137.471 112.193 136.601C112.147 135.72 112.005 134.847 111.768 133.997Z" fill="#407BFF"/>
<path d="M97.5307 127.091C97.2882 127.187 97.0277 127.23 96.7672 127.215C96.5016 127.205 96.24 127.147 95.995 127.044C95.7463 126.939 95.5236 126.781 95.343 126.58C95.166 126.38 95.0499 126.133 95.0084 125.868C95.1837 126.037 95.3715 126.192 95.5703 126.332C95.7582 126.457 95.9579 126.563 96.1666 126.649C96.6113 126.826 97.067 126.973 97.5307 127.091Z" fill="#407BFF"/>
<path d="M98.1012 125.161L97.4191 124.83C97.2068 124.731 96.9874 124.648 96.7628 124.581C96.5506 124.522 96.3312 124.491 96.1108 124.491C95.8704 124.511 95.6337 124.563 95.4073 124.646C95.5579 124.413 95.7858 124.242 96.0507 124.161C96.3233 124.088 96.6103 124.088 96.8829 124.161C97.1427 124.239 97.3847 124.367 97.595 124.539C97.8072 124.706 97.98 124.919 98.1012 125.161Z" fill="#407BFF"/>
<path d="M114.788 136.292C114.944 135.963 115.151 135.661 115.401 135.396C115.651 135.123 115.94 134.888 116.259 134.701C116.591 134.494 116.976 134.391 117.366 134.405C117.558 134.413 117.746 134.463 117.916 134.553C118.086 134.643 118.234 134.77 118.349 134.924C118.049 134.768 117.71 134.704 117.375 134.739C117.053 134.785 116.744 134.899 116.47 135.074C115.882 135.441 115.32 135.848 114.788 136.292Z" fill="#407BFF"/>
<path d="M114.788 138.24C115.613 138.227 116.437 138.166 117.255 138.055C117.653 138.003 118.039 137.883 118.396 137.699C118.748 137.511 119.024 137.209 119.181 136.841C119.177 137.066 119.121 137.287 119.017 137.485C118.912 137.684 118.763 137.856 118.58 137.987C118.217 138.252 117.794 138.423 117.349 138.484C116.923 138.552 116.491 138.566 116.062 138.527C115.626 138.491 115.197 138.394 114.788 138.24Z" fill="#407BFF"/>
<path d="M155.9 53.8529H126.555V94.8624H155.9V53.8529Z" fill="#407BFF"/>
<path d="M175.809 94.8624H155.901V53.8529L175.809 61.0081V94.8624Z" fill="#407BFF"/>
<path opacity="0.2" d="M175.809 94.8624H155.901V53.8529L175.809 61.0081V94.8624Z" fill="white"/>
<path d="M175.809 89.3416H126.555V94.8624H175.809V89.3416Z" fill="#263238"/>
<path opacity="0.3" d="M175.809 89.3416H126.555V94.8624H175.809V89.3416Z" fill="white"/>
<path d="M154.888 82.9542L160.555 76.3395L170.129 84.5585L161.837 90.8644L149.873 90.71L143.958 81.3241L154.888 82.9542Z" fill="#407BFF"/>
<path d="M154.888 82.9542L161.837 90.8644L149.873 90.71L143.958 81.3241L154.888 82.9542Z" fill="white"/>
<path opacity="0.8" d="M154.888 82.9542L160.555 76.3395L170.129 84.5585L161.837 90.8644L154.888 82.9542Z" fill="white"/>
<path d="M146.463 94.8624H126.555V53.8529L146.463 61.0081V94.8624Z" fill="#407BFF"/>
<path opacity="0.6" d="M146.463 94.8624H126.555V53.8529L146.463 61.0081V94.8624Z" fill="white"/>
<path opacity="0.5" d="M135.147 62.0033L143.778 80.775L128.052 85.335L135.147 62.0033Z" fill="white"/>
<path d="M130.836 72.9593L131.32 72.6418L131.801 75.6446L133.169 74.7567L133.259 75.3143L131.406 76.5197L130.836 72.9593Z" fill="#407BFF"/>
<path d="M135.263 72.7318L133.697 73.7485C133.817 74.1088 134.1 74.2075 134.448 73.9801C134.681 73.8254 134.856 73.5975 134.945 73.3324L135.259 73.564C135.131 73.9587 134.872 74.2979 134.525 74.5249C133.856 74.9539 133.328 74.6579 133.2 73.8514C133.134 73.4673 133.175 73.0727 133.317 72.71C133.459 72.3472 133.697 72.03 134.006 71.7924C134.589 71.4149 135.104 71.6937 135.241 72.5388C135.25 72.5903 135.259 72.6718 135.263 72.7318ZM133.628 73.3324L134.761 72.5945C134.658 72.2299 134.396 72.1012 134.087 72.3028C133.927 72.4237 133.8 72.5839 133.72 72.768C133.64 72.9522 133.608 73.1539 133.628 73.3538V73.3324Z" fill="#407BFF"/>
<path d="M137.082 72.6632C136.984 72.8573 136.836 73.0216 136.653 73.1394C136.224 73.4225 135.915 73.2681 135.821 72.6718L135.61 71.3849L135.28 71.5994L135.199 71.0932L135.529 70.8787L135.43 70.2567L135.898 69.9564L135.996 70.5741L136.528 70.2267L136.61 70.7329L136.078 71.0803L136.284 72.3672C136.327 72.6332 136.447 72.7104 136.627 72.5946C136.732 72.5232 136.816 72.4256 136.872 72.3115L137.082 72.6632Z" fill="#407BFF"/>
<path d="M137.403 68.8754C137.426 69.0376 137.426 69.2022 137.403 69.3644L137.326 70.2223L137.022 70.4197L137.047 69.5617C136.932 69.5617 136.842 69.4888 136.812 69.3001C136.79 69.186 136.8 69.0681 136.842 68.9596C136.884 68.8512 136.955 68.7567 137.047 68.6866C137.21 68.5408 137.365 68.6352 137.403 68.8754Z" fill="#407BFF"/>
<path d="M138.068 71.8869L138.171 71.2906C138.432 71.3225 138.695 71.2568 138.909 71.1061C139.205 70.9131 139.308 70.7244 139.278 70.5356C139.197 70.0165 138.038 71.3078 137.867 70.2225C137.842 69.9397 137.899 69.6557 138.031 69.4042C138.162 69.1526 138.363 68.9438 138.609 68.8026C138.838 68.6384 139.112 68.5512 139.394 68.5538L139.291 69.15C139.075 69.1331 138.861 69.194 138.686 69.3216C138.403 69.5061 138.291 69.7206 138.317 69.8964C138.407 70.4455 139.561 69.1543 139.733 70.2182C139.755 70.5047 139.694 70.7915 139.557 71.0441C139.42 71.2967 139.213 71.5045 138.961 71.6423C138.706 71.8355 138.386 71.9231 138.068 71.8869Z" fill="#407BFF"/>
<path d="M132.723 77.858L132.015 83.1944L131.423 83.5805L129.279 80.0844L129.931 79.6554L131.561 82.3622L132.101 78.2484L132.723 77.858Z" fill="#407BFF"/>
<path d="M133.157 80.0158C133.053 79.376 133.127 78.72 133.37 78.1194C133.614 77.5187 134.018 76.9965 134.538 76.6097C135.546 75.9534 136.442 76.4339 136.653 77.7422C136.761 78.3864 136.689 79.048 136.444 79.6536C136.2 80.2593 135.792 80.7855 135.267 81.174C134.268 81.8046 133.367 81.3198 133.157 80.0158ZM136.044 78.1369C135.902 77.236 135.31 76.9014 134.654 77.3261C134.31 77.591 134.045 77.9448 133.888 78.3493C133.731 78.7538 133.687 79.1936 133.761 79.6211C133.907 80.5219 134.499 80.8565 135.151 80.4319C135.497 80.1686 135.763 79.815 135.921 79.41C136.078 79.005 136.121 78.5645 136.044 78.1369Z" fill="#407BFF"/>
<path d="M137.661 75.4172L136.584 76.1164L136.477 75.4215L139.231 73.6327L139.342 74.3276L138.266 75.0268L138.862 78.746L138.261 79.1364L137.661 75.4172Z" fill="#407BFF"/>
<path d="M142.718 75.4987L142.83 76.185L140.393 77.7679L139.686 73.3538L142.053 71.8138L142.165 72.5002L140.398 73.6498L140.582 74.7995L142.148 73.7785L142.259 74.452L140.702 75.4558L140.899 76.6741L142.718 75.4987Z" fill="#407BFF"/>
<path d="M176.607 93.9102V155.575H174.621V95.9392H156.874V155.575H154.888V95.9392H147.437V155.575H145.451V95.9392H127.503V155.575H125.512V93.9102H176.607Z" fill="#263238"/>
<path opacity="0.3" d="M146.463 93.9102V155.575H145.451V95.9392H126.555V155.575H125.512V93.9102H146.463Z" fill="white"/>
<path opacity="0.3" d="M155.9 95.9392H154.888V155.575H155.9V95.9392Z" fill="white"/>
<path opacity="0.3" d="M175.616 95.9392H174.603V155.575H175.616V95.9392Z" fill="white"/>
<path d="M60.4292 94.8624H89.775V53.8529L60.4292 53.8529V94.8624Z" fill="#407BFF"/>
<path d="M40.5162 94.8624H60.4247V53.8529L40.5162 61.0081V94.8624Z" fill="#407BFF"/>
<path opacity="0.2" d="M40.5162 94.8624H60.4247V53.8529L40.5162 61.0081V94.8624Z" fill="white"/>
<path d="M40.5161 94.8667H89.7704V89.3458H40.5161V94.8667Z" fill="#263238"/>
<path opacity="0.3" d="M40.5161 94.8667H89.7704V89.3458H40.5161V94.8667Z" fill="white"/>
<path d="M60.3388 84.4214L72.0111 87.3813L64.5642 92.7434L52.849 89.5991L60.3388 84.4214Z" fill="#407BFF"/>
<path opacity="0.8" d="M60.3388 84.4214L72.0111 87.3813L64.5642 92.7434L52.849 89.5991L60.3388 84.4214Z" fill="white"/>
<path d="M52.849 89.5989L60.3388 84.4213L71.5478 82.6324L62.518 88.9254L52.849 89.5989Z" fill="white"/>
<path d="M69.8621 94.8624H89.7706V53.8529L69.8621 61.0081V94.8624Z" fill="#407BFF"/>
<path opacity="0.6" d="M69.8621 94.8624H89.7706V53.8529L69.8621 61.0081V94.8624Z" fill="white"/>
<path opacity="0.5" d="M81.1781 62.0033L72.5472 80.775L88.2733 85.335L81.1781 62.0033Z" fill="white"/>
<path d="M75.1083 72.9593L75.593 72.6418L76.0735 75.6446L77.4419 74.7567L77.532 75.3143L75.6788 76.5197L75.1083 72.9593Z" fill="#407BFF"/>
<path d="M79.5397 72.7318L77.9739 73.7485C78.094 74.1088 78.3772 74.2075 78.7246 73.9801C78.9548 73.8233 79.1279 73.596 79.2179 73.3324L79.5311 73.564C79.4036 73.9587 79.1447 74.2979 78.7976 74.5249C78.1284 74.9539 77.6007 74.6579 77.472 73.8514C77.4073 73.4669 77.4485 73.0721 77.5914 72.7093C77.7342 72.3465 77.9733 72.0295 78.2828 71.7924C78.8662 71.4149 79.381 71.6937 79.5139 72.5388C79.5225 72.5903 79.5311 72.6718 79.5397 72.7318ZM77.901 73.3538L79.0335 72.616C78.9348 72.2514 78.6689 72.1227 78.3643 72.3243C78.2063 72.4427 78.0809 72.5992 77.9998 72.7793C77.9188 72.9594 77.8848 73.157 77.901 73.3538Z" fill="#407BFF"/>
<path d="M81.3541 72.6632C81.2564 72.8575 81.1082 73.0219 80.9251 73.1394C80.4962 73.4225 80.1873 73.2681 80.0672 72.6718L79.857 71.3849L79.531 71.5994L79.4495 71.0932L79.7755 70.8787L79.6768 70.2567L80.1444 69.9564L80.2431 70.5741L80.7793 70.2267L80.8608 70.7329L80.3246 71.0803L80.5305 72.3672C80.5734 72.6332 80.6935 72.7104 80.8737 72.5946C80.9795 72.5243 81.0641 72.4264 81.1182 72.3115L81.3541 72.6632Z" fill="#407BFF"/>
<path d="M81.6759 68.8754C81.701 69.0374 81.701 69.2024 81.6759 69.3644L81.5986 70.2223L81.2941 70.4197L81.3198 69.5617C81.2083 69.5617 81.1139 69.4888 81.0839 69.3001C81.063 69.186 81.074 69.0684 81.1156 68.9602C81.1572 68.852 81.2279 68.7573 81.3198 68.6866C81.5043 68.5408 81.6372 68.6352 81.6759 68.8754Z" fill="#407BFF"/>
<path d="M82.3623 71.8869L82.4653 71.2906C82.7256 71.3234 82.9888 71.2576 83.2031 71.1061C83.4991 70.9131 83.6063 70.7243 83.572 70.5356C83.4905 70.0165 82.3366 71.3078 82.1607 70.2225C82.1361 69.9397 82.193 69.6557 82.3244 69.4042C82.4559 69.1526 82.6566 68.9438 82.9028 68.8026C83.1314 68.6384 83.4064 68.5512 83.6878 68.5538L83.5892 69.15C83.3734 69.1319 83.1584 69.1929 82.9843 69.3216C82.6969 69.5061 82.5854 69.7206 82.6154 69.8964C82.7012 70.4455 83.8551 69.1543 84.0267 70.2182C84.0447 70.5076 83.9781 70.796 83.8348 71.0482C83.6916 71.3003 83.4781 71.5053 83.2203 71.6381C82.9749 71.8244 82.6692 71.913 82.3623 71.8869Z" fill="#407BFF"/>
<path d="M76.9958 77.858L76.2923 83.1944L75.696 83.5805L73.5511 80.0844L74.2075 79.6554L75.8333 82.3622L76.3781 78.2484L76.9958 77.858Z" fill="#407BFF"/>
<path d="M77.4291 80.0158C77.3253 79.3756 77.3997 78.7191 77.6441 78.1184C77.8885 77.5176 78.2934 76.9957 78.8146 76.6097C79.8184 75.9534 80.715 76.4339 80.9252 77.7422C81.0344 78.386 80.9631 79.0475 80.7193 79.6532C80.4755 80.259 80.0686 80.7854 79.5439 81.174C78.5358 81.8046 77.6435 81.3198 77.4291 80.0158ZM80.3203 78.1369C80.1745 77.236 79.5825 76.9014 78.9305 77.3261C78.5852 77.5897 78.3193 77.9434 78.1619 78.3482C78.0045 78.7531 77.9617 79.1935 78.0382 79.6211C78.184 80.5219 78.7717 80.8565 79.4281 80.4319C79.7729 80.1679 80.0386 79.8142 80.196 79.4095C80.3533 79.0047 80.3964 78.5644 80.3203 78.1369Z" fill="#407BFF"/>
<path d="M81.9332 75.4172L80.8564 76.1164L80.7449 75.4215L83.4989 73.6327L83.6104 74.3276L82.5337 75.0268L83.13 78.746L82.5294 79.1364L81.9332 75.4172Z" fill="#407BFF"/>
<path d="M86.9907 75.4987L87.1023 76.185L84.6657 77.7679L83.9579 73.3538L86.3301 71.8138L86.4374 72.5002L84.67 73.6498L84.8545 74.7995L86.4245 73.7785L86.5317 74.452L84.966 75.473L85.159 76.6912L86.9907 75.4987Z" fill="#407BFF"/>
<path d="M39.7183 93.9102V155.575H41.7045V95.9392H59.4509V155.575H61.4371V95.9392H68.8883V155.575H70.8744V95.9392H88.8225V155.575H90.8129V93.9102H39.7183Z" fill="#263238"/>
<path opacity="0.3" d="M69.8621 93.9102V155.575H70.8745V95.9392H89.7706V155.575H90.813V93.9102H69.8621Z" fill="white"/>
<path opacity="0.3" d="M61.4371 95.9392H60.4247V155.575H61.4371V95.9392Z" fill="white"/>
<path opacity="0.3" d="M41.726 95.9392H40.7136V155.575H41.726V95.9392Z" fill="white"/>
<path d="M172.141 109.924L171.575 111.639L170.897 113.677L169.7 117.28L169.49 117.932L168.25 121.664L166.153 128.026C165.861 137.755 160.533 150.92 160.533 150.92L158.637 150.405C159.332 140.865 161.211 129.352 162.794 120.721C163.043 119.365 163.283 118.087 163.515 116.894L163.836 115.26C164.002 114.402 164.16 113.61 164.308 112.883C164.604 111.408 164.853 110.211 165.033 109.366C165.226 108.444 165.338 107.937 165.338 107.937L172.141 109.924Z" fill="#E4897B"/>
<path d="M181.849 108.1L181.42 111.03L180.841 114.891L180.776 115.32L180.652 116.178L180.223 119.108L179.026 126.975C180.395 136.61 177.387 150.491 177.387 150.491L175.431 150.307C174.41 139.96 174.372 127.074 174.513 118.134C174.535 116.748 174.561 115.449 174.586 114.273C174.584 114.238 174.584 114.202 174.586 114.166V114.102C174.642 111.772 174.706 109.919 174.749 108.748C174.788 107.826 174.805 107.324 174.805 107.324L181.849 108.1Z" fill="#E4897B"/>
<path opacity="0.2" d="M165.338 107.95L172.141 109.924L171.575 111.639L170.897 113.677L164.295 112.896C164.591 111.421 164.84 110.224 165.02 109.379C165.226 108.457 165.338 107.95 165.338 107.95Z" fill="#22272E"/>
<path opacity="0.2" d="M181.849 108.1L181.42 111.03L180.841 114.891L174.591 114.136V114.072C174.647 111.742 174.711 109.889 174.754 108.718C174.792 107.796 174.81 107.294 174.81 107.294L181.849 108.1Z" fill="#22272E"/>
<path d="M172.815 78.2827C172.815 78.2827 170.069 82.2249 169.027 82.9113C167.985 83.5977 160.555 83.0443 160.555 83.0443L160.177 84.6658C160.177 84.6658 167.804 86.0599 169.409 85.202C171.013 84.3441 175.02 79.9042 175.02 79.9042L172.815 78.2827Z" fill="#E4897B"/>
<path opacity="0.2" d="M172.815 78.2827C172.815 78.2827 170.069 82.2249 169.027 82.9113C167.985 83.5977 160.555 83.0443 160.555 83.0443L160.177 84.6658C160.177 84.6658 167.804 86.0599 169.409 85.202C171.013 84.3441 175.02 79.9042 175.02 79.9042L172.815 78.2827Z" fill="#22272E"/>
<path d="M162.58 82.817L162.833 85.4809C162.833 85.4809 172.502 86.6734 173.557 86.1029C174.612 85.5324 175.492 80.2903 175.492 80.2903L171.159 79.9128C171.159 79.9128 167.646 82.5081 167.251 82.817C166.856 83.1258 162.58 82.817 162.58 82.817Z" fill="#263238"/>
<path opacity="0.3" d="M162.58 82.817L162.833 85.4809C162.833 85.4809 172.502 86.6734 173.557 86.1029C174.612 85.5324 175.492 80.2903 175.492 80.2903L171.159 79.9128C171.159 79.9128 167.646 82.5081 167.251 82.817C166.856 83.1258 162.58 82.817 162.58 82.817Z" fill="white"/>
<path d="M160.555 83.0443C160.131 82.5813 159.638 82.1876 159.092 81.8775C158.49 81.6281 157.851 81.483 157.2 81.4485L156.891 83.5461C157.37 83.923 157.883 84.2548 158.423 84.5371C158.996 84.6779 159.59 84.72 160.177 84.6615L160.555 83.0443Z" fill="#E4897B"/>
<path opacity="0.2" d="M160.555 83.0443C160.131 82.5813 159.638 82.1876 159.092 81.8775C158.49 81.6281 157.851 81.483 157.2 81.4485L156.891 83.5461C157.37 83.923 157.883 84.2548 158.423 84.5371C158.996 84.6779 159.59 84.72 160.177 84.6615L160.555 83.0443Z" fill="#22272E"/>
<path d="M163.438 68.8025C163.423 68.8028 163.408 68.7999 163.395 68.794C163.382 68.7881 163.37 68.7792 163.36 68.7682C163.215 68.6462 163.045 68.5586 162.861 68.5118C162.678 68.465 162.486 68.4602 162.301 68.4979C162.287 68.5011 162.273 68.5015 162.259 68.4991C162.245 68.4967 162.231 68.4916 162.219 68.484C162.207 68.4764 162.197 68.4665 162.189 68.4549C162.181 68.4433 162.175 68.4302 162.172 68.4164C162.167 68.388 162.173 68.3588 162.189 68.3348C162.205 68.3108 162.23 68.2939 162.258 68.2877C162.479 68.2425 162.707 68.2488 162.925 68.3061C163.143 68.3634 163.345 68.4701 163.515 68.618C163.535 68.6388 163.546 68.6665 163.546 68.6952C163.546 68.724 163.535 68.7517 163.515 68.7725C163.493 68.7913 163.466 68.8019 163.438 68.8025Z" fill="#263238"/>
<path d="M162.906 70.0593C162.73 70.4633 162.507 70.845 162.241 71.1961C162.325 71.297 162.436 71.3725 162.561 71.4142C162.686 71.4558 162.82 71.462 162.948 71.432L162.906 70.0593Z" fill="#DE5753"/>
<path d="M162.399 69.3859C162.399 69.5961 162.537 69.7634 162.678 69.7548C162.82 69.7462 162.927 69.566 162.914 69.3515C162.901 69.1371 162.777 68.974 162.631 68.9826C162.485 68.9912 162.387 69.1714 162.399 69.3859Z" fill="#263238"/>
<path d="M162.691 68.9869L162.219 68.8325C162.219 68.8325 162.472 69.21 162.691 68.9869Z" fill="#263238"/>
<path d="M168.753 73.3539C168.73 73.3813 168.704 73.4058 168.675 73.4268C168.317 73.7934 167.89 74.085 167.418 74.2848C166.037 74.8124 165.038 74.7523 164.313 74.1947C163.287 73.3367 162.828 71.6638 162.67 69.579C162.578 68.7513 162.618 67.9144 162.79 67.0995V67.0609C162.796 67.0303 162.805 67.0003 162.816 66.9708C162.929 66.5088 163.157 66.0827 163.478 65.7312C163.798 65.3798 164.202 65.1143 164.652 64.959C165.041 64.8141 165.445 64.712 165.857 64.6544C169.872 64.0495 171.528 70.6342 168.753 73.3539Z" fill="#E4897B"/>
<path opacity="0.2" d="M168.675 73.4354C168.31 73.7802 167.88 74.0485 167.41 74.2247C166.028 74.7523 165.02 74.6536 164.295 74.0745C165.178 74.1696 166.067 73.9722 166.826 73.5126C167.109 73.3607 167.422 73.2749 167.742 73.2615C168.062 73.2481 168.381 73.3076 168.675 73.4354Z" fill="#22272E"/>
<path d="M167.298 63.3845C167.298 63.3845 164.506 63.0714 163.163 64.3626C161.597 65.8683 161.117 67.271 163.459 69.0212C163.459 69.0212 167.787 66.9278 169.34 67.0351C170.244 67.0918 171.142 67.2223 172.025 67.4254C171.923 64.3926 168.714 62.5652 167.298 63.3845Z" fill="#263238"/>
<path d="M166.711 74.4434C166.951 74.5507 167.164 74.7094 167.336 74.9083C167.507 75.1071 167.633 75.3413 167.704 75.5942C167.776 75.8471 167.79 76.1126 167.748 76.3719C167.705 76.6311 167.606 76.8778 167.457 77.0945L173.304 75.4601C173.304 75.4601 170.541 74.2547 170.301 72.3114C170.301 72.3114 167.238 72.0669 166.711 74.4434Z" fill="#E4897B"/>
<path d="M162.781 67.0695C162.86 67.9144 163.187 68.717 163.721 69.376C164.256 70.0349 164.974 70.5206 165.784 70.7715C165.784 70.7715 167.337 73.5512 169.04 73.3453C171.357 73.0837 172.939 69.5146 171.678 66.2759C170.057 62.0935 163.438 62.6297 162.781 67.0695Z" fill="#263238"/>
<path d="M164.325 70.1495C164.265 69.7205 164.518 68.9183 165.218 68.9226C165.917 68.9269 166.578 70.6385 164.887 71.2562C164.643 71.3463 164.45 71.0675 164.325 70.1495Z" fill="#E4897B"/>
<path d="M181.575 89.5002C181.575 89.5002 185.796 99.3665 181.849 113.66L163.712 112.038C166.08 100.435 169.289 94.0945 169.289 94.0945L169.872 88.2562L181.575 89.5002Z" fill="#407BFF"/>
<path d="M167.217 75.829C167.696 75.1062 168.338 74.5057 169.091 74.0758C169.844 73.646 170.688 73.3987 171.554 73.3539L173.042 74.9282L167.217 75.829Z" fill="#407BFF"/>
<path d="M178.966 91.7395L172.48 92.4172V90.9416L178.777 90.3196C178.825 90.6799 178.902 91.2676 178.966 91.7395Z" fill="#263238"/>
<path d="M171.974 90.993V92.4687L169.289 92.7475V91.259L171.974 90.993Z" fill="#263238"/>
<path d="M179.292 90.2682L182.016 89.9979L182.359 91.3835L179.545 91.6752L179.292 90.2682Z" fill="#263238"/>
<path d="M151.688 88.445C151.174 88.0851 150.606 87.8073 150.006 87.6213C149.363 87.511 148.706 87.511 148.063 87.6213L148.218 89.7362C148.77 89.9994 149.344 90.2133 149.934 90.3753C150.525 90.3867 151.113 90.2982 151.675 90.1137L151.688 88.445Z" fill="#E4897B"/>
<path d="M181.574 89.5003L169.614 90.8387L163.669 77.4419C163.669 77.4419 167.809 73.8729 175.474 75.0268C175.474 75.0268 178.22 76.2494 181.574 89.5003Z" fill="#263238"/>
<path opacity="0.5" d="M181.57 89.5003L169.614 90.8387L166.788 84.4728L165.586 81.7745L163.669 77.4419C163.669 77.4419 167.804 73.8772 175.474 75.0268C175.474 75.0268 178.215 76.2494 181.57 89.5003Z" fill="white"/>
<path opacity="0.2" d="M166.788 84.4727L165.587 81.7745C165.701 81.5395 165.854 81.3261 166.041 81.1439C166.443 81.5869 166.723 82.1264 166.854 82.7099C166.985 83.2933 166.962 83.9007 166.788 84.4727Z" fill="#22272E"/>
<path d="M162.623 81.1439C162.623 81.1439 160.799 85.5881 159.929 86.4803C159.058 87.3726 151.688 88.445 151.688 88.445L151.667 90.1094C151.667 90.1094 159.418 89.822 160.799 88.638C162.181 87.4541 165.153 82.2464 165.153 82.2464L162.623 81.1439Z" fill="#E4897B"/>
<path d="M163.669 77.4419C162.644 78.3728 160.237 86.283 159.929 86.4803C159.62 86.6776 153.065 88.2305 153.065 88.2305C153.065 88.2305 153.807 90.5126 153.803 90.3753C153.799 90.2381 160.418 89.8649 161.22 89.5603C162.022 89.2557 166.367 82.3579 166.367 82.3579C166.093 81.1689 165.679 80.0169 165.132 78.9261C164.381 77.5963 163.669 77.4419 163.669 77.4419Z" fill="#263238"/>
<path opacity="0.5" d="M163.669 77.4419C162.644 78.3728 160.237 86.283 159.929 86.4803C159.62 86.6776 153.065 88.2305 153.065 88.2305C153.065 88.2305 153.807 90.5126 153.803 90.3753C153.799 90.2381 160.418 89.8649 161.22 89.5603C162.022 89.2557 166.367 82.3579 166.367 82.3579C166.093 81.1689 165.679 80.0169 165.132 78.9261C164.381 77.5963 163.669 77.4419 163.669 77.4419Z" fill="white"/>
<path d="M152.688 88.2562L153.288 87.8873L154.211 90.5469H153.288L152.688 88.2562Z" fill="#407BFF"/>
<path d="M155.549 154.987C155.883 154.716 156.264 154.51 156.673 154.378C156.673 154.378 157.895 153.164 158.483 149.513L160.083 149.084C160.354 149.018 160.639 149.037 160.9 149.138C161.16 149.239 161.382 149.418 161.537 149.65C161.58 149.716 161.615 149.787 161.64 149.861C161.722 150.253 161.777 150.65 161.808 151.049C161.898 152.383 161.907 153.721 161.833 155.055H161.542L161.43 152.542C161.387 151.684 160.731 152.688 160.546 153.606C160.362 154.524 159.959 155.506 158.088 155.553C155.901 155.609 154.996 155.523 155.549 154.987Z" fill="#263238"/>
<path d="M161.593 149.711C161.686 149.054 161.83 148.406 162.022 147.772H158.161C158.161 147.772 158.59 149.457 158.238 150.727C160.04 150.238 161.593 149.711 161.593 149.711Z" fill="#263238"/>
<path d="M172.017 154.987C172.351 154.716 172.732 154.51 173.141 154.378C173.141 154.378 174.363 153.164 174.951 149.513L176.551 149.084C176.822 149.018 177.107 149.037 177.368 149.138C177.628 149.239 177.85 149.418 178.005 149.65C178.048 149.716 178.083 149.787 178.108 149.861C178.189 150.253 178.246 150.65 178.28 151.049C178.367 152.383 178.375 153.721 178.301 155.055H178.023L177.911 152.542C177.868 151.684 177.212 152.688 177.027 153.606C176.843 154.524 176.44 155.506 174.569 155.553C172.39 155.609 171.481 155.523 172.017 154.987Z" fill="#263238"/>
<path d="M178.078 149.711C178.172 149.054 178.315 148.406 178.507 147.772H174.647C174.647 147.772 175.076 149.457 174.72 150.727C176.53 150.238 178.078 149.711 178.078 149.711Z" fill="#263238"/>
<path d="M168.062 63.702C168.062 63.702 169.422 59.8627 173.042 61.3899C176.663 62.917 173.853 66.8678 175.028 69.0212C176.204 71.1747 174.544 73.1565 173.621 72.5946C173.751 72.5813 173.875 72.5388 173.986 72.4703C174.096 72.4018 174.19 72.3092 174.259 72.1992C174.329 72.0893 174.372 71.9651 174.387 71.8359C174.401 71.7067 174.386 71.576 174.342 71.4535C174.059 70.4411 172.438 70.7757 171.768 67.8373C171.099 64.8988 170.014 66.1214 170.014 66.1214L168.062 63.702Z" fill="#263238"/>
<path d="M56.1392 76.8199C55.1354 78.1883 48.0317 76.8199 48.0317 76.8199V74.9496L53.7927 74.4991L56.1392 76.8199Z" fill="#263238"/>
<path opacity="0.2" d="M56.1392 76.8199C55.1354 78.1883 48.0317 76.8199 48.0317 76.8199V74.9496L53.7927 74.4991L56.1392 76.8199Z" fill="#22272E"/>
<path d="M35.729 66.7777C34.2963 67.5112 36.484 74.5678 38.6718 76.9186C40.8595 79.2693 39.4997 71.505 39.4997 71.505L35.729 66.7777Z" fill="#263238"/>
<path opacity="0.2" d="M35.729 66.7777C34.2963 67.5112 36.484 74.5678 38.6718 76.9186C40.8595 79.2693 39.4997 71.505 39.4997 71.505L35.729 66.7777Z" fill="#22272E"/>
<path d="M46.955 65.3536L46.9808 67.4641L45.3678 67.2668V65.3536C45.3678 65.3536 45.192 65.0662 44.9989 64.7058C44.829 64.4072 44.6854 64.0943 44.57 63.7707C44.3726 63.1658 46.4188 61.3856 46.4188 61.3856C46.4188 61.3856 46.5475 61.5057 46.7277 61.6902C47.1566 62.1192 47.9374 62.8999 48.0146 63.1916C48.1561 63.6034 46.955 65.3536 46.955 65.3536Z" fill="#9F5B53"/>
<path opacity="0.2" d="M46.7578 61.6901C46.5347 62.6124 46.0243 64.0881 45.0419 64.6929C44.872 64.3943 44.7284 64.0814 44.613 63.7578C44.4156 63.1529 46.4618 61.3727 46.4618 61.3727C46.4618 61.3727 46.5562 61.5057 46.7578 61.6901Z" fill="#22272E"/>
<path d="M50.7771 152.851L53.7413 153.164L53.8914 151.444L54.299 146.768L51.3305 146.45L50.8801 151.619L50.7771 152.851Z" fill="#9F5B53"/>
<path d="M35.9733 152.473H38.8474L38.8731 151.825L38.8774 151.744L39.0233 147.574L39.0276 147.488L39.0833 145.893H36.2092L35.9733 152.473Z" fill="#9F5B53"/>
<path opacity="0.2" d="M51.3305 146.45L50.88 151.619L53.8914 151.444L54.2989 146.768L51.3305 146.45Z" fill="#22272E"/>
<path opacity="0.2" d="M35.9906 152.108H35.9949L38.8732 151.744H38.8775L39.0277 147.72H39.0234L36.1407 147.952L35.9949 151.984L35.9906 152.108Z" fill="#22272E"/>
<path d="M39.2466 152.284H35.7548C35.6975 152.284 35.6419 152.304 35.5974 152.339C35.5529 152.375 35.5221 152.426 35.5102 152.482L34.944 155.055C34.9222 155.165 34.9441 155.279 35.005 155.373C35.0659 155.466 35.161 155.533 35.27 155.557C35.3013 155.562 35.3331 155.562 35.3644 155.557C36.4926 155.557 37.3162 155.472 38.7361 155.472C39.594 155.472 42.2451 155.562 43.4548 155.562C44.6645 155.562 44.8189 154.369 44.3127 154.275C42.0992 153.79 40.452 153.121 39.7227 152.486C39.5956 152.36 39.4252 152.288 39.2466 152.284Z" fill="#263238"/>
<path d="M54.0502 152.211H50.5584C50.5014 152.212 50.4462 152.232 50.4018 152.268C50.3574 152.303 50.3265 152.353 50.3139 152.409L49.7477 154.983C49.7247 155.093 49.7459 155.208 49.8069 155.302C49.8679 155.397 49.9638 155.464 50.0737 155.489H50.1681C51.3005 155.489 52.1199 155.399 53.5398 155.399C54.3977 155.399 57.0487 155.493 58.2584 155.493C59.4681 155.493 59.6226 154.301 59.1164 154.206C56.8986 153.726 55.2299 153.057 54.5221 152.417C54.397 152.291 54.2281 152.217 54.0502 152.211Z" fill="#263238"/>
<path d="M54.5692 150.997H50.3524C50.3524 150.997 50.6956 114.702 46.1356 102.447C45.8139 106.496 45.4536 110.704 45.0975 114.205C44.8744 116.375 44.6685 118.237 44.4498 119.657C43.12 128.798 39.7697 151.366 39.7697 151.366H35.6044C35.6044 151.366 36.0977 129.742 36.5953 120.755C37.1401 111.005 37.3718 89.5646 37.3932 87.7244H52.6517C54.1016 95.4287 57.825 126.147 54.5692 150.997Z" fill="#407BFF"/>
<path opacity="0.7" d="M54.5692 150.997H50.3524C50.3524 150.997 50.6956 114.702 46.1356 102.447C45.8139 106.496 45.4536 110.704 45.0975 114.205C44.8744 116.375 44.6685 118.237 44.4498 119.657C43.12 128.798 39.7697 151.366 39.7697 151.366H35.6044C35.6044 151.366 36.0977 129.742 36.5953 120.755C37.1401 111.005 37.3718 89.5646 37.3932 87.7244H52.6517C54.1016 95.4287 57.825 126.147 54.5692 150.997Z" fill="white"/>
<path opacity="0.2" d="M46.1357 102.442C45.814 106.496 45.4537 110.708 45.0976 114.209C44.5786 109.151 43.9437 105.548 43.9437 105.548C43.9437 105.548 43.3474 105.059 41.7088 102.442C40.0701 99.8255 41.7088 94.9481 41.7088 94.9481C41.6573 99.4823 46.1357 102.442 46.1357 102.442Z" fill="#22272E"/>
<path d="M55.0413 149.822L54.8354 151.01H49.855V149.916L55.0413 149.822Z" fill="#407BFF"/>
<path d="M40.2503 150.281L39.7698 151.379H35.5917L35.3171 150.281H40.2503Z" fill="#407BFF"/>
<path d="M37.3033 86.5705V87.9389H52.6861L52.506 86.3774L37.3033 86.5705Z" fill="#22272E"/>
<path d="M42.4682 86.1328H42.0049V88.2948H42.4682V86.1328Z" fill="#407BFF"/>
<path d="M50.0901 86.1218L49.6278 86.1526L49.7715 88.3098L50.2338 88.279L50.0901 86.1218Z" fill="#407BFF"/>
<path opacity="0.7" d="M42.4682 86.1328H42.0049V88.2948H42.4682V86.1328Z" fill="white"/>
<path opacity="0.7" d="M50.0901 86.1218L49.6278 86.1526L49.7715 88.3098L50.2338 88.279L50.0901 86.1218Z" fill="white"/>
<path d="M47.487 57.7994C47.487 58.0268 47.3969 58.2284 47.2425 58.2284C47.0881 58.2284 46.9551 58.0611 46.9336 57.8338C46.9122 57.6064 47.028 57.4048 47.1781 57.4048C47.3283 57.4048 47.4698 57.5721 47.487 57.7994Z" fill="#2E353A"/>
<path d="M46.3287 57.1173C46.3056 57.1167 46.2832 57.1093 46.2644 57.0959C46.2541 57.0862 46.246 57.0746 46.2404 57.0617C46.2348 57.0488 46.2319 57.0349 46.2319 57.0208C46.2319 57.0067 46.2348 56.9928 46.2404 56.9799C46.246 56.967 46.2541 56.9554 46.2644 56.9457C46.4227 56.763 46.6215 56.6198 46.8449 56.5274C47.0683 56.4351 47.3102 56.3962 47.5513 56.4138C47.5654 56.4149 47.5792 56.4187 47.5918 56.4252C47.6044 56.4316 47.6156 56.4404 47.6247 56.4512C47.6339 56.462 47.6409 56.4744 47.6452 56.4879C47.6495 56.5013 47.6511 56.5155 47.65 56.5296C47.6489 56.5437 47.645 56.5575 47.6386 56.5701C47.6322 56.5827 47.6234 56.5939 47.6126 56.6031C47.6018 56.6122 47.5894 56.6192 47.5759 56.6235C47.5624 56.6278 47.5482 56.6295 47.5342 56.6283C47.332 56.6132 47.129 56.6439 46.9403 56.7182C46.7516 56.7925 46.5822 56.9084 46.4446 57.0573C46.4331 57.0774 46.4161 57.0937 46.3955 57.1044C46.375 57.115 46.3518 57.1195 46.3287 57.1173Z" fill="#2E353A"/>
<path d="M46.9337 58.2369C47.2484 58.7421 47.6213 59.2086 48.0447 59.6268C47.9495 59.7786 47.8142 59.901 47.6537 59.9805C47.4931 60.06 47.3137 60.0935 47.1353 60.0772L46.9337 58.2369Z" fill="#A24E3F"/>
<path d="M47.1096 61.0338C47.0778 61.1725 47.0362 61.3086 46.9852 61.4414C46.7159 62.2032 46.2206 62.8647 45.5653 63.3374C45.3992 63.4577 45.2242 63.5652 45.0419 63.6591C44.5656 63.912 44.039 64.0555 43.5003 64.0792C42.9615 64.103 42.4243 64.0063 41.9276 63.7964C41.4863 63.6004 41.0871 63.3207 40.7522 62.9728C39.3152 61.5186 39.3495 59.8413 39.1908 56.9972C39.1393 56.3876 39.2334 55.7745 39.4653 55.2084C39.8627 54.2552 40.622 53.4985 41.5766 53.1045C42.5312 52.7104 43.6031 52.7111 44.5572 53.1065C47.3455 54.2433 47.7273 58.4772 47.1096 61.0338Z" fill="#9F5B53"/>
<path opacity="0.2" d="M45.5652 63.3373C45.3991 63.4576 45.2241 63.5651 45.0418 63.6591C44.5655 63.9119 44.0389 64.0554 43.5002 64.0791C42.9615 64.1029 42.4242 64.0063 41.9275 63.7963C42.0559 63.4542 42.2274 63.1298 42.438 62.8311C43.5074 62.696 44.593 62.8717 45.5652 63.3373Z" fill="#22272E"/>
<path d="M39.8429 67.0222C41.2413 68.3091 44.6731 67.8243 44.6731 67.8243C44.6731 67.8243 46.8179 67.2409 46.3889 66.5717C45.1278 66.3615 44.5143 65.7739 44.2441 65.0189C44.1062 64.5517 44.0639 64.0615 44.1197 63.5775C44.1392 63.3084 44.1736 63.0406 44.2226 62.7753L39.9801 59.6267C40.5335 61.7072 41.2156 65.5208 39.8429 67.0222Z" fill="#9F5B53"/>
<path d="M43.7549 51.8796C43.7549 51.8796 44.5056 51.4206 45.7925 52.6303C46.8735 53.6512 45.7925 54.4706 46.436 55.7789C47.0794 57.0873 46.2086 58.3742 46.2086 58.3742C46.2086 58.3742 45.5866 59.7169 44.4927 59.6354C44.4927 59.6354 43.6048 60.7078 43.7463 61.8145C43.8879 62.9213 42.2964 63.8007 40.1258 63.7706C37.9552 63.7406 38.8389 62.3893 38.8389 62.3893C38.2049 61.6658 37.6921 60.8444 37.3204 59.9571C36.8817 58.8795 36.6714 57.7227 36.7027 56.5596C36.6827 55.9556 36.7832 55.3535 36.9983 54.7887C37.2133 54.2238 37.5386 53.7073 37.9552 53.2694C39.4052 51.6394 42.8541 50.82 43.7549 51.8796Z" fill="#263238"/>
<path d="M43.948 59.0134C43.9997 59.2851 44.1117 59.5418 44.2758 59.7646C44.4398 59.9873 44.6518 60.1704 44.896 60.3003C45.4751 60.5448 45.8526 59.7297 45.754 58.8761C45.6725 58.1168 45.2821 57.0487 44.6601 57.1902C44.0381 57.3318 43.755 58.2498 43.948 59.0134Z" fill="#9F5B53"/>
<path d="M39.4997 66.7562L40.126 65.139C40.126 65.139 44.3513 64.324 45.7841 66.4259C47.2169 68.5279 39.4997 66.7562 39.4997 66.7562Z" fill="#407BFF"/>
<path opacity="0.6" d="M39.4997 66.7562L40.126 65.139C40.126 65.139 44.3513 64.324 45.7841 66.4259C47.2169 68.5279 39.4997 66.7562 39.4997 66.7562Z" fill="white"/>
<path d="M37.0157 86.8363C37.0157 86.8363 37.6077 81.5428 36.7326 73.4954C36.5052 71.4234 36.1835 69.1713 35.7331 66.7777C35.7331 66.7777 44.0251 65.3149 49.8119 66.7777C49.8119 66.7777 50.0521 67.7557 50.3738 69.4244C50.4296 69.6947 50.4853 69.9778 50.5454 70.2824C50.6998 71.1103 50.8671 72.0669 51.0387 73.1179L51.0644 73.2809C51.2489 74.4134 51.4934 75.7131 51.7293 77.1202C52.3321 80.2661 52.7049 83.4518 52.8447 86.6519L37.0157 86.8363Z" fill="#263238"/>
<path opacity="0.2" d="M51.7338 77.1245C49.0013 74.5893 49.3059 69.4031 49.3059 69.4031L50.5456 70.261C50.7 71.0889 50.8673 72.0455 51.0389 73.0965L51.0646 73.2595C51.2534 74.4177 51.4765 75.7175 51.7338 77.1245Z" fill="#22272E"/>
<path d="M49.812 66.7777C51.9568 67.6785 56.3495 74.4005 56.4267 75.7861C56.5039 77.1717 55.4615 77.7036 53.4925 76.4982C51.5236 75.2928 49.6061 70.9216 49.3315 69.6089C49.057 68.2963 49.812 66.7777 49.812 66.7777Z" fill="#263238"/>
</svg>
