<svg width="63" height="63" viewBox="0 0 63 63" fill="none" xmlns="http://www.w3.org/2000/svg">
<path d="M11.1803 39.6478L2.57361 54.5669L12.6189 54.0336L17.1827 63L25.1445 49.197C19.4397 47.7212 14.5411 44.286 11.1803 39.6478Z" fill="#E92F48"/>
<path d="M51.7587 39.5734C48.4226 44.224 43.524 47.6716 37.8317 49.1722L45.8183 62.9999L50.3821 54.0336L60.4274 54.5669L51.7587 39.5734Z" fill="#E92F48"/>
<path d="M31.4445 50.028C45.2594 50.028 56.4585 38.8288 56.4585 25.014C56.4585 11.1991 45.2594 0 31.4445 0C17.6297 0 6.43054 11.1991 6.43054 25.014C6.43054 38.8288 17.6297 50.028 31.4445 50.028Z" fill="#F1C2AF"/>
<path d="M31.4445 43.145C41.458 43.145 49.5756 35.0274 49.5756 25.0139C49.5756 15.0004 41.458 6.88281 31.4445 6.88281C21.4309 6.88281 13.3134 15.0004 13.3134 25.0139C13.3134 35.0274 21.4309 43.145 31.4445 43.145Z" fill="#D97953"/>
<path d="M43.8699 23.0545C44.428 22.5089 44.1179 21.5539 43.349 21.4423L36.1933 20.4006C35.8833 20.351 35.6229 20.165 35.4864 19.8797L32.2868 13.3937C31.9396 12.6868 30.9351 12.6868 30.5878 13.3937L27.4006 19.8797C27.2642 20.1526 26.9914 20.351 26.6937 20.4006L19.538 21.4423C18.7691 21.5539 18.4591 22.5089 19.0172 23.0545L24.1886 28.102C24.4118 28.3252 24.511 28.6352 24.4614 28.9329L23.2461 36.0514C23.1097 36.8203 23.9282 37.4156 24.6227 37.0435L31.0219 33.6827C31.2947 33.5339 31.6295 33.5339 31.9024 33.6827L38.3016 37.0435C38.9961 37.4032 39.8022 36.8203 39.6782 36.0514L38.4504 28.9329C38.4008 28.6228 38.5 28.3128 38.7232 28.102L43.8699 23.0545Z" fill="#F1C2AF"/>
</svg>
