<svg width="24" height="24" viewBox="0 0 24 24" fill="none" xmlns="http://www.w3.org/2000/svg">
<path d="M21.6602 10.44L20.6802 14.62C19.8402 18.23 18.1802 19.69 15.0602 19.39C14.5602 19.35 14.0202 19.26 13.4402 19.12L11.7602 18.72C7.59018 17.73 6.30018 15.67 7.28018 11.49L8.26018 7.30001C8.46018 6.45001 8.70018 5.71001 9.00018 5.10001C10.1702 2.68001 12.1602 2.03001 15.5002 2.82001L17.1702 3.21001C21.3602 4.19001 22.6402 6.26001 21.6602 10.44Z" stroke="#22272E" stroke-width="1.5" stroke-linecap="round" stroke-linejoin="round"/>
<path d="M15.0603 19.39C14.4403 19.81 13.6603 20.16 12.7103 20.47L11.1303 20.99C7.16034 22.27 5.07034 21.2 3.78034 17.23L2.50034 13.28C1.22034 9.31001 2.28034 7.21001 6.25034 5.93001L7.83034 5.41001C8.24034 5.28001 8.63034 5.17001 9.00034 5.10001C8.70034 5.71001 8.46034 6.45001 8.26034 7.30001L7.28034 11.49C6.30034 15.67 7.59034 17.73 11.7603 18.72L13.4403 19.12C14.0203 19.26 14.5603 19.35 15.0603 19.39Z" stroke="#22272E" stroke-width="1.5" stroke-linecap="round" stroke-linejoin="round"/>
<path d="M12.6396 8.53L17.4896 9.76" stroke="#22272E" stroke-width="1.5" stroke-linecap="round" stroke-linejoin="round"/>
<path d="M11.6602 12.4L14.5602 13.14" stroke="#22272E" stroke-width="1.5" stroke-linecap="round" stroke-linejoin="round"/>
</svg>
