<svg width="30" height="30" viewBox="0 0 30 30" fill="none" xmlns="http://www.w3.org/2000/svg">
<path fill-rule="evenodd" clip-rule="evenodd" d="M7.5 21.25C7.83152 21.25 8.14946 21.1183 8.38388 20.8839C8.6183 20.6495 8.75 20.3315 8.75 20C8.75 19.6685 8.6183 19.3505 8.38388 19.1161C8.14946 18.8817 7.83152 18.75 7.5 18.75C7.16848 18.75 6.85054 18.8817 6.61612 19.1161C6.3817 19.3505 6.25 19.6685 6.25 20C6.25 20.3315 6.3817 20.6495 6.61612 20.8839C6.85054 21.1183 7.16848 21.25 7.5 21.25ZM7.5 22.5C8.16304 22.5 8.79893 22.2366 9.26777 21.7678C9.73661 21.2989 10 20.663 10 20C10 19.337 9.73661 18.7011 9.26777 18.2322C8.79893 17.7634 8.16304 17.5 7.5 17.5C6.83696 17.5 6.20107 17.7634 5.73223 18.2322C5.26339 18.7011 5 19.337 5 20C5 20.663 5.26339 21.2989 5.73223 21.7678C6.20107 22.2366 6.83696 22.5 7.5 22.5ZM15 13.75C14.6713 13.75 14.375 13.9975 14.375 14.3263V25.625C14.375 25.7908 14.4408 25.9497 14.5581 26.0669C14.6753 26.1842 14.8342 26.25 15 26.25C15.1658 26.25 15.3247 26.1842 15.4419 26.0669C15.5592 25.9497 15.625 25.7908 15.625 25.625V14.3263C15.625 13.9975 15.3287 13.75 15 13.75ZM15.625 8.125C15.625 8.29076 15.5592 8.44973 15.4419 8.56694C15.3247 8.68415 15.1658 8.75 15 8.75C14.8342 8.75 14.6753 8.68415 14.5581 8.56694C14.4408 8.44973 14.375 8.29076 14.375 8.125V4.375C14.375 4.20924 14.4408 4.05027 14.5581 3.93306C14.6753 3.81585 14.8342 3.75 15 3.75C15.1658 3.75 15.3247 3.81585 15.4419 3.93306C15.5592 4.05027 15.625 4.20924 15.625 4.375V8.125ZM22.5 26.25C22.3342 26.25 22.1753 26.1842 22.0581 26.0669C21.9408 25.9497 21.875 25.7908 21.875 25.625V21.2013C21.875 20.8725 22.1712 20.625 22.5 20.625C22.8288 20.625 23.125 20.8725 23.125 21.2013V25.625C23.125 25.7908 23.0592 25.9497 22.9419 26.0669C22.8247 26.1842 22.6658 26.25 22.5 26.25ZM21.875 15C21.875 15.1658 21.9408 15.3247 22.0581 15.4419C22.1753 15.5592 22.3342 15.625 22.5 15.625C22.6658 15.625 22.8247 15.5592 22.9419 15.4419C23.0592 15.3247 23.125 15.1658 23.125 15V4.375C23.125 4.20924 23.0592 4.05027 22.9419 3.93306C22.8247 3.81585 22.6658 3.75 22.5 3.75C22.3342 3.75 22.1753 3.81585 22.0581 3.93306C21.9408 4.05027 21.875 4.20924 21.875 4.375V15Z" fill="#428BC1"/>
<path fill-rule="evenodd" clip-rule="evenodd" d="M7.5 26.25C7.33424 26.25 7.17527 26.1842 7.05806 26.0669C6.94085 25.9497 6.875 25.7908 6.875 25.625V24.3263C6.875 23.9975 7.17125 23.75 7.5 23.75C7.82875 23.75 8.125 23.9975 8.125 24.3263V25.625C8.125 25.7908 8.05915 25.9497 7.94194 26.0669C7.82473 26.1842 7.66576 26.25 7.5 26.25ZM6.875 17.5C6.875 17.6658 6.94085 17.8247 7.05806 17.9419C7.17527 18.0592 7.33424 18.125 7.5 18.125C7.66576 18.125 7.82473 18.0592 7.94194 17.9419C8.05915 17.8247 8.125 17.6658 8.125 17.5V4.375C8.125 4.20924 8.05915 4.05027 7.94194 3.93306C7.82473 3.81585 7.66576 3.75 7.5 3.75C7.33424 3.75 7.17527 3.81585 7.05806 3.93306C6.94085 4.05027 6.875 4.20924 6.875 4.375V17.5ZM15 11.25C15.3315 11.25 15.6495 11.1183 15.8839 10.8839C16.1183 10.6495 16.25 10.3315 16.25 10C16.25 9.66848 16.1183 9.35054 15.8839 9.11612C15.6495 8.8817 15.3315 8.75 15 8.75C14.6685 8.75 14.3505 8.8817 14.1161 9.11612C13.8817 9.35054 13.75 9.66848 13.75 10C13.75 10.3315 13.8817 10.6495 14.1161 10.8839C14.3505 11.1183 14.6685 11.25 15 11.25ZM15 12.5C15.663 12.5 16.2989 12.2366 16.7678 11.7678C17.2366 11.2989 17.5 10.663 17.5 10C17.5 9.33696 17.2366 8.70107 16.7678 8.23223C16.2989 7.76339 15.663 7.5 15 7.5C14.337 7.5 13.7011 7.76339 13.2322 8.23223C12.7634 8.70107 12.5 9.33696 12.5 10C12.5 10.663 12.7634 11.2989 13.2322 11.7678C13.7011 12.2366 14.337 12.5 15 12.5ZM22.5 18.125C22.8315 18.125 23.1495 17.9933 23.3839 17.7589C23.6183 17.5245 23.75 17.2065 23.75 16.875C23.75 16.5435 23.6183 16.2255 23.3839 15.9911C23.1495 15.7567 22.8315 15.625 22.5 15.625C22.1685 15.625 21.8505 15.7567 21.6161 15.9911C21.3817 16.2255 21.25 16.5435 21.25 16.875C21.25 17.2065 21.3817 17.5245 21.6161 17.7589C21.8505 17.9933 22.1685 18.125 22.5 18.125ZM22.5 19.375C23.163 19.375 23.7989 19.1116 24.2678 18.6428C24.7366 18.1739 25 17.538 25 16.875C25 16.212 24.7366 15.5761 24.2678 15.1072C23.7989 14.6384 23.163 14.375 22.5 14.375C21.837 14.375 21.2011 14.6384 20.7322 15.1072C20.2634 15.5761 20 16.212 20 16.875C20 17.538 20.2634 18.1739 20.7322 18.6428C21.2011 19.1116 21.837 19.375 22.5 19.375Z" fill="#1780D3"/>
</svg>
