<svg width="30" height="30" viewBox="0 0 30 30" fill="none" xmlns="http://www.w3.org/2000/svg">
<path d="M15.9375 19.8281L19.5938 20.5313L22.5938 5.10938C22.7813 4.07812 22.125 3.04688 21.1406 2.85938C20.1094 2.67188 19.125 3.375 18.9375 4.40625L15.9375 19.8281Z" fill="#FFDD67"/>
<path d="M21.1875 2.85937C21.0469 2.8125 20.9531 2.8125 20.8125 2.8125C21.6562 3.14062 22.125 4.03125 21.9375 4.96875L18.9375 20.3906L19.5937 20.5312L22.5937 5.10937C22.8281 4.03125 22.1719 3.04687 21.1875 2.85937Z" fill="#EBA352"/>
<path d="M12.1875 20.2969H16.5938V3.28125C16.5938 2.01562 15.6094 0.9375 14.3906 0.9375C13.2188 0.9375 12.1875 1.96875 12.1875 3.28125V20.2969Z" fill="#FFDD67"/>
<path d="M14.4375 0.9375C14.3437 0.9375 14.2031 0.9375 14.1094 0.984375C15.1875 1.17187 15.9844 2.10937 15.9844 3.28125V20.3438H16.6406V3.28125C16.6406 1.96875 15.6562 0.9375 14.4375 0.9375Z" fill="#EBA352"/>
<path d="M9.84397 20.25L13.594 19.2656L9.51585 3.75C9.2346 2.67187 8.15647 2.01562 7.12522 2.25C6.09397 2.53125 5.4846 3.60937 5.76585 4.6875L9.84397 20.25Z" fill="#FFDD67"/>
<path d="M7.125 2.25L6.84375 2.39062C7.78125 2.34375 8.625 2.95312 8.90625 3.9375L12.9844 19.4531L13.6406 19.2656L9.51562 3.75C9.23437 2.67187 8.15625 2.01562 7.125 2.25Z" fill="#EBA352"/>
<path d="M1.87461 6.28125C0.983984 6.70312 0.702734 7.82813 1.17148 8.76563L7.35898 21.0938L10.4996 19.5L4.31211 7.17188C3.84336 6.23438 2.76523 5.85937 1.87461 6.28125Z" fill="#FFDD67"/>
<path d="M1.875 6.28125C1.78125 6.32812 1.6875 6.375 1.59375 6.46875C2.39062 6.23438 3.28125 6.65625 3.70312 7.5L9.89062 19.8281L10.5 19.5469L4.3125 7.17188C3.84375 6.23438 2.76562 5.85937 1.875 6.28125Z" fill="#EBA352"/>
<path d="M28.922 13.7344C28.172 12.2812 25.8283 12.375 23.4376 15C21.7501 16.8281 21.422 17.4375 19.7345 17.3906V15.4688C19.7345 15.4688 16.1251 12.7969 8.95327 14.0156C8.95327 14.0156 4.87514 14.5781 4.87514 16.7344C4.87514 16.7344 4.17202 21.9375 5.62514 25.2188C7.78139 30.0938 18.8439 31.3594 22.3126 23.0625C23.0158 21.4219 24.422 20.2031 25.6876 18.6563C27.1408 16.7813 29.7189 15.2812 28.922 13.7344Z" fill="#FFDD67"/>
<path d="M28.9219 13.7344C28.7812 13.4531 28.5938 13.2656 28.3594 13.0781C28.4063 13.125 28.4531 13.1719 28.4531 13.2656C29.25 14.8594 26.6719 16.3125 25.125 18.1875C23.8594 19.7344 22.4531 20.9531 21.75 22.5938C18.75 29.7656 10.0313 29.7656 6.375 26.4844C9.70313 30.2344 19.0781 30.6094 22.2188 23.0625C22.9219 21.4219 24.3281 20.2031 25.5938 18.6563C27.1406 16.7813 29.7188 15.2812 28.9219 13.7344ZM20.2031 17.3906C17.1562 16.2656 11.7188 18.3281 12.4688 23.8125C12.4688 18.7031 17.1094 17.4375 19.6406 17.4375C20.0156 17.3906 20.2031 17.3906 20.2031 17.3906Z" fill="#EBA352"/>
</svg>
