<svg width="30" height="30" viewBox="0 0 30 30" fill="none" xmlns="http://www.w3.org/2000/svg">
<path d="M27.4338 11.4737C27.3552 11.2423 27.2106 11.039 27.0178 10.8888C26.825 10.7387 26.5924 10.6482 26.3488 10.6287L19.2225 10.0625L16.1388 3.23625C16.0406 3.01639 15.8808 2.82965 15.6788 2.69857C15.4768 2.56749 15.2412 2.49767 15.0004 2.49754C14.7596 2.49741 14.524 2.56697 14.3218 2.69783C14.1197 2.82869 13.9597 3.01525 13.8613 3.235L10.7775 10.0625L3.65128 10.6287C3.41185 10.6477 3.18296 10.7353 2.99198 10.8809C2.801 11.0266 2.65602 11.2241 2.5744 11.45C2.49277 11.6759 2.47796 11.9205 2.53171 12.1546C2.58547 12.3887 2.70553 12.6024 2.87753 12.77L8.14378 17.9037L6.28128 25.9687C6.22473 26.2129 6.24286 26.4684 6.33331 26.7021C6.42376 26.9357 6.58236 27.1369 6.78854 27.2793C6.99471 27.4217 7.23893 27.4989 7.48951 27.5008C7.74009 27.5027 7.98546 27.4293 8.19378 27.29L15 22.7525L21.8063 27.29C22.0192 27.4314 22.2703 27.5041 22.5258 27.4985C22.7813 27.4929 23.029 27.4092 23.2355 27.2587C23.442 27.1081 23.5975 26.8979 23.681 26.6563C23.7645 26.4148 23.772 26.1535 23.7025 25.9075L21.4163 17.9075L27.0863 12.805C27.4575 12.47 27.5938 11.9475 27.4338 11.4737Z" fill="#FFC727"/>
</svg>
