<svg width="30" height="30" viewBox="0 0 30 30" fill="none" xmlns="http://www.w3.org/2000/svg">
<path d="M11.0625 17.2031H1.35938L6.1875 4.92188L11.0625 17.2031ZM2.625 16.3125H9.79688L6.1875 7.17188L2.625 16.3125ZM28.6406 17.2031H18.9375L23.7656 4.92188L28.6406 17.2031ZM20.2031 16.3125H27.375L23.7656 7.17188L20.2031 16.3125Z" fill="#D0D0D0"/>
<path d="M23.5781 4.78125C23.5781 4.78125 22.5469 4.40625 21.9844 4.17187C19.9688 3.32812 17.4844 2.34375 15 2.34375C12.5156 2.34375 10.0313 3.375 8.01563 4.21875C7.45313 4.45312 6.42188 4.82812 6.42188 4.82812L4.875 6C4.875 6 6.14062 6.79688 6.75 6.5625C7.26562 6.375 7.78125 6.14063 8.39062 5.90625C10.3125 5.10938 12.7031 4.125 15 4.125C17.2969 4.125 19.6875 5.10938 21.6094 5.90625C22.1719 6.14063 22.7344 6.375 23.25 6.5625C23.9062 6.79688 25.125 6 25.125 6L23.5781 4.78125Z" fill="#B8C2C4"/>
<path d="M0.9375 16.3125C0.9375 19.2187 3.28125 21.5625 6.1875 21.5625C9.09375 21.5625 11.4375 19.2187 11.4375 16.3125H0.9375ZM18.5156 16.3125C18.5156 19.2187 20.8594 21.5625 23.7656 21.5625C26.6719 21.5625 29.0625 19.2187 29.0625 16.3125H18.5156Z" fill="#428BC1"/>
<path d="M14.1094 5.76562H15.8906V25.0781H14.1094V5.76562Z" fill="#B8C2C4"/>
<path d="M13.5938 8.71875H16.4531V25.0781H13.5938V8.71875Z" fill="#D0D0D0"/>
<path d="M12.9844 17.2031H17.0156V26.4375H12.9844V17.2031Z" fill="#545B60"/>
<path d="M6.1875 7.96875C7.17126 7.96875 7.96875 7.17126 7.96875 6.1875C7.96875 5.20374 7.17126 4.40625 6.1875 4.40625C5.20374 4.40625 4.40625 5.20374 4.40625 6.1875C4.40625 7.17126 5.20374 7.96875 6.1875 7.96875Z" fill="#DBB471"/>
<path d="M23.8125 7.96875C24.7963 7.96875 25.5938 7.17126 25.5938 6.1875C25.5938 5.20374 24.7963 4.40625 23.8125 4.40625C22.8287 4.40625 22.0312 5.20374 22.0312 6.1875C22.0312 7.17126 22.8287 7.96875 23.8125 7.96875Z" fill="#545B60"/>
<path d="M6.1875 7.96875C7.17126 7.96875 7.96875 7.17126 7.96875 6.1875C7.96875 5.20374 7.17126 4.40625 6.1875 4.40625C5.20374 4.40625 4.40625 5.20374 4.40625 6.1875C4.40625 7.17126 5.20374 7.96875 6.1875 7.96875Z" fill="#545B60"/>
<path d="M6.1875 7.07812C6.67938 7.07812 7.07812 6.67938 7.07812 6.1875C7.07812 5.69562 6.67938 5.29688 6.1875 5.29688C5.69562 5.29688 5.29688 5.69562 5.29688 6.1875C5.29688 6.67938 5.69562 7.07812 6.1875 7.07812Z" fill="white"/>
<path d="M23.8125 7.07812C24.3044 7.07812 24.7031 6.67938 24.7031 6.1875C24.7031 5.69562 24.3044 5.29688 23.8125 5.29688C23.3206 5.29688 22.9219 5.69562 22.9219 6.1875C22.9219 6.67938 23.3206 7.07812 23.8125 7.07812Z" fill="white"/>
<path d="M15 6.1875C16.4497 6.1875 17.625 5.01225 17.625 3.5625C17.625 2.11275 16.4497 0.9375 15 0.9375C13.5503 0.9375 12.375 2.11275 12.375 3.5625C12.375 5.01225 13.5503 6.1875 15 6.1875Z" fill="#D0D0D0"/>
<path d="M15 21.1406C11.1094 21.1406 7.96875 23.1094 7.96875 25.5469H22.0312C22.0312 23.1094 18.8906 21.1406 15 21.1406Z" fill="#D0D0D0"/>
<path d="M7.07812 25.5469H22.9219V27.3281H7.07812V25.5469Z" fill="#545B60"/>
<path d="M5.34375 27.2812H24.6562V29.0625H5.34375V27.2812Z" fill="#6B767C"/>
</svg>
