<svg width="14" height="15" viewBox="0 0 14 15" fill="none" xmlns="http://www.w3.org/2000/svg">
<path d="M0 6.56906C0 10.2055 2.93261 13.1381 6.56906 13.1381C10.2055 13.1381 13.1381 10.2055 13.1381 6.56906C13.1381 2.93261 10.2055 0 6.56906 0C2.93261 0 0 2.93261 0 6.56906Z" fill="#FFDD67"/>
<path d="M2.39298 2.34608C3.19065 1.87686 4.15255 1.80648 5.04406 2.11147C5.16137 2.15839 5.34905 1.71264 5.20829 1.66571C4.19947 1.29034 3.0968 1.38418 2.15837 1.92378C2.0176 1.99417 2.27567 2.41646 2.39298 2.34608Z" fill="#917524"/>
<path d="M8.02371 3.04994C8.82139 2.58072 9.78328 2.51034 10.6748 2.81533C10.7921 2.86225 10.9798 2.41649 10.839 2.36957C9.8302 1.9942 8.72754 2.08804 7.78911 2.62764C7.64834 2.69802 7.90641 3.09686 8.02371 3.04994Z" fill="#917524"/>
<path d="M4.71564 7.67167C5.91214 7.36668 7.22596 7.57782 8.23477 8.28165C8.49284 8.44588 8.02363 9.10278 7.76556 8.91509C7.08519 8.46934 6.02945 8.14089 4.92679 8.42242C4.64526 8.4928 4.41065 7.76551 4.71564 7.67167Z" fill="#664E27"/>
<path d="M9.10295 6.35795C8.14105 6.35795 7.34338 5.56028 7.34338 4.59839C7.34338 4.19955 7.48415 3.82418 7.6953 3.54264C8.09413 3.42534 8.53989 3.37842 9.00911 3.37842C9.57217 3.37842 10.1118 3.47226 10.581 3.63649C10.7687 3.91802 10.886 4.24647 10.886 4.62185C10.8625 5.58374 10.0883 6.35795 9.10295 6.35795Z" fill="white"/>
<path d="M9.33741 3.37842C9.43125 3.51918 9.50163 3.68341 9.50163 3.8711C9.50163 4.36378 9.1028 4.76261 8.61012 4.76261C8.11744 4.76261 7.74207 4.36378 7.74207 3.89456C7.74207 3.75379 7.76553 3.63649 7.83591 3.51918C8.18782 3.42534 8.58666 3.37842 9.00896 3.37842H9.33741Z" fill="#664E27"/>
<path d="M4.03533 6.35795C3.07343 6.35795 2.27576 5.56028 2.27576 4.59839C2.27576 4.19955 2.41652 3.82418 2.62767 3.54264C3.02651 3.42534 3.47226 3.37842 3.94148 3.37842C4.50454 3.37842 5.04414 3.47226 5.51336 3.63649C5.70105 3.91802 5.81835 4.24647 5.81835 4.62185C5.79489 5.58374 4.99722 6.35795 4.03533 6.35795Z" fill="white"/>
<path d="M4.2698 3.37832C4.36365 3.51908 4.43403 3.68331 4.43403 3.871C4.43403 4.36368 4.03519 4.76251 3.54252 4.76251C3.04984 4.76251 2.651 4.36368 2.651 3.871C2.651 3.73023 2.67446 3.61293 2.74484 3.49562C3.09676 3.40178 3.49559 3.35486 3.91789 3.35486C4.05866 3.37832 4.1525 3.37832 4.2698 3.37832Z" fill="#664E27"/>
<path d="M6.70986 9.85351C5.7245 10.0881 3.21418 10.3931 2.76843 9.92389C2.55728 9.71275 2.6042 9.40775 2.67458 8.86815C2.74497 8.32855 2.22883 7.76549 1.85345 7.71857C1.40769 7.67165 1.14962 8.0001 1.31385 8.46932C1.6423 9.52506 0.985398 9.85351 0.938476 10.6277C0.915016 11.0735 0.77425 11.8242 1.45462 12.7861C2.22883 13.8653 3.5661 13.8888 4.03532 13.8653C4.57492 13.8419 4.80953 13.8184 4.92683 13.5838C5.0676 13.3023 4.99721 13.2319 5.0676 13.138C5.1849 12.9269 5.25528 12.9504 5.32567 12.6923C5.39605 12.4342 5.20836 12.27 5.25528 12.1527C5.34913 11.8712 5.58374 11.9181 5.34913 11.2612C6.1468 11.1439 6.66294 11.0266 7.13216 10.745C8.00021 10.2758 7.24946 9.73621 6.70986 9.85351Z" fill="white"/>
<path d="M3.16729 14.0062C2.36962 13.8654 1.71271 13.4666 1.29042 12.8801C0.633512 11.9651 0.680433 11.2378 0.727355 10.7451V10.5809C0.750816 10.2525 0.84466 9.9944 0.961965 9.73633C1.12619 9.36095 1.26696 9.05596 1.07927 8.4929C0.985426 8.21137 1.00889 7.92984 1.19657 7.74215C1.3608 7.57792 1.59541 7.48408 1.87694 7.531H1.9004C2.39308 7.62484 2.95614 8.28175 2.88576 8.91519C2.81538 9.43133 2.79192 9.66594 2.93268 9.80671C2.95614 9.83017 3.02653 9.90055 3.2846 9.92401C4.17611 10.0882 5.93568 9.83017 6.66297 9.66594C6.78027 9.64248 6.92104 9.64248 7.0618 9.66594C7.41372 9.73633 7.67179 9.94747 7.74217 10.2055C7.76563 10.3698 7.76563 10.6748 7.27295 10.9563C6.80373 11.2144 6.31105 11.3551 5.63069 11.449C5.81837 11.9182 5.37262 12.0824 5.46646 12.2701C5.58376 12.5282 5.5603 12.7393 5.30223 12.9974C5.11455 13.1616 5.34916 13.3728 5.16147 13.7012C4.95032 14.0531 4.59841 14.0766 4.08227 14.1001C3.73035 14.0766 3.44882 14.0766 3.16729 14.0062ZM1.38426 8.25829C1.54849 9.0325 1.59541 9.31403 1.31388 9.94747C0.891582 10.7921 0.727355 13.1851 3.23767 13.6308C4.76263 13.9124 4.99724 13.537 4.92686 13.1382C4.87994 12.8801 5.09108 12.7862 5.16147 12.6924C5.32569 12.4109 5.09109 12.2701 5.09109 12.1528C5.09109 11.9417 5.30223 11.9417 5.34915 11.7305C5.41954 11.3551 4.95032 11.2144 5.34915 11.1909C6.12337 11.144 6.63951 11.0032 7.08526 10.6982C7.50756 10.4167 7.20257 9.83017 6.63951 9.94747C5.32569 10.229 3.35498 10.5575 2.69807 9.94747C2.39308 9.66594 2.62769 9.33749 2.60423 8.70405C2.55731 7.85945 1.22003 7.531 1.38426 8.25829Z" fill="#CCCFD4"/>
</svg>
