<svg width="23" height="20" viewBox="0 0 23 20" fill="none" xmlns="http://www.w3.org/2000/svg">
<path d="M20 12.1418V9.2842C19.8587 7.77537 18.783 7.7885 17.1429 7.85545V13.5705C19.7761 13.8442 19.9099 12.8086 20 12.1418ZM2.85715 13.5705V7.85549C1.21691 7.78854 0.14125 7.77541 0 9.28424V12.1418C0.0900781 12.8086 0.223906 13.8442 2.85715 13.5706V13.5705ZM0.714297 17.1425H19.2857V20H0.714297V17.1425ZM12.825 2.85472C12.3748 -0.842739 7.71262 -1.05887 7.175 2.85472H12.825ZM0.839141 1.28362C1.22398 0.557376 2.25594 0.515032 2.69219 1.20757C3.06828 1.80452 2.76066 2.56675 2.14266 2.78686L2.14285 7.14104H1.42855V2.78886C0.842109 2.58526 0.520352 1.88519 0.839141 1.28362ZM13.5714 8.92697C13.5714 9.74885 12.6757 10.2653 11.9631 9.85431C11.2504 9.44342 11.2504 8.41057 11.9631 7.99963C12.6758 7.58869 13.5714 8.1051 13.5714 8.92697ZM6.96309 9.85431C7.67574 10.2653 8.57145 9.74885 8.57145 8.92697C8.57145 8.1051 7.67574 7.58869 6.96309 7.99963C6.25039 8.41057 6.25039 9.44342 6.96309 9.85431ZM16.4286 6.42662V16.4281H3.57148V6.42666C3.57148 4.84858 4.85078 3.56913 6.42859 3.56913H13.5715C15.1493 3.56913 16.4286 4.84858 16.4286 6.42666L16.4286 6.42662ZM6.60512 10.4727C7.79293 11.1575 9.2857 10.2968 9.2857 8.92705C9.2857 7.55733 7.79293 6.69658 6.60512 7.38147C5.4173 8.06635 5.41734 9.78779 6.60512 10.4727ZM13.5714 12.8562H6.42852V14.285H13.5715V12.8562H13.5714ZM14.2857 8.92705C14.2857 7.55733 12.7929 6.69658 11.6051 7.38147C10.4173 8.06635 10.4173 9.78779 11.6051 10.4727C12.7929 11.1575 14.2857 10.2968 14.2857 8.92705Z" fill="#22272E"/>
<path d="M23 0.86L22.14 0L20 2.14L17.86 0L17 0.86L19.14 3L17 5.14L17.86 6L20 3.86L22.14 6L23 5.14L20.86 3L23 0.86Z" fill="#22272E"/>
</svg>
