<svg width="335" height="358" viewBox="0 0 335 358" fill="none" xmlns="http://www.w3.org/2000/svg">
<defs>
<linearGradient id="paint0_linear_410_131" x1="90.5" y1="19" x2="90.5" y2="244" gradientUnits="userSpaceOnUse">
<stop stop-color="#CBDBFF"/>
<stop offset="0.0001" stop-color="#CBDBFF"/>
<stop offset="1" stop-color="#CBDBFF"/>
</linearGradient>
<radialGradient id="paint1_radial_410_131" cx="0" cy="0" r="1" gradientUnits="userSpaceOnUse" gradientTransform="translate(325.607 280.393) rotate(-39.4007) scale(7.73563)">
<stop stop-color="#407BFF"/>
<stop offset="1" stop-color="#407BFF" stop-opacity="0.45"/>
</radialGradient>
<radialGradient id="paint2_radial_410_131" cx="0" cy="0" r="1" gradientUnits="userSpaceOnUse" gradientTransform="translate(211.607 84.3933) rotate(-39.4007) scale(7.73563)">
<stop stop-color="#407BFF"/>
<stop offset="1" stop-color="#407BFF" stop-opacity="0.45"/>
</radialGradient>
<radialGradient id="paint3_radial_410_131" cx="0" cy="0" r="1" gradientUnits="userSpaceOnUse" gradientTransform="translate(26.6067 9.39326) rotate(-39.4007) scale(7.73563)">
<stop stop-color="#407BFF" stop-opacity="0.29"/>
<stop offset="1" stop-color="#407BFF" stop-opacity="0.76"/>
</radialGradient>
<radialGradient id="paint4_radial_410_131" cx="0" cy="0" r="1" gradientUnits="userSpaceOnUse" gradientTransform="translate(46.6067 272.393) rotate(-39.4007) scale(7.73563)">
<stop stop-color="#407BFF" stop-opacity="0.29"/>
<stop offset="1" stop-color="#407BFF" stop-opacity="0.76"/>
</radialGradient>
</defs>
<circle cx="90.5" cy="131.5" r="112.5" fill="url(#paint0_linear_410_131)"/>
<path d="M70.6865 243.547L75.238 240.919C75.238 240.919 77.9479 229.654 76.8698 219.525C75.3487 205.276 65.9718 199.914 62.4052 201.144C58.8386 202.374 57.8071 206.517 63.7106 215.002C67.1898 220.009 71.4674 230.434 70.6865 243.547Z" fill="#407BFF"/>
<g opacity="0.65">
<path opacity="0.65" d="M70.6865 243.547L75.238 240.919C75.238 240.919 77.9479 229.654 76.8698 219.525C75.3487 205.276 65.9718 199.914 62.4052 201.144C58.8386 202.374 57.8071 206.517 63.7106 215.002C67.1898 220.009 71.4674 230.434 70.6865 243.547Z" fill="white"/>
</g>
<path d="M72.5743 238.016H72.5277C72.4459 238.001 72.3735 237.954 72.3265 237.885C72.2795 237.816 72.2618 237.731 72.2771 237.649C74.7714 224.478 70.1849 209.734 64.497 203.592C64.4406 203.53 64.4111 203.448 64.4149 203.365C64.4187 203.281 64.4556 203.202 64.5174 203.146C64.5792 203.089 64.6609 203.06 64.7446 203.064C64.8282 203.068 64.9068 203.104 64.9632 203.166C70.7502 209.419 75.4533 224.426 72.8949 237.76C72.881 237.834 72.841 237.901 72.7822 237.948C72.7234 237.995 72.6496 238.019 72.5743 238.016V238.016Z" fill="white"/>
<path d="M59.2229 250.162C58.5469 250.511 56.7345 248.961 56.2333 248.588C55.3701 247.932 54.6899 247.065 54.2577 246.07C53.7704 244.943 53.6481 243.692 53.908 242.492C54.047 241.859 54.23 241.235 54.4558 240.627C54.6598 240.044 54.8638 239.427 55.0736 238.821C55.3168 238.239 55.4397 237.615 55.4349 236.985C55.3358 235.726 54.2693 234.794 53.2961 233.984C52.2179 233.086 51.1106 231.926 51.1922 230.417C51.3337 229.249 51.8584 228.161 52.6842 227.322C53.4476 226.448 54.3451 225.679 55.0502 224.752C55.6004 224.099 55.9091 223.276 55.9244 222.421C55.8813 221.899 55.7326 221.392 55.4873 220.929C54.9214 219.964 54.4342 218.954 54.0304 217.911C53.7215 216.838 53.8381 215.527 54.7006 214.81C55.0835 214.556 55.5127 214.38 55.9637 214.292C56.4147 214.204 56.8786 214.206 57.3289 214.297C58.1805 214.447 58.9897 214.779 59.7008 215.271C62.0319 216.722 63.2558 219.63 65.7442 220.784C66.7368 221.147 67.7508 221.449 68.7805 221.687C69.2964 221.811 69.7808 222.041 70.2032 222.362C70.6256 222.683 70.9766 223.088 71.234 223.552C72.0732 225.463 70.2258 227.678 70.7795 229.689C71.2748 231.437 72.9416 232.224 73.8157 233.85C74.1733 234.571 74.2897 235.388 74.1479 236.181C73.9972 237.516 73.6021 238.812 72.9824 240.004C72.2867 241.228 71.518 242.409 70.6804 243.541C70.6804 243.541 59.3278 250.121 59.2229 250.162Z" fill="#407BFF"/>
<g opacity="0.3">
<path opacity="0.3" d="M59.2229 250.162C58.5469 250.511 56.7345 248.961 56.2333 248.588C55.3701 247.932 54.6899 247.065 54.2577 246.07C53.7704 244.943 53.6481 243.692 53.908 242.492C54.047 241.859 54.23 241.235 54.4558 240.627C54.6598 240.044 54.8638 239.427 55.0736 238.821C55.3168 238.239 55.4397 237.615 55.4349 236.985C55.3358 235.726 54.2693 234.794 53.2961 233.984C52.2179 233.086 51.1106 231.926 51.1922 230.417C51.3337 229.249 51.8584 228.161 52.6842 227.322C53.4476 226.448 54.3451 225.679 55.0502 224.752C55.6004 224.099 55.9091 223.276 55.9244 222.421C55.8813 221.899 55.7326 221.392 55.4873 220.929C54.9214 219.964 54.4342 218.954 54.0304 217.911C53.7215 216.838 53.8381 215.527 54.7006 214.81C55.0835 214.556 55.5127 214.38 55.9637 214.292C56.4147 214.204 56.8786 214.206 57.3289 214.297C58.1805 214.447 58.9897 214.779 59.7008 215.271C62.0319 216.722 63.2558 219.63 65.7442 220.784C66.7368 221.147 67.7508 221.449 68.7805 221.687C69.2964 221.811 69.7808 222.041 70.2032 222.362C70.6256 222.683 70.9766 223.088 71.234 223.552C72.0732 225.463 70.2258 227.678 70.7795 229.689C71.2748 231.437 72.9416 232.224 73.8157 233.85C74.1733 234.571 74.2897 235.388 74.1479 236.181C73.9972 237.516 73.6021 238.812 72.9824 240.004C72.2867 241.228 71.518 242.409 70.6804 243.541C70.6804 243.541 59.3278 250.121 59.2229 250.162Z" fill="white"/>
</g>
<path d="M65.8144 246.729C65.735 246.722 65.6617 246.683 65.6104 246.622C65.5592 246.561 65.534 246.482 65.5405 246.403C66.6303 234.584 61.7116 221.227 57.842 217.223C57.7871 217.166 57.7572 217.089 57.7589 217.01C57.7605 216.931 57.7935 216.855 57.8507 216.8C57.9079 216.745 57.9846 216.716 58.0638 216.717C58.143 216.719 58.2184 216.752 58.2732 216.809C62.2187 220.889 67.2422 234.473 66.1349 246.455C66.132 246.494 66.1214 246.532 66.1036 246.567C66.0859 246.602 66.0614 246.633 66.0317 246.659C66.0019 246.684 65.9673 246.704 65.9301 246.716C65.8928 246.728 65.8535 246.732 65.8144 246.729Z" fill="white"/>
<path d="M64.6429 232.159H64.5555C61.7884 231.237 58.9298 230.615 56.0294 230.306C55.9905 230.303 55.9527 230.293 55.918 230.275C55.8834 230.257 55.8526 230.232 55.8276 230.203C55.8026 230.173 55.7839 230.138 55.7725 230.101C55.7611 230.064 55.7573 230.024 55.7613 229.986C55.7625 229.946 55.7722 229.906 55.7898 229.87C55.8073 229.834 55.8323 229.802 55.8632 229.776C55.894 229.75 55.9299 229.731 55.9686 229.72C56.0073 229.709 56.0479 229.706 56.0877 229.712C59.0367 230.014 61.9443 230.636 64.7594 231.565C64.8241 231.592 64.8774 231.641 64.9104 231.702C64.9433 231.764 64.9538 231.836 64.94 231.904C64.9263 231.973 64.8892 232.035 64.835 232.079C64.7808 232.124 64.7129 232.148 64.6429 232.148V232.159Z" fill="white"/>
<path d="M313.799 243.547L309.247 240.919C309.247 240.919 306.537 229.654 307.615 219.525C309.136 205.276 318.513 199.914 322.08 201.144C325.647 202.374 326.678 206.517 320.774 215.002C317.295 220.009 313.018 230.434 313.799 243.547Z" fill="#407BFF"/>
<g opacity="0.65">
<path opacity="0.65" d="M313.799 243.547L309.247 240.919C309.247 240.919 306.537 229.654 307.615 219.525C309.136 205.276 318.513 199.914 322.08 201.144C325.647 202.374 326.678 206.517 320.774 215.002C317.295 220.009 313.018 230.434 313.799 243.547Z" fill="white"/>
</g>
<path d="M311.91 238.016H311.957C312.039 238.001 312.111 237.954 312.158 237.885C312.205 237.816 312.223 237.731 312.208 237.649C309.713 224.508 314.3 209.74 319.988 203.598C320.044 203.536 320.074 203.454 320.07 203.37C320.066 203.287 320.029 203.208 319.967 203.152C319.905 203.095 319.824 203.066 319.74 203.07C319.656 203.073 319.578 203.11 319.521 203.172C313.734 209.425 309.031 224.432 311.59 237.766C311.605 237.839 311.645 237.904 311.704 237.95C311.763 237.996 311.836 238.019 311.91 238.016V238.016Z" fill="white"/>
<path d="M325.262 250.162C325.938 250.511 327.751 248.961 328.252 248.588C329.115 247.932 329.795 247.065 330.227 246.07C330.715 244.943 330.837 243.692 330.577 242.492C330.438 241.859 330.255 241.235 330.029 240.627C329.825 240.044 329.621 239.427 329.411 238.821C329.168 238.239 329.045 237.615 329.05 236.985C329.149 235.726 330.216 234.794 331.189 233.984C332.267 233.086 333.374 231.926 333.293 230.417C333.151 229.249 332.627 228.161 331.801 227.322C331.037 226.448 330.14 225.679 329.435 224.752C328.885 224.099 328.576 223.276 328.561 222.421C328.604 221.899 328.752 221.392 328.998 220.929C329.564 219.964 330.051 218.954 330.455 217.911C330.763 216.838 330.647 215.527 329.784 214.81C329.402 214.556 328.972 214.38 328.521 214.292C328.07 214.204 327.606 214.206 327.156 214.297C326.304 214.447 325.495 214.779 324.784 215.271C322.453 216.722 321.229 219.63 318.741 220.784C317.748 221.147 316.734 221.449 315.704 221.687C315.189 221.811 314.704 222.041 314.282 222.362C313.859 222.683 313.508 223.088 313.251 223.552C312.412 225.463 314.259 227.678 313.706 229.689C313.21 231.437 311.543 232.224 310.669 233.85C310.312 234.571 310.195 235.388 310.337 236.181C310.488 237.516 310.883 238.812 311.503 240.004C312.198 241.228 312.967 242.409 313.805 243.541C313.805 243.541 325.157 250.121 325.262 250.162Z" fill="#407BFF"/>
<g opacity="0.3">
<path opacity="0.3" d="M325.262 250.162C325.938 250.511 327.751 248.961 328.252 248.588C329.115 247.932 329.795 247.065 330.227 246.07C330.715 244.943 330.837 243.692 330.577 242.492C330.438 241.859 330.255 241.235 330.029 240.627C329.825 240.044 329.621 239.427 329.411 238.821C329.168 238.239 329.045 237.615 329.05 236.985C329.149 235.726 330.216 234.794 331.189 233.984C332.267 233.086 333.374 231.926 333.293 230.417C333.151 229.249 332.627 228.161 331.801 227.322C331.037 226.448 330.14 225.679 329.435 224.752C328.885 224.099 328.576 223.276 328.561 222.421C328.604 221.899 328.752 221.392 328.998 220.929C329.564 219.964 330.051 218.954 330.455 217.911C330.763 216.838 330.647 215.527 329.784 214.81C329.402 214.556 328.972 214.38 328.521 214.292C328.07 214.204 327.606 214.206 327.156 214.297C326.304 214.447 325.495 214.779 324.784 215.271C322.453 216.722 321.229 219.63 318.741 220.784C317.748 221.147 316.734 221.449 315.704 221.687C315.189 221.811 314.704 222.041 314.282 222.362C313.859 222.683 313.508 223.088 313.251 223.552C312.412 225.463 314.259 227.678 313.706 229.689C313.21 231.437 311.543 232.224 310.669 233.85C310.312 234.571 310.195 235.388 310.337 236.181C310.488 237.516 310.883 238.812 311.503 240.004C312.198 241.228 312.967 242.409 313.805 243.541C313.805 243.541 325.157 250.121 325.262 250.162Z" fill="white"/>
</g>
<path d="M318.671 246.729C318.75 246.722 318.823 246.683 318.875 246.622C318.926 246.561 318.951 246.482 318.945 246.403C317.855 234.584 322.773 221.227 326.643 217.223C326.698 217.166 326.728 217.089 326.726 217.01C326.725 216.931 326.692 216.855 326.634 216.8C326.577 216.745 326.5 216.716 326.421 216.717C326.342 216.719 326.267 216.752 326.212 216.809C322.266 220.889 317.243 234.473 318.35 246.455C318.353 246.494 318.364 246.532 318.381 246.567C318.399 246.602 318.424 246.633 318.453 246.659C318.483 246.684 318.518 246.704 318.555 246.716C318.592 246.728 318.632 246.732 318.671 246.729V246.729Z" fill="white"/>
<path d="M319.871 232.159H319.959C322.716 231.239 325.565 230.618 328.456 230.306C328.494 230.303 328.532 230.293 328.567 230.275C328.602 230.257 328.632 230.232 328.657 230.203C328.682 230.173 328.701 230.138 328.712 230.101C328.724 230.064 328.728 230.024 328.724 229.986C328.722 229.946 328.713 229.906 328.695 229.87C328.678 229.834 328.653 229.802 328.622 229.776C328.591 229.75 328.555 229.731 328.516 229.72C328.478 229.709 328.437 229.706 328.397 229.712C325.448 230.014 322.541 230.636 319.726 231.565C319.661 231.592 319.608 231.641 319.575 231.702C319.542 231.764 319.531 231.836 319.545 231.904C319.559 231.973 319.596 232.035 319.65 232.079C319.704 232.124 319.772 232.148 319.842 232.148L319.871 232.159Z" fill="white"/>
<path d="M192.243 357.615C270.249 357.615 333.485 321.104 333.485 276.066C333.485 231.028 270.249 194.518 192.243 194.518C114.236 194.518 51 231.028 51 276.066C51 321.104 114.236 357.615 192.243 357.615Z" fill="#F5F5F5"/>
<path d="M159.723 290.187L200.011 266.928L150.242 238.197L109.954 261.456L159.723 290.187Z" fill="#E0E0E0"/>
<path d="M217.454 340.871L254.944 319.227L217.454 297.582L179.969 319.227L217.454 340.871Z" fill="#E0E0E0"/>
<path d="M274.653 309.582C292.716 309.582 307.359 301.128 307.359 290.7C307.359 280.272 292.716 271.818 274.653 271.818C256.591 271.818 241.948 280.272 241.948 290.7C241.948 301.128 256.591 309.582 274.653 309.582Z" fill="#E0E0E0"/>
<path d="M104.557 312.933C127.332 312.933 145.795 302.274 145.795 289.126C145.795 275.978 127.332 265.32 104.557 265.32C81.7825 265.32 63.3198 275.978 63.3198 289.126C63.3198 302.274 81.7825 312.933 104.557 312.933Z" fill="#E0E0E0"/>
<path d="M58.6346 124.392C58.565 124.392 58.4966 124.374 58.4364 124.339C58.3741 124.305 58.3223 124.254 58.2864 124.193C58.2505 124.131 58.2319 124.061 58.2324 123.99V110.673C58.2319 110.602 58.2505 110.532 58.2864 110.47C58.3223 110.409 58.3741 110.358 58.4364 110.324L69.8939 103.709C69.9544 103.672 70.0239 103.652 70.0949 103.652C70.1659 103.652 70.2355 103.672 70.296 103.709C70.3568 103.745 70.4071 103.796 70.4419 103.857C70.4766 103.919 70.4947 103.988 70.4941 104.059V117.381C70.4943 117.451 70.4754 117.521 70.4395 117.581C70.4036 117.642 70.352 117.691 70.2901 117.725L58.8385 124.339C58.776 124.374 58.7059 124.392 58.6346 124.392V124.392ZM59.0367 110.901V123.296L69.6899 117.148V104.752L59.0367 110.901Z" fill="#E0E0E0"/>
<path d="M58.6346 147.033C58.5641 147.034 58.4949 147.014 58.4364 146.975C58.3746 146.941 58.323 146.891 58.2871 146.831C58.2512 146.77 58.2323 146.701 58.2324 146.631V133.308C58.2319 133.237 58.2505 133.167 58.2864 133.106C58.3223 133.044 58.3741 132.993 58.4364 132.959L69.8939 126.344C69.9554 126.31 70.0246 126.292 70.0949 126.292C70.1653 126.292 70.2345 126.31 70.296 126.344C70.3568 126.38 70.4071 126.431 70.4419 126.493C70.4766 126.554 70.4947 126.623 70.4941 126.694V140.016C70.4941 140.087 70.4752 140.157 70.4393 140.219C70.4035 140.28 70.352 140.331 70.2901 140.366L58.8385 146.969C58.7782 147.01 58.7073 147.032 58.6346 147.033V147.033ZM59.0367 133.565V145.955L69.6899 139.806V127.387L59.0367 133.565Z" fill="#E0E0E0"/>
<path d="M64.2234 140.803L61.5601 138.239L62.4459 136.351L63.9669 137.808L70.5349 123.914L71.6829 125.016L64.2234 140.803Z" fill="#003478"/>
<path d="M58.6345 169.697C58.565 169.698 58.4966 169.68 58.4364 169.645C58.3749 169.609 58.3237 169.558 58.288 169.497C58.2522 169.436 58.2331 169.366 58.2324 169.295V155.944C58.2325 155.872 58.2514 155.803 58.2872 155.741C58.323 155.68 58.3745 155.629 58.4364 155.594L69.8938 148.979C69.9544 148.949 70.0217 148.934 70.0895 148.937C70.1573 148.939 70.2233 148.959 70.2815 148.994C70.3397 149.029 70.3881 149.078 70.4222 149.136C70.4563 149.195 70.475 149.261 70.4766 149.329V162.651C70.4772 162.723 70.4586 162.793 70.4227 162.854C70.3868 162.916 70.3349 162.966 70.2727 163.001L58.8385 169.616C58.7788 169.66 58.7085 169.688 58.6345 169.697V169.697ZM59.0367 156.206V168.596L69.6899 162.447V150.028L59.0367 156.206Z" fill="#E0E0E0"/>
<path d="M325.647 124.339L314.195 117.725C314.133 117.691 314.082 117.642 314.046 117.581C314.01 117.521 313.991 117.451 313.991 117.381V104.059C313.991 103.988 314.009 103.919 314.043 103.857C314.078 103.796 314.129 103.745 314.189 103.709C314.25 103.672 314.319 103.652 314.39 103.652C314.461 103.652 314.531 103.672 314.591 103.709L326.049 110.324C326.111 110.358 326.163 110.409 326.199 110.47C326.235 110.532 326.253 110.602 326.253 110.673V123.99C326.253 124.061 326.235 124.131 326.199 124.193C326.163 124.254 326.111 124.305 326.049 124.339C325.989 124.374 325.92 124.392 325.851 124.392C325.779 124.392 325.709 124.374 325.647 124.339V124.339ZM314.795 104.752V117.148L325.449 123.296V110.901L314.795 104.752Z" fill="#E0E0E0"/>
<path d="M325.647 146.969L314.195 140.36C314.133 140.325 314.082 140.274 314.046 140.213C314.01 140.151 313.991 140.082 313.991 140.01V126.694C313.991 126.623 314.009 126.554 314.043 126.493C314.078 126.431 314.129 126.38 314.189 126.344C314.251 126.31 314.32 126.292 314.39 126.292C314.461 126.292 314.53 126.31 314.591 126.344L326.049 132.982C326.111 133.017 326.163 133.067 326.199 133.129C326.235 133.19 326.253 133.261 326.253 133.332V146.654C326.253 146.724 326.234 146.794 326.198 146.854C326.162 146.915 326.111 146.964 326.049 146.998C325.99 147.037 325.921 147.058 325.851 147.056C325.776 147.048 325.704 147.018 325.647 146.969V146.969ZM314.795 127.387V139.783L325.449 145.931V133.565L314.795 127.387Z" fill="#E0E0E0"/>
<path d="M325.647 169.616L314.195 163.001C314.133 162.966 314.081 162.916 314.045 162.854C314.009 162.793 313.991 162.723 313.991 162.651V149.329C313.993 149.261 314.012 149.195 314.046 149.136C314.08 149.078 314.128 149.029 314.186 148.994C314.245 148.959 314.311 148.939 314.378 148.937C314.446 148.934 314.513 148.949 314.574 148.979L326.049 155.594C326.111 155.629 326.162 155.68 326.198 155.741C326.234 155.803 326.253 155.872 326.253 155.944V169.266C326.252 169.337 326.233 169.406 326.197 169.468C326.162 169.529 326.11 169.58 326.049 169.616C325.989 169.65 325.92 169.668 325.851 169.668C325.779 169.668 325.709 169.65 325.647 169.616V169.616ZM314.795 150.028V162.418L325.449 168.567V156.177L314.795 150.028Z" fill="#E0E0E0"/>
<path d="M319.58 162.628L316.917 156.987L318.146 155.81L319.924 159.598L326.148 153.595L327.039 155.454L319.58 162.628Z" fill="#003478"/>
<path d="M162.026 109.671L150.568 103.068C150.508 103.033 150.458 102.983 150.423 102.923C150.388 102.862 150.37 102.794 150.37 102.724V89.4018C150.371 89.3308 150.39 89.2612 150.426 89.1999C150.461 89.1386 150.513 89.0876 150.574 89.0521C150.636 89.0179 150.705 89 150.775 89C150.846 89 150.915 89.0179 150.976 89.0521L162.428 95.6842C162.489 95.7199 162.539 95.7711 162.574 95.8325C162.609 95.8938 162.627 95.9633 162.626 96.0338V109.333C162.627 109.403 162.609 109.473 162.574 109.534C162.539 109.596 162.489 109.647 162.428 109.683C162.366 109.719 162.296 109.739 162.224 109.741C162.153 109.735 162.085 109.711 162.026 109.671V109.671ZM151.174 90.0953V102.491L161.822 108.639V96.2669L151.174 90.0953Z" fill="#E0E0E0"/>
<path d="M156.314 103.453L153.651 97.8113L154.881 96.6341L156.658 100.422L162.882 94.4196L163.774 96.2786L156.314 103.453Z" fill="#003478"/>
<path d="M179.788 119.934L168.349 113.319C168.287 113.285 168.235 113.236 168.199 113.175C168.163 113.115 168.144 113.046 168.145 112.975V99.6529C168.144 99.5824 168.162 99.5129 168.197 99.4515C168.232 99.3902 168.282 99.339 168.343 99.3032C168.404 99.269 168.473 99.2511 168.544 99.2511C168.614 99.2511 168.683 99.269 168.745 99.3032L180.202 105.918C180.265 105.952 180.316 106.003 180.352 106.065C180.388 106.126 180.407 106.196 180.406 106.267V119.578C180.403 119.684 180.36 119.786 180.286 119.861C180.211 119.937 180.11 119.982 180.004 119.986C179.929 119.988 179.855 119.97 179.788 119.934V119.934ZM168.931 100.346V112.742L179.585 118.89V106.495L168.931 100.346Z" fill="#E0E0E0"/>
<path d="M197.534 130.185L186.082 123.576C186.021 123.541 185.969 123.49 185.933 123.429C185.897 123.367 185.878 123.297 185.878 123.226V109.904C185.878 109.833 185.896 109.764 185.931 109.703C185.965 109.641 186.016 109.59 186.077 109.554C186.138 109.52 186.207 109.502 186.278 109.502C186.348 109.502 186.417 109.52 186.479 109.554L197.936 116.169C197.998 116.203 198.05 116.254 198.086 116.316C198.122 116.377 198.141 116.447 198.14 116.519V129.841C198.14 129.911 198.121 129.98 198.085 130.041C198.05 130.101 197.998 130.151 197.936 130.185C197.877 130.223 197.808 130.244 197.738 130.243C197.666 130.244 197.595 130.223 197.534 130.185V130.185ZM186.683 110.598V122.993L197.336 129.142V116.752L186.683 110.598Z" fill="#E0E0E0"/>
<path d="M152.165 164.097L119.978 259.416L117.676 260.745L149.869 165.425L152.165 164.097Z" fill="#455A64"/>
<path d="M117.676 260.745L116.54 260.092L148.726 164.767L149.869 165.425L117.676 260.745Z" fill="#263238"/>
<path d="M149.869 242.16L148.726 241.507L116.54 183.358L117.676 184.01L149.869 242.16Z" fill="#263238"/>
<path d="M119.978 182.682L152.165 240.831L149.869 242.16L117.676 184.01L119.978 182.682Z" fill="#455A64"/>
<path d="M160.225 205.923V208.58L194.714 188.667V186.015L160.225 205.923Z" fill="#455A64"/>
<path d="M160.225 205.923V208.58L116.54 183.358V180.7L160.225 205.923Z" fill="#37474F"/>
<path d="M194.714 188.667L162.527 283.992L160.225 285.315L192.417 189.995L194.714 188.667Z" fill="#455A64"/>
<path d="M160.225 285.315L159.088 284.662L191.275 189.337L192.418 189.995L160.225 285.315Z" fill="#263238"/>
<path d="M192.418 266.73L191.275 266.077L159.088 207.927L160.225 208.58L192.418 266.73Z" fill="#263238"/>
<path d="M162.527 207.251L194.714 265.401L192.417 266.73L160.225 208.58L162.527 207.251Z" fill="#455A64"/>
<path d="M151.028 112.999L141.821 118.313C134.132 122.753 127.747 129.139 123.309 136.829C118.872 144.519 116.537 153.242 116.54 162.121V180.718L118.836 182.046L153.325 162.121V114.333L151.028 112.999Z" fill="#5388FF"/>
<path opacity="0.6" d="M151.028 112.999L141.821 118.313C134.132 122.753 127.747 129.139 123.309 136.829C118.872 144.519 116.537 153.242 116.54 162.121V180.718L118.836 182.046L153.325 162.121V114.333L151.028 112.999Z" fill="white"/>
<path opacity="0.6" d="M120.275 143.035L153.324 162.121V114.333L151.028 113.004L141.82 118.319C132.092 123.935 124.511 132.631 120.275 143.035V143.035Z" fill="white"/>
<path d="M118.812 182.029V163.432C118.812 154.556 121.149 145.836 125.588 138.149C130.027 130.462 136.411 124.079 144.099 119.642L153.324 114.333V162.121L118.812 182.029Z" fill="#5388FF"/>
<path opacity="0.7" d="M118.812 182.029V163.432C118.812 154.556 121.149 145.836 125.588 138.149C130.027 130.462 136.411 124.079 144.099 119.642L153.324 114.333V162.121L118.812 182.029Z" fill="white"/>
<path d="M157.928 201.942L118.835 179.371L153.324 159.464L192.417 182.029L157.928 201.942Z" fill="#5388FF"/>
<path opacity="0.8" d="M157.928 201.942L118.835 179.371L153.324 159.464L192.417 182.029L157.928 201.942Z" fill="white"/>
<path d="M157.928 204.6V201.942L118.835 179.371V182.029L157.928 204.6Z" fill="#5388FF"/>
<path opacity="0.6" d="M157.928 204.6V201.942L118.835 179.371V182.029L157.928 204.6Z" fill="white"/>
<path opacity="0.3" d="M131.808 180.461L147.904 189.756L168.599 177.809L152.503 168.514L131.808 180.461Z" fill="#5388FF"/>
<path d="M131.808 179.517L147.904 188.807L168.599 176.86L152.503 167.57L131.808 179.517Z" fill="#FAFAFA"/>
<path d="M159.397 179.657C159.374 179.662 159.35 179.662 159.327 179.657L157.031 178.328C157.009 178.316 156.991 178.298 156.978 178.277C156.965 178.255 156.958 178.231 156.958 178.206C156.958 178.181 156.965 178.156 156.978 178.135C156.991 178.113 157.009 178.096 157.031 178.083L159.327 176.755C159.348 176.743 159.372 176.737 159.397 176.737C159.421 176.737 159.445 176.743 159.467 176.755L161.798 178.083C161.82 178.096 161.838 178.113 161.851 178.135C161.863 178.156 161.87 178.181 161.87 178.206C161.87 178.231 161.863 178.255 161.851 178.277C161.838 178.298 161.82 178.316 161.798 178.328L159.467 179.657C159.444 179.663 159.42 179.663 159.397 179.657ZM157.38 178.188L159.397 179.354L161.413 178.188L159.397 177.023L157.38 178.188Z" fill="#5388FF"/>
<path d="M154.799 182.314H154.729L152.433 180.986C152.411 180.973 152.393 180.955 152.379 180.934C152.366 180.913 152.358 180.888 152.357 180.863C152.357 180.838 152.364 180.813 152.377 180.791C152.39 180.769 152.41 180.752 152.433 180.741L154.729 179.412C154.749 179.398 154.774 179.39 154.799 179.39C154.824 179.39 154.848 179.398 154.869 179.412L157.171 180.741C157.192 180.753 157.21 180.771 157.222 180.793C157.235 180.814 157.241 180.838 157.241 180.863C157.239 180.888 157.232 180.911 157.22 180.933C157.208 180.954 157.191 180.972 157.171 180.986L154.869 182.314C154.846 182.32 154.822 182.32 154.799 182.314ZM152.782 180.846L154.799 182.011L156.815 180.846L154.799 179.68L152.782 180.846Z" fill="#5388FF"/>
<path d="M150.2 184.966C150.177 184.971 150.154 184.971 150.131 184.966L147.799 183.637C147.778 183.625 147.76 183.607 147.748 183.586C147.736 183.564 147.729 183.54 147.729 183.515C147.731 183.49 147.738 183.467 147.75 183.445C147.762 183.424 147.779 183.406 147.799 183.393L150.131 182.064C150.152 182.052 150.176 182.046 150.2 182.046C150.225 182.046 150.249 182.052 150.27 182.064L152.602 183.393C152.622 183.406 152.639 183.424 152.651 183.445C152.663 183.467 152.67 183.49 152.671 183.515C152.672 183.54 152.665 183.564 152.653 183.586C152.641 183.607 152.623 183.625 152.602 183.637L150.27 184.966C150.247 184.972 150.223 184.972 150.2 184.966ZM148.184 183.497L150.2 184.663L152.217 183.497L150.2 182.332L148.184 183.497Z" fill="#5388FF"/>
<path d="M155.929 176.504C155.88 176.504 155.833 176.492 155.789 176.469L148.889 172.489C148.825 172.45 148.778 172.387 148.758 172.315C148.738 172.242 148.748 172.164 148.784 172.098C148.823 172.033 148.886 171.987 148.959 171.968C149.032 171.95 149.11 171.961 149.175 171.999L156.069 175.98C156.124 176.01 156.167 176.057 156.191 176.115C156.216 176.172 156.22 176.236 156.204 176.296C156.188 176.357 156.152 176.41 156.102 176.448C156.053 176.485 155.992 176.505 155.929 176.504V176.504Z" fill="#E0E0E0"/>
<path d="M151.349 179.138C151.3 179.136 151.252 179.122 151.209 179.097L144.315 175.117C144.256 175.077 144.214 175.016 144.198 174.946C144.182 174.877 144.193 174.803 144.228 174.741C144.263 174.679 144.32 174.632 144.388 174.61C144.456 174.588 144.529 174.592 144.594 174.622L151.494 178.608C151.526 178.627 151.554 178.651 151.576 178.681C151.599 178.71 151.615 178.744 151.624 178.78C151.633 178.815 151.635 178.853 151.63 178.889C151.625 178.926 151.612 178.961 151.594 178.993C151.57 179.037 151.535 179.074 151.492 179.1C151.448 179.125 151.399 179.139 151.349 179.138V179.138Z" fill="#E0E0E0"/>
<path d="M146.786 181.761C146.735 181.761 146.685 181.749 146.64 181.726L139.746 177.745C139.681 177.707 139.634 177.644 139.614 177.571C139.595 177.498 139.604 177.421 139.641 177.355C139.659 177.323 139.684 177.295 139.714 177.273C139.743 177.251 139.777 177.234 139.812 177.225C139.848 177.216 139.885 177.214 139.922 177.219C139.959 177.225 139.994 177.237 140.025 177.256L146.926 181.236C146.99 181.274 147.037 181.335 147.056 181.407C147.076 181.479 147.067 181.556 147.03 181.621C147.006 181.664 146.97 181.699 146.927 181.724C146.884 181.748 146.835 181.761 146.786 181.761Z" fill="#E0E0E0"/>
<path d="M153.324 114.327L192.417 136.892L190.115 138.221L151.028 115.65L153.324 114.327Z" fill="#5388FF"/>
<path opacity="0.8" d="M153.324 114.327L192.417 136.892L190.115 138.221L151.028 115.65L153.324 114.327Z" fill="white"/>
<path d="M151.028 115.65V160.792L190.115 183.357V138.221L151.028 115.65Z" fill="#5388FF"/>
<path opacity="0.6" d="M151.028 115.65V160.792L190.115 183.357V138.221L151.028 115.65Z" fill="white"/>
<path d="M192.417 136.893L183.209 142.208C175.521 146.648 169.137 153.035 164.7 160.724C160.262 168.414 157.927 177.137 157.928 186.015V204.612L160.224 205.934L194.713 186.015V138.227L192.417 136.893Z" fill="#5388FF"/>
<path opacity="0.6" d="M192.417 136.893L183.209 142.208C175.521 146.648 169.137 153.035 164.7 160.724C160.262 168.414 157.927 177.137 157.928 186.015V204.612L160.224 205.934L194.713 186.015V138.227L192.417 136.893Z" fill="white"/>
<path opacity="0.6" d="M161.664 166.929L194.714 186.015V138.227L192.417 136.898L183.209 142.213C173.482 147.83 165.901 156.526 161.664 166.929V166.929Z" fill="white"/>
<path d="M160.225 205.923V187.326C160.225 178.45 162.562 169.73 167.001 162.043C171.439 154.356 177.824 147.973 185.511 143.536L194.714 138.227V186.015L160.225 205.923Z" fill="#5388FF"/>
<path opacity="0.8" d="M160.225 205.923V187.326C160.225 178.45 162.562 169.73 167.001 162.043C171.439 154.356 177.824 147.973 185.511 143.536L194.714 138.227V186.015L160.225 205.923Z" fill="white"/>
<path d="M175.295 167.25L174.252 169.93V171.446L174.095 171.539V170.006L173.046 168.537L173.244 168.427L174.002 169.517L174.176 169.79L174.34 169.324L175.103 167.354L175.295 167.25Z" fill="#455A64"/>
<path d="M176.648 170.123C175.873 170.566 175.482 170.123 175.482 168.957C175.44 168.467 175.525 167.975 175.73 167.528C175.934 167.081 176.25 166.694 176.648 166.404C177.423 165.962 177.813 166.469 177.813 167.57C177.861 168.06 177.778 168.555 177.574 169.003C177.369 169.451 177.049 169.837 176.648 170.123V170.123ZM176.648 166.626C176.297 166.885 176.019 167.229 175.839 167.626C175.659 168.023 175.585 168.459 175.622 168.893C175.622 169.779 175.913 170.362 176.648 169.93C176.996 169.681 177.274 169.345 177.454 168.956C177.633 168.566 177.709 168.137 177.673 167.71C177.673 166.83 177.394 166.2 176.648 166.62V166.626Z" fill="#455A64"/>
<path d="M180.424 164.295V166.253C180.424 167.372 180.086 168.135 179.363 168.555C178.641 168.975 178.297 168.602 178.297 167.483V165.519L178.448 165.431V167.413C178.448 168.304 178.705 168.741 179.363 168.363C179.683 168.143 179.937 167.84 180.097 167.487C180.258 167.134 180.318 166.743 180.272 166.358V164.382L180.424 164.295Z" fill="#455A64"/>
<path d="M183.116 166.34L182.942 166.445L182.615 165.688C182.47 165.338 182.248 165.262 181.863 165.484L181.147 165.897V167.454L180.995 167.541V163.939L182.097 163.304C182.563 163.036 182.918 163.153 182.918 163.84C182.919 164.088 182.868 164.332 182.768 164.558C182.667 164.784 182.52 164.987 182.336 165.152V165.152C182.545 165.152 182.679 165.297 182.767 165.495L183.116 166.34ZM182.108 163.508L181.141 164.091V165.682V165.717L182.073 165.181C182.285 165.054 182.461 164.875 182.584 164.661C182.706 164.446 182.771 164.204 182.773 163.957C182.773 163.362 182.481 163.287 182.108 163.508Z" fill="#455A64"/>
<path d="M168.401 185.164L166.228 178.311L167.888 177.355L168.827 180.659C169.2 181.959 169.351 182.501 169.357 182.53H169.386C169.386 182.489 169.538 181.778 169.905 180.088L170.855 175.659L172.434 174.744L170.26 184.109L168.401 185.164Z" fill="#5388FF"/>
<path d="M175.715 172.669C177.58 171.597 178.926 172.559 178.926 175.035C178.926 177.512 177.58 180.03 175.715 181.102C173.85 182.175 172.51 181.219 172.51 178.771C172.51 176.323 173.856 173.777 175.715 172.669ZM175.715 179.261C176.267 178.89 176.716 178.387 177.022 177.797C177.327 177.208 177.479 176.55 177.463 175.886C177.463 174.424 176.729 173.922 175.715 174.499C175.162 174.872 174.711 175.378 174.406 175.971C174.1 176.564 173.949 177.224 173.967 177.891C173.978 179.336 174.707 179.843 175.715 179.261Z" fill="#5388FF"/>
<path d="M182.545 170.7V176.999L181.089 177.844V171.539L179.224 172.617V170.81L184.405 167.815V169.627L182.545 170.7Z" fill="#5388FF"/>
<path d="M185.162 167.366L189.591 164.808V166.614L186.619 168.328V169.72L188.81 168.456V170.076L186.619 171.341V172.821L189.638 171.072V172.885L185.162 175.467V167.366Z" fill="#5388FF"/>
<path d="M172.388 189.016L172.242 189.098V185.951L172.055 186.674L171.164 189.768L170.266 187.693L170.08 187.198V190.357L169.928 190.438V186.837L170.068 186.761L171.03 188.981L171.17 189.337L171.304 188.824L172.271 185.491L172.405 185.409L172.388 189.016Z" fill="#455A64"/>
<path d="M175.191 187.396L175.022 187.495L174.713 186.72L173.198 187.594L172.895 188.719L172.726 188.818L173.891 184.546L174.025 184.465L175.191 187.396ZM174.66 186.545L174.078 185.024L174.008 184.75L173.926 185.106L173.343 187.32V187.355L174.66 186.545Z" fill="#455A64"/>
<path d="M177.091 182.885L176.112 183.468V186.854L175.96 186.942V183.55L174.981 184.133V183.946L177.091 182.693V182.885Z" fill="#455A64"/>
<path d="M179.317 181.603L178.338 182.186V185.572L178.186 185.66V182.244L177.213 182.827V182.635L179.299 181.429L179.317 181.603Z" fill="#455A64"/>
<path d="M181.502 183.754L179.684 184.803V181.201L181.502 180.152V180.345L179.818 181.312V182.781V182.81L181.339 181.93V182.122L179.818 183.002V184.476V184.506L181.502 183.532V183.754Z" fill="#455A64"/>
<path d="M184.142 182.227L183.967 182.332L183.641 181.574C183.495 181.224 183.274 181.149 182.889 181.37L182.173 181.784V183.34L182.021 183.427V179.826L183.122 179.191C183.589 178.923 183.944 179.039 183.944 179.727C183.945 179.974 183.894 180.219 183.793 180.445C183.693 180.671 183.546 180.873 183.361 181.038V181.038C183.571 181.038 183.711 181.184 183.793 181.382L184.142 182.227ZM183.134 179.4L182.167 179.954V181.545V181.58L183.099 181.044C183.311 180.917 183.487 180.738 183.61 180.524C183.732 180.309 183.797 180.067 183.798 179.82C183.798 179.249 183.501 179.185 183.134 179.4Z" fill="#455A64"/>
<path d="M185.36 181.568C185.214 181.679 185.039 181.745 184.856 181.76C184.674 181.774 184.49 181.736 184.329 181.65L184.451 181.417C184.588 181.5 184.747 181.541 184.908 181.535C185.068 181.529 185.224 181.475 185.354 181.382C185.59 181.267 185.792 181.092 185.94 180.876C186.088 180.659 186.178 180.408 186.199 180.146C186.199 179.82 186.013 179.651 185.617 179.733L185.121 179.832C184.632 179.919 184.369 179.832 184.369 179.365C184.393 179.056 184.496 178.757 184.669 178.499C184.841 178.241 185.077 178.031 185.354 177.891C185.482 177.793 185.636 177.734 185.797 177.724C185.958 177.714 186.118 177.751 186.258 177.833L186.141 178.06C186.027 177.98 185.89 177.937 185.751 177.937C185.611 177.937 185.475 177.98 185.36 178.06C185.134 178.168 184.939 178.332 184.794 178.536C184.648 178.74 184.556 178.977 184.527 179.226C184.527 179.61 184.795 179.628 185.22 179.546L185.675 179.459C186.188 179.365 186.374 179.599 186.374 180.001C186.364 180.33 186.264 180.649 186.085 180.926C185.907 181.202 185.656 181.424 185.36 181.568V181.568Z" fill="#455A64"/>
<path d="M186.445 160.687L186.882 161.614L187.861 161.241L187.15 162.564L187.319 163.764L186.445 163.66L185.57 164.773L185.739 163.38L185.034 162.873L186.007 162.121L186.445 160.687Z" fill="#5388FF"/>
<path d="M169.631 170.396L169.194 171.83L168.215 172.582L168.92 173.089L168.757 174.482L169.631 173.369L170.499 173.474L170.336 172.273L171.041 170.95L170.068 171.323L169.631 170.396Z" fill="#5388FF"/>
<path d="M242.024 268.939L219.651 337.042L217.448 338.319L239.821 270.209L242.024 268.939Z" fill="#455A64"/>
<path d="M217.448 338.319L216.358 337.689L238.725 269.586L239.821 270.209L217.448 338.319Z" fill="#263238"/>
<path d="M248.318 320.491L247.228 319.868L225.181 277.861L226.277 278.49L248.318 320.491Z" fill="#263238"/>
<path d="M228.48 277.214L250.526 319.221L248.323 320.491L226.277 278.485L228.48 277.214Z" fill="#455A64"/>
<path d="M211.16 251.117L188.787 319.221L186.584 320.491L208.957 252.388L211.16 251.117Z" fill="#455A64"/>
<path d="M186.584 320.491L185.494 319.868L207.867 251.758L208.957 252.388L186.584 320.491Z" fill="#263238"/>
<path d="M217.454 302.67L216.364 302.041L194.317 260.034L195.413 260.663L217.454 302.67Z" fill="#263238"/>
<path d="M197.616 259.387L219.663 301.394L217.454 302.67L195.413 260.663L197.616 259.387Z" fill="#455A64"/>
<path d="M215.251 286.125L179.969 265.757L217.454 244.112L252.741 264.48L215.251 286.125Z" fill="#455A64"/>
<path d="M215.251 288.672V286.125L252.741 264.48V267.027L215.251 288.672Z" fill="#37474F"/>
<path d="M215.251 288.672V286.125L179.969 265.757L179.981 268.292L215.251 288.672Z" fill="#263238"/>
<path d="M215.268 283.578V253.029L185.22 235.738V266.287L215.268 283.578Z" fill="#5388FF"/>
<path d="M215.268 253.029L247.496 234.409V264.964L215.268 283.578V253.029Z" fill="#5388FF"/>
<path opacity="0.15" d="M215.268 253.029L247.496 234.409V264.964L215.268 283.578V253.029Z" fill="white"/>
<path d="M215.268 253.029L184.375 235.248L217.448 216.139L248.335 233.92L215.268 253.029Z" fill="#5388FF"/>
<path opacity="0.3" d="M215.268 253.029L184.375 235.248L217.448 216.139L248.335 233.92L215.268 253.029Z" fill="white"/>
<path d="M215.268 253.029V258.484L184.375 240.709V235.248L215.268 253.029Z" fill="#5388FF"/>
<path d="M248.335 233.92L215.268 253.029V258.484L248.335 239.38V233.92Z" fill="#5388FF"/>
<path opacity="0.15" d="M248.335 233.92L215.268 253.029V258.484L248.335 239.38V233.92Z" fill="white"/>
<path opacity="0.1" d="M185.249 241.193V242.393L215.297 259.684V258.484L185.249 241.193ZM247.525 239.864L215.297 258.513V259.713L247.525 241.064V239.864Z" fill="black"/>
<path d="M206.427 237.748L210.839 240.295L226.277 231.379L221.865 228.838L206.427 237.748Z" fill="#5388FF"/>
<path opacity="0.2" d="M225.175 232.02L226.277 231.379L221.865 228.838L221.871 230.12L225.175 232.02Z" fill="black"/>
<path opacity="0.1" d="M207.535 238.384L221.865 230.108V228.838L206.427 237.748L207.535 238.384Z" fill="black"/>
<path d="M222.139 270.71L220.059 264.137L221.65 263.222L222.547 266.386C222.908 267.633 223.048 268.135 223.054 268.181H223.083C223.083 268.14 223.229 267.459 223.579 265.85L224.488 261.602L226.003 260.727L223.922 269.708L222.139 270.71Z" fill="#FAFAFA"/>
<path d="M229.156 258.729C230.939 257.703 232.227 258.624 232.227 261.001C232.227 263.379 230.939 265.786 229.156 266.829C227.372 267.872 226.079 266.934 226.079 264.562C226.079 262.19 227.372 259.76 229.156 258.729ZM229.156 265.052C229.683 264.695 230.112 264.211 230.404 263.645C230.695 263.078 230.839 262.448 230.822 261.811C230.822 260.413 230.123 259.929 229.156 260.483C228.627 260.841 228.197 261.327 227.906 261.895C227.614 262.464 227.471 263.096 227.489 263.735C227.489 265.122 228.188 265.611 229.156 265.052Z" fill="#FAFAFA"/>
<path d="M235.706 256.834V262.878L234.302 263.688V257.645L232.524 258.676V256.928L237.484 254.06V255.809L235.706 256.834Z" fill="#FAFAFA"/>
<path d="M238.212 253.658L242.46 251.205V252.953L239.611 254.596V255.931L241.709 254.719V256.275L239.611 257.487V258.909L242.524 257.236V258.985L238.235 261.462L238.212 253.658Z" fill="#FAFAFA"/>
<path d="M225.77 229.56L224.383 232.451L210.839 240.295L208.013 238.663L215.6 222.643L225.77 229.56Z" fill="#FAFAFA"/>
<path d="M295.395 276.002C295.663 277.319 296.158 278.84 296.56 281.527C296.962 284.213 296.339 284.324 298.274 291.061C299.439 295.1 299.224 296.708 296.525 300.118C293.611 303.772 290.587 303.031 288.605 298.987C286.915 295.531 287.014 293.923 287.009 290.338C287.003 286.754 286.968 285.711 286.787 282.867C286.63 280.361 286.857 278.648 286.688 276.731L295.395 276.002Z" fill="#37474F"/>
<path d="M296.292 285.822C295.75 282.325 295.622 278.753 295.424 276.404C294.981 271.159 296.153 260.757 295.331 252.848L280.697 251.514C281.187 254.597 285.231 268.537 286.7 276.952C286.7 276.952 287.283 288.374 288.081 293.404C288.116 293.559 288.184 293.705 288.282 293.831C288.38 293.956 288.505 294.059 288.647 294.13C288.789 294.201 288.946 294.24 289.105 294.244C289.264 294.247 289.422 294.215 289.567 294.15C291.675 293.305 293.999 293.164 296.193 293.748C296.347 293.806 296.512 293.827 296.675 293.809C296.838 293.791 296.995 293.735 297.132 293.645C297.27 293.556 297.384 293.435 297.466 293.293C297.548 293.15 297.595 292.991 297.604 292.827C297.575 290.968 296.7 288.427 296.292 285.822Z" fill="#B16668"/>
<path d="M254.309 248.687C254.851 259.469 254.962 267.692 254.845 272.336C254.85 274.633 254.417 276.91 253.569 279.044C252.794 281.014 251.448 283.858 250.329 285.111C250.329 285.111 246.721 288.975 247.415 289.336C248.108 289.697 255.545 290.158 258.488 289.336C261.431 288.514 262.567 286.037 263.686 281.521C264.805 277.004 265.807 270.39 265.807 270.39C265.677 270.146 265.581 269.885 265.522 269.615C265.166 268.292 266.577 261.671 266.961 258.379L254.309 248.687Z" fill="#B16668"/>
<path d="M268.453 277.045C268.336 278.164 267.491 279.487 267.206 281.235C266.87 283.227 266.734 285.248 266.798 287.267C266.862 289.738 266.868 290.088 266.868 290.088H266.104C266.104 290.088 266.011 286.521 265.976 284.953C265.941 283.386 265.183 282.01 264.432 281.859C264.432 281.876 264.746 277.138 268.453 277.045Z" fill="#263238"/>
<path d="M265.708 269.778C266.151 271.043 267.293 272.692 267.952 273.916C268.341 274.618 268.582 275.394 268.657 276.194C268.651 276.62 268.557 277.04 268.381 277.428C268.206 277.816 267.953 278.164 267.637 278.45C267.025 279.032 266.582 279.516 265.848 280.198C264.315 281.608 263.674 282.85 262.654 286.119C262.072 288.066 261.075 289.831 259.35 290.781C258.004 291.516 254.309 292.763 249.769 292.57C245.999 292.413 244.524 290.77 245.987 289.354C247.45 287.937 249.891 285.426 250.329 285.128C251.699 285.134 253.056 285.401 254.326 285.915C256.413 286.871 257.054 288.112 259.292 287.081C261.32 286.125 262.392 282.634 262.567 277.08C262.759 270.99 265.708 269.778 265.708 269.778Z" fill="#37474F"/>
<path d="M285.185 175.432C285.447 176.807 285.738 178.089 286.239 178.771C289.293 182.944 292.411 187.991 293.017 195.8C294.486 214.641 294.55 232.836 294.55 232.836C294.701 234.496 296.694 238.081 296.444 248.122C296.252 255.698 295.698 267.278 295.698 267.278C295.698 267.278 289.043 269.982 284.31 268.228C282.358 261.025 279.234 243.885 277.317 235.633C275.283 226.944 273.884 216.454 273.884 216.454L269.706 232.771C270.349 236.561 270.514 240.416 270.195 244.246C269.659 249.311 266.407 264.486 266.407 264.486C266.407 264.486 258.505 266.182 254.42 263.397C254.42 263.397 253.429 238.18 253.353 232.614C253.277 227.049 252.409 196.377 255.725 181.802C255.877 181.126 256.337 176.516 256.337 176.516C260.329 179.762 279.905 179.051 285.185 175.432Z" fill="#37474F"/>
<path d="M295.826 264.486C293.781 266.392 286.076 267.004 283.588 265.71L284.584 269.79C286.491 270.547 288.555 270.819 290.593 270.582C294.212 270.227 295.704 268.612 295.704 268.612L295.826 264.486Z" fill="#455A64"/>
<path d="M266.967 261.969C264.834 262.703 256.57 262.202 254.216 260.803L254.362 264.183C256.532 265.114 258.827 265.719 261.174 265.978C264.776 266.316 266.314 265.291 266.314 265.291L266.967 261.969Z" fill="#455A64"/>
<path d="M273.867 216.454L271.285 197.834C269.472 197.876 267.674 197.5 266.03 196.734C264.387 195.967 262.942 194.832 261.809 193.416C261.809 193.416 261.716 198.079 269.385 200.124L272.416 217.281L269.671 232.76L273.867 216.454Z" fill="#263238"/>
<path d="M238.952 163.17C236.79 161.544 235.147 160.332 232.647 156.34C231.95 155.395 231.135 154.543 230.222 153.805C229.354 152.979 228.642 152.004 228.119 150.926C227.891 150.384 226.51 150.967 226.778 152.843C226.982 154.236 227.827 155.507 228.165 156.299C227.431 156.299 226.254 156.2 224.668 156.299C223.083 156.398 219.907 156.229 220.49 158.047C220.618 158.455 220.95 158.799 220.962 159.213C220.948 159.41 220.915 159.605 220.863 159.796C220.793 160.177 220.826 160.569 220.961 160.932C221.095 161.295 221.325 161.616 221.626 161.859C221.776 161.949 221.906 162.07 222.005 162.214C222.168 162.529 222.046 162.914 222.116 163.246C222.206 163.626 222.397 163.974 222.67 164.254C223.06 164.674 223.188 164.528 223.579 164.948C223.835 165.221 223.888 165.828 224.488 166.23C224.937 166.527 226.015 166.562 227.163 166.544C228.311 166.527 228.964 166.906 230.49 166.859C231.691 166.824 232.822 167.5 234.82 169.552C239.296 173.817 239.867 175.21 243.883 178.468C244.237 178.761 244.607 179.036 244.99 179.29C248.79 181.906 250.293 179.873 253.295 174.587C256.984 168.089 258.895 164.406 258.895 164.406L264.816 146.753C261.168 147.167 256.879 151.293 253.638 155.973C252.117 158.17 245.818 167.844 245.818 167.844C243.673 166.509 241.12 164.796 238.952 163.17Z" fill="#B16668"/>
<path d="M226.207 157.377C226.368 157.422 226.524 157.48 226.674 157.552C226.829 157.628 226.97 157.728 227.093 157.849H227.047C227.776 157.708 228.533 157.826 229.185 158.182C229.349 158.281 229.494 158.407 229.617 158.555C229.754 158.717 229.825 158.925 229.815 159.137C229.809 159.25 229.772 159.358 229.71 159.452C229.631 159.539 229.527 159.6 229.413 159.627C229.226 159.668 229.057 159.691 228.882 159.726C228.538 159.796 228.2 159.912 227.845 159.994C227.486 160.076 227.117 160.104 226.749 160.076C226.029 160.023 225.318 159.88 224.634 159.65C224.983 159.731 225.337 159.786 225.694 159.813C226.05 159.854 226.4 159.895 226.755 159.901C227.104 159.905 227.452 159.868 227.792 159.79C228.136 159.708 228.474 159.586 228.83 159.504C229.01 159.464 229.197 159.435 229.354 159.394C229.512 159.353 229.558 159.295 229.582 159.12C229.611 158.828 229.348 158.537 229.069 158.374C228.459 158.026 227.755 157.881 227.058 157.96H227.029C226.926 157.838 226.801 157.735 226.662 157.657C226.519 157.551 226.367 157.457 226.207 157.377V157.377Z" fill="#9A4A4D"/>
<path d="M228.701 159.627C228.854 159.576 229.019 159.577 229.172 159.628C229.324 159.68 229.456 159.779 229.546 159.912C229.635 160.057 229.679 160.224 229.673 160.393C229.667 160.562 229.61 160.725 229.512 160.862C229.207 161.431 228.732 161.89 228.154 162.174C227.844 162.269 227.521 162.308 227.198 162.29C226.887 162.29 226.578 162.279 226.271 162.255C225.654 162.214 225.042 162.174 224.424 162.104C225.042 162.075 225.659 162.069 226.277 162.063C226.878 162.114 227.483 162.074 228.072 161.946C228.34 161.827 228.585 161.661 228.795 161.457C229.01 161.247 229.206 161.016 229.377 160.769C229.469 160.659 229.526 160.525 229.541 160.383C229.557 160.241 229.53 160.098 229.465 159.971C229.392 159.838 229.279 159.733 229.141 159.671C229.003 159.609 228.849 159.593 228.701 159.627V159.627Z" fill="#9A4A4D"/>
<path d="M228.433 161.888C228.566 161.829 228.71 161.798 228.856 161.798C229.001 161.798 229.145 161.829 229.278 161.888C229.348 161.924 229.41 161.975 229.458 162.038C229.506 162.1 229.54 162.172 229.558 162.249C229.584 162.4 229.584 162.554 229.558 162.704C229.457 162.983 229.286 163.232 229.063 163.427C228.87 163.656 228.626 163.838 228.352 163.957C228.066 164.012 227.773 164.028 227.483 164.004C227.21 164.021 226.937 164.052 226.667 164.097C226.119 164.184 225.566 164.277 225.012 164.353C225.548 164.178 226.085 164.038 226.632 163.916C226.91 163.847 227.192 163.803 227.477 163.782C227.745 163.797 228.013 163.777 228.276 163.724C228.516 163.623 228.731 163.47 228.905 163.275C229.105 163.105 229.266 162.894 229.377 162.657C229.401 162.532 229.401 162.404 229.377 162.279C229.37 162.218 229.348 162.161 229.315 162.11C229.282 162.06 229.237 162.018 229.185 161.987C228.956 161.859 228.687 161.823 228.433 161.888V161.888Z" fill="#9A4A4D"/>
<path d="M228.55 163.718C228.608 163.74 228.66 163.773 228.704 163.816C228.749 163.86 228.783 163.911 228.806 163.968C228.852 164.087 228.866 164.216 228.847 164.341C228.796 164.572 228.716 164.795 228.608 165.006C228.55 165.11 228.486 165.211 228.416 165.309C228.344 165.411 228.25 165.497 228.142 165.559C227.947 165.684 227.738 165.784 227.519 165.857L228.031 165.408C228.11 165.342 228.179 165.266 228.235 165.181C228.293 165.089 228.346 164.993 228.393 164.895C228.498 164.709 228.588 164.514 228.661 164.312C228.705 164.214 228.718 164.104 228.698 163.998C228.679 163.892 228.627 163.794 228.55 163.718V163.718Z" fill="#9A4A4D"/>
<path d="M229.698 159.108C229.605 160.128 229.915 161.145 230.562 161.939C231.209 162.733 232.142 163.242 233.16 163.357C232.413 163.38 231.672 163.218 231.004 162.885C230.45 162.626 229.964 162.241 229.587 161.76L229.477 162.226C229.331 161.981 229.261 161.771 228.597 161.836C228.895 161.559 229.157 161.245 229.378 160.903C229.576 160.518 229.861 159.912 229.045 159.551C229.215 159.53 229.382 159.487 229.541 159.423C229.602 159.4 229.653 159.355 229.682 159.297C229.711 159.238 229.717 159.171 229.698 159.108V159.108Z" fill="#9A4A4D"/>
<path d="M265.312 146.246C260.148 147.19 258.318 147.231 252.992 155.856C249.711 161.154 245.725 167.617 245.725 167.617L241.902 165.286C242.613 166.002 244.005 169.691 243.067 171.964C242.464 173.358 241.395 174.497 240.042 175.187C241.351 176.553 242.751 177.828 244.233 179.004C246.307 180.584 247.409 180.823 248.668 180.45C249.926 180.077 251.156 178.701 254.21 175.082C257.351 171.358 261.028 165.874 261.028 165.874L265.312 146.246Z" fill="#3362CC"/>
<path opacity="0.55" d="M265.312 146.246C260.148 147.19 258.318 147.231 252.992 155.856C249.711 161.154 245.725 167.617 245.725 167.617L241.902 165.286C242.613 166.002 244.005 169.691 243.067 171.964C242.464 173.358 241.395 174.497 240.042 175.187C241.351 176.553 242.751 177.828 244.233 179.004C246.307 180.584 247.409 180.823 248.668 180.45C249.926 180.077 251.156 178.701 254.21 175.082C257.351 171.358 261.028 165.874 261.028 165.874L265.312 146.246Z" fill="white"/>
<path opacity="0.35" d="M245.724 167.617C247.758 168.858 249.71 171.492 250.054 173.048C250.047 171.74 249.709 170.455 249.07 169.313C248.43 168.171 247.512 167.211 246.4 166.521L245.724 167.617Z" fill="#3362CC"/>
<path opacity="0.35" d="M241.942 176.97C242.284 176.79 242.606 176.575 242.904 176.329C243.513 175.846 244.027 175.253 244.419 174.581C245.154 173.271 245.437 171.755 245.223 170.268C245.223 170.193 245.293 170.193 245.311 170.268C245.698 171.853 245.451 173.526 244.623 174.931C244.201 175.632 243.653 176.25 243.009 176.755C242.746 176.957 242.47 177.14 242.181 177.303L241.896 177.046L241.942 176.97Z" fill="#3362CC"/>
<path d="M276.635 144.142L284.887 146.707C286.303 147.19 291.659 150.46 289.788 158.514C289.171 161.183 288.326 164.924 287.562 168.66C286.979 171.515 289.118 177.011 290.843 185.764C290.843 185.764 283.768 191.394 269.706 189.809C258.977 188.597 254.944 183.981 254.944 183.981C254.839 175.63 256.611 170.344 257.403 167.162C257.403 167.162 256.203 165.664 256.133 162.267C256.069 158.706 258.207 155.588 261.378 151.555C263.084 149.348 265.039 147.345 267.206 145.588L276.635 144.142Z" fill="#FAFAFA"/>
<path d="M258.242 134.084C257.887 132.918 256.547 132.79 256.261 131.17C255.975 129.55 256.844 128.501 258.138 127.79C259.431 127.079 259.705 125.791 259.443 123.127C259.181 120.464 261.081 118.861 263.278 118.535C264.362 118.378 265.609 118.488 266.384 117.696C266.681 117.316 266.926 116.899 267.112 116.454C268.161 114.52 270.108 113.675 272.713 113.692C273.882 113.678 275.043 113.895 276.128 114.333C277.375 114.809 278.5 115.557 279.421 116.524C280.848 116.297 283.535 116.606 284.992 117.888C285.627 118.339 286.165 118.913 286.574 119.576C286.984 120.238 287.256 120.976 287.376 121.746C287.62 123.325 287.475 124.223 288.157 125.08C289.544 126.828 291.274 126.828 292.061 128.297C293.18 130.395 290.424 132.195 291.828 134.707C292.12 135.199 292.297 135.75 292.347 136.32C292.397 136.89 292.318 137.464 292.116 137.999C291.914 138.534 291.594 139.017 291.18 139.411C290.766 139.806 290.268 140.102 289.724 140.278C288.5 140.745 287.451 140.115 285.703 140.768C283.955 141.421 283.885 142.755 281.659 143.682C279.84 144.41 278.284 143.099 276.81 142.907C274.793 142.674 275.44 143.338 273.453 142.062C272.771 141.625 272.363 140.844 271.676 140.413C269.496 139.107 268.762 139.83 266.139 140.762C265.451 141.013 263.167 141.648 261.611 139.923C260.681 138.792 260.199 137.359 260.259 135.896C259.816 137.353 256.471 137.324 256.133 135.01C256.282 135.245 256.511 135.419 256.777 135.5C257.044 135.581 257.33 135.564 257.585 135.452C257.84 135.34 258.047 135.141 258.167 134.89C258.288 134.639 258.315 134.353 258.242 134.084V134.084Z" fill="#263238"/>
<path d="M279.788 142.365C279.788 141.036 280.056 137.656 280.056 137.656C280.546 138.903 282.807 138.95 283.914 137.411C285.313 135.465 285.307 133.151 284.357 131.741C283.302 130.179 280.796 130.138 279.695 132.557C278.04 132.866 277.416 130.33 278.774 128.005C278.803 122.451 271.256 124.322 269.735 119.333C268.43 119.573 267.198 120.11 266.133 120.901C265.068 121.692 264.199 122.717 263.592 123.897C263.01 125.132 262.911 125.89 263.05 128.39C263.103 129.363 262.433 130.494 262.24 131.782C261.349 137.685 263.085 140.04 265.02 141.188C266.052 141.77 267.392 142.196 269.857 142.353C269.857 142.353 269.811 143.46 269.764 144.195C269.717 144.929 269.636 145.25 268.75 145.36C268.447 145.401 268.109 145.424 268.109 145.424C268.109 145.424 264.03 149.189 269.403 150.174C277.422 151.643 280.627 146.753 280.983 145.512C279.747 145.255 279.73 144.591 279.788 142.365Z" fill="#B16668"/>
<path d="M272.247 135.896L269.286 136.689C269.326 136.889 269.406 137.08 269.521 137.248C269.637 137.417 269.786 137.56 269.959 137.669C270.132 137.778 270.325 137.851 270.527 137.883C270.729 137.914 270.935 137.905 271.134 137.854C271.539 137.74 271.884 137.47 272.092 137.104C272.3 136.737 272.356 136.303 272.247 135.896Z" fill="#9A4A4D"/>
<path d="M272.031 136.549C271.642 136.52 271.256 136.626 270.937 136.851C270.618 137.075 270.387 137.403 270.283 137.778C270.56 137.866 270.857 137.866 271.134 137.778C271.415 137.698 271.669 137.541 271.867 137.325C272.064 137.109 272.198 136.842 272.253 136.555C272.177 136.572 272.084 136.555 272.031 136.549Z" fill="#F28F8F"/>
<path d="M264.536 126.95L266.71 126.047C266.657 125.904 266.575 125.774 266.47 125.664C266.365 125.553 266.239 125.466 266.099 125.406C265.959 125.346 265.808 125.315 265.655 125.315C265.503 125.315 265.352 125.346 265.212 125.406C264.925 125.53 264.695 125.758 264.57 126.045C264.445 126.332 264.432 126.655 264.536 126.95V126.95Z" fill="#263238"/>
<path d="M275.114 127.673L273.004 126.572C273.073 126.433 273.169 126.309 273.286 126.208C273.402 126.107 273.538 126.029 273.685 125.981C273.832 125.933 273.988 125.914 274.142 125.927C274.296 125.939 274.446 125.982 274.584 126.053C274.859 126.207 275.067 126.459 275.165 126.759C275.263 127.06 275.245 127.386 275.114 127.673V127.673Z" fill="#263238"/>
<path d="M269.846 142.342C273.593 142.143 277.812 140.821 279.17 138.787C279.17 138.787 278.622 140.855 277.101 141.73C274.867 142.953 272.357 143.583 269.811 143.56L269.846 142.342Z" fill="#9A4A4D"/>
<path d="M273.867 130.202C273.868 130.4 273.81 130.593 273.702 130.758C273.593 130.922 273.437 131.051 273.256 131.127C273.074 131.203 272.873 131.224 272.679 131.186C272.486 131.148 272.307 131.054 272.168 130.915C272.028 130.776 271.932 130.598 271.893 130.405C271.854 130.211 271.874 130.011 271.949 129.828C272.024 129.646 272.152 129.49 272.316 129.38C272.48 129.27 272.673 129.212 272.87 129.212C273.133 129.212 273.386 129.316 273.573 129.501C273.759 129.687 273.865 129.939 273.867 130.202V130.202Z" fill="#263238"/>
<path d="M266.71 129.742C266.71 129.939 266.652 130.132 266.542 130.296C266.432 130.46 266.276 130.588 266.094 130.663C265.911 130.738 265.711 130.758 265.517 130.719C265.324 130.68 265.146 130.584 265.007 130.444C264.868 130.304 264.774 130.126 264.736 129.933C264.698 129.739 264.719 129.538 264.795 129.356C264.871 129.174 265 129.019 265.164 128.91C265.329 128.802 265.522 128.744 265.72 128.745C265.85 128.745 265.98 128.771 266.1 128.821C266.221 128.871 266.33 128.945 266.422 129.037C266.514 129.13 266.587 129.24 266.637 129.361C266.686 129.482 266.711 129.611 266.71 129.742Z" fill="#263238"/>
<path d="M265.55 133.635L268.756 134.993L269.601 128.6L265.55 133.635Z" fill="#9A4A4D"/>
<path d="M282.62 136.823C282.612 136.93 282.583 137.034 282.534 137.13C282.486 137.226 282.419 137.312 282.338 137.382C282.256 137.452 282.162 137.505 282.06 137.539C281.958 137.572 281.85 137.585 281.743 137.577C281.636 137.569 281.531 137.54 281.435 137.492C281.339 137.443 281.254 137.377 281.184 137.295C281.114 137.214 281.06 137.119 281.027 137.017C280.993 136.915 280.98 136.807 280.988 136.7C281.004 136.484 281.106 136.283 281.27 136.141C281.435 136 281.649 135.929 281.865 135.946C282.082 135.962 282.283 136.063 282.424 136.228C282.566 136.392 282.636 136.606 282.62 136.823Z" fill="#EBEBEB"/>
<path d="M269.688 144.696C269.304 144.836 266.728 145.652 265.312 146.246C261.938 148.971 259.117 152.316 257.001 156.101C255.521 158.916 254.752 161.346 254.67 165.938C254.606 169.93 254.122 181.79 253.33 188.387C253.761 189.931 258.073 191.767 258.073 191.767C258.295 185.834 258.4 167.244 259.682 160.938C261.203 153.455 267.905 146.619 269.467 145.547L269.688 144.696Z" fill="#3362CC"/>
<path d="M279.794 144.236V145.459C276.087 155.099 276.816 159.516 277.288 165.857C278.413 181.009 280.202 194.098 280.202 194.098C280.202 194.098 290.785 194.209 294.556 189.11C294.556 189.11 291.164 181.452 289.893 173.718C289.142 169.132 291.28 159.732 290.476 153.094C290.15 150.32 289.101 147.552 287.02 146.899C285.301 146.357 283.809 145.92 283.809 145.92L279.794 144.236Z" fill="#3362CC"/>
<path d="M292.953 197.28C294.631 197.758 296.77 195.672 297.359 194.949C297.947 194.226 297.19 192.501 296.834 191.05C296.479 189.599 296.834 187.146 295.039 187.833C293.244 188.521 289.462 193.37 292.953 197.28Z" fill="#9A4A4D"/>
<path d="M287.358 147.266C292.79 148.397 293.32 148.234 295.884 153.391C298.874 159.394 303.105 169.196 304.171 171.457C305.238 173.718 306.269 175.414 303.396 178.94C300.838 182.081 293.279 191.126 292.154 192.42C291.164 193.585 292.277 196.942 295.686 196.453C295.686 196.453 293.093 198.749 291.665 198.492C290.435 198.277 287.329 196.383 285.551 192.665C284.433 190.334 285.371 188.463 287.073 185.84C289.106 182.711 294.142 174.336 294.142 174.336L286.653 159.376C286.653 159.376 283.389 151.404 287.358 147.266Z" fill="#B16668"/>
<path d="M287.032 146.899C285.715 148.21 283.623 153.129 286.537 160.239L293.874 174.36L290.605 179.605C290.605 179.605 292.936 182.641 294.9 184.028C295.434 184.43 296.046 184.717 296.698 184.868C297.349 185.02 298.025 185.033 298.682 184.908C298.682 184.908 302.884 180.246 304.37 178.2C305.856 176.154 306.118 175.566 304.224 170.974C302.394 166.544 296.578 153.059 295.331 150.996C294.084 148.933 292.481 147.552 287.032 146.899Z" fill="#3362CC"/>
<path opacity="0.55" d="M287.032 146.899C285.715 148.21 283.623 153.129 286.537 160.239L293.874 174.36L290.605 179.605C290.605 179.605 292.936 182.641 294.9 184.028C295.434 184.43 296.046 184.717 296.698 184.868C297.349 185.02 298.025 185.033 298.682 184.908C298.682 184.908 302.884 180.246 304.37 178.2C305.856 176.154 306.118 175.566 304.224 170.974C302.394 166.544 296.578 153.059 295.331 150.996C294.084 148.933 292.481 147.552 287.032 146.899Z" fill="white"/>
<path opacity="0.35" d="M295.395 180.088C294.845 179.666 294.329 179.203 293.85 178.701C293.38 178.216 292.949 177.694 292.563 177.139C292.498 177.046 292.423 176.912 292.364 176.813L292.114 177.209C292.16 177.273 292.203 177.339 292.242 177.407C292.632 177.958 293.06 178.48 293.524 178.969C293.997 179.468 294.51 179.928 295.057 180.345C295.627 180.819 296.26 181.212 296.939 181.51C297.126 181.58 297.137 181.324 297.021 181.236C296.461 180.828 295.896 180.49 295.395 180.088Z" fill="#3362CC"/>
<path d="M140.521 293.917C140.975 293.876 140.987 294.983 140.701 295.514C139.897 297.04 137.648 298.684 134.355 299.412C131.062 300.141 124.622 299.272 122.699 299.197C120.776 299.121 117.378 300.118 115.432 300.426C111.889 301.009 109.464 300.018 108.305 298.882C108.114 298.651 107.973 298.384 107.889 298.096C107.806 297.808 107.783 297.506 107.821 297.209C107.856 295.863 107.972 295.589 108.124 295.601L140.521 293.917Z" fill="#37474F"/>
<path d="M108.48 291.673C108.14 293.267 108.034 294.903 108.165 296.528C108.579 297.53 109.674 298.101 110.549 298.375C112.88 299.104 115.141 298.958 117.688 298.422C119.328 298.001 121.018 297.805 122.711 297.839C124.728 297.95 129.174 298.422 131.196 298.422C133.084 298.45 134.956 298.089 136.698 297.361C138.032 296.737 140.055 295.368 140.509 294.331C140.946 291.912 140.696 290.467 139.303 289.668C137.91 288.87 135.713 288.625 132.799 288.404C131.931 288.34 130.829 288.287 130.363 288.235C128.615 288.042 126.954 287.914 125.619 287.827C124.482 287.837 123.357 287.592 122.327 287.11C121.852 286.898 121.468 286.524 121.243 286.055C120.963 285.437 120.969 284.534 120.427 284.482C120.427 284.482 110.461 286.177 109.657 286.259C108.736 286.352 109.342 287.687 108.48 291.673Z" fill="#455A64"/>
<path d="M131.15 288.147C131.451 288.384 131.701 288.679 131.884 289.016C132.085 289.383 132.238 289.775 132.339 290.181C132.473 290.688 131.843 290.764 131.599 290.181C131.416 289.695 131.178 289.231 130.888 288.8C130.68 288.499 130.372 288.28 130.019 288.182L129.518 288.13C129.652 287.768 130.759 287.891 131.15 288.147Z" fill="#FAFAFA"/>
<path d="M126.651 287.623C126.818 287.599 126.989 287.613 127.151 287.662C127.313 287.711 127.463 287.795 127.589 287.908C127.916 288.186 128.16 288.549 128.294 288.957C128.468 289.447 128.603 289.95 128.696 290.461C128.731 290.787 127.962 290.776 127.88 290.42C127.799 290.065 127.624 289.418 127.484 289.051C127.397 288.823 127 287.967 126.47 287.885H126.231C126.231 287.768 126.377 287.693 126.482 287.669C126.536 287.648 126.593 287.633 126.651 287.623V287.623Z" fill="#FAFAFA"/>
<path d="M124.011 287.541C124.238 287.585 124.443 287.704 124.594 287.879C124.773 288.119 124.913 288.387 125.007 288.672C125.166 289.193 125.245 289.735 125.24 290.28C125.24 290.7 124.483 290.589 124.46 290.28C124.378 289.394 124.378 288.812 123.952 288.165C123.793 287.883 123.567 287.645 123.294 287.471C123.294 287.395 123.428 287.384 123.504 287.401C123.675 287.439 123.844 287.485 124.011 287.541V287.541Z" fill="#FAFAFA"/>
<path d="M108.538 275.524C108.538 275.524 109.4 284.691 109.616 286.807C109.686 287.483 110.968 287.757 111.626 288.042C112.449 288.349 113.215 288.79 113.893 289.348C115.566 291.009 116.807 291.399 117.839 288.485C117.872 288.344 117.936 288.212 118.024 288.098C118.113 287.984 118.225 287.889 118.353 287.821C118.481 287.754 118.622 287.714 118.766 287.705C118.911 287.696 119.055 287.717 119.191 287.768C119.753 287.961 120.346 288.044 120.939 288.013C121.027 287.955 120.974 287.821 120.939 287.733C120.679 287.41 120.493 287.034 120.392 286.632C120.292 286.229 120.279 285.81 120.356 285.402C120.642 281.649 120.799 277.89 121.015 274.131L108.538 275.524Z" fill="#824D4E"/>
<path d="M76.4385 268.799C77.604 266.905 77.9945 263.385 78.8454 256.846L89.621 262.4L85.0112 273.718C84.821 274.209 84.6747 274.716 84.5741 275.233C83.2628 277.092 76.4385 268.799 76.4385 268.799Z" fill="#824D4E"/>
<path d="M72.8601 272.849C72.8601 272.738 72.8135 271.841 72.8601 271.736C73.1107 270.775 73.7051 270.506 74.4685 269.988C75.2341 269.472 75.9363 268.867 76.5607 268.187C76.8171 267.831 76.8638 267.651 77.2601 267.488C77.9361 267.214 79.0084 267.19 80.3605 267.896C82.5575 269.061 83.2277 270.437 83.0995 271.94C83.0063 273.106 82.9072 274.609 83.9212 275.291C84.3408 275.577 85.0052 273.741 85.0052 273.741C85.6288 274.79 84.7546 276.235 84.2942 278.351C84.0307 279.521 84.0108 280.733 84.2359 281.911C84.4574 283.771 84.7138 283.759 85.6987 283.893C86.5496 284.004 88.9623 283.84 90.4251 284.866C92.4473 286.276 91.9053 288.153 91.9053 288.153C91.6431 288.87 89.446 292.332 81.4153 291.038C79.0842 290.665 74.1888 287.005 74.2646 286.661C74.3053 286.311 74.3053 285.957 74.2646 285.606C74.2646 284.79 74.2005 283.969 74.1655 283.147C74.1912 282.367 74.1444 281.587 74.0256 280.816C73.8794 280.179 73.7801 279.532 73.7284 278.881C73.5769 277.232 73.4195 275.582 73.268 273.933C73.2097 273.432 72.7727 273.31 72.8601 272.849Z" fill="#455A64"/>
<path d="M71.846 272.517C71.0534 273.281 71.5371 275.507 72.5977 278.176C73.0698 279.341 73.944 281.393 73.6875 283.561C73.4311 285.729 73.3845 286.749 73.944 287.768C74.8181 289.354 79.4862 291.387 82.2369 292.023C80.5726 289.692 79.6027 286.938 79.4396 284.079C79.1598 279.295 78.7985 276.212 76.6131 274.096C73.8449 271.41 71.846 272.517 71.846 272.517Z" fill="black"/>
<path d="M91.9055 288.13C91.9055 288.13 90.297 291.149 84.0846 291.044C81.6369 291.003 80.3315 289.814 80.2674 286.096C80.1974 281.614 79.8361 277.092 78.3908 274.871C76.9455 272.651 74.6319 271.567 72.8427 271.724C72.4237 271.853 72.068 272.133 71.8462 272.511C71.8462 272.511 73.6353 271.928 76.4268 274.26C78.4841 275.967 79.0377 279.534 79.0086 283.963C79.0086 285.869 78.8803 288.042 79.4398 289.476C79.6968 290.111 80.0989 290.678 80.614 291.13C81.129 291.583 81.7428 291.908 82.4062 292.081C85.7805 293.025 90.4019 291.463 91.5733 290.035C91.7696 289.764 91.9015 289.451 91.9591 289.121C92.0167 288.791 91.9983 288.452 91.9055 288.13V288.13Z" fill="#37474F"/>
<path d="M84.4281 283.054C84.6797 283.231 84.8579 283.494 84.9293 283.794C84.9555 284.176 84.8785 284.559 84.7062 284.901C84.534 285.244 84.2729 285.533 83.9503 285.74C83.5773 285.973 83.2509 285.892 83.8454 285.105C84.2276 284.489 84.4295 283.779 84.4281 283.054Z" fill="#FAFAFA"/>
<path d="M84.1077 280.734C84.1077 280.734 84.3059 280.862 84.3583 281.486C84.3583 281.818 83.863 283.164 83.1928 283.485C82.5226 283.806 82.8956 283.048 83.1928 282.681C83.6417 282.11 83.9546 281.444 84.1077 280.734V280.734Z" fill="#FAFAFA"/>
<path d="M84.3291 278.176C84.3291 278.176 84.5447 278.234 84.3291 279.091C84.0194 279.62 83.5413 280.03 82.9712 280.256C82.5516 280.303 82.3476 280.093 82.8663 279.72C83.2626 279.446 84.2533 278.59 84.3291 278.176Z" fill="#FAFAFA"/>
<path d="M88.3502 266.73C88.3502 266.73 90.3258 262.097 97.3599 246.368C99.4871 241.606 100.041 238.075 100.577 235.738C101.16 233.308 103.537 221.332 103.537 221.332L106.603 241.251C106.008 243.836 105.643 246.469 105.513 249.118C105.513 252.405 105.927 257.4 106.859 264.178C108.281 274.534 108.666 279.913 108.666 279.913C109.394 280.437 111.708 281.457 115.659 281.235C117.465 281.05 119.227 280.559 120.869 279.784C120.869 279.784 121.767 269.009 122.14 261.497C122.484 254.562 123.055 246.723 123.346 242.539C123.929 234.683 124.08 231.297 124.162 218.913C124.244 206.092 123.264 187.186 123.264 187.186L86.8349 186.347C86.8349 186.347 84.4397 191.697 85.174 202.758C84.8884 213.557 83.2858 234.112 83.2858 234.112C81.281 238.974 79.9837 244.098 79.4336 249.328C78.8975 254.433 78.0874 261.159 78.0874 261.159C81.9687 261.019 86.2114 263.525 88.3502 266.73Z" fill="#263238"/>
<path opacity="0.2" d="M103.567 221.436L101.556 207.164C101.556 207.164 96.8296 206.797 91.1533 202.071C91.1533 202.071 91.8993 206.302 99.9533 209.192L102.057 224.047L100.53 236.134C100.53 236.134 103.532 221.71 103.567 221.436Z" fill="black"/>
<path d="M131.983 173.142L133.248 173.357L134 174.412C133.889 174.649 133.831 174.908 133.831 175.17C133.831 175.431 133.889 175.69 134 175.927C134.39 176.702 134.956 176.458 134.956 176.458L135.538 175.053L135.771 173.101L134.18 171.696L132.619 171.387L131.983 173.142Z" fill="#B16668"/>
<path d="M136.576 172.5C136.742 173.051 136.762 173.635 136.634 174.196C136.495 174.703 136.316 175.198 136.098 175.677C135.935 176.02 135.293 176.02 134.897 175.158C134.571 174.447 135.031 172.862 135.031 172.862L136.576 172.5Z" fill="#765448"/>
<path d="M138.959 170.542C139.134 171.44 139.67 173.124 139.769 173.777C139.868 174.429 139.058 174.359 139.058 174.359L137.146 171.609L138.959 170.542Z" fill="#765448"/>
<path d="M131.791 163.869C132.648 163.52 132.63 163.508 133.807 164.132C135.406 165.025 136.931 166.042 138.371 167.174C139.163 167.885 138.953 169.266 138.953 170.455C138.953 171.644 139.169 172.926 138.953 173.258C138.924 173.306 138.886 173.347 138.841 173.379C138.795 173.411 138.744 173.434 138.689 173.446C138.635 173.458 138.579 173.459 138.524 173.449C138.469 173.438 138.417 173.417 138.371 173.386L131.791 163.869Z" fill="#824D4E"/>
<path d="M139.256 174.622L140.282 178.2C140.288 178.223 140.286 178.247 140.277 178.269C140.269 178.291 140.254 178.31 140.234 178.324C140.214 178.337 140.191 178.344 140.168 178.344C140.144 178.343 140.121 178.336 140.101 178.322L137.1 176.108L139.256 174.622Z" fill="#FFA8A7"/>
<path d="M140.119 178.328L137.1 176.108L138.266 175.327L138.528 175.706L140.2 178.217L140.119 178.328Z" fill="#F28F8F"/>
<path d="M140.101 178.322C140.121 178.336 140.144 178.344 140.167 178.344C140.191 178.344 140.214 178.337 140.234 178.324C140.254 178.31 140.269 178.291 140.277 178.269C140.286 178.247 140.288 178.223 140.282 178.2L140.078 177.501C140.024 177.608 139.941 177.697 139.837 177.758C139.734 177.819 139.615 177.849 139.495 177.844H139.431L140.101 178.322Z" fill="#263238"/>
<path d="M126.727 161.154L126.925 161.433L127.158 161.777L137.1 176.108C137.51 176.19 137.935 176.117 138.295 175.904C138.543 175.784 138.76 175.607 138.927 175.387C139.095 175.167 139.207 174.911 139.256 174.639L129.302 160.314L128.848 159.662C129.133 160.105 127 161.591 126.727 161.154Z" fill="#455A64"/>
<path d="M126.727 161.154L126.925 161.433L127.158 161.777L137.1 176.108C137.35 176.156 137.607 176.149 137.853 176.088C138.1 176.026 138.33 175.912 138.528 175.752L128.178 160.664C128.218 160.635 128.218 160.612 128.178 160.6C127.618 161.037 126.878 161.398 126.727 161.154Z" fill="#37474F"/>
<path d="M127.467 162.232L127.91 162.861C128.032 163.048 128.492 162.896 128.982 162.622C129.617 162.267 130.206 161.614 130.043 161.363L129.722 160.897L129.606 160.734C129.763 160.985 129.174 161.637 128.539 161.993C128.079 162.255 127.624 162.407 127.484 162.249L127.467 162.232Z" fill="#EBEBEB"/>
<path d="M127.555 162.389C127.84 162.826 129.973 161.323 129.693 160.891L129.303 160.256C129.583 160.693 127.45 162.191 127.164 161.754L127.555 162.389Z" fill="#37474F"/>
<path d="M126.727 161.154L127.158 161.777C127.432 162.208 129.489 160.781 129.32 160.314L128.877 159.685C129.133 160.105 127 161.591 126.727 161.154Z" fill="#EBEBEB"/>
<path d="M140.23 178.328C140.214 178.337 140.196 178.341 140.178 178.341C140.159 178.341 140.141 178.337 140.125 178.328C140.141 178.337 140.159 178.341 140.178 178.341C140.196 178.341 140.214 178.337 140.23 178.328V178.328Z" fill="#FFA8A7"/>
<path d="M125.806 159.86L126.721 161.154C126.838 161.34 127.304 161.189 127.782 160.921C128.417 160.565 129.017 159.912 128.86 159.662L127.939 158.362C127.572 157.832 126.412 158.45 125.923 159.114C125.83 159.212 125.77 159.336 125.749 159.469C125.728 159.602 125.748 159.738 125.806 159.86Z" fill="#F28F8F"/>
<path opacity="0.1" d="M126.692 159.953C126.987 159.857 127.256 159.694 127.478 159.477C127.699 159.259 127.867 158.994 127.968 158.7C127.988 158.629 127.991 158.555 127.976 158.483C127.96 158.41 127.928 158.343 127.881 158.286C127.455 157.902 126.389 158.485 125.929 159.114C125.839 159.211 125.779 159.332 125.757 159.463C125.735 159.593 125.753 159.727 125.806 159.848C125.946 160.046 126.278 160.099 126.692 159.953Z" fill="black"/>
<path d="M132.018 168.782C132.91 169.697 133.906 169.948 135.626 170.42C136.438 170.741 137.208 171.161 137.916 171.673C138.598 172.133 138.918 172.984 137.613 173.59C136.739 173.998 135.632 173.491 134.699 173.31C134.232 173.222 133.758 173.183 133.283 173.194C131.931 173.276 131.698 173.707 130.171 174.051C128.644 174.394 127.426 174.016 126.575 174.161C125.724 174.307 105.863 180.257 105.863 180.257L105.653 169.184C105.653 169.184 122.257 167.937 124.932 167.477C127.1 167.098 129.664 165.326 129.664 165.326L132.018 168.782Z" fill="#824D4E"/>
<path d="M126.604 166.976C126.057 167.209 125.487 167.383 124.902 167.494C122.227 167.955 105.624 169.202 105.624 169.202L105.834 180.275C105.834 180.275 125.695 174.33 126.546 174.179C126.74 174.159 126.935 174.159 127.129 174.179L126.604 166.976Z" fill="#765448"/>
<path d="M136.476 167.489C136.342 167.675 136.146 167.808 135.924 167.864C135.701 167.921 135.465 167.897 135.258 167.797C134.909 167.611 133.749 166.696 133.749 166.696L136.663 170.874C136.568 170.507 136.582 170.121 136.704 169.761C136.79 169.633 136.901 169.523 137.03 169.438C137.159 169.353 137.304 169.295 137.456 169.266C137.129 169.215 136.795 169.286 136.517 169.464C136.307 169.35 136.126 169.188 135.991 168.99C135.857 168.792 135.771 168.565 135.742 168.328C136.488 167.809 136.476 167.489 136.476 167.489Z" fill="#765448"/>
<path d="M86.5788 140.879C84.1661 145.489 84.3468 150.71 85.0461 157.197C85.6872 163.153 86.1359 166.847 86.6837 174.22C87.3423 182.617 86.1767 187.932 86.1767 187.932C86.1767 187.932 91.0662 194.722 101.568 197.397C120.019 202.094 123.912 196.016 123.912 196.016C123.912 196.016 123.749 189.605 123.772 184.622C123.772 180.129 123.69 174.808 123.539 170.385C123.183 160.227 123.067 151.788 121.889 148.169C121.021 146.165 120.112 145.372 117.892 144.364C116.062 143.53 112.571 141.84 109.966 140.832C105.177 139.1 100.302 137.614 95.3613 136.38C93.6157 136.168 91.8468 136.484 90.2818 137.286C88.7168 138.087 87.4273 139.339 86.5788 140.879V140.879Z" fill="#3362CC"/>
<path d="M111.306 136.38L109.977 140.832C106.842 140.931 99.7264 139.667 98.2461 138.239L99.6156 132.982L111.306 136.38Z" fill="#824D4E"/>
<path d="M121.761 123.71C121.761 123.71 122.968 125.021 123.352 128.879L121.021 130.045C120.794 127.323 120.561 124.567 121.761 123.71Z" fill="#765448"/>
<path d="M118.306 112.48C122.129 113.453 123.551 117.3 121.371 125.254C121.639 133.92 118.539 136.759 117.292 137.65C114.622 138.501 112.116 138.233 108.929 136.77C106.498 135.605 100.379 132.522 98.4386 128.028C96.1075 122.719 96.6145 115.382 100.502 113.337C105.921 110.429 116.283 111.967 118.306 112.48Z" fill="#824D4E"/>
<path d="M118.014 131.991C118.059 132.012 118.098 132.042 118.13 132.079C118.13 132.079 118.13 132.143 118.177 132.172C118.212 132.24 118.251 132.306 118.294 132.37C118.387 132.508 118.496 132.633 118.62 132.743C118.852 132.939 119.111 133.1 119.389 133.221C119.399 133.225 119.408 133.233 119.414 133.242C119.421 133.251 119.424 133.262 119.424 133.273C119.431 133.286 119.435 133.3 119.435 133.314C119.435 133.329 119.431 133.343 119.424 133.355C119.366 133.402 119.261 133.355 119.191 133.355C119.111 133.334 119.033 133.304 118.958 133.268C118.796 133.191 118.643 133.095 118.503 132.982C118.367 132.874 118.246 132.749 118.142 132.609C118.09 132.541 118.043 132.469 118.002 132.393L117.944 132.289C117.92 132.223 117.92 132.151 117.944 132.085C117.944 132.085 117.967 131.968 118.014 131.991Z" fill="#765448"/>
<path d="M117.262 137.644C116.557 138.14 112.909 138.594 110.852 137.971L111.329 136.374C113.24 137.066 115.236 137.494 117.262 137.644V137.644Z" fill="#765448"/>
<path d="M117.49 118.22C117.402 118.877 117.108 119.489 116.65 119.969C116.006 120.632 115.147 121.046 114.226 121.134C114.581 122.264 114.663 123.463 114.465 124.631C114.428 125.002 114.28 125.354 114.04 125.639C113.959 125.745 113.851 125.826 113.727 125.874C113.602 125.921 113.467 125.933 113.337 125.907C113.206 125.882 113.086 125.82 112.988 125.729C112.891 125.639 112.821 125.523 112.787 125.394C112.62 124.723 112.375 124.074 112.058 123.459C111.636 122.726 110.957 122.174 110.152 121.909C107.105 121.035 106.201 125.866 107.145 127.737C108.69 130.791 110.677 129.381 110.677 129.381C110.677 129.381 110.963 133.705 107.641 134.946C107.641 134.946 102.466 135.715 99.4818 133.442C97.1507 129.818 94.9827 125.744 94.534 122.475C93.5549 115.359 95.6996 111.32 98.8407 110.737C99.7091 108.226 102.413 107.06 104.902 106.658C108.282 106.075 111.178 107.672 114.43 108.243C116.097 108.538 117.808 108.45 119.436 107.987C120.159 107.783 121.039 107.538 121.569 108.051C121.771 108.265 121.903 108.535 121.948 108.826C122.054 109.339 122.039 109.87 121.902 110.377C121.765 110.883 121.512 111.35 121.161 111.74C122.123 111.291 123.58 111.833 124.32 112.661C125.375 113.826 125.357 115.032 124.629 116.554C124.174 117.457 121.581 120.243 117.49 118.22Z" fill="#263238"/>
<path d="M98.8929 111.419L96.2412 109.193C96.5432 108.843 96.9715 108.627 97.4324 108.592C97.8933 108.557 98.3492 108.706 98.7005 109.007C98.8741 109.151 99.017 109.328 99.1209 109.528C99.2247 109.729 99.2875 109.948 99.3054 110.172C99.3233 110.397 99.2961 110.623 99.2252 110.838C99.1544 111.052 99.0414 111.25 98.8929 111.419Z" fill="#263238"/>
<path d="M151.693 191.388C151.005 190.701 150.317 190.089 149.746 189.547C149.274 189.098 148.662 188.48 147.613 187.326C147.17 186.831 146.681 187.076 145.76 186.773C144.839 186.47 145.113 185.741 144.536 185.467C143.86 185.141 143.627 185.345 142.974 185.042C142.17 184.675 141.756 183.812 140.771 184.179C138.994 184.838 138.44 185.66 135.975 183.393C129.903 177.78 126.161 174.196 126.161 174.196C126.161 174.196 124.996 158.828 124.518 155.285C123.848 150.477 123.999 147.126 117.711 145.075C117.711 145.075 112.67 147.406 113.049 156.526C113.392 164.411 114.313 172.18 114.797 175.98C115.187 179.185 115.759 179.587 119.774 182.361C129.635 189.18 131.156 190.269 132.397 191.068C134.064 192.14 135.783 193.399 137.642 193.521C139.349 193.609 141.797 192.49 142.992 191.837C144.909 190.794 146.489 190.252 147.1 190.403C147.712 190.555 148.849 191.767 150.014 192.082C151.18 192.397 152.031 191.721 151.693 191.388Z" fill="#824D4E"/>
<path d="M117.903 144.364C120.817 145.687 121.983 146.38 123.51 148.869C124.518 150.512 124.675 152.295 125.112 156.655C125.479 160.466 125.986 167.727 125.986 167.727C125.986 167.727 125.334 169.476 121.097 170.857C118.65 171.696 115.988 171.665 113.561 170.77C113.561 170.77 112.728 163.164 112.443 160.017C112.052 155.751 111.732 147.552 117.903 144.364Z" fill="#8CB0FF"/>
<path d="M227.04 107.439L244.069 117.288C244.401 117.486 244.652 117.958 244.652 118.867V139.678C244.652 139.538 244.378 140.01 244.04 140.197L241.622 141.572C241.433 141.667 241.224 141.716 241.013 141.716C240.801 141.716 240.593 141.667 240.404 141.572L223.375 131.723C223.202 131.605 223.06 131.448 222.959 131.265C222.858 131.082 222.8 130.877 222.792 130.668V109.857C222.803 109.646 222.865 109.441 222.971 109.259C223.078 109.076 223.226 108.922 223.404 108.808L225.822 107.433C226.012 107.34 226.221 107.293 226.432 107.294C226.643 107.295 226.852 107.344 227.04 107.439V107.439Z" fill="#B3CAFF"/>
<path opacity="0.2" d="M240.427 141.566C240.616 141.66 240.825 141.709 241.036 141.709C241.247 141.709 241.455 141.66 241.645 141.566L244.063 140.191C244.401 140.005 244.675 139.532 244.675 139.672V118.867C244.73 118.468 244.663 118.062 244.483 117.702L240.852 119.788C240.969 119.974 241.033 120.19 241.033 119.864V140.669C241.033 141.572 240.782 141.776 240.427 141.566Z" fill="black"/>
<path opacity="0.3" d="M222.798 109.747C222.851 109.438 223.101 109.333 223.381 109.502L240.404 119.357C240.585 119.467 240.732 119.624 240.83 119.811L244.46 117.725C244.36 117.546 244.215 117.396 244.041 117.288L227.018 107.439C226.829 107.344 226.62 107.295 226.409 107.295C226.197 107.295 225.989 107.344 225.8 107.439L223.381 108.814C223.225 108.921 223.093 109.059 222.992 109.22C222.892 109.38 222.826 109.56 222.798 109.747V109.747Z" fill="white"/>
<path d="M246.342 133.775C246.721 133.547 249.635 131.91 249.728 131.851C249.796 131.806 249.854 131.746 249.897 131.676C249.94 131.606 249.968 131.528 249.979 131.446C249.99 131.365 249.984 131.282 249.961 131.203C249.938 131.124 249.898 131.051 249.844 130.989L244.693 125.056L241.033 127.154L246.441 132.924C246.493 132.985 246.533 133.056 246.556 133.133C246.58 133.21 246.587 133.291 246.578 133.371C246.568 133.451 246.543 133.528 246.502 133.597C246.461 133.667 246.407 133.727 246.342 133.775V133.775Z" fill="#B3CAFF"/>
<path opacity="0.3" d="M246.342 133.775C246.721 133.547 249.635 131.91 249.728 131.851C249.796 131.806 249.854 131.746 249.897 131.676C249.94 131.606 249.968 131.528 249.979 131.446C249.99 131.365 249.984 131.282 249.961 131.203C249.938 131.124 249.898 131.051 249.844 130.989L244.693 125.056L241.033 127.154L246.441 132.924C246.493 132.985 246.533 133.056 246.556 133.133C246.58 133.21 246.587 133.291 246.578 133.371C246.568 133.451 246.543 133.528 246.502 133.597C246.461 133.667 246.407 133.727 246.342 133.775V133.775Z" fill="white"/>
<path d="M223.398 109.508L240.427 119.357C240.599 119.474 240.742 119.629 240.843 119.812C240.945 119.994 241.002 120.197 241.01 120.406V127.154L246.441 132.924C246.515 132.998 246.566 133.092 246.588 133.195C246.61 133.297 246.602 133.404 246.565 133.502C246.528 133.6 246.464 133.686 246.38 133.749C246.296 133.811 246.196 133.849 246.091 133.856L241.027 133.483V141.217C241.027 141.601 240.759 141.759 240.444 141.566L223.415 131.717C223.243 131.599 223.101 131.442 222.999 131.259C222.898 131.076 222.841 130.872 222.833 130.663V109.857C222.792 109.467 223.066 109.31 223.398 109.508Z" fill="#B3CAFF"/>
<path d="M229.954 131.438H229.779C229.563 131.408 229.358 131.324 229.182 131.195C229.006 131.066 228.865 130.895 228.771 130.698L226.673 126.28C226.526 125.966 226.509 125.607 226.626 125.281C226.744 124.954 226.986 124.688 227.3 124.541C227.613 124.393 227.973 124.376 228.299 124.493C228.625 124.611 228.892 124.853 229.039 125.167L230.281 127.737L236.277 120.744C236.509 120.478 236.837 120.315 237.189 120.291C237.541 120.267 237.888 120.384 238.154 120.615C238.42 120.847 238.583 121.175 238.607 121.527C238.631 121.879 238.514 122.226 238.282 122.492L230.968 131.006C230.841 131.148 230.684 131.26 230.509 131.334C230.334 131.409 230.144 131.444 229.954 131.438V131.438Z" fill="#FAFAFA"/>
<circle cx="325.5" cy="280.5" r="9.5" fill="url(#paint1_radial_410_131)"/>
<circle cx="211.5" cy="84.5" r="9.5" fill="url(#paint2_radial_410_131)"/>
<circle cx="26.5" cy="9.5" r="9.5" fill="url(#paint3_radial_410_131)"/>
<circle cx="46.5" cy="272.5" r="9.5" fill="url(#paint4_radial_410_131)"/>

</svg>
