<svg width="25" height="26" viewBox="0 0 25 26" fill="none" xmlns="http://www.w3.org/2000/svg">
<path d="M0 12.0915C0 18.785 5.398 24.183 12.0915 24.183C18.785 24.183 24.183 18.785 24.183 12.0915C24.183 5.398 18.785 0 12.0915 0C5.398 0 0 5.398 0 12.0915Z" fill="#FFDD67"/>
<path d="M4.40367 4.31815C5.87193 3.45447 7.64247 3.32491 9.28347 3.88631C9.49939 3.97267 9.84486 3.15218 9.58575 3.06581C7.72884 2.37487 5.69919 2.5476 3.97183 3.54083C3.71273 3.67039 4.18775 4.4477 4.40367 4.31815Z" fill="#917524"/>
<path d="M14.767 5.61307C16.2352 4.74939 18.0058 4.61984 19.6467 5.18123C19.8627 5.2676 20.2081 4.4471 19.949 4.36073C18.0921 3.66979 16.0625 3.84252 14.3351 4.83576C14.076 4.96531 14.551 5.69944 14.767 5.61307Z" fill="#917524"/>
<path d="M8.67992 14.1213C10.8823 13.5599 13.3006 13.9485 15.1575 15.244C15.6325 15.5463 14.7689 16.7555 14.2938 16.41C13.0415 15.5895 11.0982 14.9849 9.06857 15.5031C8.55037 15.6327 8.11853 14.294 8.67992 14.1213Z" fill="#664E27"/>
<path d="M16.7544 11.7024C14.9839 11.7024 13.5156 10.2341 13.5156 8.46359C13.5156 7.72946 13.7747 7.03851 14.1634 6.52031C14.8975 6.30439 15.718 6.21802 16.5817 6.21802C17.6181 6.21802 18.6113 6.39075 19.475 6.69304C19.8205 7.21125 20.0364 7.81583 20.0364 8.50677C19.9932 10.2773 18.5682 11.7024 16.7544 11.7024Z" fill="white"/>
<path d="M17.1865 6.21802C17.3592 6.47712 17.4888 6.77941 17.4888 7.12488C17.4888 8.03175 16.7547 8.76587 15.8478 8.76587C14.9409 8.76587 14.25 8.03175 14.25 7.16807C14.25 6.90896 14.2932 6.69304 14.4227 6.47712C15.0705 6.30439 15.8046 6.21802 16.5819 6.21802H17.1865Z" fill="#664E27"/>
<path d="M7.42825 11.7024C5.65771 11.7024 4.18945 10.2341 4.18945 8.46359C4.18945 7.72946 4.44856 7.03851 4.83721 6.52031C5.57134 6.30439 6.39184 6.21802 7.25552 6.21802C8.29193 6.21802 9.28516 6.39075 10.1488 6.69304C10.4943 7.21125 10.7102 7.81583 10.7102 8.50677C10.6671 10.2773 9.1988 11.7024 7.42825 11.7024Z" fill="white"/>
<path d="M7.8586 6.21872C8.03134 6.47783 8.16089 6.78011 8.16089 7.12559C8.16089 8.03245 7.42676 8.76658 6.5199 8.76658C5.61303 8.76658 4.87891 8.03245 4.87891 7.12559C4.87891 6.86648 4.92209 6.65056 5.05164 6.43464C5.6994 6.26191 6.43353 6.17554 7.21084 6.17554C7.46995 6.21872 7.64268 6.21872 7.8586 6.21872Z" fill="#664E27"/>
<path d="M12.3503 18.1374C10.5365 18.5693 5.91586 19.1306 5.09536 18.267C4.70671 17.8783 4.79307 17.3169 4.92263 16.3237C5.05218 15.3305 4.10213 14.294 3.41119 14.2077C2.59069 14.1213 2.11567 14.7259 2.41795 15.5896C3.02253 17.5328 1.81338 18.1374 1.72701 19.5625C1.68383 20.383 1.42472 21.7649 2.67706 23.5354C4.10213 25.5219 6.56362 25.5651 7.4273 25.5219C8.42053 25.4787 8.85237 25.4355 9.06829 25.0037C9.32739 24.4855 9.19784 24.3559 9.32739 24.1832C9.54331 23.7945 9.67287 23.8377 9.80242 23.3627C9.93197 22.8876 9.5865 22.5854 9.67286 22.3694C9.8456 21.8512 10.2774 21.9376 9.8456 20.7285C11.3139 20.5125 12.2639 20.2966 13.1276 19.7784C14.7254 18.9147 13.3435 17.9215 12.3503 18.1374Z" fill="white"/>
<path d="M5.83066 25.7809C4.3624 25.5218 3.15325 24.7876 2.37594 23.708C1.16679 22.0239 1.25315 20.6851 1.33952 19.7783V19.476C1.38271 18.8714 1.55544 18.3964 1.77136 17.9214C2.07365 17.2304 2.33275 16.669 1.98728 15.6326C1.81455 15.1144 1.85773 14.5962 2.2032 14.2507C2.50549 13.9484 2.93733 13.7757 3.45554 13.8621H3.49872C4.40559 14.0348 5.442 15.244 5.31245 16.4099C5.1829 17.36 5.13971 17.7918 5.39882 18.0509C5.442 18.0941 5.57155 18.2237 6.04658 18.2668C7.68757 18.5691 10.9264 18.0941 12.2651 17.7918C12.481 17.7486 12.7401 17.7486 12.9992 17.7918C13.647 17.9214 14.122 18.31 14.2515 18.7851C14.2947 19.0873 14.2947 19.6487 13.3879 20.1669C12.5242 20.642 11.6173 20.9011 10.365 21.0738C10.7104 21.9375 9.88995 22.2398 10.0627 22.5852C10.2786 23.0603 10.2354 23.4489 9.7604 23.9239C9.41493 24.2262 9.84677 24.6149 9.5013 25.2195C9.11264 25.8672 8.46488 25.9104 7.51483 25.9536C6.86707 25.9104 6.34887 25.9104 5.83066 25.7809ZM2.54867 15.2008C2.85096 16.6259 2.93733 17.1441 2.41912 18.31C1.64181 19.8647 1.33952 24.2694 5.96021 25.0899C8.76717 25.6081 9.19901 24.9172 9.06946 24.1831C8.98309 23.708 9.37175 23.5353 9.5013 23.3626C9.80359 22.8443 9.37175 22.5852 9.37175 22.3693C9.37175 21.9807 9.7604 21.9807 9.84677 21.592C9.97632 20.9011 9.11264 20.642 9.84677 20.5988C11.2718 20.5124 12.2219 20.2533 13.0424 19.6919C13.8197 19.1737 13.2583 18.0941 12.2219 18.31C9.80358 18.8282 6.17613 19.4328 4.96698 18.31C4.40559 17.7918 4.83743 17.1872 4.79424 16.0213C4.70787 14.4667 2.24639 13.8621 2.54867 15.2008Z" fill="#CCCFD4"/>
</svg>
