<svg width="74" height="74" viewBox="0 0 74 74" fill="none" xmlns="http://www.w3.org/2000/svg">
<path d="M18.3304 48.3206H12.9639L6.9375 58.235H65.7397L59.7134 48.3206H57.3423" stroke="#22272E" stroke-width="1.5" stroke-linecap="round" stroke-linejoin="round"/>
<path d="M43.3066 31.0508L25.0641 25.6365L16.625 54.0664H55.6369L60.9171 36.2786L48.7903 32.6788" stroke="#22272E" stroke-width="1.5" stroke-linecap="round" stroke-linejoin="round"/>
<path d="M50.1383 23.4533C48.9836 25.7627 44.4495 29.5938 44.0548 30.1842C43.6602 30.7747 40.3394 33.6761 42.5625 35.5353C44.7856 37.3946 48.2806 32.916 49.4075 32.156C50.5345 31.396 56.0521 29.9036 57.2361 28.9185C58.4201 27.9334 60.0512 26.8897 60.4736 25.8475L58.1642 18.5246C58.1642 18.5246 48.2235 18.355 46.8992 18.5246C45.5749 18.6942 40.0188 26.1312 40.8451 28.3527C41.8318 31.0013 45.2481 28.9802 45.2481 28.9802" stroke="#22272E" stroke-width="1.5" stroke-linecap="round" stroke-linejoin="round"/>
<path d="M58.1641 18.5263L63.3749 15.7651L67.0626 25.6364L60.4735 25.8476" stroke="#22272E" stroke-width="1.5" stroke-linecap="round" stroke-linejoin="round"/>
</svg>
