<svg width="32" height="32" viewBox="0 0 32 32" fill="none" xmlns="http://www.w3.org/2000/svg">
<path d="M15.5549 28.9591C23.5517 28.9591 30.0345 22.4764 30.0345 14.4796C30.0345 6.48272 23.5517 0 15.5549 0C7.55807 0 1.07536 6.48272 1.07536 14.4796C1.07536 22.4764 7.55807 28.9591 15.5549 28.9591Z" fill="#FFDD67"/>
<path opacity="0.8" d="M29.005 11.2514C29.4559 9.56864 27.9428 7.70112 25.6255 7.08025C23.3082 6.45937 21.0642 7.32023 20.6133 9.00305C20.1624 10.6859 21.6754 12.5534 23.9928 13.1743C26.3101 13.7951 28.5541 12.9343 29.005 11.2514Z" fill="#FF717F"/>
<path opacity="0.8" d="M7.17672 16.1229C9.14202 14.747 9.92526 12.4747 8.92611 11.0475C7.92697 9.62031 5.52381 9.57871 3.5585 10.9546C1.5932 12.3304 0.809965 14.6028 1.80911 16.03C2.80825 17.4571 5.21141 17.4987 7.17672 16.1229Z" fill="#FF717F"/>
<path d="M12.8142 8.37739C11.5214 6.15374 10.0735 5.22291 8.78064 5.48148C7.48782 5.68833 6.40186 7.08457 5.98816 9.61849C5.93644 9.87706 6.45357 10.239 6.66042 9.92877C7.33269 8.89452 8.26351 8.37739 9.29777 8.22225C10.332 8.0154 11.3663 8.22225 12.3488 8.94623C12.6074 9.10137 12.9694 8.58424 12.8142 8.37739Z" fill="#664E27"/>
<path d="M22.898 6.56747C21.6052 4.39554 20.1573 3.413 18.8645 3.67156C17.5716 3.87841 16.4857 5.32637 16.072 7.80858C16.0203 8.06714 16.5374 8.42913 16.7442 8.11885C17.4165 7.0846 18.3473 6.56747 19.3816 6.41233C20.4158 6.20548 21.4501 6.41233 22.4326 7.13631C22.6395 7.29145 23.0015 6.82604 22.898 6.56747Z" fill="#664E27"/>
<path d="M21.1919 12.6696C17.934 15.9275 13.797 16.6514 9.60825 14.6864C9.09112 14.4278 8.78084 15.0483 9.19455 15.5138C10.6425 17.1686 13.2281 18.4097 16.124 17.8925C19.02 17.3754 21.0367 15.3069 21.8124 13.2384C22.071 12.773 21.6056 12.3076 21.1919 12.6696Z" fill="#664E27"/>
<path d="M13.0727 23.1672C13.0727 23.1672 14.0036 22.857 13.6416 21.6159C13.2796 20.323 10.0734 21.6159 8.47031 20.9953C8.47031 20.9953 9.76313 20.5816 9.34943 19.4956C8.93573 18.5131 5.41927 18.1511 1.95452 20.8402C-1.51023 23.5292 0.713412 29.7348 5.00557 30.5104C8.0049 31.0276 12.5556 30.9759 13.1245 29.683C13.5899 28.6488 12.1419 28.2868 12.1419 28.2868C12.1419 28.2868 13.9519 28.2868 13.9519 26.8906C13.9519 26.0632 13.2796 26.0632 13.2796 26.0632C13.2796 26.0632 14.7793 25.8563 14.7793 24.4601C14.831 23.2707 13.0727 23.1672 13.0727 23.1672Z" fill="white"/>
<path d="M13.6933 23.219C14.831 22.4433 13.8484 20.5817 12.4522 20.7885C11.2628 20.9954 9.19428 20.9954 9.19428 20.9954C9.19428 20.9954 9.86655 20.7368 9.71141 19.8577C9.55627 18.9786 8.31517 17.6857 3.35075 19.7025C1.48909 20.4782 0.299702 22.0296 0.0928509 23.943C-0.114 26.0115 0.816828 28.442 2.3165 29.528C3.9713 30.7691 7.84975 31.493 11.5731 30.7691C14.0553 30.3036 13.7967 28.7005 12.7625 28.442C14.469 28.1317 14.6241 26.6838 13.7967 26.2701C15.7101 25.6495 15.193 23.2707 13.6933 23.219ZM12.3488 25.8563C11.3662 25.9598 8.72887 26.1666 8.72887 26.1666C8.72887 26.1666 10.5388 26.5286 12.4522 26.2183C14.1587 25.9598 14.0553 27.6663 11.6765 27.9766C10.5388 28.1317 8.72887 28.1834 8.72887 28.1834C8.72887 28.1834 10.3837 28.442 11.2628 28.3386C13.5381 28.0283 13.2796 29.7348 11.1594 30.0451C7.38434 30.5622 4.33329 30.0451 2.83362 28.9591C0.713403 27.4077 -0.527701 22.2365 3.60931 20.3231C5.47097 19.444 8.52202 18.6683 8.98743 19.7025C9.60799 21.2022 6.8155 21.3573 6.8155 21.3573C6.8155 21.3573 9.09086 21.6676 12.3488 21.3056C13.2279 21.2022 13.9001 22.2882 12.8142 22.9087C11.8833 23.4776 8.72887 23.6844 8.72887 23.6844C8.72887 23.6844 10.4354 23.7361 12.8142 23.5293C14.7275 23.3741 14.8827 25.5461 12.3488 25.8563Z" fill="#CCCFD4"/>
<path d="M18.0371 23.1672C18.0371 23.1672 17.1063 22.857 17.4683 21.6159C17.8303 20.323 21.0365 21.6159 22.6396 20.9953C22.6396 20.9953 21.3467 20.5816 21.7604 19.4956C22.1741 18.5131 25.6906 18.1511 29.1554 20.8402C32.6201 23.5292 30.3447 29.7348 26.1043 30.4587C23.105 30.9759 18.5543 30.9241 17.9854 29.6313C17.52 28.5971 18.968 28.2351 18.968 28.2351C18.968 28.2351 17.158 28.2351 17.158 26.8388C17.158 26.0114 17.8303 26.0114 17.8303 26.0114C17.8303 26.0114 16.3306 25.8046 16.3306 24.4083C16.2789 23.2707 18.0371 23.1672 18.0371 23.1672Z" fill="white"/>
<path d="M17.3133 26.2183C16.5376 26.632 16.6927 28.08 18.3475 28.3902C17.3133 28.6488 17.0547 30.2519 19.5369 30.7173C23.3119 31.4413 27.1387 30.769 28.7935 29.4762C30.2414 28.3902 31.224 25.9597 31.0171 23.8912C30.8103 21.9779 29.6209 20.4265 27.7592 19.6508C22.7431 17.634 21.5537 18.8751 21.3986 19.8059C21.2434 20.685 21.9157 20.9436 21.9157 20.9436C21.9157 20.9436 19.8472 20.9436 18.6578 20.7368C17.2616 20.4782 16.279 22.3916 17.4167 23.1672C15.917 23.2707 15.3999 25.6495 17.3133 26.2183ZM18.2958 23.5292C20.6746 23.7361 22.3811 23.6844 22.3811 23.6844C22.3811 23.6844 19.2266 23.4775 18.2958 22.9087C17.2098 22.2881 17.8821 21.2022 18.7612 21.3056C22.0708 21.7193 24.2945 21.3573 24.2945 21.3573C24.2945 21.3573 21.502 21.1505 22.1225 19.7025C22.588 18.6682 25.639 19.4439 27.5007 20.323C31.6377 22.2881 30.3449 27.4077 28.2764 28.9591C26.8284 30.045 23.7256 30.6139 19.9506 30.045C17.7787 29.7348 17.5201 28.0282 19.8472 28.3385C20.7263 28.4419 22.3811 28.1834 22.3811 28.1834C22.3811 28.1834 20.5712 28.1317 19.4335 27.9765C17.0547 27.6663 16.9513 25.9597 18.6578 26.2183C20.5195 26.4769 22.3811 26.1666 22.3811 26.1666C22.3811 26.1666 19.7438 26.0114 18.7612 25.8563C16.2273 25.546 16.3824 23.3741 18.2958 23.5292Z" fill="#CCCFD4"/>
</svg>
